<svg xmlns="http://www.w3.org/2000/svg" width="192" height="192" viewBox="0 0 144 144"><defs><clipPath id="a"><path d="M5 5h134v134H5Zm0 0"/></clipPath><clipPath id="b"><path d="M4.043 15.293v113.414c0 6.211 5.039 11.25 11.25 11.25h113.414c6.211 0 11.25-5.039 11.25-11.25V15.293c0-6.211-5.039-11.25-11.25-11.25H15.293c-6.211 0-11.25 5.039-11.25 11.25m0 0"/></clipPath><clipPath id="c"><path d="M4.043 4.043h135.75v135.75H4.043Zm0 0"/></clipPath><clipPath id="d"><path d="M4.043 15.293v113.414c0 6.211 5.039 11.25 11.25 11.25h113.414c6.211 0 11.25-5.039 11.25-11.25V15.293c0-6.211-5.039-11.25-11.25-11.25H15.293c-6.211 0-11.25 5.039-11.25 11.25m0 0"/></clipPath><clipPath id="e"><path d="M8 11h128.137v122.184H8Zm0 0"/></clipPath></defs><path fill="#fff" d="M-14.4-14.4h172.8v172.8H-14.4z"/><path fill="#fff" d="M-14.4-14.4h172.8v172.8H-14.4z"/><g clip-path="url(#a)"><g clip-path="url(#b)"><path fill="#001b3d" d="M138.297 73.156c-.723 1.192-1.957 1.895-3.172 2.574.516.743.496 1.743.266 2.618s-.645 1.691-.88 2.566-.171 2.035.337 2.781c-.7.028-1.286.59-1.57 1.23-.286.645-.329 1.356-.387 2.055-.063.7-.157 1.418-.52 2.016l.016.004c1.004.398 2.047.824 2.758 1.637.207.242.382.511.492.804.246.676.144 1.442-.133 2.102-.277.668-.719 1.246-1.149 1.824.563.559 1.485 1.188 1.743 1.945.16.481.175.997.246 1.5.25 1.782 1.195 3.458 1.136 5.254v.004c-.003.184-.14.34-.296.434-.157.094-.336.144-.496.226-.56.286-.856.922-.973 1.543-.117.618-.098 1.258-.23 1.872-.266 1.253-1.227 2.273-2.063 3.25.457.57.918 1.148 1.176 1.828.261.68.289 1.488-.098 2.105-.473.754-1.61 1.113-2.473 1.34.637.617 1.309 1.297 1.438 2.172.086.61-.102 1.226-.024 1.836.067.523.332 1.008.676 1.41.34.402.758.742 1.168 1.074-.746 1.117-.668 2.715-.32 4.008.351 1.297.969 2.508 1.312 3.805a9.45 9.45 0 0 1-.078 5.074c-2.226.531-4.808.535-6.976-.207-.996-.34-1.95-.809-2.977-1.031-1.031-.223-2.27-.188-3.105.445a3.47 3.47 0 0 0-1.657-1.406c-.793-.32-1.671-.332-2.515-.465-.848-.137-1.785-.5-2.262-1.211a5.8 5.8 0 0 1-1.21 2.43c-.212.246-.466.492-.79.539-.242.035-.484-.047-.71-.137-.864-.34-1.72-.856-2.477-1.39-.45-.024-.856.269-1.168.593-.313.324-.582.703-.961.941-.973.614-2.297.137-3.364.555-.879.34-1.625 1.168-2.105 1.98-.309-.261-.719-.351-1.121-.386-.403-.031-.809-.02-1.203-.11-.59-.128-1.106-.48-1.68-.664-.816-.261-1.711-.183-2.52-.449-.921-.3-1.64-1.015-2.328-1.703-.851.64-1.246.781-2.238 1.176-.398.156-.828.297-1.246.195-.344-.086-.629-.328-.883-.578-.738-.734-1.336-1.684-1.75-2.644-1.082.558-2.426.144-3.586.511-.812.262-1.535.95-1.816 1.754-.586-.558-1.524-.562-2.297-.32-.774.238-1.473.68-2.246.918a4.6 4.6 0 0 1-3.215-.192l.004-.214a5.25 5.25 0 0 1-2.754 3.347c-.379.188-.797.324-1.211.262-.348-.059-.66-.25-.945-.457a9.5 9.5 0 0 1-2.614-2.816c-1.187.203-2.402.406-3.511-.075-.567-.242-1.059-.652-1.637-.867-.906-.336-1.996-.117-2.71.535-.145-.695-.743-1.273-1.388-1.562-.648-.29-1.367-.367-2.074-.442-.703-.074-1.422-.156-2.066-.453-.114 1.031-.528 1.824-1.227 2.594-.281.312-.62.598-1.035.66-.266.043-.54-.016-.8-.086a8.1 8.1 0 0 1-2.638-1.258c-1.289.442-2.058 1.793-3.39 2.094-.625.137-1.297.012-1.922.152-.492.11-.934.368-1.418.512-.852.25-1.82.133-2.582.59-.402-.914-1.383-1.656-2.34-1.93-.562-.164-1.16-.175-1.734-.297-1.098-.234-2.297-1.078-2.961-1.98-.492.457-.582.543-1.164.879-.582.34-1.266.539-1.926.441-.602-.09-1.156-.437-1.543-.906-.39-.469-.707-1.25-.785-1.855-.508.808-1.438 1.308-2.387 1.406-.652.07-1.312-.035-1.953.082-.898.172-1.848.937-2.223 1.766-.793-.586-1.859-.66-2.84-.524-1.574.215-3.039.902-4.57 1.313-1.77.472-4.242.484-5.636-.051a9.4 9.4 0 0 1-.083-5.074c.348-1.297.965-2.508 1.313-3.805.352-1.297.43-2.89-.32-4.008.414-.332.828-.668 1.168-1.074.343-.406.609-.887.675-1.414.082-.606-.109-1.227-.02-1.836.126-.875.798-1.555 1.434-2.168-.863-.223-2-.586-2.472-1.344-.387-.613-.356-1.422-.098-2.101.258-.68.723-1.262 1.176-1.829-.836-.976-1.797-1.992-2.063-3.25-.132-.617-.109-1.253-.23-1.875-.117-.617-.414-1.253-.973-1.539-.16-.082-.34-.136-.496-.23s-.293-.246-.297-.43v-.004c-.062-1.797.883-3.472 1.137-5.254.07-.504.086-1.023.246-1.504.258-.753 1.176-1.378 1.742-1.945-.433-.574-.87-1.156-1.148-1.82s-.383-1.43-.129-2.102c.105-.297.285-.566.492-.804.703-.817 1.754-1.243 2.754-1.637l.016-.004c-.364-.602-.453-1.32-.516-2.016-.062-.699-.105-1.418-.387-2.054-.285-.64-.87-1.203-1.57-1.235.504-.75.566-1.902.332-2.777-.23-.875-.648-1.691-.879-2.57-.226-.875-.246-1.871.266-2.618-1.215-.68-2.45-1.378-3.172-2.57-.274-.445-.461-.98-.367-1.496.07-.39.297-.734.539-1.05q.598-.776 1.367-1.387c.344-.27.71-.524.98-.864s.434-.808.286-1.218c-.079-.688-.055-1.516.164-2.176.242-.742.785-1.356 1.008-2.102.257-.855.058-1.86-.524-2.527.406-.176.832-.36 1.125-.692.262-.3.395-.691.496-1.078.285-1.082.383-2.207.48-3.316.012-.11.02-.23-.038-.324-.059-.094-.418-.188-.489-.102-1.23-.297-2.242-1.367-2.465-2.617-.226-1.25.352-2.602 1.407-3.309-.918-.578-1.567-1.593-1.895-2.629-.332-1.035-.437-2.128-.601-3.203s-.407-2.164-.965-3.097c.875-.657 1.816-1.29 2.105-2.301.215-.734.168-1.527.344-2.277A3.95 3.95 0 0 1 10.5 32.91c-.45-.57-.895-1.312-1.117-2-.227-.691-.23-1.484.144-2.11.473-.792 1.528-1.195 2.43-1.405h.04c-.45-.332-.43-.31-.755-.758-.39-.551-.558-1.227-.66-1.899-.102-.668-.148-1.347-.336-1.996.016-.46-.23-1.012-.617-1.262-.258-.164-.59-.27-.715-.546a.63.63 0 0 1 .059-.563c.101-.164.285-.316.46-.414-.058-1.852-.812-3.602-1.288-5.39-.59-2.2-.77-4.5-.532-6.762 1.403-.535 4.078-.407 5.844.07 1.535.41 3 1.094 4.574 1.313.977.136 2.043.062 2.84-.524.375.832 1.324 1.598 2.223 1.766.64.117 1.3.015 1.953.082.953.097 1.879.597 2.387 1.406.082-.605.398-1.383.785-1.855.39-.47.941-.81 1.543-.907.664-.101 1.343.102 1.925.442.583.336.672.422 1.165.879.668-.903 1.863-1.747 2.96-1.98.575-.122 1.172-.134 1.735-.298.96-.273 1.937-1.011 2.34-1.93.765.454 1.73.336 2.582.59.48.145.926.403 1.418.512.629.137 1.293.016 1.922.152 1.332.297 2.097 1.653 3.39 2.094a8 8 0 0 1 2.637-1.258c.262-.074.535-.129.8-.086.415.063.759.348 1.036.66.695.77 1.113 1.563 1.223 2.594.648-.297 1.367-.379 2.07-.453.707-.074 1.426-.156 2.074-.445s1.242-.867 1.387-1.563a2.7 2.7 0 0 0 2.71.54c.583-.215 1.071-.626 1.637-.868 1.11-.476 2.32-.273 3.512-.074a9.6 9.6 0 0 1 2.61-2.82c.289-.203.597-.395.949-.453.414-.063.836.074 1.21.257A5.27 5.27 0 0 1 75.81 9l-.004-.219a4.65 4.65 0 0 1 3.215-.191c.773.242 1.472.68 2.246.922.773.242 1.703.234 2.293-.32.28.8 1.004 1.492 1.82 1.753 1.16.367 2.504-.047 3.586.508.414-.96 1.008-1.902 1.75-2.64.25-.254.539-.493.883-.579.418-.101.847.036 1.246.196.988.394 1.386.535 2.238 1.175.684-.687 1.402-1.398 2.324-1.703.813-.265 1.711-.187 2.52-.449.574-.183 1.094-.535 1.683-.668.395-.086.801-.07 1.204-.105s.812-.13 1.12-.387c.481.809 1.22 1.644 2.102 1.98 1.074.415 2.399-.062 3.367.555.383.238.649.617.961.942.313.32.719.613 1.168.593.758-.531 1.614-1.05 2.473-1.39.23-.09.473-.172.715-.141.324.047.578.29.789.543.59.7 1.008 1.54 1.21 2.43.477-.711 1.415-1.075 2.259-1.211.847-.133 1.722-.145 2.515-.465a3.47 3.47 0 0 0 1.656-1.406c.84.636 2.079.672 3.11.445 1.027-.223 1.98-.695 2.976-1.031 2.168-.742 4.95-.864 7.18-.332a18.5 18.5 0 0 1-.527 6.758c-.48 1.792-1.239 3.539-1.29 5.394.173.09.352.242.458.414.105.168.14.383.062.559-.125.28-.46.383-.715.547-.386.253-.636.8-.62 1.261-.184.653-.227 1.332-.333 2-.105.668-.27 1.344-.664 1.895-.32.453-.305.43-.75.758h.04c.898.21 1.948.617 2.429 1.41.371.62.371 1.414.144 2.105-.226.692-.668 1.43-1.117 2.004a3.95 3.95 0 0 1 1.832 2.485c.172.746.13 1.535.34 2.277.293 1.004 1.234 1.644 2.11 2.3-.567.93-.801 2.02-.965 3.094-.168 1.075-.27 2.168-.602 3.204-.332 1.039-.973 2.05-1.898 2.628 1.058.707 1.632 2.063 1.41 3.313-.223 1.246-1.235 2.32-2.469 2.617-.066-.086-.426.004-.484.102-.055.093-.047.207-.04.32.098 1.117.2 2.234.481 3.316.102.387.23.778.496 1.079.293.335.715.52 1.125.69-.586.669-.781 1.677-.523 2.528.219.75.765 1.364 1.008 2.102.218.66.242 1.484.16 2.176-.145.41.015.879.289 1.222.27.34.637.59.98.864.504.406.965.87 1.367 1.382.243.317.47.664.54 1.055.074.512-.114 1.043-.391 1.492m0 0"/></g></g><g clip-path="url(#c)"><g clip-path="url(#d)"><path fill="#fff" d="M4.043 4.043h135.902v135.902H4.043Zm0 0"/></g></g><g clip-path="url(#e)"><path d="M9.023 39.379c.528-1.879 2.067-1.027 3.168-1.063 3.407-.101 3.399-.039 4.032-3.449.902-4.84 2.625-9.308 6.191-12.851 4.691-4.653 15.016-5.196 19.191 2.168-4.277-.504-6.164-5.309-10.597-5.02 5.918 2.14 9.015 6.625 10.808 12.227 1.758 5.476 2.016 11.027.766 16.64-.234 1.059-.5 2.106-.582 3.192 1.645-3.797 2.21-7.801 2.16-11.903-.012-1.023.145-1.726 1.274-1.863.199-.023.511.117.586.027 2.19-2.547 5.66-2.718 8.605-.66 2.125 1.489 4.707.903 7.113 1.024.512.023.567-.465.492-.88-.144-.757-.101-1.667-1.066-1.921-.441-.113-.941-.02-1.41-.004-2.836.113-2.719.129-2.414-2.691.27-2.497-.13-5.106 1.816-7.348-1.633.57-1.644.566-2.074 2.144-.184.668-.14 1.508-1.082 1.598-.227.02-.574-.281-.715-.523-.457-.79.274-1.063.692-1.508 1.058-1.125.738-2.524.683-3.867-.02-.485-.52-1.457.781-.79.594.305 1.106-.058 1.02-.804-.164-1.438 1.207-2.602.46-4.258-.464-1.031.606-2.031 1.571-2.672 2.422-1.613 5.082-2.043 8.61-1.488-1.989.398-3.727.184-3.891 2.289 1.266-.773 2.348.434 3.633.55.777.075 1.726 1.34.574 2.462-.68.656-1.441 1.222-2.086 2.023 1.711-1.355 4.32-.36 5.758-2.398.656-.934 1.047-1.809-.168-2.625-.34-.227-.91-.38-.543-1.043.703-1.266 4.586-3.149 6.18-2.883 2.629.441 3.996 2.195 4.632 4.656-1.043-1.492-1.836-3.265-4.066-3.449 3.285 1.621 1.492 4.738 2.086 7.105.441 1.77.086 3.735.086 6.094.723-1.586.363-2.953 1.266-4.242l.546 11.277c.012.239.024.473.043.711.403 5.344.508 5.469 5.707 5.606 2.141.054 4.196.523 6.25-1.157.95-.777 3.141-.269 4.512.868 1.414 1.172 2.254 1.09 2.73-.938.977-4.191 2.962-7.828 6.47-10.5 4.78-3.644 11.152-3.289 15.34 1.024 5.097 5.25 6.167 11.738 5.417 18.718-.05.47-.144.938-.21 1.407-.013.074.038.148.066.254.914-1.07.765-2.407.937-3.637.176-1.25.016-2.57.34-3.766.316-1.168 1.738-1.91 1.453-3.523.383 1.601.781 2.886 2.719 3.035.926.07 1.242 1.117 1.152 2.074-.078.883-.539 1.66-1.426 1.61-1.68-.09-1.656 1.035-1.8 2.124-.602 4.508-2.204 8.57-5.29 11.973-6.335 6.98-16.769 6.352-22.433-1.312-2.113-2.86-3.242-6.121-4.188-9.489-.148-.515.149-1.73-1.117-1.25-.875.328-1.082 1.016-.761 1.93.87 2.492 1.136 5.047.78 7.574-.503.27-.726-.004-1.003-.125-2.125-.933-3.11-2.273-2.125-4.707.36-.894.191-2.031.176-3.054-.016-1.098.066-2.274-1.68-2.149-.375.027-.934-.59-1.188-1.039-1.523-2.695-3.925-3.312-6.77-3.031-.667.066-1.347.008-2.448.008 1.547 1.464 2.902 2.547 3.574 4.328-.941-.125-1.129-.961-1.594-1.446-1.812-1.875-3.715-3.308-6.605-2.937-.969.125-1.438.062-1.38 1.18.18 3.32 1.013 6.414 3.114 9.054.527.664 1.113 1.66 1.988 1.496.895-.171 1.055-1.304 1.215-2.144.29-1.457.469-2.938.735-4.668 3.086 5.242 7.695 8.57 12.492 11.726.219.145 2.918.57.476 1.993-.55.32.856 1.347 1.418 1.988.528.598 1.18.523 1.446-.309.304-.965.488-1.968.777-3.16.375 1.29.227 2.332-.082 3.387-.824 2.805-2.516 3.719-5.215 2.668-3.574-1.39-6.762-3.438-9.652-5.953-.64-.555-1.293-1.098-2.203-1.867-.164 3.418 1.058 6.109 2.214 8.82-1.945-1.445-1.675-4.117-3.218-6.07-.492 3.578 1.62 6.007 3.175 9.152-3.476-2.113-4.734-5.258-6.187-8.297-2.527 2.953-2.523 2.95-.18 5.563.785.875 1.559 1.757 2.313 2.613-.574.738-1.625.32-2.113 1.265 2.789-.37 5.468-.449 8.152-.359.527.02 1.144.133 1.36-.605 2.234 1 4.546 1.855 6.69 3.02 4.555 2.484 7.051 6.343 6.665 11.624-.364 4.996-3.414 7.973-7.969 9.598-.281.097-.547.234-1.074.46 3.328 3.4 5.09 7.52 6.844 11.653.253.602.624 1.324-.57.625-1.575-3.855-3.255-7.664-6.016-10.855-.743-.86-1.547-1.875-3.13-.754 3.716 3.449 6.188 7.722 8.923 11.8 1.324 2.422 2.648 4.844 3.98 7.262.113.207.277.535.43.543 4.441.211 1.984 4.11 3.113 6.098.762 1.344-1.563 1.262-2.395 2.137 1.059.886 2.07 1.332 3.465.695.934-.422 1.375-.903.989-2.145.375 2.493 2.109 2.461 3.82 2.653 3.375.375 6.734.879 10.117 1.777-8.832.633-17.664 1.258-26.496 1.89-8.832.637-17.664 1.282-26.473 2.325 20.375-1.336 40.746-2.668 61.121-4.004l.082.953c-2.199.195-4.386.43-6.585.59-26.06 1.906-52.118 3.797-78.176 5.715-3.153.23-6.11-.746-9.137-1.278-5.133-.898-10.254-1.898-15.39-3.277 1.632-.133 3.265-.273 4.898-.39 3.234-.235 6.476-.446 9.715-.676 1.8-.13 3.77-.598 3.828.953-.856-1.75 1.539-2.125 3.281-2.961 1.285-.613 2.57-1.227 3.863-1.813.813-.367 1.14-.543 1.239-1.824.148-1.96 2.554-1.504 4.195-2.047.164-.996-2.246-3.14 1.203-3.52.41-.046-.121-1.136-.34-1.675-1.597-3.977-3.71-7.691-5.906-11.367-1.992-3.328-3.992-6.656-5.856-10.059-1.613-2.945-2.66-6.097-2.445-9.539.18-2.906 1.504-4.86 4.422-5.754 8.645-2.652 17.398-3.18 26.29-1.558.374.07.753.132 1.401.242-.515-.75-1.078-.875-1.628-1-8.915-2.031-17.747-1.746-26.457 1.058-2.446.79-4.508 2.063-4.547 5.489-.762-2.668.273-4.54 2.945-5.758 4.184-1.914 8.703-2.278 13.2-2.578 4.026-.266 8.062-.117 12.062.558.34-1.09-.86-1.36-.774-2.437l2.324 2.574c-.613-2.535-2.078-5.41-3.976-5.98-1.89-.567-2.113-1.907-3.192-2.735-.437-.336-.757-.879-1.238-1.09-2.875-1.261-4.894-3.172-5.273-6.465-.032-.285-.262-.578-.469-.804-3.172-3.43-5.895-7.223-9.027-11.238-.446 1.62-.813 2.93-1.157 4.246-.773 2.949-2.164 5.574-3.953 8.047-5.21 7.195-17.726 8.41-22.98-1.477-1.153-2.164-2.168-4.367-2.465-6.867.973 2.136 1.789 4.351 3.289 6.187 1.543 1.89 3.18 3.668 5.832 4.016-5.715-3.317-8.14-8.633-9.008-14.82-.199-1.418-.82-1.887-2.058-1.934-1.188-.043-2.375-.05-3.563-.094-2.734-.101-3.383-1.316-2.172-4.043.008 1.164-.633 3.059.825 3.13 1.453.066 1.124-1.798 1.023-2.997.504.457.855 1.055 1.71 1.066 4.567.055 9.13.172 13.692.25.348.004.871.18.942-.386.058-.508-.227-.93-.735-1.055a7.2 7.2 0 0 0-1.625-.223q-6.138-.106-12.277-.16c-.602-.008-1.297-.18-1.64.582-.637-.746-1.317-.484-2.005-.11m51.79 2.418c-.036-.516-.18-.922-.825-.879-2.71.176-5.468-1.074-7.715 2.309-1.261 1.894-1.128 2.226.274 3.355 3.023 2.445 6.164 4.672 9.738 6.273 1.61.723 3.262 1.536 4.258 3.547-1.703-.39-3.063-1.336-4.766-1.09.696 2.141 1.758 3.836 3.332 5.243 1.094.976 1.875.843 2.7-.336 1.902-2.723 2.453-5.778 2.425-9.008-.015-1.531-.004-3.063-.004-4.793.774.5.7 1.332 1.407 1.473.328-1.344-.532-2.473-.38-3.953 1.93 2.082 2.626 4.34 2.505 6.882-.059 1.223.43 2.524 1.468 2.645 1.266.148 1.262-1.332 1.407-2.317.84-5.793-3.98-10.43-10.336-9.761 1.02 1.18.988 2.433.5 3.758-.367.992-.395 2.066-.035 3.035.504 1.37-.336 2.449-.555 3.664-.11.593-.402.758-.988.496-2.641-1.172-5.57-1.742-8.07-3.707 1.038-.192 1.484.945 2.394.5.133-2.133-1.234-4.399.523-6.375-.484 2.523-.39 4.969 1 7.664 1.367-3.117-1.718-6.516 1.5-8.84-.875-.527-1.215.258-1.758.215m23.3 57.043c-1.101-.422-1.61-1.453-2.27-2.305-.527-.68-1.109-1.027-1.991-1.02-7.457.07-14.317-2.214-20.965-5.355-1.137-.539-2.278-1.254-4.004-1.097 3.328 3.738 4.355 8.097 5.25 12.554.648 3.254 1.406 6.508 2.406 9.672.941 2.988 1.14 6.332 4.504 8.262 1.148.66.672 3.144 1.187 4.699.813 2.457-1.265 2.809-2.64 3.762.789.234 1.398.383 1.988.59 1.54.546 2.313-.317 1.992-1.586-.46-1.844.66-1.746 1.739-1.871.707-.086 1.421-.098 2.129-.145 5.816-.379 11.632-.754 17.503-1.137-1.113-2.863-.984-3.422 1.93-4.058 2.426-.532 3.395-2.586 4.496-4.157.551-.789.633-3.082-.629-4.582-2.16-2.566-4.636-4.742-7.203-6.867-1.984-1.648-4.203-3.086-5.504-5.433.992-.075 1.156 1.379 2.375 1.27-1.445-1.54-2.203-3.509-4.316-5.028.289 2.062 1.914 2.476 2.023 3.832M79.25 38.547c-1.09-1.844-1.84-3.406-2.2-5.082-.35-1.613-.491-3.27-.769-5.215-.976 1.648-1.437 3.363-2.883 4.059-1.253.605-1.918 1.14-1.582 2.613.348 1.504.637 3.058 2.454 3.34 1.511.234 3.062.187 4.98.285M97.2 85.91c.898-7.394-4.032-12.668-10.716-11.633 4.04 3.426 9.387 5.508 10.715 11.633m-2.43-45.387-.024-.765-39.348-1.57-.03.828q19.697.756 39.402 1.507m6.914 4.473c.144 6.215 2.312 11.48 7.546 14.969 4.391 2.93 10.055 2.074 13.864-2.16-.895.527-1.336.789-1.778 1.047-5.07 2.968-9.824 2.421-14.07-1.641-2.043-1.961-3.387-4.356-4.2-7.047-.515-1.707-.913-3.445-1.362-5.168m8.734-.828c.371 2.078 1.375 3.434 3.574 3.297 1.91-.121 3.438-2.074 3.488-4.418.051-2.11-.445-4.024-2.73-4.707-1.574-.469-2.73.262-3.379 1.832 1.824-.66 3.57-1.36 4.695.91.79 1.594.563 3.184-.691 4.363-2.2 2.067-3.371-.363-4.957-1.277m-52.98 72.77c.53.703.89 1.433 1.464 1.89 1.305 1.027 3.086 2.293 4.414 1.621 1.309-.656-.27-2.312-.504-3.539-.18-.941-.792-.988-1.601-.777-1.211.312-2.445.527-3.773.805M31.004 42.78c.875-2.328.793-4.11.2-5.82-.669-1.914-1.677-3.707-4.099-3.617-1.867.07-3.437 2.293-3.609 4.867 1.242-1.434 1.656-4.281 4.207-3.422 3.438 1.164 3.016 4.543 3.3 7.992m77.52-.758v.192c1.257 0 2.519.012 3.78-.008.356-.004.876.145.966-.379.113-.644-.434-.793-.895-.808-2.758-.09-5.516-.149-8.273-.2-.391-.008-.88.09-.883.567-.004.672.605.62 1.047.625 1.418.027 2.84.011 4.257.011m-9.25 72.145c1.07 1.273 2.538 1.773 4.035 2.18.57.156 1.12-.016 1.289-.696.14-.574-2.22-3.465-2.746-3.27-.934.345-1.899.747-2.579 1.786M97.94 73.422c.524 2.14 1.446 3.605 2.41 5.039.34.508.79 1.273 1.465.918.829-.43.344-1.258.079-1.879-.739-1.727-1.993-2.996-3.954-4.078m11.157-34.352c1.875-3.156 4.726-4.21 8.293-3.773-3.778-1.52-6.54-.277-8.293 3.773m-44.23-15.28c1.347 1.995-.888 3.026-1.24 4.683 2.665-1.149 3.212-3.075 1.24-4.684M15.136 127.597c9.465.156 18.883-.5 28.273-1.54-.015-.3-.035-.601-.05-.898q-14.133.866-28.266 1.738c.02.23.031.465.043.7m110.258-99.621c.421.394.898.773 1.37.093.5-.715-.261-.965-.59-1.312-3.5-3.77-10.28-4.828-15.14-2.215 5.555-1.902 10.25-.406 14.36 3.434m-41.446-4.313c-.394 3.238-.582 6.477-.039 9.77.328-3.23 1.117-6.5.04-9.77m-14.86 100.98q10.284-.625 20.567-1.246-.022-.47-.05-.933l-20.547 1.164c.007.34.02.676.03 1.016m0 0"/></g></svg>