<svg xmlns="http://www.w3.org/2000/svg" width="192" height="192" viewBox="0 0 144 144"><defs><clipPath id="a"><path d="M5 5h134v134H5Zm0 0"/></clipPath><clipPath id="b"><path d="M4.043 15.293v113.414c0 6.211 5.039 11.25 11.25 11.25h113.414c6.211 0 11.25-5.039 11.25-11.25V15.293c0-6.211-5.039-11.25-11.25-11.25H15.293c-6.211 0-11.25 5.039-11.25 11.25m0 0"/></clipPath><clipPath id="c"><path d="M4.043 4.043h135.75v135.75H4.043Zm0 0"/></clipPath><clipPath id="d"><path d="M4.043 15.293v113.414c0 6.211 5.039 11.25 11.25 11.25h113.414c6.211 0 11.25-5.039 11.25-11.25V15.293c0-6.211-5.039-11.25-11.25-11.25H15.293c-6.211 0-11.25 5.039-11.25 11.25m0 0"/></clipPath><clipPath id="e"><path d="M17.215 10.355h109.5v123h-109.5Zm0 0"/></clipPath></defs><path fill="#fff" d="M-14.4-14.4h172.8v172.8H-14.4z"/><path fill="#fff" d="M-14.4-14.4h172.8v172.8H-14.4z"/><g clip-path="url(#a)"><g clip-path="url(#b)"><path fill="#001b3d" d="M138.297 73.156c-.723 1.192-1.957 1.895-3.172 2.574.516.743.496 1.743.266 2.618s-.645 1.691-.88 2.566-.171 2.035.337 2.781c-.7.028-1.286.59-1.57 1.23-.286.645-.329 1.356-.387 2.055-.063.7-.157 1.418-.52 2.016l.016.004c1.004.398 2.047.824 2.758 1.637.207.242.382.511.492.804.246.676.144 1.442-.133 2.102-.277.668-.719 1.246-1.149 1.824.563.559 1.485 1.188 1.743 1.945.16.481.175.997.246 1.5.25 1.782 1.195 3.458 1.136 5.254v.004c-.003.184-.14.34-.296.434-.157.094-.336.144-.496.226-.56.286-.856.922-.973 1.543-.117.618-.098 1.258-.23 1.872-.266 1.253-1.227 2.273-2.063 3.25.457.57.918 1.148 1.176 1.828.261.68.289 1.488-.098 2.105-.473.754-1.61 1.113-2.473 1.34.637.617 1.309 1.297 1.438 2.172.086.61-.102 1.226-.024 1.836.067.523.332 1.008.676 1.41.34.402.758.742 1.168 1.074-.746 1.117-.668 2.715-.32 4.008.351 1.297.969 2.508 1.312 3.805a9.45 9.45 0 0 1-.078 5.074c-2.226.531-4.808.535-6.976-.207-.996-.34-1.95-.809-2.977-1.031-1.031-.223-2.27-.188-3.105.445a3.47 3.47 0 0 0-1.657-1.406c-.793-.32-1.671-.332-2.515-.465-.848-.137-1.785-.5-2.262-1.211a5.8 5.8 0 0 1-1.21 2.43c-.212.246-.466.492-.79.539-.242.035-.484-.047-.71-.137-.864-.34-1.72-.856-2.477-1.39-.45-.024-.856.269-1.168.593-.313.324-.582.703-.961.941-.973.614-2.297.137-3.364.555-.879.34-1.625 1.168-2.105 1.98-.309-.261-.719-.351-1.121-.386-.403-.031-.809-.02-1.203-.11-.59-.128-1.106-.48-1.68-.664-.816-.261-1.711-.183-2.52-.449-.921-.3-1.64-1.015-2.328-1.703-.851.64-1.246.781-2.238 1.176-.398.156-.828.297-1.246.195-.344-.086-.629-.328-.883-.578-.738-.734-1.336-1.684-1.75-2.644-1.082.558-2.426.144-3.586.511-.812.262-1.535.95-1.816 1.754-.586-.558-1.524-.562-2.297-.32-.774.238-1.473.68-2.246.918a4.6 4.6 0 0 1-3.215-.192l.004-.214a5.25 5.25 0 0 1-2.754 3.347c-.379.188-.797.324-1.211.262-.348-.059-.66-.25-.945-.457a9.5 9.5 0 0 1-2.614-2.816c-1.187.203-2.402.406-3.511-.075-.567-.242-1.059-.652-1.637-.867-.906-.336-1.996-.117-2.71.535-.145-.695-.743-1.273-1.388-1.562-.648-.29-1.367-.367-2.074-.442-.703-.074-1.422-.156-2.066-.453-.114 1.031-.528 1.824-1.227 2.594-.281.312-.62.598-1.035.66-.266.043-.54-.016-.8-.086a8.1 8.1 0 0 1-2.638-1.258c-1.289.442-2.058 1.793-3.39 2.094-.625.137-1.297.012-1.922.152-.492.11-.934.368-1.418.512-.852.25-1.82.133-2.582.59-.402-.914-1.383-1.656-2.34-1.93-.562-.164-1.16-.175-1.734-.297-1.098-.234-2.297-1.078-2.961-1.98-.492.457-.582.543-1.164.879-.582.34-1.266.539-1.926.441-.602-.09-1.156-.437-1.543-.906-.39-.469-.707-1.25-.785-1.855-.508.808-1.438 1.308-2.387 1.406-.652.07-1.312-.035-1.953.082-.898.172-1.848.937-2.223 1.766-.793-.586-1.859-.66-2.84-.524-1.574.215-3.039.902-4.57 1.313-1.77.472-4.242.484-5.636-.051a9.4 9.4 0 0 1-.083-5.074c.348-1.297.965-2.508 1.313-3.805.352-1.297.43-2.89-.32-4.008.414-.332.828-.668 1.168-1.074.343-.406.609-.887.675-1.414.082-.606-.109-1.227-.02-1.836.126-.875.798-1.555 1.434-2.168-.863-.223-2-.586-2.472-1.344-.387-.613-.356-1.422-.098-2.101.258-.68.723-1.262 1.176-1.829-.836-.976-1.797-1.992-2.063-3.25-.132-.617-.109-1.253-.23-1.875-.117-.617-.414-1.253-.973-1.539-.16-.082-.34-.136-.496-.23s-.293-.246-.297-.43v-.004c-.062-1.797.883-3.472 1.137-5.254.07-.504.086-1.023.246-1.504.258-.753 1.176-1.378 1.742-1.945-.433-.574-.87-1.156-1.148-1.82s-.383-1.43-.129-2.102c.105-.297.285-.566.492-.804.703-.817 1.754-1.243 2.754-1.637l.016-.004c-.364-.602-.453-1.32-.516-2.016-.062-.699-.105-1.418-.387-2.054-.285-.64-.87-1.203-1.57-1.235.504-.75.566-1.902.332-2.777-.23-.875-.648-1.691-.879-2.57-.226-.875-.246-1.871.266-2.618-1.215-.68-2.45-1.378-3.172-2.57-.274-.445-.461-.98-.367-1.496.07-.39.297-.734.539-1.05q.598-.776 1.367-1.387c.344-.27.71-.524.98-.864s.434-.808.286-1.218c-.079-.688-.055-1.516.164-2.176.242-.742.785-1.356 1.008-2.102.257-.855.058-1.86-.524-2.527.406-.176.832-.36 1.125-.692.262-.3.395-.691.496-1.078.285-1.082.383-2.207.48-3.316.012-.11.02-.23-.038-.324-.059-.094-.418-.188-.489-.102-1.23-.297-2.242-1.367-2.465-2.617-.226-1.25.352-2.602 1.407-3.309-.918-.578-1.567-1.593-1.895-2.629-.332-1.035-.437-2.128-.601-3.203s-.407-2.164-.965-3.097c.875-.657 1.816-1.29 2.105-2.301.215-.734.168-1.527.344-2.277A3.95 3.95 0 0 1 10.5 32.91c-.45-.57-.895-1.312-1.117-2-.227-.691-.23-1.484.144-2.11.473-.792 1.528-1.195 2.43-1.405h.04c-.45-.332-.43-.31-.755-.758-.39-.551-.558-1.227-.66-1.899-.102-.668-.148-1.347-.336-1.996.016-.46-.23-1.012-.617-1.262-.258-.164-.59-.27-.715-.546a.63.63 0 0 1 .059-.563c.101-.164.285-.316.46-.414-.058-1.852-.812-3.602-1.288-5.39-.59-2.2-.77-4.5-.532-6.762 1.403-.535 4.078-.407 5.844.07 1.535.41 3 1.094 4.574 1.313.977.136 2.043.062 2.84-.524.375.832 1.324 1.598 2.223 1.766.64.117 1.3.015 1.953.082.953.097 1.879.597 2.387 1.406.082-.605.398-1.383.785-1.855.39-.47.941-.81 1.543-.907.664-.101 1.343.102 1.925.442.583.336.672.422 1.165.879.668-.903 1.863-1.747 2.96-1.98.575-.122 1.172-.134 1.735-.298.96-.273 1.937-1.011 2.34-1.93.765.454 1.73.336 2.582.59.48.145.926.403 1.418.512.629.137 1.293.016 1.922.152 1.332.297 2.097 1.653 3.39 2.094a8 8 0 0 1 2.637-1.258c.262-.074.535-.129.8-.086.415.063.759.348 1.036.66.695.77 1.113 1.563 1.223 2.594.648-.297 1.367-.379 2.07-.453.707-.074 1.426-.156 2.074-.445s1.242-.867 1.387-1.563a2.7 2.7 0 0 0 2.71.54c.583-.215 1.071-.626 1.637-.868 1.11-.476 2.32-.273 3.512-.074a9.6 9.6 0 0 1 2.61-2.82c.289-.203.597-.395.949-.453.414-.063.836.074 1.21.257A5.27 5.27 0 0 1 75.81 9l-.004-.219a4.65 4.65 0 0 1 3.215-.191c.773.242 1.472.68 2.246.922.773.242 1.703.234 2.293-.32.28.8 1.004 1.492 1.82 1.753 1.16.367 2.504-.047 3.586.508.414-.96 1.008-1.902 1.75-2.64.25-.254.539-.493.883-.579.418-.101.847.036 1.246.196.988.394 1.386.535 2.238 1.175.684-.687 1.402-1.398 2.324-1.703.813-.265 1.711-.187 2.52-.449.574-.183 1.094-.535 1.683-.668.395-.086.801-.07 1.204-.105s.812-.13 1.12-.387c.481.809 1.22 1.644 2.102 1.98 1.074.415 2.399-.062 3.367.555.383.238.649.617.961.942.313.32.719.613 1.168.593.758-.531 1.614-1.05 2.473-1.39.23-.09.473-.172.715-.141.324.047.578.29.789.543.59.7 1.008 1.54 1.21 2.43.477-.711 1.415-1.075 2.259-1.211.847-.133 1.722-.145 2.515-.465a3.47 3.47 0 0 0 1.656-1.406c.84.636 2.079.672 3.11.445 1.027-.223 1.98-.695 2.976-1.031 2.168-.742 4.95-.864 7.18-.332a18.5 18.5 0 0 1-.527 6.758c-.48 1.792-1.239 3.539-1.29 5.394.173.09.352.242.458.414.105.168.14.383.062.559-.125.28-.46.383-.715.547-.386.253-.636.8-.62 1.261-.184.653-.227 1.332-.333 2-.105.668-.27 1.344-.664 1.895-.32.453-.305.43-.75.758h.04c.898.21 1.948.617 2.429 1.41.371.62.371 1.414.144 2.105-.226.692-.668 1.43-1.117 2.004a3.95 3.95 0 0 1 1.832 2.485c.172.746.13 1.535.34 2.277.293 1.004 1.234 1.644 2.11 2.3-.567.93-.801 2.02-.965 3.094-.168 1.075-.27 2.168-.602 3.204-.332 1.039-.973 2.05-1.898 2.628 1.058.707 1.632 2.063 1.41 3.313-.223 1.246-1.235 2.32-2.469 2.617-.066-.086-.426.004-.484.102-.055.093-.047.207-.04.32.098 1.117.2 2.234.481 3.316.102.387.23.778.496 1.079.293.335.715.52 1.125.69-.586.669-.781 1.677-.523 2.528.219.75.765 1.364 1.008 2.102.218.66.242 1.484.16 2.176-.145.41.015.879.289 1.222.27.34.637.59.98.864.504.406.965.87 1.367 1.382.243.317.47.664.54 1.055.074.512-.114 1.043-.391 1.492m0 0"/></g></g><g clip-path="url(#c)"><g clip-path="url(#d)"><path fill="#fff" d="M4.043 4.043h135.902v135.902H4.043Zm0 0"/></g></g><g clip-path="url(#e)"><path d="M122.262 133.355h-12.649l-.644-4.62q-.01-.055-.055-.07c-.035-.017-.062-.013-.094.007q-1.032.757-1.636 1.191-.283.209-.63.371c-.847.41-1.64-.058-2.234-.672q-.468-.48-.996-.984-3.27-3.133-10.039-9.637a.13.13 0 0 0-.101-.043h-.829c-.039 0-.054.016-.054.055v2.637q0 .07.066.07a6.5 6.5 0 0 1 1.051.121q.314.065.332.41.041 1.019-.016 1.836-.018.198-.218.297c-.192.094-.426-.058-.426.281v8.75h-9.207l-.004-6.93q-.001-.041-.043-.042c-2.555.004-5.016.008-7.395.008-.21 0-.406-.04-.449-.274-.086-.504-.125-1.16.035-1.672q.095-.288.41-.289h7.376c.039.004.058-.02.058-.058.008-.926.004-1.578-.004-1.946q-.005-.327.29-.422.41-.128.921-.046.094.016.094-.079v-2.625q-.001-.065-.067-.066a88 88 0 0 1-3.539-.14 42.5 42.5 0 0 1-9.629-1.68 4.7 4.7 0 0 1-.94-.38c-.634-.362-.852-1.015-1.028-1.75-.399-1.687-.41-3.417.293-4.991.023-.059.008-.094-.055-.11-.453-.125-1.02-.258-1.41-.488q-.763-.45-1.133-1.336a13 13 0 0 0-.594-1.273q-.03-.056-.07-.063-.047-.007-.047.04-.007 1.152.074 2.3.141 1.906.141 1.953c.02.84-.05 1.531-.637 2.152a73 73 0 0 1-2.219 2.243 21 21 0 0 0-1.644 1.793.43.43 0 0 1-.406.156c-.157-.02-.29-.153-.395-.274q-.673-.755-1.219-1.468c-.628-.825-.789-1.618-.718-2.696q.066-.989.113-1.375.118-.985.137-1.297c.043-.726.12-1.148.242-2.054a.12.12 0 0 0-.043-.117 34 34 0 0 1-3.07-3.164q-1.126-1.341-.782-3.075c.86-4.363 1.282-6.898 2.352-12.843a394 394 0 0 1 1.844-9.536c.156-.773.332-1.504.52-2.183.198-.719.542-1.438 1.077-2.04a7 7 0 0 1 3.14-2.003c.618-.2 1.302-.38 2.044-.543a.4.4 0 0 0 .226-.137 45 45 0 0 0 1.938-2.543c.707-1 1.562-2.402 2.27-3.332.449-.597.765-.984.949-1.172a52 52 0 0 1 5.215-4.644q.087-.07.117-.27a.24.24 0 0 1 .074-.148l.402-.38a.05.05 0 0 1 .028-.019q.246-.076.492-.242c.547-.355.574-1.086.969-1.523q.438-.487 1.152-.434.088.008.094-.078l.265-2.09a.3.3 0 0 0 0-.078 1.5 1.5 0 0 0-.148-.406.3.3 0 0 1-.04-.098 60 60 0 0 0-.73-2.45c-.277-.847-.894-1.929-1.16-2.937a9.9 9.9 0 0 1-.324-3.097 8.3 8.3 0 0 1 .387-1.992q.133-.422.414-1.235c.004-.004 0-.012-.004-.012q-.005-.004-.016 0a.8.8 0 0 0-.16.176q-1.113 1.683-1.512 2.282c-.78 1.16-1.297 2.257-1.52 3.624-.07.43-.132.883.22 1.192a.2.2 0 0 0 .078.043c.785.18.906 1.348.32 1.805a10 10 0 0 1-.242.164.28.28 0 0 0-.137.277q.004.063.031.23c.11.743-.312 1.282-1.03 1.45q-.037.007-.02.043c.109.175.128.359.07.543q-.269.832-1.07 1.183a.8.8 0 0 0-.188.149.3.3 0 0 0-.07.093q-.411.79-1.125 1.176a.3.3 0 0 1-.094.035q-1.709.418-3.207.477-.739.032-1.816-.067-.03-.001-.66.004a.3.3 0 0 0-.16.043q-.189.1-1.114.54c-2.016.953-4.918 2.695-7.281 3.773a38 38 0 0 1-3.828 1.52q-.219.071-.29.214c-.218.45-.449.797-.683 1.04q-.18.187-.59.327a.3.3 0 0 1-.098.016 9 9 0 0 0-1.445.145q-.105.017-.2.054c-.433.172-.843.36-1.25.266a.1.1 0 0 1-.062-.035l-.363-.364a.18.18 0 0 0-.168-.05q-1.306.228-1.695.304c-.508.102-.867.106-1.227-.191a10.6 10.6 0 0 1-2.148-2.383q-.034-.044-.063.004c-.011.023-.015.04-.02.05-.019.368-.027.65-.109 1.052q-.591 3.01-1.03 5.277c-.274 1.387-.477 2.805-.454 4.2.04 2.69.277 5.335.563 8.128.015.184.035.461.05.828q.017.34-.12.516c-.13.172-.29.23-.485.187q-.134-.035-.192.012c-.062.043-.085.102-.07.164 1.113 4.371 1.774 8.684 2.41 13.84q.41 3.301.977 7.516c.066.476.094.98.086 1.464q-.013 1.087-.031 2.149a5 5 0 0 1-.082.86c-.25 1.323-.676 2.519-1.168 3.792q-.112.281-.059.434.387 1.133.352 2.125a40 40 0 0 0 .023 3.414q.058 1.08.062 1.496.007 1.182.043 1.492c.082.672.067 1.66.18 2.465.07.477.04 1.012.125 1.523.055.348.012.715.074 1.04q.051.286.078.656.07 1.072.282 2.812.007.046.027.086c.297.649.645 1.55.719 2.32H37.44a95 95 0 0 1-1.058-6.957q-.262-2.2-.278-2.539c-.015-.312-.093-.578-.097-.855-.004-.629-.098-1.277-.117-1.852-.055-1.328-.149-2.359-.141-3.46.008-.981.008-1.544.008-1.696-.004-.547.14-1.137.11-1.637a.3.3 0 0 0-.016-.086 7 7 0 0 1-.172-.488 2.27 2.27 0 0 1 .34-1.84c.18-.254.285-.398.316-.441.027-.04.035-.078.027-.125l-.484-2.328q-.001-.024-.031-.024-.025 0-.032.024a8 8 0 0 1-.093.433q-.09.322-.418 1.422-.158.529-.262.793-.206.526-.29.781c-.284.864-.698 1.625-1.253 2.215q-.26.276-1.156 1.192-.135.137-.14.32a4.1 4.1 0 0 1-.267 1.246c-.925 2.598-1.597 4.844-2.457 7.684-.812 2.699-1.472 5.457-2.062 8.218h-9.824q.29-2.666.77-5.304.287-1.569.71-3.91.463-2.573.973-4.73c.254-1.087.832-2.688 1.125-3.595a55 55 0 0 1 1.668-4.449.4.4 0 0 1 .058-.086l.493-.488a.1.1 0 0 0 .027-.074v-1.16c0-.024.008-.047.016-.075l.222-.55a.13.13 0 0 1 .035-.055l.743-.742a.25.25 0 0 0 .062-.106c.055-.183.031-.422-.058-.715a3.7 3.7 0 0 1-.083-1.921q.089-.391.07-.5-.366-2.31-.722-4.86c-.047-.347-.035-.676-.129-.988a.5.5 0 0 1-.023-.152c-.016-.254-.035-.5-.067-.739q-.449-3.608-.695-7.234a.26.26 0 0 0-.059-.145l-.449-.562q-.006-.01-.011-.02a7.5 7.5 0 0 1-.477-1.867c-.02-.152-.2-.45-.328-.617-.543-.684-.88-1.082-1.149-1.758-.898-2.281-1.425-4.664-1.457-7.14a.15.15 0 0 0-.086-.145q-.392-.21-.714-.356c-.485-.21-.758-.374-.797-.84q-.013-.14.074-.488c.414-1.675.809-3.191 1.168-4.84l.539-2.484c.45-2.074.793-3.504 1.32-5.703.625-2.613 1.102-5.258 1.535-7.906q.534-3.27 1.23-7.453a93 93 0 0 1 1.74-8.141c.163-.648.343-1.234.527-1.762a33.6 33.6 0 0 1 3.695-7.43q.204-.31.566-.644c.942-.875 2.012-1.562 3.172-2.21a20 20 0 0 1 5.184-2.009.35.35 0 0 0 .234-.18q.357-.654.89-1.222.68-.72.891-.977c.453-.558 1.86.079 2.332.383q.072.05.137-.008l1.094-.996a.24.24 0 0 0 .058-.101c.13-.617.227-1.04.457-1.66.11-.297.208-.633.286-1.016q.152-.721.336-2.27.147-1.304.289-1.82a8 8 0 0 1 1.406-2.867c.941-1.219 2.191-2.031 3.742-2.434q.135-.034.492-.082a.2.2 0 0 0 .102-.035q.107-.075.195-.14.334-.239.797-.286a4.06 4.06 0 0 1 1.809.239.11.11 0 0 0 .109-.012.11.11 0 0 0 .05-.098.8.8 0 0 1 .075-.308q.017-.047.059-.059a.5.5 0 0 1 .441.004c.098.05.121.223.27.238q.029.001.046.032l.059.132q.018.034.055.032a.054.054 0 0 0 .05-.04l.043-.128q.01-.035.043-.016.096.06.125.117.018.041.059.024c.031-.016.059-.043.105-.047q.574-.052 1.102.195a.3.3 0 0 0 .078.024q1.12.192 1.613.304c.344.078.676.25.989.485a17.6 17.6 0 0 1 2.586 2.359c.226.25.406.379.691.547q.246.147.469.363a.4.4 0 0 1 .074.098q.312.585.629 1.113c.379.633.976.984 1.644 1.32.141.07.29.114.446.121.015 0 .023.012.023.028q.005.022-.02.027-.608.13-1.245-.004-.03-.005-.047.02c-.008.015-.008.035.007.047q.346.405.704.851c.363.461 1.129.696 1.66.723q.03 0 .035.027c.004.016.004.028-.012.04-.308.269-.875.624-1.281.46q-.051-.018-.05.035v.032q0 .065.054.093.374.206.613.621a.1.1 0 0 0 .028.032l.374.23q.029.018.04.047l.14.297q.007.016-.004.031c-.011.008-.02.012-.035.008a.23.23 0 0 0-.215.035.12.12 0 0 1-.101.016l-.172-.059c-.035-.012-.067 0-.09.028q-.034.045-.004.097a.97.97 0 0 1 .18.68c0 .02-.004.035-.012.055a1.4 1.4 0 0 0-.07.707q.01.07-.055.093-.065.025-.102-.039l-.062-.105a.2.2 0 0 0-.062-.07l-.61-.395a.03.03 0 0 0-.027 0q-.018.011-.012.027c.098.532-.121 1.203-.324 1.688q-.018.036-.059.031-.04-.01-.039-.05l-.008-.243c0-.004 0-.012-.004-.016-.168-.468-.53-1.164-.964-1.418q-.081-.046-.086.047c-.055.825-.5 1.641-.766 2.586-.125.442-.187.676-.195.696-.063.214-.067.43-.082.656a.24.24 0 0 1-.028.094c-.297.55-.855.804-1.476.808-.176 0-.293.098-.293.27q-.006.21-.035 1.586c-.008.175.043.644.152 1.398.07.524.055.863-.332 1.192a.2.2 0 0 1-.066.039c-.735.285-1.184.457-1.875.214q-.198-.07-.297.122a4.4 4.4 0 0 1-.508.792.88.88 0 0 1-.695.34.2.2 0 0 0-.204.149q-.177.51-.617.808a1 1 0 0 1-.277.078.2.2 0 0 0-.063.02c-.218.105-.367.23-.449.383q-.416.787-.879 1.351c-.3.364-.687.52-1.175.442-.692-.106-1.184-.426-1.708-.867a17 17 0 0 1-1.289-1.188 8 8 0 0 0-.699-.652.18.18 0 0 0-.199-.028l-1.309.602q-.064.033-.011.086.686.645 1.039 1.543.291.751-.29 1.25a9 9 0 0 1-.6.473.13.13 0 0 0-.06.125q.095 1.278.22 2.28.075.603.363 1.247c.046.101.246.402.609.91q.34.48.586.961c.14.27.375.55.539.727a.3.3 0 0 0 .055.043l.87.578.048.047q.195.284.379.812c.074.211.226.281.464.313q.205.028.414.109.534.206.996.43a.22.22 0 0 0 .149.015 8 8 0 0 1 1.668-.219q.076 0 .148-.02a2 2 0 0 1 .387-.062c.746-.007 1.48-.003 2.188-.218 2.191-.668 4.058-1.461 6.34-2.414.546-.23 1-.457 1.351-.688.39-.254.793-.566 1.2-.937a104 104 0 0 0 2.109-1.95q.24-.233.796-.32a.3.3 0 0 1 .106.004q1.206.223 2.441.242c.02 0 .063.016.121.047.243.117.516-.113.645-.297a69 69 0 0 0 2.879-4.344q.263-.426.422-.554c.254-.207.707-.371 1.027-.239q1.167.481 1.918 1.45a.4.4 0 0 1 .035.062q.005.017-.008.028-.017.01-.027.003c-.215-.136-.652-.445-.918-.414-.012.004-.016.008-.02.02q-.004.012.008.023l.79.512q.05.033.007.078l-.02.016c-.015.02-.034.02-.054.008l-.937-.61q-.012-.007-.024.004l-.016.016c-.02.015-.015.031.004.047l.903.59q.045.03.015.078l-.004.004c-.02.03-.043.039-.078.015l-.968-.633q-.019-.007-.032.004l-.015.02q-.025.024.004.043l.949.617q.054.036.02.09l-.012.015q-.023.03-.051.012l-1.012-.66q-.034-.019-.062.004l-.02.016q-.031.022.004.046l1.02.672q.045.032.015.074l-.004.004q-.036.047-.086.016l-1.031-.672q-.03-.023-.047.008v.004q-.022.029.008.05l1.023.672q.048.028.012.075h-.004c-.023.031-.05.039-.086.015l-1.039-.68q-.011-.006-.023.005l-.02.02q-.024.023.004.042l1.012.664q.05.029.031.086v.004q-.018.059-.07.023l-1.067-.695q-.023-.012-.035.012l-.011.015q-.024.035.011.059l1.004.66q.047.032.012.074v.004q-.04.046-.086.016l-1.02-.668q-.029-.018-.05.012-.023.034.007.05l1.012.665c.031.023.035.046.012.078q-.04.045-.086.015l-1.023-.668q-.03-.022-.051.008v.004c-.016.02-.012.04.011.05l1.016.669c.031.02.04.047.016.078l-.004.004c-.024.027-.051.035-.082.015l-1.031-.675c-.016-.012-.036-.008-.051.004l-.016.015q-.035.034.004.063l1.063.687q.04.03 0 .059l-.016.011c-.031.028-.063.028-.094.008l-1.043-.68q-.011-.009-.023.005l-.02.015q-.025.024.008.043l1.04.684q.044.03.015.078H78.3q-.03.05-.082.02l-1.035-.68q-.03-.018-.051.011l-.012.016q-.011.019.008.031l1.035.676q.054.033.02.086l-.012.02q-.023.028-.05.007l-1.071-.695c-.016-.012-.028-.008-.043.004l-.016.016q-.032.03.008.054l1.02.664q.054.037.007.078l-.02.02q-.023.025-.054.008l-1.05-.688c-.012-.008-.02-.004-.028.004l-.008.016q-.023.032.012.05l1.008.665q.046.033.015.078l-.004.004q-.029.045-.082.015l-1.03-.675q-.018-.007-.028.003l-.016.016c-.02.02-.015.035.004.047l1.031.672q.052.034.004.074l-.02.02c-.015.015-.038.015-.058.003l-1.039-.675c-.016-.012-.035-.012-.047.004l-.015.015q-.035.035.007.059l1.032.676c.03.023.039.05.015.082v.004c-.02.03-.047.039-.078.015l-1.058-.687q-.017-.013-.028.004l-.02.015q-.022.024.008.043l1.04.68q.045.033.015.078l-.004.004c-.023.031-.047.039-.078.016l-1.07-.692q-.014-.013-.028.004l-.011.023q-.017.025.008.043l1.046.68q.054.036.012.078l-.02.02c-.015.015-.035.02-.054.004l-1.07-.696a.03.03 0 0 0-.04.004l-.019.02q-.028.03.004.047l1.027.675q.046.03.016.079l-.004.003q-.03.047-.078.016l-1.043-.68q-.03-.017-.047.012-.023.029.008.05l1.031.68q.046.031.016.075l-.004.004c-.02.031-.047.039-.078.015l-1.051-.683q-.029-.018-.05.011c-.013.02-.009.04.01.051l1.032.68q.047.03.012.078c-.02.031-.051.04-.082.016l-1.051-.688q-.029-.017-.05.008l-.02.016q-.032.03.007.058l1.047.684q.053.033.024.086v.004q-.029.05-.074.02l-1.098-.716q-.017-.007-.027.004l-.016.016c-.016.016-.016.031.008.043l1.066.703c.031.02.035.047.02.078l-.004.004c-.02.035-.043.04-.078.02l-1.082-.708c-.024-.011-.035-.007-.047.012l-.008.02c-.004.011-.004.02.008.027l1.074.707c.035.024.04.047.016.078l-.004.004c-.024.028-.051.035-.082.012l-1.078-.703q-.023-.017-.04.008l-.015.023q-.018.031.012.055l1.054.683q.044.03.004.063l-.02.02q-.034.03-.07.007l-1.027-.672c-.012-.004-.02-.004-.023.008l-.012.012q-.024.032.012.05l1.003.665q.049.034.008.074l-.02.02q-.021.022-.05.003l-1.027-.668q-.03-.017-.047.012l-.012.016q-.01.017.004.027l1.004.66q.047.03.02.078v.004q-.03.051-.079.02l-1.008-.66q-.034-.018-.05.011l-.016.024q-.023.03.008.047l1.008.664q.052.032.015.074l-.004.004q-.033.046-.086.015l-1.02-.668q-.015-.007-.026.008l-.012.02c-.012.015-.008.031.008.039l1.007.664q.048.033.012.078c-.023.031-.055.04-.086.016l-1.004-.657q-.03-.017-.047.012-.017.034.012.055l.985.648q.052.03.015.078v.004q-.033.046-.086.016l-.969-.633c-.019-.016-.039-.016-.058.008q-.06.064-.14.246-.24.55.292.754c.438.164.696.883.864 1.297.203.5.355 1-.043 1.437q-.24.258-.508.117c-.235-.125-.36-.101-.54.079q-.07.07-.023.152c.184.363.27.926.098 1.305a.1.1 0 0 1-.043.054 1.6 1.6 0 0 1-.871.434c-.13.02-.188-.008-.238-.121q-.018-.034-.059-.04a.07.07 0 0 0-.059.032c-.07.121-.168.25-.289.379q-.327.363-.656.75c-.316.379-1.176.203-1.566.02a.12.12 0 0 0-.133.011c-.235.16-.508.29-.82.38a6 6 0 0 0-.48.151.7.7 0 0 1-.173.04 2.3 2.3 0 0 0-.39.058c-.293.07-.61.07-.965.086a3 3 0 0 0-1.414.418c-1.657.926-2.926 1.82-5.758 3.68-.27.175-1.102.695-2.504 1.558-.02.012-.035.028-.055.043q-.668.593-1.23.875-.949.481-2.063.7c-.082.015-.308.015-.675-.008a.17.17 0 0 0-.114.027l-.605.348q-.04.024-.028.066t.059.043q1.05-.046 1.813-.05c.816-.013 1.421-.044 1.808-.102q1.405-.204 2.406-.508 1.291-.392 5.645-1.75a3 3 0 0 0 .672-.281q.3-.178.594-.426a36 36 0 0 0 2.812-2.668q.393-.421.879-.598c.312-.113.75.063 1.101.188.88.32 1.957.074 2.665-.418.793-.551 1.597-1.422 2.28-2.32q1.269-1.666 1.938-2.715a417 417 0 0 1 1.426-2.223c.82-1.266 1.879-2.473 2.918-3.48q.059-.055.106.003.014.017-.004.086c-.082.278-.246.492-.32.742q-.042.136-.47 1.407a.14.14 0 0 0-.011.074c0 .016.008.023.02.031.015.004.027.004.034-.008.993-.816 2.09-1.449 3.403-1.347a.26.26 0 0 0 .12-.02l.255-.125a3.3 3.3 0 0 1 .648-.254c.453-.129 1.016-.136 1.45-.215a.3.3 0 0 1 .124.004q.418.113.844.102c.309-.012.153-.3.133-.453 0-.02.004-.035.023-.047q.023-.017.051-.004a1.7 1.7 0 0 1 .696.684q.064.119.175.039c.516-.387 1.293-.5 1.918-.551.032-.004.055.012.067.039.008.031 0 .059-.028.074q-.035.028-.879.512-.035.023-.019.062.002.011.016.016c.004 0 .007.004.011.004q.516.001.914-.004c.903-.02 1.653.172 2.34.762q.059.053.13.09c.507.246.972.52 1.339.761.39.258.7.594.922 1.012a.47.47 0 0 1 .062.285q-.005.053-.054.035l-.743-.246q-.077-.029-.078.055v.043q.002.023.016.039a4.3 4.3 0 0 1 1.035 1.777.4.4 0 0 1 0 .254q-.01.03-.043.035c-.02.004-.039 0-.055-.02l-.382-.444-.012-.012-.707-.48q-.052-.036-.074.023l-.012.02q-.018.036.012.062.269.259.332.488.11.427.191.715.006.019-.012.031-.016.007-.03-.004l-.11-.113a.2.2 0 0 1-.055-.078 1.5 1.5 0 0 0-.348-.465q-.046-.042-.082.004c-.011.016-.011.031 0 .055.293.675.47 1.23.625 1.945q.153.678.329 1.351c.074.278.156.922 0 1.196l-.211.37q-.4.691-.02 1.423c.332.644.754 1.164 1.25 1.808.348.453.684 1.16.168 1.637a.3.3 0 0 1-.09.055l-1.055.457c-.027.011-.03.031-.019.054q.329.716-.074 1.391-.011.016-.028.031l-.257.203a.11.11 0 0 0-.047.094v.266a.2.2 0 0 1-.012.07l-.473 1.074a.34.34 0 0 0-.027.188c.04.355.05.691.043 1.004q-.03.705-.129.98c-.297.778-1.336 1.055-2.102 1.008a13 13 0 0 1-1.41-.18 1.1 1.1 0 0 0-.73.121 2 2 0 0 0-.34.204.1.1 0 0 0-.043.062l-.3.89a.12.12 0 0 0 .003.083 1 1 0 0 0 .106.199q.211.258.254.61c.039.327-.192.824-.235 1.105-.02.152.051.246.2.32.238.125.378.317.562.516a20 20 0 0 1 3.023 4.316q.38.738 1.168 2.52a70 70 0 0 0 3.516 6.925 53.7 53.7 0 0 0 5.8 8.137q.99 1.143 2.415 2.297a79 79 0 0 0 5.582 4.129c1.68 1.133 3.496 2.21 5.332 3.375.836.527 1.629 1.152 2.2 1.945.687.953 1.077 1.84 1.515 3.106q3.036 8.799 4.648 13.672c.102.3-.191.601-.453.855-.29.277-.633.543-.945.832a260 260 0 0 1-3.278 2.996.13.13 0 0 0-.047.102q.129 3.518.153 6.797c.008 1.156.086 2.129.11 3.238.023 1.297.073 2.598.144 3.894m-46.2-84.91-1.296 1.297q-.042.042.011.07c.172.09.348.122.52.083a.3.3 0 0 1 .11.003c.124.028.366.145.421-.09q.16-.721.297-1.331.005-.023-.02-.04-.02-.01-.043.008m0 0"/></g></svg>