<svg xmlns="http://www.w3.org/2000/svg" width="192" height="192" viewBox="0 0 144 144"><defs><clipPath id="a"><path d="M5 5h134v134H5Zm0 0"/></clipPath><clipPath id="b"><path d="M4.043 15.293v113.414c0 6.211 5.039 11.25 11.25 11.25h113.414c6.211 0 11.25-5.039 11.25-11.25V15.293c0-6.211-5.039-11.25-11.25-11.25H15.293c-6.211 0-11.25 5.039-11.25 11.25m0 0"/></clipPath><clipPath id="c"><path d="M4.043 4.043h135.75v135.75H4.043Zm0 0"/></clipPath><clipPath id="d"><path d="M4.043 15.293v113.414c0 6.211 5.039 11.25 11.25 11.25h113.414c6.211 0 11.25-5.039 11.25-11.25V15.293c0-6.211-5.039-11.25-11.25-11.25H15.293c-6.211 0-11.25 5.039-11.25 11.25m0 0"/></clipPath><clipPath id="e"><path d="M11.11 10.496h121.5V133H11.11Zm0 0"/></clipPath></defs><path fill="#fff" d="M-14.4-14.4h172.8v172.8H-14.4z"/><path fill="#fff" d="M-14.4-14.4h172.8v172.8H-14.4z"/><g clip-path="url(#a)"><g clip-path="url(#b)"><path fill="#001b3d" d="M138.297 73.156c-.723 1.192-1.957 1.895-3.172 2.574.516.743.496 1.743.266 2.618s-.645 1.691-.88 2.566-.171 2.035.337 2.781c-.7.028-1.286.59-1.57 1.23-.286.645-.329 1.356-.387 2.055-.063.7-.157 1.418-.52 2.016l.016.004c1.004.398 2.047.824 2.758 1.637.207.242.382.511.492.804.246.676.144 1.442-.133 2.102-.277.668-.719 1.246-1.149 1.824.563.559 1.485 1.188 1.743 1.945.16.481.175.997.246 1.5.25 1.782 1.195 3.458 1.136 5.254v.004c-.003.184-.14.34-.296.434-.157.094-.336.144-.496.226-.56.286-.856.922-.973 1.543-.117.618-.098 1.258-.23 1.872-.266 1.253-1.227 2.273-2.063 3.25.457.57.918 1.148 1.176 1.828.261.68.289 1.488-.098 2.105-.473.754-1.61 1.113-2.473 1.34.637.617 1.309 1.297 1.438 2.172.086.61-.102 1.226-.024 1.836.067.523.332 1.008.676 1.41.34.402.758.742 1.168 1.074-.746 1.117-.668 2.715-.32 4.008.351 1.297.969 2.508 1.312 3.805a9.45 9.45 0 0 1-.078 5.074c-2.226.531-4.808.535-6.976-.207-.996-.34-1.95-.809-2.977-1.031-1.031-.223-2.27-.188-3.105.445a3.47 3.47 0 0 0-1.657-1.406c-.793-.32-1.671-.332-2.515-.465-.848-.137-1.785-.5-2.262-1.211a5.8 5.8 0 0 1-1.21 2.43c-.212.246-.466.492-.79.539-.242.035-.484-.047-.71-.137-.864-.34-1.72-.856-2.477-1.39-.45-.024-.856.269-1.168.593-.313.324-.582.703-.961.941-.973.614-2.297.137-3.364.555-.879.34-1.625 1.168-2.105 1.98-.309-.261-.719-.351-1.121-.386-.403-.031-.809-.02-1.203-.11-.59-.128-1.106-.48-1.68-.664-.816-.261-1.711-.183-2.52-.449-.921-.3-1.64-1.015-2.328-1.703-.851.64-1.246.781-2.238 1.176-.398.156-.828.297-1.246.195-.344-.086-.629-.328-.883-.578-.738-.734-1.336-1.684-1.75-2.644-1.082.558-2.426.144-3.586.511-.812.262-1.535.95-1.816 1.754-.586-.558-1.524-.562-2.297-.32-.774.238-1.473.68-2.246.918a4.6 4.6 0 0 1-3.215-.192l.004-.214a5.25 5.25 0 0 1-2.754 3.347c-.379.188-.797.324-1.211.262-.348-.059-.66-.25-.945-.457a9.5 9.5 0 0 1-2.614-2.816c-1.187.203-2.402.406-3.511-.075-.567-.242-1.059-.652-1.637-.867-.906-.336-1.996-.117-2.71.535-.145-.695-.743-1.273-1.388-1.562-.648-.29-1.367-.367-2.074-.442-.703-.074-1.422-.156-2.066-.453-.114 1.031-.528 1.824-1.227 2.594-.281.312-.62.598-1.035.66-.266.043-.54-.016-.8-.086a8.1 8.1 0 0 1-2.638-1.258c-1.289.442-2.058 1.793-3.39 2.094-.625.137-1.297.012-1.922.152-.492.11-.934.368-1.418.512-.852.25-1.82.133-2.582.59-.402-.914-1.383-1.656-2.34-1.93-.562-.164-1.16-.175-1.734-.297-1.098-.234-2.297-1.078-2.961-1.98-.492.457-.582.543-1.164.879-.582.34-1.266.539-1.926.441-.602-.09-1.156-.437-1.543-.906-.39-.469-.707-1.25-.785-1.855-.508.808-1.438 1.308-2.387 1.406-.652.07-1.312-.035-1.953.082-.898.172-1.848.937-2.223 1.766-.793-.586-1.859-.66-2.84-.524-1.574.215-3.039.902-4.57 1.313-1.77.472-4.242.484-5.636-.051a9.4 9.4 0 0 1-.083-5.074c.348-1.297.965-2.508 1.313-3.805.352-1.297.43-2.89-.32-4.008.414-.332.828-.668 1.168-1.074.343-.406.609-.887.675-1.414.082-.606-.109-1.227-.02-1.836.126-.875.798-1.555 1.434-2.168-.863-.223-2-.586-2.472-1.344-.387-.613-.356-1.422-.098-2.101.258-.68.723-1.262 1.176-1.829-.836-.976-1.797-1.992-2.063-3.25-.132-.617-.109-1.253-.23-1.875-.117-.617-.414-1.253-.973-1.539-.16-.082-.34-.136-.496-.23s-.293-.246-.297-.43v-.004c-.062-1.797.883-3.472 1.137-5.254.07-.504.086-1.023.246-1.504.258-.753 1.176-1.378 1.742-1.945-.433-.574-.87-1.156-1.148-1.82s-.383-1.43-.129-2.102c.105-.297.285-.566.492-.804.703-.817 1.754-1.243 2.754-1.637l.016-.004c-.364-.602-.453-1.32-.516-2.016-.062-.699-.105-1.418-.387-2.054-.285-.64-.87-1.203-1.57-1.235.504-.75.566-1.902.332-2.777-.23-.875-.648-1.691-.879-2.57-.226-.875-.246-1.871.266-2.618-1.215-.68-2.45-1.378-3.172-2.57-.274-.445-.461-.98-.367-1.496.07-.39.297-.734.539-1.05q.598-.776 1.367-1.387c.344-.27.71-.524.98-.864s.434-.808.286-1.218c-.079-.688-.055-1.516.164-2.176.242-.742.785-1.356 1.008-2.102.257-.855.058-1.86-.524-2.527.406-.176.832-.36 1.125-.692.262-.3.395-.691.496-1.078.285-1.082.383-2.207.48-3.316.012-.11.02-.23-.038-.324-.059-.094-.418-.188-.489-.102-1.23-.297-2.242-1.367-2.465-2.617-.226-1.25.352-2.602 1.407-3.309-.918-.578-1.567-1.593-1.895-2.629-.332-1.035-.437-2.128-.601-3.203s-.407-2.164-.965-3.097c.875-.657 1.816-1.29 2.105-2.301.215-.734.168-1.527.344-2.277A3.95 3.95 0 0 1 10.5 32.91c-.45-.57-.895-1.312-1.117-2-.227-.691-.23-1.484.144-2.11.473-.792 1.528-1.195 2.43-1.405h.04c-.45-.332-.43-.31-.755-.758-.39-.551-.558-1.227-.66-1.899-.102-.668-.148-1.347-.336-1.996.016-.46-.23-1.012-.617-1.262-.258-.164-.59-.27-.715-.546a.63.63 0 0 1 .059-.563c.101-.164.285-.316.46-.414-.058-1.852-.812-3.602-1.288-5.39-.59-2.2-.77-4.5-.532-6.762 1.403-.535 4.078-.407 5.844.07 1.535.41 3 1.094 4.574 1.313.977.136 2.043.062 2.84-.524.375.832 1.324 1.598 2.223 1.766.64.117 1.3.015 1.953.082.953.097 1.879.597 2.387 1.406.082-.605.398-1.383.785-1.855.39-.47.941-.81 1.543-.907.664-.101 1.343.102 1.925.442.583.336.672.422 1.165.879.668-.903 1.863-1.747 2.96-1.98.575-.122 1.172-.134 1.735-.298.96-.273 1.937-1.011 2.34-1.93.765.454 1.73.336 2.582.59.48.145.926.403 1.418.512.629.137 1.293.016 1.922.152 1.332.297 2.097 1.653 3.39 2.094a8 8 0 0 1 2.637-1.258c.262-.074.535-.129.8-.086.415.063.759.348 1.036.66.695.77 1.113 1.563 1.223 2.594.648-.297 1.367-.379 2.07-.453.707-.074 1.426-.156 2.074-.445s1.242-.867 1.387-1.563a2.7 2.7 0 0 0 2.71.54c.583-.215 1.071-.626 1.637-.868 1.11-.476 2.32-.273 3.512-.074a9.6 9.6 0 0 1 2.61-2.82c.289-.203.597-.395.949-.453.414-.063.836.074 1.21.257A5.27 5.27 0 0 1 75.81 9l-.004-.219a4.65 4.65 0 0 1 3.215-.191c.773.242 1.472.68 2.246.922.773.242 1.703.234 2.293-.32.28.8 1.004 1.492 1.82 1.753 1.16.367 2.504-.047 3.586.508.414-.96 1.008-1.902 1.75-2.64.25-.254.539-.493.883-.579.418-.101.847.036 1.246.196.988.394 1.386.535 2.238 1.175.684-.687 1.402-1.398 2.324-1.703.813-.265 1.711-.187 2.52-.449.574-.183 1.094-.535 1.683-.668.395-.086.801-.07 1.204-.105s.812-.13 1.12-.387c.481.809 1.22 1.644 2.102 1.98 1.074.415 2.399-.062 3.367.555.383.238.649.617.961.942.313.32.719.613 1.168.593.758-.531 1.614-1.05 2.473-1.39.23-.09.473-.172.715-.141.324.047.578.29.789.543.59.7 1.008 1.54 1.21 2.43.477-.711 1.415-1.075 2.259-1.211.847-.133 1.722-.145 2.515-.465a3.47 3.47 0 0 0 1.656-1.406c.84.636 2.079.672 3.11.445 1.027-.223 1.98-.695 2.976-1.031 2.168-.742 4.95-.864 7.18-.332a18.5 18.5 0 0 1-.527 6.758c-.48 1.792-1.239 3.539-1.29 5.394.173.09.352.242.458.414.105.168.14.383.062.559-.125.28-.46.383-.715.547-.386.253-.636.8-.62 1.261-.184.653-.227 1.332-.333 2-.105.668-.27 1.344-.664 1.895-.32.453-.305.43-.75.758h.04c.898.21 1.948.617 2.429 1.41.371.62.371 1.414.144 2.105-.226.692-.668 1.43-1.117 2.004a3.95 3.95 0 0 1 1.832 2.485c.172.746.13 1.535.34 2.277.293 1.004 1.234 1.644 2.11 2.3-.567.93-.801 2.02-.965 3.094-.168 1.075-.27 2.168-.602 3.204-.332 1.039-.973 2.05-1.898 2.632 1.058.703 1.632 2.059 1.41 3.309-.223 1.246-1.235 2.32-2.469 2.617-.066-.086-.426.004-.484.102-.055.093-.047.207-.04.32.098 1.117.2 2.234.481 3.316.102.387.23.778.496 1.079.293.335.715.52 1.125.69-.586.669-.781 1.677-.523 2.528.219.75.765 1.364 1.008 2.102.218.66.242 1.484.16 2.176-.145.41.015.879.289 1.222.27.34.637.59.98.864.504.406.965.87 1.367 1.382.243.317.47.664.54 1.055.074.512-.114 1.043-.391 1.492m0 0"/></g></g><g clip-path="url(#c)"><g clip-path="url(#d)"><path fill="#fff" d="M4.043 4.043h135.902v135.902H4.043Zm0 0"/></g></g><g clip-path="url(#e)"><path fill-rule="evenodd" d="M57.43 109.746c2.89.668 4.77 2.91 5.027 6.106.07.863.68 1.546 1.527 1.71 3.766.739 5.942 4.122 5.325 7.63a6 6 0 0 1-.22.921 1.9 1.9 0 0 0 1.048 2.371c2.277.977 5.172 2.27 6.804 2.938 3.536 1.441 9.004-3.008 4.407-5.578l-7.336-3.582c-1.907-.528-1.817-2.93.593-2.395 1.032.23 2.125 1.008 3.11 1.508 2.61 1.328 4.832 2.637 7.027 3.723 5.313 2.625 9.844-3.184 5.692-5.598-1.922-1.121-4.403-2.492-5.778-3.281-1.316-.754-2.691-1.52-4.004-2.317-1.293-.785-3.66-1.48-2.629-3.132 1.047-1.125 3.829 1.183 6.04 2.43 1.863 1.046 6.98 3.737 8.894 4.843 5.262 3.242 10.219-1.129 5.422-5.484-.676-.743-14.25-8.883-15.84-9.61-1.848-1.484.113-3.129 1.453-2.238l19.668 13.023c4.578 1.864 8.895-3.546 5.29-6.988-9.958-7.668-20.227-15.75-31.692-21.953-1.961-1.121-5.227-2.992-6.324-3.332-4.297-1.316-9.301 6.84-12.028 9.086-4.027 2.195-9.14.918-10.804-1.797-1.657-2.691 2.164-7.61 4.878-11.184a1.87 1.87 0 0 0 .25-1.863 1.86 1.86 0 0 0-1.468-1.168c-1.11-.172-2.227-.347-3.34-.625-1.692-.418-2.617-1.039-3.578-1.625a1.86 1.86 0 0 0-1.438-.222 1.84 1.84 0 0 0-1.176.863c-2.816 4.683-10.664 18.734-12.882 23.11-.371.73-.25 1.573.312 2.171 1.11 1.176 2.031 2.422 3 3.68.3.39.844.488 1.262.222 3.484-2.23 7.734-2.21 10.101 1.77.168.285.45.453.782.465a.92.92 0 0 0 .812-.41l.586-.852c3.34-3.453 9.602-.582 9.758 4.863a1.88 1.88 0 0 0 1.469 1.801m6.976-85.656c-.02.172-.02.332.098.46.113.13.273.15.441.15l4.18.046c.688.461 1.86 1.27 2.734 1.27.88 0 2.051-.809 2.739-1.27l4.175-.047c.176 0 .332-.02.446-.148.113-.13.117-.29.097-.461-.336-2.856-1.347-6.649-2.191-8.953-.871-2.383-2.773-3.5-5.266-3.5-2.488 0-4.39 1.117-5.261 3.5-.848 2.304-1.86 6.097-2.192 8.953m-1.34 36.828-.265-1.73-.25-1.59c-2.102.144-4.059-.657-3.797-3.254l2.633-21.938c.34-1.968 1.586-3.113 2.941-3.683l2.477-.934c.562-.23.93-.16 1.367.414l3.465 4.094a.297.297 0 0 0 .449 0l3.465-4.094c.433-.574.8-.644 1.367-.414l2.477.934c1.355.57 2.601 1.715 2.94 3.683l2.63 21.938c.265 2.597-1.692 3.398-3.793 3.254l-.25 1.59-.227 1.472c-.082.54-.355.977-.804 1.281a1.83 1.83 0 0 1-1.485.286c-4.418-.989-8.625-.914-12.976.242a1.84 1.84 0 0 1-1.528-.246 1.84 1.84 0 0 1-.836-1.305M36.758 10.531a5.83 5.83 0 0 1 5.824 5.836c0 3.227-2.07 8.219-5.824 8.219-3.758 0-5.828-4.992-5.828-8.219a5.827 5.827 0 0 1 5.828-5.836m4.137 16.016 5.097 1.918c1.914.73 3.219 2.305 3.563 4.305l1.496 8.41c.344 1.922.265 3.61-.23 5.492l-2.95 10.945c-.348 1.27-1.418 2.113-2.723 2.113h-.343l-.215 3.688a1.85 1.85 0 0 1-1.02 1.578 1.84 1.84 0 0 1-1.87-.066L25.444 54.91a1.83 1.83 0 0 1-.836-1.125l-1.918-7.113c-.5-1.883-.574-3.57-.23-5.492l1.496-8.41c.344-1.997 1.645-3.575 3.563-4.305l5.097-1.918c.574-.23 1.07-.23 1.649-.117l1.84.422c.456.117.84.117 1.3 0l1.84-.422c.574-.114 1.07-.114 1.649.117m-2.297 2.535a10 10 0 0 1-1.766.152c-.805 0-1.492-.074-1.875-.23-.508 0 .086.898.191 1.039l.614.805-1.114 15.554c-.039.387.04.77.27 1.114l1.34 1.613c.117.195.308.27.496.27a.56.56 0 0 0 .5-.27l1.34-1.613c.23-.344.308-.727.27-1.114L37.75 30.848l.613-.805c.657-.766.328-.988.235-.961m90.398 66.207-7.05 4.344c-.45.281-.942.355-1.458.222a1.84 1.84 0 0 1-1.18-.89L103.267 71.05a1.906 1.906 0 0 1 .648-2.57l25.805-15.907a1.86 1.86 0 0 1 1.922-.043c.613.344.968.953.968 1.664v34.61c0 2.722-1.304 5.058-3.613 6.484m-22.031-84.758a5.827 5.827 0 0 1 5.828 5.836c0 3.227-2.07 8.219-5.828 8.219-3.754 0-5.824-4.992-5.824-8.219a5.827 5.827 0 0 1 5.824-5.836m4.14 16.016 5.098 1.918c1.914.73 3.219 2.305 3.563 4.305l1.496 8.41c.343 1.922.27 3.61-.23 5.492l-1.688 6.254a1.82 1.82 0 0 1-.836 1.125L101.98 64.238a1.84 1.84 0 0 1-1.875.067 1.86 1.86 0 0 1-1.015-1.575l-.172-3h-.344c-1.304 0-2.379-.843-2.722-2.113l-2.95-10.945c-.5-1.883-.578-3.57-.23-5.492l1.492-8.41c.348-1.997 1.648-3.575 3.566-4.305l5.094-1.918c.578-.23 1.074-.23 1.649-.117l1.84.422c.46.117.843.117 1.304 0l1.84-.422c.574-.114 1.074-.114 1.645.117Zm-2.3 2.535a10 10 0 0 1-1.762.152c-.805 0-1.496-.074-1.879-.23-.504 0 .09.898.191 1.039l.614.805-1.11 15.554c-.039.387.04.77.27 1.114l1.34 1.613c.113.195.304.27.496.27a.56.56 0 0 0 .5-.27l1.34-1.613c.23-.344.308-.727.27-1.114l-1.11-15.554.613-.805c.227-.27.457-.578.383-.883-.008-.035-.055-.105-.156-.078M36.57 103.145c-1.36.472-4.168 4.289-4.25 5.832-.136 2.597 2.551 5.257 5.274 4.324.988-.34 4.558-4.68 4.648-6.285.153-2.782-2.863-5.422-5.672-3.871m23.567 18.293-3.61 5.148c-2.16 4.508 2.559 6.875 5.457 5.144.676-.406 4.555-5.511 4.93-6.535 1.328-3.613-3.902-7.855-6.777-3.757m-5.426-9.168c-1.496.808-5.543 7.082-6.652 8.609-3.22 4.43 2.21 7.867 5.027 5.844.918-.52 4.934-6.336 6.016-7.825 3.074-4.222-1.313-8.289-4.391-6.628m-6.3-8.137c-1.49.64-7.27 8.629-8.868 11.02-2.906 4.343 2.086 8.468 5.55 5.773 1.227-.965 5.274-7.25 6.407-8.75 1.059-1.406 2.816-3.004 1.832-5.512-.629-1.605-2.844-3.426-4.922-2.531m60.464-2.008a100 100 0 0 0 5.094-4.738 1.88 1.88 0 0 0 .308-2.266l-9.851-17.691c-.79-1.332-2.067-3.395-2.91-5.04a1.87 1.87 0 0 0-2.063-.995c-12.59 2.543-19.344-8.59-33.765-4.188-3.485 1.063-13.102 13.629-15.454 18.809a1.89 1.89 0 0 0 .559 2.289c9.16 7.172 10.789-14.567 23.824-7.512 12.051 6.523 21.192 12.937 31.848 21.375.719.57 1.715.55 2.41-.043M11.109 89.52V54.91c0-.707.356-1.316.973-1.664a1.86 1.86 0 0 1 1.922.043l25.8 15.906c.876.54 1.165 1.68.653 2.57L24.414 99.68c-.266.46-.664.761-1.18.894a1.83 1.83 0 0 1-1.46-.226l-7.047-4.344c-2.313-1.426-3.618-3.762-3.618-6.484m0 0"/></g></svg>