<svg xmlns="http://www.w3.org/2000/svg" width="192" height="192" viewBox="0 0 144 144"><defs><clipPath id="a"><path d="M5 5h134v134H5Zm0 0"/></clipPath><clipPath id="b"><path d="M4.043 15.293v113.414c0 6.211 5.039 11.25 11.25 11.25h113.414c6.211 0 11.25-5.039 11.25-11.25V15.293c0-6.211-5.039-11.25-11.25-11.25H15.293c-6.211 0-11.25 5.039-11.25 11.25m0 0"/></clipPath><clipPath id="c"><path d="M4.043 4.043h135.75v135.75H4.043Zm0 0"/></clipPath><clipPath id="d"><path d="M4.043 15.293v113.414c0 6.211 5.039 11.25 11.25 11.25h113.414c6.211 0 11.25-5.039 11.25-11.25V15.293c0-6.211-5.039-11.25-11.25-11.25H15.293c-6.211 0-11.25 5.039-11.25 11.25m0 0"/></clipPath><clipPath id="e"><path d="M17.16 41h109.5v92.29H17.16Zm0 0"/></clipPath><clipPath id="f"><path d="M61 11.04h32V21H61Zm0 0"/></clipPath></defs><path fill="#fff" d="M-14.4-14.4h172.8v172.8H-14.4z"/><path fill="#fff" d="M-14.4-14.4h172.8v172.8H-14.4z"/><g clip-path="url(#a)"><g clip-path="url(#b)"><path fill="#001b3d" d="M138.297 73.156c-.723 1.192-1.957 1.895-3.172 2.574.516.743.496 1.743.266 2.618s-.645 1.691-.88 2.566-.171 2.035.337 2.781c-.7.028-1.286.59-1.57 1.23-.286.645-.329 1.356-.387 2.055-.063.7-.157 1.418-.52 2.016l.016.004c1.004.398 2.047.824 2.758 1.637.207.242.382.511.492.804.246.676.144 1.442-.133 2.102-.277.668-.719 1.246-1.149 1.824.563.559 1.485 1.188 1.743 1.945.16.481.175.997.246 1.5.25 1.782 1.195 3.458 1.136 5.254v.004c-.003.184-.14.34-.296.434-.157.094-.336.144-.496.226-.56.286-.856.922-.973 1.543-.117.618-.098 1.258-.23 1.872-.266 1.253-1.227 2.273-2.063 3.25.457.57.918 1.148 1.176 1.828.261.68.289 1.488-.098 2.105-.473.754-1.61 1.113-2.473 1.34.637.617 1.309 1.297 1.438 2.172.086.61-.102 1.226-.024 1.836.067.523.332 1.008.676 1.41.34.402.758.742 1.168 1.074-.746 1.117-.668 2.715-.32 4.008.351 1.297.969 2.508 1.312 3.805a9.45 9.45 0 0 1-.078 5.074c-2.226.531-4.808.535-6.976-.207-.996-.34-1.95-.809-2.977-1.031-1.031-.223-2.27-.188-3.105.445a3.47 3.47 0 0 0-1.657-1.406c-.793-.32-1.671-.332-2.515-.465-.848-.137-1.785-.5-2.262-1.211a5.8 5.8 0 0 1-1.21 2.43c-.212.246-.466.492-.79.539-.242.035-.484-.047-.71-.137-.864-.34-1.72-.856-2.477-1.39-.45-.024-.856.269-1.168.593-.313.324-.582.703-.961.941-.973.614-2.297.137-3.364.555-.879.34-1.625 1.168-2.105 1.98-.309-.261-.719-.351-1.121-.386-.403-.031-.809-.02-1.203-.11-.59-.128-1.106-.48-1.68-.664-.816-.261-1.711-.183-2.52-.449-.921-.3-1.64-1.015-2.328-1.703-.851.64-1.246.781-2.238 1.176-.398.156-.828.297-1.246.195-.344-.086-.629-.328-.883-.578-.738-.734-1.336-1.684-1.75-2.644-1.082.558-2.426.144-3.586.511-.812.262-1.535.95-1.816 1.754-.586-.558-1.524-.562-2.297-.32-.774.238-1.473.68-2.246.918a4.6 4.6 0 0 1-3.215-.192l.004-.214a5.25 5.25 0 0 1-2.754 3.347c-.379.188-.797.324-1.211.262-.348-.059-.66-.25-.945-.457a9.5 9.5 0 0 1-2.614-2.816c-1.187.203-2.402.406-3.511-.075-.567-.242-1.059-.652-1.637-.867-.906-.336-1.996-.117-2.71.535-.145-.695-.743-1.273-1.388-1.562-.648-.29-1.367-.367-2.074-.442-.703-.074-1.422-.156-2.066-.453-.114 1.031-.528 1.824-1.227 2.594-.281.312-.62.598-1.035.66-.266.043-.54-.016-.8-.086a8.1 8.1 0 0 1-2.638-1.258c-1.289.442-2.058 1.793-3.39 2.094-.625.137-1.297.012-1.922.152-.492.11-.934.368-1.418.512-.852.25-1.82.133-2.582.59-.402-.914-1.383-1.656-2.34-1.93-.562-.164-1.16-.175-1.734-.297-1.098-.234-2.297-1.078-2.961-1.98-.492.457-.582.543-1.164.879-.582.34-1.266.539-1.926.441-.602-.09-1.156-.437-1.543-.906-.39-.469-.707-1.25-.785-1.855-.508.808-1.438 1.308-2.387 1.406-.652.07-1.312-.035-1.953.082-.898.172-1.848.937-2.223 1.766-.793-.586-1.859-.66-2.84-.524-1.574.215-3.039.902-4.57 1.313-1.77.472-4.242.484-5.636-.051a9.4 9.4 0 0 1-.083-5.074c.348-1.297.965-2.508 1.313-3.805.352-1.297.43-2.89-.32-4.008.414-.332.828-.668 1.168-1.074.343-.406.609-.887.675-1.414.082-.606-.109-1.227-.02-1.836.126-.875.798-1.555 1.434-2.168-.863-.223-2-.586-2.472-1.344-.387-.613-.356-1.422-.098-2.101.258-.68.723-1.262 1.176-1.829-.836-.976-1.797-1.992-2.063-3.25-.132-.617-.109-1.253-.23-1.875-.117-.617-.414-1.253-.973-1.539-.16-.082-.34-.136-.496-.23s-.293-.246-.297-.43v-.004c-.062-1.797.883-3.472 1.137-5.254.07-.504.086-1.023.246-1.504.258-.753 1.176-1.378 1.742-1.945-.433-.574-.87-1.156-1.148-1.82s-.383-1.43-.129-2.102c.105-.297.285-.566.492-.804.703-.817 1.754-1.243 2.754-1.637l.016-.004c-.364-.602-.453-1.32-.516-2.016-.062-.699-.105-1.418-.387-2.054-.285-.64-.87-1.203-1.57-1.235.504-.75.566-1.902.332-2.777-.23-.875-.648-1.691-.879-2.57-.226-.875-.246-1.871.266-2.618-1.215-.68-2.45-1.378-3.172-2.57-.274-.445-.461-.98-.367-1.496.07-.39.297-.734.539-1.05q.598-.776 1.367-1.387c.344-.27.71-.524.98-.864s.434-.808.286-1.218c-.079-.688-.055-1.516.164-2.176.242-.742.785-1.356 1.008-2.102.257-.855.058-1.86-.524-2.527.406-.176.832-.36 1.125-.692.262-.3.395-.691.496-1.078.285-1.082.383-2.207.48-3.316.012-.11.02-.23-.038-.324-.059-.094-.418-.188-.489-.102-1.23-.297-2.242-1.367-2.465-2.617-.226-1.25.352-2.602 1.407-3.309-.918-.578-1.567-1.593-1.895-2.629-.332-1.035-.437-2.128-.601-3.203s-.407-2.164-.965-3.097c.875-.657 1.816-1.29 2.105-2.301.215-.734.168-1.527.344-2.277A3.95 3.95 0 0 1 10.5 32.91c-.45-.57-.895-1.312-1.117-2-.227-.691-.23-1.484.144-2.11.473-.792 1.528-1.195 2.43-1.405h.04c-.45-.332-.43-.31-.755-.758-.39-.551-.558-1.227-.66-1.899-.102-.668-.148-1.347-.336-1.996.016-.46-.23-1.012-.617-1.262-.258-.164-.59-.27-.715-.546a.63.63 0 0 1 .059-.563c.101-.164.285-.316.46-.414-.058-1.852-.812-3.602-1.288-5.39-.59-2.2-.77-4.5-.532-6.762 1.403-.535 4.078-.407 5.844.07 1.535.41 3 1.094 4.574 1.313.977.136 2.043.062 2.84-.524.375.832 1.324 1.598 2.223 1.766.64.117 1.3.015 1.953.082.953.097 1.879.597 2.387 1.406.082-.605.398-1.383.785-1.855.39-.47.941-.81 1.543-.907.664-.101 1.343.102 1.925.442.583.336.672.422 1.165.879.668-.903 1.863-1.747 2.96-1.98.575-.122 1.172-.134 1.735-.298.96-.273 1.937-1.011 2.34-1.93.765.454 1.73.336 2.582.59.48.145.926.403 1.418.512.629.137 1.293.016 1.922.152 1.332.297 2.097 1.653 3.39 2.094a8 8 0 0 1 2.637-1.258c.262-.074.535-.129.8-.086.415.063.759.348 1.036.66.695.77 1.113 1.563 1.223 2.594.648-.297 1.367-.379 2.07-.453.707-.074 1.426-.156 2.074-.445s1.242-.867 1.387-1.563a2.7 2.7 0 0 0 2.71.54c.583-.215 1.071-.626 1.637-.868 1.11-.476 2.32-.273 3.512-.074a9.6 9.6 0 0 1 2.61-2.82c.289-.203.597-.395.949-.453.414-.063.836.074 1.21.257A5.27 5.27 0 0 1 75.81 9l-.004-.219a4.65 4.65 0 0 1 3.215-.191c.773.242 1.472.68 2.246.922.773.242 1.703.234 2.293-.32.28.8 1.004 1.492 1.82 1.753 1.16.367 2.504-.047 3.586.508.414-.96 1.008-1.902 1.75-2.64.25-.254.539-.493.883-.579.418-.101.847.036 1.246.196.988.394 1.386.535 2.238 1.175.684-.687 1.402-1.398 2.324-1.703.813-.265 1.711-.187 2.52-.449.574-.183 1.094-.535 1.683-.668.395-.086.801-.07 1.204-.105s.812-.13 1.12-.387c.481.809 1.22 1.644 2.102 1.98 1.074.415 2.399-.062 3.367.555.383.238.649.617.961.942.313.32.719.613 1.168.593.758-.531 1.614-1.05 2.473-1.39.23-.09.473-.172.715-.141.324.047.578.29.789.543.59.7 1.008 1.54 1.21 2.43.477-.711 1.415-1.075 2.259-1.211.847-.133 1.722-.145 2.515-.465a3.47 3.47 0 0 0 1.656-1.406c.84.636 2.079.672 3.11.445 1.027-.223 1.98-.695 2.976-1.031 2.168-.742 4.95-.864 7.18-.332a18.5 18.5 0 0 1-.527 6.758c-.48 1.792-1.239 3.539-1.29 5.394.173.09.352.242.458.414.105.168.14.383.062.559-.125.28-.46.383-.715.547-.386.253-.636.8-.62 1.261-.184.653-.227 1.332-.333 2-.105.668-.27 1.344-.664 1.895-.32.453-.305.43-.75.758h.04c.898.21 1.948.617 2.429 1.41.371.62.371 1.414.144 2.105-.226.692-.668 1.43-1.117 2.004a3.95 3.95 0 0 1 1.832 2.485c.172.746.13 1.535.34 2.277.293 1.004 1.234 1.644 2.11 2.3-.567.93-.801 2.02-.965 3.094-.168 1.075-.27 2.168-.602 3.204-.332 1.039-.973 2.05-1.898 2.632 1.058.703 1.632 2.059 1.41 3.309-.223 1.246-1.235 2.32-2.469 2.617-.066-.086-.426.004-.484.102-.055.093-.047.207-.04.32.098 1.117.2 2.234.481 3.316.102.387.23.778.496 1.079.293.335.715.52 1.125.69-.586.669-.781 1.677-.523 2.528.219.75.765 1.364 1.008 2.102.218.66.242 1.484.16 2.176-.145.41.015.879.289 1.222.27.34.637.59.98.864.504.406.965.87 1.367 1.382.243.317.47.664.54 1.055.074.512-.114 1.043-.391 1.492m0 0"/></g></g><g clip-path="url(#c)"><g clip-path="url(#d)"><path fill="#fff" d="M4.043 4.043h135.902v135.902H4.043Zm0 0"/></g></g><g clip-path="url(#e)"><path d="M119.453 84.781h-17.566V50.812c0-5.113-4.14-9.277-9.235-9.277H61.285c-5.09 0-9.234 4.164-9.234 9.278v.796H25.477c-2.301 0-4.442 1.063-6.024 2.993-1.48 1.808-2.297 4.187-2.297 6.695V86.68c0 2.507.817 4.886 2.297 6.695 1.582 1.93 3.723 2.992 6.024 2.992H52.05V124c0 5.113 4.144 9.277 9.234 9.277h31.367c5.094 0 9.235-4.16 9.235-9.277v-7.625h17.566c3.973 0 7.207-3.246 7.207-7.238V92.02c0-3.993-3.234-7.239-7.207-7.239M22.77 90.633c-.852-1.035-1.32-2.442-1.32-3.953V61.297c0-1.512.468-2.918 1.32-3.953.75-.918 1.71-1.422 2.707-1.422h32.136c.992 0 1.957.504 2.707 1.422.848 1.035 1.317 2.441 1.317 3.953v36.855l-6.164-5.547a2.14 2.14 0 0 0-1.434-.55H25.477c-.997 0-1.957-.504-2.707-1.422m69.882 37.937H61.285c-2.508 0-4.55-2.05-4.55-4.57V99.531l5.617 5.051a2.13 2.13 0 0 0 2.308.363 2.15 2.15 0 0 0 1.27-1.968v-41.68c0-2.508-.813-4.887-2.297-6.695-1.578-1.93-3.719-2.993-6.02-2.993h-.879v-.797c0-2.519 2.043-4.574 4.551-4.574h31.367c2.512 0 4.551 2.055 4.551 4.575V84.78h-1.668c-3.972 0-7.203 3.246-7.203 7.239v30.515a2.156 2.156 0 0 0 2.145 2.156c.574 0 1.132-.23 1.546-.66l5.18-5.394V124c0 2.52-2.039 4.57-4.55 4.57m29.715-19.433a2.924 2.924 0 0 1-2.914 2.925H98.465c-.586 0-1.145.239-1.547.66l-4.293 4.473V92.02a2.92 2.92 0 0 1 2.91-2.926h23.918a2.92 2.92 0 0 1 2.91 2.926v17.117Zm0 0"/></g><path d="M107.613 92.914a6.4 6.4 0 0 0-3.57-1.078 6.44 6.44 0 0 0-4.582 1.906c-2.523 2.535-2.523 6.664 0 9.2l.512.511 6.12 6.149a2.14 2.14 0 0 0 3.036 0l6.125-6.149.508-.512a6.46 6.46 0 0 0 1.898-4.597 6.47 6.47 0 0 0-1.898-4.602 6.47 6.47 0 0 0-8.149-.828m-5.113 6.98a2.18 2.18 0 0 1-.64-1.55c0-.586.226-1.137.64-1.551a2.17 2.17 0 0 1 3.086 0l.508.512q.2.198.43.332c.75.445 1.714.39 2.413-.16l.032-.024v-.004c.054-.043.11-.094.164-.144l.508-.512a2.17 2.17 0 0 1 3.086 0c.414.414.64.965.64 1.55 0 .583-.226 1.134-.64 1.548l-5.114 5.14ZM56.879 85.023a4.3 4.3 0 0 0-.313-1.609c.594-.742.95-1.68.95-2.703a4.3 4.3 0 0 0-.403-1.82 4.3 4.3 0 0 0 .793-2.489c0-.511-.09-1-.25-1.453a4.3 4.3 0 0 0 1.082-2.86c0-2.378-1.925-4.312-4.293-4.312H46.56c.09-1.683.062-3.375-.086-5.05-.059-2.98-2.489-5.387-5.47-5.387-2.218 0-4.023 1.812-4.023 4.043v1.133c0 1.441-.175 2.882-.52 4.285a2.894 2.894 0 0 1-2.808 2.203h-5.976a2.15 2.15 0 0 0-2.149 2.156v16.02c0 1.191.961 2.156 2.149 2.156h24.91c2.367 0 4.293-1.934 4.293-4.313m-25.375 0H29.82V73.316h1.684Zm21.719-8.62a2.15 2.15 0 0 0-2.145 2.152v.004a2.15 2.15 0 0 0 2.078 2.152h-.57a2.15 2.15 0 0 0-2.148 2.156c0 1.168.925 2.121 2.082 2.156H35.8v-12.03a7.2 7.2 0 0 0 4.825-5.153c.43-1.742.648-3.531.648-5.324v-.832c.52.12.907.59.907 1.148q.001.098.008.195c.187 2.086.167 4.2-.063 6.282l-.043.386a2.16 2.16 0 0 0 .535 1.676c.406.457.988.719 1.602.719h9.324a2.156 2.156 0 0 0-2.078 2.156c0 1.168.926 2.121 2.082 2.156ZM79.84 32.84c0 .383-.07.75-.219 1.101a2.862 2.862 0 0 1-3.75 1.563 2.9 2.9 0 0 1-.933-.625 2.8 2.8 0 0 1-.622-.938 2.905 2.905 0 0 1 0-2.207q.218-.528.621-.933a2.85 2.85 0 0 1 3.13-.63c.355.15.663.356.933.63q.405.406.621.933c.149.356.219.723.219 1.106m0 0"/><g clip-path="url(#f)"><path d="M64.395 20.207c3.359-3.371 7.824-5.23 12.574-5.23s9.215 1.859 12.574 5.23a1.95 1.95 0 0 0 2.762 0 1.964 1.964 0 0 0 0-2.77c-4.098-4.117-9.543-6.382-15.336-6.382S65.73 13.32 61.633 17.438a1.964 1.964 0 0 0 0 2.769c.765.766 2 .766 2.762 0m0 0"/></g><path d="M83.293 29.258a1.964 1.964 0 0 0 0-2.77 8.85 8.85 0 0 0-6.324-2.633 8.86 8.86 0 0 0-6.324 2.633 1.964 1.964 0 0 0 0 2.77 1.95 1.95 0 0 0 2.761 0 5 5 0 0 1 3.563-1.48c1.347 0 2.613.527 3.566 1.48a1.943 1.943 0 0 0 2.758 0m0 0"/><path d="M86.348 25.379c.5 0 1-.192 1.379-.574a1.964 1.964 0 0 0 0-2.77 15.08 15.08 0 0 0-10.758-4.476c-4.063 0-7.883 1.59-10.758 4.476a1.964 1.964 0 0 0 0 2.77c.762.765 2 .765 2.762 0a11.22 11.22 0 0 1 7.996-3.328 11.22 11.22 0 0 1 8 3.328c.379.383.879.574 1.379.574M72.523 54.73h8.536a2.15 2.15 0 0 0 2.144-2.156 2.15 2.15 0 0 0-2.144-2.156h-8.536a2.15 2.15 0 0 0-2.144 2.156 2.15 2.15 0 0 0 2.144 2.156M79.836 122.05q.001.634-.238 1.22a3.218 3.218 0 0 1-1.719 1.727 3.165 3.165 0 0 1-3.461-.692 3.2 3.2 0 0 1-.688-1.035 3.19 3.19 0 0 1 0-2.442 3.18 3.18 0 0 1 2.934-1.965c.422 0 .824.078 1.215.242q.581.24 1.027.692a3.13 3.13 0 0 1 .93 2.254M70.613 62.371h5.184v4.313h-5.184ZM80.11 62.371h11.757v4.313H80.11ZM70.36 69.707h21.507v4.313H70.36ZM70.36 77.04h21.507v4.312H70.36ZM70.39 109.164h13.864v4.313H70.39ZM70.39 102.125h13.864v4.313H70.39ZM61.61 109.164h4.507v4.313H61.61Zm0 0"/></svg>