<svg xmlns="http://www.w3.org/2000/svg" width="192" height="192" viewBox="0 0 144 144"><defs><clipPath id="a"><path d="M5 5h134v134H5Zm0 0"/></clipPath><clipPath id="b"><path d="M4.043 15.293v113.414c0 6.211 5.039 11.25 11.25 11.25h113.414c6.211 0 11.25-5.039 11.25-11.25V15.293c0-6.211-5.039-11.25-11.25-11.25H15.293c-6.211 0-11.25 5.039-11.25 11.25m0 0"/></clipPath><clipPath id="c"><path d="M4.043 4.043h135.75v135.75H4.043Zm0 0"/></clipPath><clipPath id="d"><path d="M4.043 15.293v113.414c0 6.211 5.039 11.25 11.25 11.25h113.414c6.211 0 11.25-5.039 11.25-11.25V15.293c0-6.211-5.039-11.25-11.25-11.25H15.293c-6.211 0-11.25 5.039-11.25 11.25m0 0"/></clipPath><clipPath id="e"><path d="M68 13h61.898v118H68Zm0 0"/></clipPath><clipPath id="f"><path d="M48 9.223h15V65H48Zm0 0"/></clipPath><clipPath id="g"><path d="M14.398 73H46v50H14.398Zm0 0"/></clipPath><clipPath id="h"><path d="M31 9.223h62v125.246H31Zm0 0"/></clipPath></defs><path fill="#fff" d="M-14.4-14.4h172.8v172.8H-14.4z"/><path fill="#fff" d="M-14.4-14.4h172.8v172.8H-14.4z"/><g clip-path="url(#a)"><g clip-path="url(#b)"><path fill="#001b3d" d="M138.297 73.156c-.723 1.192-1.957 1.895-3.172 2.574.516.743.496 1.743.266 2.618s-.645 1.691-.88 2.566-.171 2.035.337 2.781c-.7.028-1.286.59-1.57 1.23-.286.645-.329 1.356-.387 2.055-.063.7-.157 1.418-.52 2.016l.016.004c1.004.398 2.047.824 2.758 1.637.207.242.382.511.492.804.246.676.144 1.442-.133 2.102-.277.668-.719 1.246-1.149 1.824.563.559 1.485 1.188 1.743 1.945.16.481.175.997.246 1.5.25 1.782 1.195 3.458 1.136 5.254v.004c-.003.184-.14.34-.296.434-.157.094-.336.144-.496.226-.56.286-.856.922-.973 1.543-.117.618-.098 1.258-.23 1.872-.266 1.253-1.227 2.273-2.063 3.25.457.57.918 1.148 1.176 1.828.261.68.289 1.488-.098 2.105-.473.754-1.61 1.113-2.473 1.34.637.617 1.309 1.297 1.438 2.172.086.61-.102 1.226-.024 1.836.067.523.332 1.008.676 1.41.34.402.758.742 1.168 1.074-.746 1.117-.668 2.715-.32 4.008.351 1.297.969 2.508 1.312 3.805a9.45 9.45 0 0 1-.078 5.074c-2.226.531-4.808.535-6.976-.207-.996-.34-1.95-.809-2.977-1.031-1.031-.223-2.27-.188-3.105.445a3.47 3.47 0 0 0-1.657-1.406c-.793-.32-1.671-.332-2.515-.465-.848-.137-1.785-.5-2.262-1.211a5.8 5.8 0 0 1-1.21 2.43c-.212.246-.466.492-.79.539-.242.035-.484-.047-.71-.137-.864-.34-1.72-.856-2.477-1.39-.45-.024-.856.269-1.168.593-.313.324-.582.703-.961.941-.973.614-2.297.137-3.364.555-.879.34-1.625 1.168-2.105 1.98-.309-.261-.719-.351-1.121-.386-.403-.031-.809-.02-1.203-.11-.59-.128-1.106-.48-1.68-.664-.816-.261-1.711-.183-2.52-.449-.921-.3-1.64-1.015-2.328-1.703-.851.64-1.246.781-2.238 1.176-.398.156-.828.297-1.246.195-.344-.086-.629-.328-.883-.578-.738-.734-1.336-1.684-1.75-2.644-1.082.558-2.426.144-3.586.511-.812.262-1.535.95-1.816 1.754-.586-.558-1.524-.562-2.297-.32-.774.238-1.473.68-2.246.918a4.6 4.6 0 0 1-3.215-.192l.004-.214a5.25 5.25 0 0 1-2.754 3.347c-.379.188-.797.324-1.211.262-.348-.059-.66-.25-.945-.457a9.5 9.5 0 0 1-2.614-2.816c-1.187.203-2.402.406-3.511-.075-.567-.242-1.059-.652-1.637-.867-.906-.336-1.996-.117-2.71.535-.145-.695-.743-1.273-1.388-1.562-.648-.29-1.367-.367-2.074-.442-.703-.074-1.422-.156-2.066-.453-.114 1.031-.528 1.824-1.227 2.594-.281.312-.62.598-1.035.66-.266.043-.54-.016-.8-.086a8.1 8.1 0 0 1-2.638-1.258c-1.289.442-2.058 1.793-3.39 2.094-.625.137-1.297.012-1.922.152-.492.11-.934.368-1.418.512-.852.25-1.82.133-2.582.59-.402-.914-1.383-1.656-2.34-1.93-.562-.164-1.16-.175-1.734-.297-1.098-.234-2.297-1.078-2.961-1.98-.492.457-.582.543-1.164.879-.582.34-1.266.539-1.926.441-.602-.09-1.156-.437-1.543-.906-.39-.469-.707-1.25-.785-1.855-.508.808-1.438 1.308-2.387 1.406-.652.07-1.312-.035-1.953.082-.898.172-1.848.937-2.223 1.766-.793-.586-1.859-.66-2.84-.524-1.574.215-3.039.902-4.57 1.313-1.77.472-4.242.484-5.636-.051a9.4 9.4 0 0 1-.083-5.074c.348-1.297.965-2.508 1.313-3.805.352-1.297.43-2.89-.32-4.008.414-.332.828-.668 1.168-1.074.343-.406.609-.887.675-1.414.082-.606-.109-1.227-.02-1.836.126-.875.798-1.555 1.434-2.168-.863-.223-2-.586-2.472-1.344-.387-.613-.356-1.422-.098-2.101.258-.68.723-1.262 1.176-1.829-.836-.976-1.797-1.992-2.063-3.25-.132-.617-.109-1.253-.23-1.875-.117-.617-.414-1.253-.973-1.539-.16-.082-.34-.136-.496-.23s-.293-.246-.297-.43v-.004c-.062-1.797.883-3.472 1.137-5.254.07-.504.086-1.023.246-1.504.258-.753 1.176-1.378 1.742-1.945-.433-.574-.87-1.156-1.148-1.82s-.383-1.43-.129-2.102c.105-.297.285-.566.492-.804.703-.817 1.754-1.243 2.754-1.637l.016-.004c-.364-.602-.453-1.32-.516-2.016-.062-.699-.105-1.418-.387-2.054-.285-.64-.87-1.203-1.57-1.235.504-.75.566-1.902.332-2.777-.23-.875-.648-1.691-.879-2.57-.226-.875-.246-1.871.266-2.618-1.215-.68-2.45-1.378-3.172-2.57-.274-.445-.461-.98-.367-1.496.07-.39.297-.734.539-1.05q.598-.776 1.367-1.387c.344-.27.71-.524.98-.864s.434-.808.286-1.218c-.079-.688-.055-1.516.164-2.176.242-.742.785-1.356 1.008-2.102.257-.855.058-1.86-.524-2.527.406-.176.832-.36 1.125-.692.262-.3.395-.691.496-1.078.285-1.082.383-2.207.48-3.316.012-.11.02-.23-.038-.324-.059-.094-.418-.188-.489-.102-1.23-.297-2.242-1.367-2.465-2.617-.226-1.25.352-2.602 1.407-3.309-.918-.578-1.567-1.593-1.895-2.629-.332-1.035-.437-2.128-.601-3.203s-.407-2.164-.965-3.097c.875-.657 1.816-1.29 2.105-2.301.215-.734.168-1.527.344-2.277A3.95 3.95 0 0 1 10.5 32.91c-.45-.57-.895-1.312-1.117-2-.227-.691-.23-1.484.144-2.11.473-.792 1.528-1.195 2.43-1.405h.04c-.45-.332-.43-.31-.755-.758-.39-.551-.558-1.227-.66-1.899-.102-.668-.148-1.347-.336-1.996.016-.46-.23-1.012-.617-1.262-.258-.164-.59-.27-.715-.546a.63.63 0 0 1 .059-.563c.101-.164.285-.316.46-.414-.058-1.852-.812-3.602-1.288-5.39-.59-2.2-.77-4.5-.532-6.762 1.403-.535 4.078-.407 5.844.07 1.535.41 3 1.094 4.574 1.313.977.136 2.043.062 2.84-.524.375.832 1.324 1.598 2.223 1.766.64.117 1.3.015 1.953.082.953.097 1.879.597 2.387 1.406.082-.605.398-1.383.785-1.855.39-.47.941-.81 1.543-.907.664-.101 1.343.102 1.925.442.583.336.672.422 1.165.879.668-.903 1.863-1.747 2.96-1.98.575-.122 1.172-.134 1.735-.298.96-.273 1.937-1.011 2.34-1.93.765.454 1.73.336 2.582.59.48.145.926.403 1.418.512.629.137 1.293.016 1.922.152 1.332.297 2.097 1.653 3.39 2.094a8 8 0 0 1 2.637-1.258c.262-.074.535-.129.8-.086.415.063.759.348 1.036.66.695.77 1.113 1.563 1.223 2.594.648-.297 1.367-.379 2.07-.453.707-.074 1.426-.156 2.074-.445s1.242-.867 1.387-1.563a2.7 2.7 0 0 0 2.71.54c.583-.215 1.071-.626 1.637-.868 1.11-.476 2.32-.273 3.512-.074a9.6 9.6 0 0 1 2.61-2.82c.289-.203.597-.395.949-.453.414-.063.836.074 1.21.257A5.27 5.27 0 0 1 75.81 9l-.004-.219a4.65 4.65 0 0 1 3.215-.191c.773.242 1.472.68 2.246.922.773.242 1.703.234 2.293-.32.28.8 1.004 1.492 1.82 1.753 1.16.367 2.504-.047 3.586.508.414-.96 1.008-1.902 1.75-2.64.25-.254.539-.493.883-.579.418-.101.847.036 1.246.196.988.394 1.386.535 2.238 1.175.684-.687 1.402-1.398 2.324-1.703.813-.265 1.711-.187 2.52-.449.574-.183 1.094-.535 1.683-.668.395-.086.801-.07 1.204-.105s.812-.13 1.12-.387c.481.809 1.22 1.644 2.102 1.98 1.074.415 2.399-.062 3.367.555.383.238.649.617.961.942.313.32.719.613 1.168.593.758-.531 1.614-1.05 2.473-1.39.23-.09.473-.172.715-.141.324.047.578.29.789.543.59.7 1.008 1.54 1.21 2.43.477-.711 1.415-1.075 2.259-1.211.847-.133 1.722-.145 2.515-.465a3.47 3.47 0 0 0 1.656-1.406c.84.636 2.079.672 3.11.445 1.027-.223 1.98-.695 2.976-1.031 2.168-.742 4.95-.864 7.18-.332a18.5 18.5 0 0 1-.527 6.758c-.48 1.792-1.239 3.539-1.29 5.394.173.09.352.242.458.414.105.168.14.383.062.559-.125.28-.46.383-.715.547-.386.253-.636.8-.62 1.261-.184.653-.227 1.332-.333 2-.105.668-.27 1.344-.664 1.895-.32.453-.305.43-.75.758h.04c.898.21 1.948.617 2.429 1.41.371.62.371 1.414.144 2.105-.226.692-.668 1.43-1.117 2.004a3.95 3.95 0 0 1 1.832 2.485c.172.746.13 1.535.34 2.277.293 1.004 1.234 1.644 2.11 2.3-.567.93-.801 2.02-.965 3.094-.168 1.075-.27 2.168-.602 3.204-.332 1.039-.973 2.05-1.898 2.628 1.058.707 1.632 2.063 1.41 3.313-.223 1.246-1.235 2.32-2.469 2.617-.066-.086-.426.004-.484.102-.055.093-.047.207-.04.32.098 1.117.2 2.234.481 3.316.102.387.23.778.496 1.079.293.335.715.52 1.125.69-.586.669-.781 1.677-.523 2.528.219.75.765 1.364 1.008 2.102.218.66.242 1.484.16 2.176-.145.41.015.879.289 1.222.27.34.637.59.98.864.504.406.965.87 1.367 1.382.243.317.47.664.54 1.055.074.512-.114 1.043-.391 1.492m0 0"/></g></g><g clip-path="url(#c)"><g clip-path="url(#d)"><path fill="#fff" d="M4.043 4.043h135.902v135.902H4.043Zm0 0"/></g></g><g clip-path="url(#e)"><path d="M129.863 90.988c-5.742.73-10.922.555-15.144-4.636 4.832.007 9.152-.008 11.847-4.07 1.485-2.227 1.809-3.942 1.243-6.884-.118-.62-.965-.726-1.235-.156l-.008.008c-2.046 4.473-7.941 4.738-10.89-.29-2.512-4.284-1.305-8.573.61-12.733 2.007-4.325 5.187-8.102 6.234-12.84 2.484-11.067 2.183-21.594-6.508-30.317-3.774-3.785-8.403-5.468-13.496-5.875a.813.813 0 0 0-.809 1.137l.008.008c3.597 7.797.984 14.289-6.977 17.555-4.078 1.671-8.46 1.93-12.68 2.94-3.562.852-7.027 1.97-9.859 4.423-4.062 3.512-4.746 6.246-3.113 12.418.676 2.558 1.309 5.351 2.773 7.71-.066-1.472-.101-2.949-.199-4.421-.117-1.656.375-3.488.957-4.973 2.121-5.367 6.094-8.457 11.762-9.195 3.406-.445 6.887-.34 10.308-.711 8.56-.918 11.376-3.04 16.168-11.969.891 6.988-.632 13.344-5.011 18.2-5.203 5.757-6.328 11.68-4.297 18.87 1.133 4.024.375 4.739-3.738 5.153-1.84.187-1.88 1.265-1.664 2.515.343 1.95.382 3.688-1.98 4.36-.825.23-.618.867-.75 1.422-.259 1.113-.825 2.289-2.024 2.312-2.282.035-3.024 1.508-3.813 3.2-1.426 3.03-4.023 3.636-6.562 1.421-1.282-1.117-2.254-2.566-3.336-3.89-.66-.813-1.325-1.575-2.508-1.383-1.192.195-1.567 1.14-1.824 2.152-1.524 5.824-1.68 11.297-.567 16.45.367.199.824.425 1.367.69l.45.216q.752.344 1.515.695c2.508 1.125 5.352 2.41 7.735 4.984 3.09 3.348 4.68 7.293 4.722 11.73 2.262 1.731 5.059 2.735 7.457 4.294 3.848 2.508 6.246 5.5 4.848 8.82 4.129-.933 5.313-4.855 4.063-13.46 6.035-.325 9.867 2.75 11.265 9.445 2.77-3.547 2.274-7.192 1.43-10.688-.965-3.992-4.961-5.633-7.559-8.434 4.598-1.894 8.051-.605 11.324 4.094 1.614-3.305.692-5.66-4.289-10.527 4.848-2.246 9.715-4.434 12.754-9.77m0 0"/></g><path d="M65.988 44.934c1.2-4.856 4.012-8.27 8.817-9.977 4.687-1.664 9.601-2.426 14.379-3.734 2.757-.754 5.355-1.856 7.742-3.407 4.648-3.023 5.488-9.195 2.816-13.187 0 1.21-.058 1.59-.226 2.223-.989 3.832-2.364 5.265-5.329 6.453-4.171 1.672-8.648 2.011-12.98 3.004-2.672.613-5.3 1.32-7.816 2.421-8.22 3.602-11.157 10.18-8.325 18.918.59-1.523.715-1.878.922-2.714M95.262 56.473c.875.511 2.574.527 3.191-.575.649-1.168 1.164-2.617-.535-3.726-1.598-1.043-6.02-2.95-8.523-3.031-.961-.036-1.075.37-.61 1.207 1.406 2.562 4.621 5.039 6.477 6.125m0 0"/><g clip-path="url(#f)"><path d="M62.008 10.031c.027-.539-.738-.668-.899-.156-4.152 13.578-7.859 27.305-12.84 40.723 1.368 3.77 3.715 10.148 5.266 14.109 2.613-9.957 7.906-43.566 8.473-54.676m0 0"/></g><g clip-path="url(#g)"><path d="M40.535 73.52c-.305 1.19-.7 2.3-1.113 3.46-1.059 2.965-1.98 6.38-3.672 9.313-2.29 3.969-5.105 7.48-8.633 10.422-.527.437-1.066.746-1.793.875-6.418 1.187-10.945 6.695-10.613 13.37.398 8.169 9.348 14.099 17 11.095 9.066-3.563 11.34-13.942 4.59-21.059-.543-.57-.844-1.137-.817-1.945.215-6.106 1.899-11.7 5.762-16.543 1.348-1.692 2.738-3.356 3.91-4.781a178 178 0 0 0-3.23-2.825c-.524-.437-.98-.902-1.39-1.382m-3.18 36.664c-.015 5.316-4.652 9.84-10.015 9.773-5.438-.059-9.781-4.531-9.707-9.988.074-5.535 4.37-9.66 10-9.61 5.336.047 9.738 4.504 9.722 9.825m0 0"/></g><g clip-path="url(#h)"><path d="M90.957 131.266c-2.672-.465-4.555-1.996-5.637-4.434-1.215-2.734-1.797-5.617-1.64-8.598.203-3.652-.95-6.793-3.422-9.468-2.121-2.309-5.051-3.297-7.774-4.606-2.367-1.144-4.863-2.172-5.687-4.976-.41-1.41-.582-2.883-.758-4.352-.418-3.512-1.64-6.852-3.879-9.441-3.832-4.457-6.562-9.477-9.008-14.715-.21-.438-.632-1.34-.828-1.746-1.496-3.164-7.176-18.91-7.176-18.91C40.254 36.219 36.29 23.852 32.16 9.719c-.156-.531-.941-.383-.898.164v.015c.597 9.356 2.148 16.883 3.539 26.13a681 681 0 0 0 5.011 28.968c.583 2.98 1.442 5.758 3.887 7.844 3.707 3.156 7.285 6.469 10.594 10.047 4.426 4.789 8.148 10 9.008 16.676.465 3.652-.242 6.808-2.414 10.214-1.633 2.559-2.301 4.102-2.59 6.528-.992 8.351 7.086 15.523 15.3 13.558 4.563-1.093 8.778-.851 12.25 2.895 1.391 1.496 3.321 1.648 5.255 1.117.753-.207 1.695-.457 1.562-1.484-.105-.887-.95-.993-1.707-1.125m-44.719-60.86A2.73 2.73 0 0 1 43.5 67.68a2.73 2.73 0 0 1 2.738-2.727 2.73 2.73 0 0 1 2.742 2.727c0 1.5-1.226 2.726-2.742 2.726m24.782 56.906c-5.38.02-9.97-4.48-9.97-9.78 0-5.387 4.458-9.81 9.884-9.817 5.539-.008 9.843 4.242 9.859 9.722.023 5.454-4.348 9.86-9.773 9.876m0 0"/></g></svg>