<svg xmlns="http://www.w3.org/2000/svg" xmlns:xlink="http://www.w3.org/1999/xlink" width="192" zoomAndPan="magnify" viewBox="0 0 144 143.999998" height="192" preserveAspectRatio="xMidYMid meet" version="1.0"><defs><clipPath id="360acd6dbb"><path d="M 5 5 L 139 5 L 139 139 L 5 139 Z M 5 5 " clip-rule="nonzero"/></clipPath><clipPath id="04cc4d1f16"><path d="M 4.042969 15.292969 L 4.042969 128.707031 C 4.042969 134.917969 9.082031 139.957031 15.292969 139.957031 L 128.707031 139.957031 C 134.917969 139.957031 139.957031 134.917969 139.957031 128.707031 L 139.957031 15.292969 C 139.957031 9.082031 134.917969 4.042969 128.707031 4.042969 L 15.292969 4.042969 C 9.082031 4.042969 4.042969 9.082031 4.042969 15.292969 Z M 4.042969 15.292969 " clip-rule="nonzero"/></clipPath><clipPath id="33272f5176"><path d="M 4.042969 4.042969 L 139.792969 4.042969 L 139.792969 139.792969 L 4.042969 139.792969 Z M 4.042969 4.042969 " clip-rule="nonzero"/></clipPath><clipPath id="c281e52b5a"><path d="M 4.042969 15.292969 L 4.042969 128.707031 C 4.042969 134.917969 9.082031 139.957031 15.292969 139.957031 L 128.707031 139.957031 C 134.917969 139.957031 139.957031 134.917969 139.957031 128.707031 L 139.957031 15.292969 C 139.957031 9.082031 134.917969 4.042969 128.707031 4.042969 L 15.292969 4.042969 C 9.082031 4.042969 4.042969 9.082031 4.042969 15.292969 Z M 4.042969 15.292969 " clip-rule="nonzero"/></clipPath><clipPath id="746f1d00c9"><path d="M 8 11 L 136.136719 11 L 136.136719 133.183594 L 8 133.183594 Z M 8 11 " clip-rule="nonzero"/></clipPath></defs><rect x="-14.4" width="172.8" fill="#ffffff" y="-14.4" height="172.799997" fill-opacity="1"/><rect x="-14.4" width="172.8" fill="#ffffff" y="-14.4" height="172.799997" fill-opacity="1"/><g clip-path="url(#360acd6dbb)"><g clip-path="url(#04cc4d1f16)"><path fill="#001b3d" d="M 138.296875 73.15625 C 137.574219 74.347656 136.339844 75.050781 135.125 75.730469 C 135.640625 76.472656 135.621094 77.472656 135.390625 78.347656 C 135.160156 79.222656 134.746094 80.039062 134.511719 80.914062 C 134.277344 81.789062 134.339844 82.949219 134.847656 83.695312 C 134.148438 83.722656 133.5625 84.285156 133.277344 84.925781 C 132.992188 85.570312 132.949219 86.28125 132.890625 86.980469 C 132.828125 87.679688 132.734375 88.398438 132.371094 88.996094 L 132.386719 89 C 133.390625 89.398438 134.433594 89.824219 135.144531 90.636719 C 135.351562 90.878906 135.527344 91.148438 135.636719 91.441406 C 135.882812 92.117188 135.78125 92.882812 135.503906 93.542969 C 135.226562 94.210938 134.785156 94.789062 134.355469 95.367188 C 134.917969 95.925781 135.839844 96.554688 136.097656 97.3125 C 136.257812 97.792969 136.273438 98.308594 136.34375 98.8125 C 136.59375 100.59375 137.539062 102.269531 137.480469 104.066406 L 137.480469 104.070312 C 137.476562 104.253906 137.339844 104.410156 137.183594 104.503906 C 137.027344 104.597656 136.847656 104.648438 136.6875 104.730469 C 136.128906 105.015625 135.832031 105.652344 135.714844 106.273438 C 135.597656 106.890625 135.617188 107.53125 135.484375 108.144531 C 135.21875 109.398438 134.257812 110.417969 133.421875 111.394531 C 133.878906 111.964844 134.339844 112.542969 134.597656 113.222656 C 134.859375 113.902344 134.886719 114.710938 134.5 115.328125 C 134.027344 116.082031 132.890625 116.441406 132.027344 116.667969 C 132.664062 117.285156 133.335938 117.964844 133.464844 118.839844 C 133.550781 119.449219 133.363281 120.066406 133.441406 120.675781 C 133.507812 121.199219 133.773438 121.683594 134.117188 122.085938 C 134.457031 122.488281 134.875 122.828125 135.285156 123.160156 C 134.539062 124.277344 134.617188 125.875 134.964844 127.167969 C 135.316406 128.464844 135.933594 129.675781 136.277344 130.972656 C 136.714844 132.628906 136.6875 134.40625 136.199219 136.046875 C 133.972656 136.578125 131.390625 136.582031 129.222656 135.839844 C 128.226562 135.5 127.273438 135.03125 126.246094 134.808594 C 125.214844 134.585938 123.976562 134.621094 123.140625 135.253906 C 122.757812 134.625 122.167969 134.121094 121.484375 133.847656 C 120.691406 133.527344 119.8125 133.515625 118.96875 133.382812 C 118.121094 133.246094 117.183594 132.882812 116.707031 132.171875 C 116.503906 133.0625 116.085938 133.902344 115.496094 134.601562 C 115.285156 134.847656 115.03125 135.09375 114.707031 135.140625 C 114.464844 135.175781 114.222656 135.09375 113.996094 135.003906 C 113.132812 134.664062 112.277344 134.148438 111.519531 133.613281 C 111.070312 133.589844 110.664062 133.882812 110.351562 134.207031 C 110.039062 134.53125 109.769531 134.910156 109.390625 135.148438 C 108.417969 135.761719 107.09375 135.285156 106.027344 135.703125 C 105.148438 136.042969 104.402344 136.871094 103.921875 137.683594 C 103.613281 137.421875 103.203125 137.332031 102.800781 137.296875 C 102.398438 137.265625 101.992188 137.277344 101.597656 137.1875 C 101.007812 137.058594 100.492188 136.707031 99.917969 136.523438 C 99.101562 136.261719 98.207031 136.339844 97.398438 136.074219 C 96.476562 135.773438 95.757812 135.058594 95.070312 134.371094 C 94.21875 135.011719 93.824219 135.152344 92.832031 135.546875 C 92.433594 135.703125 92.003906 135.84375 91.585938 135.742188 C 91.242188 135.65625 90.957031 135.414062 90.703125 135.164062 C 89.964844 134.429688 89.367188 133.480469 88.953125 132.519531 C 87.871094 133.078125 86.527344 132.664062 85.367188 133.03125 C 84.554688 133.292969 83.832031 133.980469 83.550781 134.785156 C 82.964844 134.226562 82.027344 134.222656 81.253906 134.464844 C 80.480469 134.703125 79.78125 135.144531 79.007812 135.382812 C 77.960938 135.707031 76.796875 135.640625 75.792969 135.191406 L 75.796875 134.976562 C 75.417969 136.417969 74.386719 137.675781 73.042969 138.324219 C 72.664062 138.511719 72.246094 138.648438 71.832031 138.585938 C 71.484375 138.527344 71.171875 138.335938 70.886719 138.128906 C 69.835938 137.382812 68.941406 136.417969 68.273438 135.3125 C 67.085938 135.515625 65.871094 135.71875 64.761719 135.238281 C 64.195312 134.996094 63.703125 134.585938 63.125 134.371094 C 62.21875 134.035156 61.128906 134.253906 60.414062 134.90625 C 60.269531 134.210938 59.671875 133.632812 59.027344 133.34375 C 58.378906 133.054688 57.660156 132.976562 56.953125 132.902344 C 56.25 132.828125 55.53125 132.746094 54.886719 132.449219 C 54.773438 133.480469 54.359375 134.273438 53.660156 135.042969 C 53.378906 135.355469 53.039062 135.640625 52.625 135.703125 C 52.359375 135.746094 52.085938 135.6875 51.824219 135.617188 C 50.878906 135.363281 49.980469 134.933594 49.1875 134.359375 C 47.898438 134.800781 47.128906 136.152344 45.796875 136.453125 C 45.171875 136.589844 44.5 136.464844 43.875 136.605469 C 43.382812 136.714844 42.941406 136.972656 42.457031 137.117188 C 41.605469 137.367188 40.636719 137.25 39.875 137.707031 C 39.472656 136.792969 38.492188 136.050781 37.535156 135.777344 C 36.972656 135.613281 36.375 135.601562 35.800781 135.480469 C 34.703125 135.246094 33.503906 134.402344 32.839844 133.5 C 32.347656 133.957031 32.257812 134.042969 31.675781 134.378906 C 31.09375 134.71875 30.410156 134.917969 29.75 134.820312 C 29.148438 134.730469 28.59375 134.382812 28.207031 133.914062 C 27.816406 133.445312 27.5 132.664062 27.421875 132.058594 C 26.914062 132.867188 25.984375 133.367188 25.035156 133.464844 C 24.382812 133.535156 23.722656 133.429688 23.082031 133.546875 C 22.183594 133.71875 21.234375 134.484375 20.859375 135.3125 C 20.066406 134.726562 19 134.652344 18.019531 134.789062 C 16.445312 135.003906 14.980469 135.691406 13.449219 136.101562 C 11.679688 136.574219 9.207031 136.585938 7.8125 136.050781 C 7.320312 134.410156 7.292969 132.632812 7.730469 130.976562 C 8.078125 129.679688 8.695312 128.46875 9.042969 127.171875 C 9.394531 125.875 9.472656 124.28125 8.722656 123.164062 C 9.136719 122.832031 9.550781 122.496094 9.890625 122.089844 C 10.234375 121.683594 10.5 121.203125 10.566406 120.675781 C 10.648438 120.070312 10.457031 119.449219 10.546875 118.839844 C 10.671875 117.964844 11.34375 117.285156 11.980469 116.671875 C 11.117188 116.449219 9.980469 116.085938 9.507812 115.328125 C 9.121094 114.714844 9.152344 113.90625 9.410156 113.226562 C 9.667969 112.546875 10.132812 111.964844 10.585938 111.398438 C 9.75 110.421875 8.789062 109.40625 8.523438 108.148438 C 8.390625 107.53125 8.414062 106.894531 8.292969 106.273438 C 8.175781 105.65625 7.878906 105.019531 7.320312 104.734375 C 7.160156 104.652344 6.980469 104.597656 6.824219 104.503906 C 6.667969 104.410156 6.53125 104.257812 6.527344 104.074219 L 6.527344 104.070312 C 6.464844 102.273438 7.410156 100.597656 7.664062 98.816406 C 7.734375 98.3125 7.75 97.792969 7.910156 97.3125 C 8.167969 96.558594 9.085938 95.933594 9.652344 95.367188 C 9.21875 94.792969 8.78125 94.210938 8.503906 93.546875 C 8.226562 92.882812 8.121094 92.117188 8.375 91.445312 C 8.480469 91.148438 8.660156 90.878906 8.867188 90.640625 C 9.570312 89.824219 10.621094 89.398438 11.621094 89.003906 L 11.636719 89 C 11.273438 88.398438 11.183594 87.679688 11.121094 86.984375 C 11.058594 86.285156 11.015625 85.566406 10.734375 84.929688 C 10.449219 84.289062 9.863281 83.726562 9.164062 83.695312 C 9.667969 82.945312 9.730469 81.792969 9.496094 80.917969 C 9.265625 80.042969 8.847656 79.226562 8.617188 78.347656 C 8.390625 77.472656 8.371094 76.476562 8.882812 75.730469 C 7.667969 75.050781 6.433594 74.351562 5.710938 73.160156 C 5.4375 72.714844 5.25 72.179688 5.34375 71.664062 C 5.414062 71.273438 5.640625 70.929688 5.882812 70.613281 C 6.28125 70.097656 6.738281 69.632812 7.25 69.226562 C 7.59375 68.957031 7.960938 68.703125 8.230469 68.363281 C 8.5 68.023438 8.664062 67.554688 8.515625 67.144531 C 8.4375 66.457031 8.460938 65.628906 8.679688 64.96875 C 8.921875 64.226562 9.464844 63.613281 9.6875 62.867188 C 9.945312 62.011719 9.746094 61.007812 9.164062 60.339844 C 9.570312 60.164062 9.996094 59.980469 10.289062 59.648438 C 10.550781 59.347656 10.683594 58.957031 10.785156 58.570312 C 11.070312 57.488281 11.167969 56.363281 11.265625 55.253906 C 11.277344 55.144531 11.285156 55.023438 11.226562 54.929688 C 11.167969 54.835938 10.808594 54.742188 10.738281 54.828125 C 9.507812 54.53125 8.496094 53.460938 8.273438 52.210938 C 8.046875 50.960938 8.625 49.609375 9.679688 48.902344 C 8.761719 48.324219 8.113281 47.308594 7.785156 46.273438 C 7.453125 45.238281 7.347656 44.144531 7.183594 43.070312 C 7.019531 41.996094 6.777344 40.90625 6.21875 39.972656 C 7.09375 39.316406 8.035156 38.683594 8.324219 37.671875 C 8.539062 36.9375 8.492188 36.144531 8.667969 35.394531 C 8.90625 34.363281 9.585938 33.445312 10.5 32.910156 C 10.050781 32.339844 9.605469 31.597656 9.382812 30.910156 C 9.15625 30.21875 9.152344 29.425781 9.527344 28.800781 C 10 28.007812 11.054688 27.605469 11.957031 27.394531 L 11.996094 27.394531 C 11.546875 27.0625 11.566406 27.085938 11.242188 26.636719 C 10.851562 26.085938 10.683594 25.410156 10.582031 24.738281 C 10.480469 24.070312 10.433594 23.390625 10.246094 22.742188 C 10.261719 22.28125 10.015625 21.730469 9.628906 21.480469 C 9.371094 21.316406 9.039062 21.210938 8.914062 20.933594 C 8.835938 20.75 8.871094 20.539062 8.972656 20.371094 C 9.074219 20.207031 9.257812 20.054688 9.433594 19.957031 C 9.375 18.105469 8.621094 16.355469 8.144531 14.566406 C 7.554688 12.367188 7.375 10.066406 7.613281 7.804688 C 9.015625 7.269531 11.691406 7.398438 13.457031 7.875 C 14.992188 8.285156 16.457031 8.96875 18.03125 9.1875 C 19.007812 9.324219 20.074219 9.25 20.871094 8.664062 C 21.246094 9.496094 22.195312 10.261719 23.09375 10.429688 C 23.734375 10.546875 24.394531 10.445312 25.046875 10.511719 C 26 10.609375 26.925781 11.109375 27.433594 11.917969 C 27.515625 11.3125 27.832031 10.535156 28.21875 10.0625 C 28.609375 9.59375 29.160156 9.253906 29.761719 9.15625 C 30.425781 9.054688 31.105469 9.257812 31.6875 9.597656 C 32.269531 9.933594 32.359375 10.019531 32.851562 10.476562 C 33.519531 9.574219 34.714844 8.730469 35.8125 8.496094 C 36.386719 8.375 36.984375 8.363281 37.546875 8.199219 C 38.507812 7.925781 39.484375 7.1875 39.886719 6.269531 C 40.652344 6.722656 41.617188 6.605469 42.46875 6.859375 C 42.949219 7.003906 43.394531 7.261719 43.886719 7.371094 C 44.515625 7.507812 45.179688 7.386719 45.808594 7.523438 C 47.140625 7.820312 47.90625 9.175781 49.199219 9.617188 C 49.992188 9.042969 50.890625 8.609375 51.835938 8.359375 C 52.097656 8.285156 52.371094 8.230469 52.636719 8.273438 C 53.050781 8.335938 53.394531 8.621094 53.671875 8.933594 C 54.367188 9.703125 54.785156 10.496094 54.894531 11.527344 C 55.542969 11.230469 56.261719 11.148438 56.964844 11.074219 C 57.671875 11 58.390625 10.917969 59.039062 10.628906 C 59.6875 10.339844 60.28125 9.761719 60.425781 9.066406 C 61.140625 9.726562 62.226562 9.941406 63.136719 9.605469 C 63.71875 9.390625 64.207031 8.980469 64.773438 8.738281 C 65.882812 8.261719 67.09375 8.464844 68.285156 8.664062 C 68.953125 7.558594 69.847656 6.597656 70.894531 5.84375 C 71.183594 5.640625 71.492188 5.449219 71.84375 5.390625 C 72.257812 5.328125 72.679688 5.464844 73.054688 5.648438 C 74.398438 6.300781 75.429688 7.558594 75.808594 9 L 75.804688 8.78125 C 76.808594 8.335938 77.972656 8.269531 79.019531 8.589844 C 79.792969 8.832031 80.492188 9.269531 81.265625 9.511719 C 82.039062 9.753906 82.96875 9.746094 83.558594 9.191406 C 83.839844 9.992188 84.5625 10.683594 85.378906 10.945312 C 86.539062 11.3125 87.882812 10.898438 88.964844 11.453125 C 89.378906 10.492188 89.972656 9.550781 90.714844 8.8125 C 90.964844 8.558594 91.253906 8.320312 91.597656 8.234375 C 92.015625 8.132812 92.445312 8.269531 92.84375 8.429688 C 93.832031 8.824219 94.230469 8.964844 95.082031 9.605469 C 95.765625 8.917969 96.484375 8.207031 97.40625 7.902344 C 98.21875 7.636719 99.117188 7.714844 99.925781 7.453125 C 100.5 7.269531 101.019531 6.917969 101.609375 6.785156 C 102.003906 6.699219 102.410156 6.714844 102.8125 6.679688 C 103.214844 6.644531 103.625 6.550781 103.933594 6.292969 C 104.414062 7.101562 105.152344 7.9375 106.035156 8.273438 C 107.109375 8.6875 108.433594 8.210938 109.402344 8.828125 C 109.785156 9.066406 110.050781 9.445312 110.363281 9.769531 C 110.675781 10.089844 111.082031 10.382812 111.53125 10.363281 C 112.289062 9.832031 113.144531 9.3125 114.003906 8.972656 C 114.234375 8.882812 114.476562 8.800781 114.71875 8.832031 C 115.042969 8.878906 115.296875 9.121094 115.507812 9.375 C 116.097656 10.074219 116.515625 10.914062 116.71875 11.804688 C 117.195312 11.09375 118.132812 10.730469 118.976562 10.59375 C 119.824219 10.460938 120.699219 10.449219 121.492188 10.128906 C 122.175781 9.855469 122.765625 9.351562 123.148438 8.722656 C 123.988281 9.359375 125.226562 9.394531 126.257812 9.167969 C 127.285156 8.945312 128.238281 8.472656 129.234375 8.136719 C 131.402344 7.394531 134.183594 7.273438 136.414062 7.804688 C 136.65625 10.066406 136.476562 12.367188 135.886719 14.5625 C 135.40625 16.355469 134.648438 18.101562 134.597656 19.957031 C 134.769531 20.046875 134.949219 20.199219 135.054688 20.371094 C 135.160156 20.539062 135.195312 20.753906 135.117188 20.929688 C 134.992188 21.210938 134.65625 21.3125 134.402344 21.476562 C 134.015625 21.730469 133.765625 22.277344 133.78125 22.738281 C 133.597656 23.390625 133.554688 24.070312 133.449219 24.738281 C 133.34375 25.40625 133.179688 26.082031 132.785156 26.632812 C 132.464844 27.085938 132.480469 27.0625 132.035156 27.390625 L 132.074219 27.390625 C 132.972656 27.601562 134.023438 28.007812 134.503906 28.800781 C 134.875 29.421875 134.875 30.214844 134.648438 30.90625 C 134.421875 31.597656 133.980469 32.335938 133.53125 32.910156 C 134.441406 33.441406 135.125 34.363281 135.363281 35.394531 C 135.535156 36.140625 135.492188 36.929688 135.703125 37.671875 C 135.996094 38.675781 136.9375 39.316406 137.8125 39.972656 C 137.246094 40.902344 137.011719 41.992188 136.847656 43.066406 C 136.679688 44.140625 136.578125 45.234375 136.246094 46.269531 C 135.914062 47.308594 135.273438 48.320312 134.347656 48.898438 C 135.40625 49.605469 135.980469 50.960938 135.757812 52.210938 C 135.535156 53.457031 134.523438 54.53125 133.289062 54.828125 C 133.222656 54.742188 132.863281 54.832031 132.804688 54.929688 C 132.75 55.023438 132.757812 55.136719 132.765625 55.25 C 132.863281 56.367188 132.964844 57.484375 133.246094 58.566406 C 133.347656 58.953125 133.476562 59.34375 133.742188 59.644531 C 134.035156 59.980469 134.457031 60.164062 134.867188 60.335938 C 134.28125 61.003906 134.085938 62.011719 134.34375 62.863281 C 134.5625 63.613281 135.109375 64.226562 135.351562 64.964844 C 135.570312 65.625 135.59375 66.449219 135.511719 67.140625 C 135.367188 67.550781 135.527344 68.019531 135.800781 68.363281 C 136.070312 68.703125 136.4375 68.953125 136.78125 69.226562 C 137.285156 69.632812 137.746094 70.097656 138.148438 70.609375 C 138.390625 70.925781 138.617188 71.273438 138.6875 71.664062 C 138.761719 72.175781 138.574219 72.707031 138.296875 73.15625 Z M 138.296875 73.15625 " fill-opacity="1" fill-rule="nonzero"/></g></g><g clip-path="url(#33272f5176)"><g clip-path="url(#c281e52b5a)"><path fill="#ffffff" d="M 4.042969 4.042969 L 139.945312 4.042969 L 139.945312 139.945312 L 4.042969 139.945312 Z M 4.042969 4.042969 " fill-opacity="1" fill-rule="nonzero"/></g></g><g clip-path="url(#746f1d00c9)"><path fill="#000000" d="M 9.023438 39.378906 C 9.550781 37.5 11.089844 38.351562 12.191406 38.316406 C 15.597656 38.214844 15.589844 38.277344 16.222656 34.867188 C 17.125 30.027344 18.847656 25.558594 22.414062 22.015625 C 27.105469 17.363281 37.429688 16.820312 41.605469 24.183594 C 37.328125 23.679688 35.441406 18.875 31.007812 19.164062 C 36.925781 21.304688 40.023438 25.789062 41.816406 31.390625 C 43.574219 36.867188 43.832031 42.417969 42.582031 48.03125 C 42.347656 49.089844 42.082031 50.136719 42 51.222656 C 43.644531 47.425781 44.210938 43.421875 44.160156 39.320312 C 44.148438 38.296875 44.304688 37.59375 45.433594 37.457031 C 45.632812 37.433594 45.945312 37.574219 46.019531 37.484375 C 48.210938 34.9375 51.679688 34.765625 54.625 36.824219 C 56.75 38.3125 59.332031 37.726562 61.738281 37.847656 C 62.25 37.871094 62.304688 37.382812 62.230469 36.96875 C 62.085938 36.210938 62.128906 35.300781 61.164062 35.046875 C 60.722656 34.933594 60.222656 35.027344 59.753906 35.042969 C 56.917969 35.15625 57.035156 35.171875 57.339844 32.351562 C 57.609375 29.855469 57.210938 27.246094 59.15625 25.003906 C 57.523438 25.574219 57.511719 25.570312 57.082031 27.148438 C 56.898438 27.816406 56.941406 28.65625 56 28.746094 C 55.773438 28.765625 55.425781 28.464844 55.285156 28.222656 C 54.828125 27.433594 55.558594 27.160156 55.976562 26.714844 C 57.035156 25.589844 56.714844 24.191406 56.660156 22.847656 C 56.640625 22.363281 56.140625 21.390625 57.441406 22.058594 C 58.035156 22.363281 58.546875 22 58.460938 21.253906 C 58.296875 19.816406 59.667969 18.652344 58.921875 16.996094 C 58.457031 15.964844 59.527344 14.964844 60.492188 14.324219 C 62.914062 12.710938 65.574219 12.28125 69.101562 12.835938 C 67.113281 13.234375 65.375 13.019531 65.210938 15.125 C 66.476562 14.351562 67.558594 15.558594 68.84375 15.675781 C 69.621094 15.75 70.570312 17.015625 69.417969 18.136719 C 68.738281 18.792969 67.976562 19.359375 67.332031 20.160156 C 69.042969 18.804688 71.652344 19.800781 73.089844 17.761719 C 73.746094 16.828125 74.136719 15.953125 72.921875 15.136719 C 72.582031 14.910156 72.011719 14.757812 72.378906 14.09375 C 73.082031 12.828125 76.964844 10.945312 78.558594 11.210938 C 81.1875 11.652344 82.554688 13.40625 83.191406 15.867188 C 82.148438 14.375 81.355469 12.601562 79.125 12.417969 C 82.410156 14.039062 80.617188 17.15625 81.210938 19.523438 C 81.652344 21.292969 81.296875 23.257812 81.296875 25.617188 C 82.019531 24.03125 81.660156 22.664062 82.5625 21.375 C 82.753906 25.300781 82.929688 28.972656 83.109375 32.652344 C 83.121094 32.890625 83.132812 33.125 83.152344 33.363281 C 83.554688 38.707031 83.660156 38.832031 88.859375 38.96875 C 91 39.023438 93.054688 39.492188 95.109375 37.8125 C 96.058594 37.035156 98.25 37.542969 99.621094 38.679688 C 101.035156 39.851562 101.875 39.769531 102.351562 37.742188 C 103.328125 33.550781 105.3125 29.914062 108.820312 27.242188 C 113.601562 23.597656 119.972656 23.953125 124.160156 28.265625 C 129.257812 33.515625 130.328125 40.003906 129.578125 46.984375 C 129.527344 47.453125 129.433594 47.921875 129.367188 48.390625 C 129.355469 48.464844 129.40625 48.539062 129.433594 48.644531 C 130.347656 47.574219 130.199219 46.238281 130.371094 45.007812 C 130.546875 43.757812 130.386719 42.4375 130.710938 41.242188 C 131.027344 40.074219 132.449219 39.332031 132.164062 37.71875 C 132.546875 39.320312 132.945312 40.605469 134.882812 40.753906 C 135.808594 40.824219 136.125 41.871094 136.035156 42.828125 C 135.957031 43.710938 135.496094 44.488281 134.609375 44.4375 C 132.929688 44.347656 132.953125 45.472656 132.808594 46.5625 C 132.207031 51.070312 130.605469 55.132812 127.519531 58.535156 C 121.183594 65.515625 110.75 64.886719 105.085938 57.222656 C 102.972656 54.363281 101.84375 51.101562 100.898438 47.734375 C 100.75 47.21875 101.046875 46.003906 99.78125 46.484375 C 98.90625 46.8125 98.699219 47.5 99.019531 48.414062 C 99.890625 50.90625 100.15625 53.460938 99.800781 55.988281 C 99.296875 56.257812 99.074219 55.984375 98.796875 55.863281 C 96.671875 54.929688 95.6875 53.589844 96.671875 51.15625 C 97.03125 50.261719 96.863281 49.125 96.847656 48.101562 C 96.832031 47.003906 96.914062 45.828125 95.167969 45.953125 C 94.792969 45.980469 94.234375 45.363281 93.980469 44.914062 C 92.457031 42.21875 90.054688 41.601562 87.210938 41.882812 C 86.542969 41.949219 85.863281 41.890625 84.761719 41.890625 C 86.308594 43.355469 87.664062 44.4375 88.335938 46.21875 C 87.394531 46.09375 87.207031 45.257812 86.742188 44.773438 C 84.929688 42.898438 83.027344 41.464844 80.136719 41.835938 C 79.167969 41.960938 78.699219 41.898438 78.757812 43.015625 C 78.9375 46.335938 79.769531 49.429688 81.871094 52.070312 C 82.398438 52.734375 82.984375 53.730469 83.859375 53.566406 C 84.753906 53.394531 84.914062 52.261719 85.074219 51.421875 C 85.363281 49.964844 85.542969 48.484375 85.808594 46.753906 C 88.894531 51.996094 93.503906 55.324219 98.300781 58.480469 C 98.519531 58.625 101.21875 59.050781 98.777344 60.472656 C 98.226562 60.792969 99.632812 61.820312 100.195312 62.460938 C 100.722656 63.058594 101.375 62.984375 101.640625 62.152344 C 101.945312 61.1875 102.128906 60.183594 102.417969 58.992188 C 102.792969 60.28125 102.644531 61.324219 102.335938 62.378906 C 101.511719 65.183594 99.820312 66.097656 97.121094 65.046875 C 93.546875 63.65625 90.359375 61.609375 87.46875 59.09375 C 86.828125 58.539062 86.175781 57.996094 85.265625 57.226562 C 85.101562 60.644531 86.324219 63.335938 87.480469 66.046875 C 85.535156 64.601562 85.804688 61.929688 84.261719 59.976562 C 83.769531 63.554688 85.882812 65.984375 87.4375 69.128906 C 83.960938 67.015625 82.703125 63.871094 81.25 60.832031 C 78.722656 63.785156 78.726562 63.78125 81.070312 66.394531 C 81.855469 67.269531 82.628906 68.152344 83.382812 69.007812 C 82.808594 69.746094 81.757812 69.328125 81.269531 70.273438 C 84.058594 69.902344 86.738281 69.824219 89.421875 69.914062 C 89.949219 69.933594 90.566406 70.046875 90.78125 69.308594 C 93.015625 70.308594 95.328125 71.164062 97.472656 72.328125 C 102.027344 74.8125 104.523438 78.671875 104.136719 83.953125 C 103.773438 88.949219 100.722656 91.925781 96.167969 93.550781 C 95.886719 93.648438 95.621094 93.785156 95.09375 94.011719 C 98.421875 97.410156 100.183594 101.53125 101.9375 105.664062 C 102.191406 106.265625 102.5625 106.988281 101.367188 106.289062 C 99.792969 102.433594 98.113281 98.625 95.351562 95.433594 C 94.609375 94.574219 93.804688 93.558594 92.222656 94.679688 C 95.9375 98.128906 98.410156 102.402344 101.144531 106.480469 C 102.46875 108.902344 103.792969 111.324219 105.125 113.742188 C 105.238281 113.949219 105.402344 114.277344 105.554688 114.285156 C 109.996094 114.496094 107.539062 118.394531 108.667969 120.382812 C 109.429688 121.726562 107.105469 121.644531 106.273438 122.519531 C 107.332031 123.40625 108.34375 123.851562 109.738281 123.214844 C 110.671875 122.792969 111.113281 122.3125 110.726562 121.070312 C 111.101562 123.5625 112.835938 123.53125 114.546875 123.722656 C 117.921875 124.097656 121.28125 124.601562 124.664062 125.5 C 115.832031 126.132812 107 126.757812 98.167969 127.390625 C 89.335938 128.027344 80.503906 128.671875 71.695312 129.714844 C 92.070312 128.378906 112.441406 127.046875 132.816406 125.710938 C 132.84375 126.027344 132.871094 126.347656 132.898438 126.664062 C 130.699219 126.859375 128.511719 127.09375 126.3125 127.253906 C 100.253906 129.160156 74.195312 131.050781 48.136719 132.96875 C 44.984375 133.199219 42.027344 132.222656 39 131.691406 C 33.867188 130.792969 28.746094 129.792969 23.609375 128.414062 C 25.242188 128.28125 26.875 128.140625 28.507812 128.023438 C 31.742188 127.789062 34.984375 127.578125 38.222656 127.347656 C 40.023438 127.21875 41.992188 126.75 42.050781 128.300781 C 41.195312 126.550781 43.589844 126.175781 45.332031 125.339844 C 46.617188 124.726562 47.902344 124.113281 49.195312 123.527344 C 50.007812 123.160156 50.335938 122.984375 50.433594 121.703125 C 50.582031 119.742188 52.988281 120.199219 54.628906 119.65625 C 54.792969 118.660156 52.382812 116.515625 55.832031 116.136719 C 56.242188 116.089844 55.710938 115 55.492188 114.460938 C 53.894531 110.484375 51.78125 106.769531 49.585938 103.09375 C 47.59375 99.765625 45.59375 96.4375 43.730469 93.035156 C 42.117188 90.089844 41.070312 86.9375 41.285156 83.496094 C 41.464844 80.589844 42.789062 78.636719 45.707031 77.742188 C 54.351562 75.089844 63.105469 74.5625 71.996094 76.183594 C 72.371094 76.253906 72.75 76.316406 73.398438 76.425781 C 72.882812 75.675781 72.320312 75.550781 71.769531 75.425781 C 62.855469 73.394531 54.023438 73.679688 45.3125 76.484375 C 42.867188 77.273438 40.804688 78.546875 40.765625 81.972656 C 40.003906 79.304688 41.039062 77.433594 43.710938 76.214844 C 47.894531 74.300781 52.414062 73.9375 56.910156 73.636719 C 60.9375 73.371094 64.972656 73.519531 68.972656 74.195312 C 69.3125 73.105469 68.113281 72.835938 68.199219 71.757812 C 69.054688 72.707031 69.789062 73.519531 70.523438 74.332031 C 69.910156 71.796875 68.445312 68.921875 66.546875 68.351562 C 64.65625 67.785156 64.433594 66.445312 63.355469 65.617188 C 62.917969 65.28125 62.597656 64.738281 62.117188 64.527344 C 59.242188 63.265625 57.222656 61.355469 56.84375 58.0625 C 56.8125 57.777344 56.582031 57.484375 56.375 57.257812 C 53.203125 53.828125 50.480469 50.035156 47.347656 46.019531 C 46.902344 47.640625 46.535156 48.949219 46.191406 50.265625 C 45.417969 53.214844 44.027344 55.839844 42.238281 58.3125 C 37.027344 65.507812 24.511719 66.722656 19.257812 56.835938 C 18.105469 54.671875 17.089844 52.46875 16.792969 49.96875 C 17.765625 52.105469 18.582031 54.320312 20.082031 56.15625 C 21.625 58.046875 23.261719 59.824219 25.914062 60.171875 C 20.199219 56.855469 17.773438 51.539062 16.90625 45.351562 C 16.707031 43.933594 16.085938 43.464844 14.847656 43.417969 C 13.660156 43.375 12.472656 43.367188 11.285156 43.324219 C 8.550781 43.222656 7.902344 42.007812 9.113281 39.28125 C 9.121094 40.445312 8.480469 42.339844 9.9375 42.410156 C 11.390625 42.476562 11.0625 40.613281 10.960938 39.414062 C 11.464844 39.871094 11.816406 40.46875 12.671875 40.480469 C 17.238281 40.535156 21.800781 40.652344 26.363281 40.730469 C 26.710938 40.734375 27.234375 40.910156 27.304688 40.34375 C 27.363281 39.835938 27.078125 39.414062 26.570312 39.289062 C 26.039062 39.15625 25.488281 39.074219 24.945312 39.066406 C 20.851562 38.996094 16.761719 38.941406 12.667969 38.90625 C 12.066406 38.898438 11.371094 38.726562 11.027344 39.488281 C 10.390625 38.742188 9.710938 39.003906 9.023438 39.378906 Z M 60.8125 41.796875 C 60.777344 41.28125 60.632812 40.875 59.988281 40.917969 C 57.277344 41.09375 54.519531 39.84375 52.273438 43.226562 C 51.011719 45.121094 51.144531 45.453125 52.546875 46.582031 C 55.570312 49.027344 58.710938 51.253906 62.285156 52.855469 C 63.894531 53.578125 65.546875 54.390625 66.542969 56.402344 C 64.839844 56.011719 63.480469 55.066406 61.777344 55.3125 C 62.472656 57.453125 63.535156 59.148438 65.109375 60.554688 C 66.203125 61.53125 66.984375 61.398438 67.808594 60.21875 C 69.710938 57.496094 70.261719 54.441406 70.234375 51.210938 C 70.21875 49.679688 70.230469 48.148438 70.230469 46.417969 C 71.003906 46.917969 70.929688 47.75 71.636719 47.890625 C 71.964844 46.546875 71.105469 45.417969 71.257812 43.9375 C 73.1875 46.019531 73.882812 48.277344 73.761719 50.820312 C 73.703125 52.042969 74.191406 53.34375 75.230469 53.464844 C 76.496094 53.613281 76.492188 52.132812 76.636719 51.148438 C 77.476562 45.355469 72.65625 40.71875 66.300781 41.386719 C 67.320312 42.566406 67.289062 43.820312 66.800781 45.144531 C 66.433594 46.136719 66.40625 47.210938 66.765625 48.179688 C 67.269531 49.550781 66.429688 50.628906 66.210938 51.84375 C 66.101562 52.4375 65.808594 52.601562 65.222656 52.339844 C 62.582031 51.167969 59.652344 50.597656 57.152344 48.632812 C 58.191406 48.441406 58.636719 49.578125 59.546875 49.132812 C 59.679688 47 58.3125 44.734375 60.070312 42.757812 C 59.585938 45.28125 59.679688 47.726562 61.070312 50.421875 C 62.4375 47.304688 59.351562 43.90625 62.570312 41.582031 C 61.695312 41.054688 61.355469 41.839844 60.8125 41.796875 Z M 84.113281 98.839844 C 83.011719 98.417969 82.503906 97.386719 81.84375 96.535156 C 81.316406 95.855469 80.734375 95.507812 79.851562 95.515625 C 72.394531 95.585938 65.535156 93.300781 58.886719 90.160156 C 57.75 89.621094 56.609375 88.90625 54.882812 89.0625 C 58.210938 92.800781 59.238281 97.160156 60.132812 101.617188 C 60.78125 104.871094 61.539062 108.125 62.539062 111.289062 C 63.480469 114.277344 63.679688 117.621094 67.042969 119.550781 C 68.191406 120.210938 67.714844 122.695312 68.230469 124.25 C 69.042969 126.707031 66.964844 127.058594 65.589844 128.011719 C 66.378906 128.246094 66.988281 128.394531 67.578125 128.601562 C 69.117188 129.148438 69.890625 128.285156 69.570312 127.015625 C 69.109375 125.171875 70.230469 125.269531 71.308594 125.144531 C 72.015625 125.058594 72.730469 125.046875 73.4375 125 C 79.253906 124.621094 85.070312 124.246094 90.941406 123.863281 C 89.828125 121 89.957031 120.441406 92.871094 119.804688 C 95.296875 119.273438 96.265625 117.21875 97.367188 115.648438 C 97.917969 114.859375 98 112.566406 96.738281 111.066406 C 94.578125 108.5 92.101562 106.324219 89.535156 104.199219 C 87.550781 102.550781 85.332031 101.113281 84.03125 98.765625 C 85.023438 98.691406 85.1875 100.144531 86.40625 100.035156 C 84.960938 98.496094 84.203125 96.527344 82.089844 95.007812 C 82.378906 97.070312 84.003906 97.484375 84.113281 98.839844 Z M 79.25 38.546875 C 78.160156 36.703125 77.410156 35.140625 77.050781 33.464844 C 76.699219 31.851562 76.558594 30.195312 76.28125 28.25 C 75.304688 29.898438 74.84375 31.613281 73.398438 32.308594 C 72.144531 32.914062 71.480469 33.449219 71.816406 34.921875 C 72.164062 36.425781 72.453125 37.980469 74.269531 38.261719 C 75.78125 38.496094 77.332031 38.449219 79.25 38.546875 Z M 97.199219 85.910156 C 98.097656 78.515625 93.167969 73.242188 86.484375 74.277344 C 90.523438 77.703125 95.871094 79.785156 97.199219 85.910156 Z M 94.769531 40.523438 C 94.761719 40.269531 94.753906 40.011719 94.746094 39.757812 C 81.628906 39.234375 68.511719 38.710938 55.398438 38.1875 C 55.386719 38.464844 55.378906 38.738281 55.367188 39.015625 C 68.5 39.519531 81.632812 40.023438 94.769531 40.523438 Z M 101.683594 44.996094 C 101.828125 51.210938 103.996094 56.476562 109.230469 59.964844 C 113.621094 62.894531 119.285156 62.039062 123.09375 57.804688 C 122.199219 58.332031 121.757812 58.59375 121.316406 58.851562 C 116.246094 61.820312 111.492188 61.273438 107.246094 57.210938 C 105.203125 55.25 103.859375 52.855469 103.046875 50.164062 C 102.53125 48.457031 102.132812 46.71875 101.683594 44.996094 Z M 110.417969 44.167969 C 110.789062 46.246094 111.792969 47.601562 113.992188 47.464844 C 115.902344 47.34375 117.429688 45.390625 117.480469 43.046875 C 117.53125 40.9375 117.035156 39.023438 114.75 38.339844 C 113.175781 37.871094 112.019531 38.601562 111.371094 40.171875 C 113.195312 39.511719 114.941406 38.8125 116.066406 41.082031 C 116.855469 42.675781 116.628906 44.265625 115.375 45.445312 C 113.175781 47.511719 112.003906 45.082031 110.417969 44.167969 Z M 57.4375 116.9375 C 57.96875 117.640625 58.328125 118.371094 58.902344 118.828125 C 60.207031 119.855469 61.988281 121.121094 63.316406 120.449219 C 64.625 119.792969 63.046875 118.136719 62.8125 116.910156 C 62.632812 115.96875 62.019531 115.921875 61.210938 116.132812 C 60 116.445312 58.765625 116.660156 57.4375 116.9375 Z M 31.003906 42.78125 C 31.878906 40.453125 31.796875 38.671875 31.203125 36.960938 C 30.535156 35.046875 29.527344 33.253906 27.105469 33.34375 C 25.238281 33.414062 23.667969 35.636719 23.496094 38.210938 C 24.738281 36.777344 25.152344 33.929688 27.703125 34.789062 C 31.140625 35.953125 30.71875 39.332031 31.003906 42.78125 Z M 108.523438 42.023438 C 108.523438 42.085938 108.523438 42.152344 108.523438 42.214844 C 109.78125 42.214844 111.042969 42.226562 112.304688 42.207031 C 112.660156 42.203125 113.179688 42.351562 113.269531 41.828125 C 113.382812 41.183594 112.835938 41.035156 112.375 41.019531 C 109.617188 40.929688 106.859375 40.871094 104.101562 40.820312 C 103.710938 40.8125 103.222656 40.910156 103.21875 41.386719 C 103.214844 42.058594 103.824219 42.007812 104.265625 42.011719 C 105.683594 42.039062 107.105469 42.023438 108.523438 42.023438 Z M 99.273438 114.167969 C 100.34375 115.441406 101.8125 115.941406 103.308594 116.347656 C 103.878906 116.503906 104.429688 116.332031 104.597656 115.652344 C 104.738281 115.078125 102.378906 112.1875 101.851562 112.382812 C 100.917969 112.726562 99.953125 113.128906 99.273438 114.167969 Z M 97.941406 73.421875 C 98.464844 75.5625 99.386719 77.027344 100.351562 78.460938 C 100.691406 78.96875 101.140625 79.734375 101.816406 79.378906 C 102.644531 78.949219 102.160156 78.121094 101.894531 77.5 C 101.15625 75.773438 99.902344 74.503906 97.941406 73.421875 Z M 109.097656 39.070312 C 110.972656 35.914062 113.824219 34.859375 117.390625 35.296875 C 113.613281 33.777344 110.851562 35.019531 109.097656 39.070312 Z M 64.867188 23.789062 C 66.214844 25.785156 63.980469 26.816406 63.628906 28.472656 C 66.292969 27.324219 66.839844 25.398438 64.867188 23.789062 Z M 15.136719 127.597656 C 24.601562 127.753906 34.019531 127.097656 43.410156 126.058594 C 43.394531 125.757812 43.375 125.457031 43.359375 125.160156 C 33.9375 125.738281 24.515625 126.316406 15.09375 126.898438 C 15.113281 127.128906 15.125 127.363281 15.136719 127.597656 Z M 125.394531 27.976562 C 125.816406 28.371094 126.292969 28.75 126.765625 28.070312 C 127.265625 27.355469 126.503906 27.105469 126.175781 26.757812 C 122.675781 22.988281 115.894531 21.929688 111.035156 24.542969 C 116.589844 22.640625 121.285156 24.136719 125.394531 27.976562 Z M 83.949219 23.664062 C 83.554688 26.902344 83.367188 30.140625 83.910156 33.433594 C 84.238281 30.203125 85.027344 26.933594 83.949219 23.664062 Z M 69.089844 124.644531 C 75.945312 124.226562 82.800781 123.8125 89.65625 123.398438 C 89.640625 123.085938 89.625 122.773438 89.605469 122.464844 C 82.757812 122.851562 75.90625 123.242188 69.058594 123.628906 C 69.066406 123.96875 69.078125 124.304688 69.089844 124.644531 Z M 69.089844 124.644531 " fill-opacity="1" fill-rule="nonzero"/></g></svg>