<svg xmlns="http://www.w3.org/2000/svg" xmlns:xlink="http://www.w3.org/1999/xlink" width="192" zoomAndPan="magnify" viewBox="0 0 144 143.999998" height="192" preserveAspectRatio="xMidYMid meet" version="1.0"><defs><clipPath id="98f6a559ee"><path d="M 5 5 L 139 5 L 139 139 L 5 139 Z M 5 5 " clip-rule="nonzero"/></clipPath><clipPath id="a6ef1e5cb4"><path d="M 4.042969 15.292969 L 4.042969 128.707031 C 4.042969 134.917969 9.082031 139.957031 15.292969 139.957031 L 128.707031 139.957031 C 134.917969 139.957031 139.957031 134.917969 139.957031 128.707031 L 139.957031 15.292969 C 139.957031 9.082031 134.917969 4.042969 128.707031 4.042969 L 15.292969 4.042969 C 9.082031 4.042969 4.042969 9.082031 4.042969 15.292969 Z M 4.042969 15.292969 " clip-rule="nonzero"/></clipPath><clipPath id="2e9d139e12"><path d="M 4.042969 4.042969 L 139.792969 4.042969 L 139.792969 139.792969 L 4.042969 139.792969 Z M 4.042969 4.042969 " clip-rule="nonzero"/></clipPath><clipPath id="66473ef821"><path d="M 4.042969 15.292969 L 4.042969 128.707031 C 4.042969 134.917969 9.082031 139.957031 15.292969 139.957031 L 128.707031 139.957031 C 134.917969 139.957031 139.957031 134.917969 139.957031 128.707031 L 139.957031 15.292969 C 139.957031 9.082031 134.917969 4.042969 128.707031 4.042969 L 15.292969 4.042969 C 9.082031 4.042969 4.042969 9.082031 4.042969 15.292969 Z M 4.042969 15.292969 " clip-rule="nonzero"/></clipPath><clipPath id="6db7a522dd"><path d="M 10 10.308594 L 133.722656 10.308594 L 133.722656 134.058594 L 10 134.058594 Z M 10 10.308594 " clip-rule="nonzero"/></clipPath></defs><rect x="-14.4" width="172.8" fill="#ffffff" y="-14.4" height="172.799997" fill-opacity="1"/><rect x="-14.4" width="172.8" fill="#ffffff" y="-14.4" height="172.799997" fill-opacity="1"/><g clip-path="url(#98f6a559ee)"><g clip-path="url(#a6ef1e5cb4)"><path fill="#001b3d" d="M 138.296875 73.15625 C 137.574219 74.347656 136.339844 75.050781 135.125 75.730469 C 135.640625 76.472656 135.621094 77.472656 135.390625 78.347656 C 135.160156 79.222656 134.746094 80.039062 134.511719 80.914062 C 134.277344 81.789062 134.339844 82.949219 134.847656 83.695312 C 134.148438 83.722656 133.5625 84.285156 133.277344 84.925781 C 132.992188 85.570312 132.949219 86.28125 132.890625 86.980469 C 132.828125 87.679688 132.734375 88.398438 132.371094 88.996094 L 132.386719 89 C 133.390625 89.398438 134.433594 89.824219 135.144531 90.636719 C 135.351562 90.878906 135.527344 91.148438 135.636719 91.441406 C 135.882812 92.117188 135.78125 92.882812 135.503906 93.542969 C 135.226562 94.210938 134.785156 94.789062 134.355469 95.367188 C 134.917969 95.925781 135.839844 96.554688 136.097656 97.3125 C 136.257812 97.792969 136.273438 98.308594 136.34375 98.8125 C 136.59375 100.59375 137.539062 102.269531 137.480469 104.066406 L 137.480469 104.070312 C 137.476562 104.253906 137.339844 104.410156 137.183594 104.503906 C 137.027344 104.597656 136.847656 104.648438 136.6875 104.730469 C 136.128906 105.015625 135.832031 105.652344 135.714844 106.273438 C 135.597656 106.890625 135.617188 107.53125 135.484375 108.144531 C 135.21875 109.398438 134.257812 110.417969 133.421875 111.394531 C 133.878906 111.964844 134.339844 112.542969 134.597656 113.222656 C 134.859375 113.902344 134.886719 114.710938 134.5 115.328125 C 134.027344 116.082031 132.890625 116.441406 132.027344 116.667969 C 132.664062 117.285156 133.335938 117.964844 133.464844 118.839844 C 133.550781 119.449219 133.363281 120.066406 133.441406 120.675781 C 133.507812 121.199219 133.773438 121.683594 134.117188 122.085938 C 134.457031 122.488281 134.875 122.828125 135.285156 123.160156 C 134.539062 124.277344 134.617188 125.875 134.964844 127.167969 C 135.316406 128.464844 135.933594 129.675781 136.277344 130.972656 C 136.714844 132.628906 136.6875 134.40625 136.199219 136.046875 C 133.972656 136.578125 131.390625 136.582031 129.222656 135.839844 C 128.226562 135.5 127.273438 135.03125 126.246094 134.808594 C 125.214844 134.585938 123.976562 134.621094 123.140625 135.253906 C 122.757812 134.625 122.167969 134.121094 121.484375 133.847656 C 120.691406 133.527344 119.8125 133.515625 118.96875 133.382812 C 118.121094 133.246094 117.183594 132.882812 116.707031 132.171875 C 116.503906 133.0625 116.085938 133.902344 115.496094 134.601562 C 115.285156 134.847656 115.03125 135.09375 114.707031 135.140625 C 114.464844 135.175781 114.222656 135.09375 113.996094 135.003906 C 113.132812 134.664062 112.277344 134.148438 111.519531 133.613281 C 111.070312 133.589844 110.664062 133.882812 110.351562 134.207031 C 110.039062 134.53125 109.769531 134.910156 109.390625 135.148438 C 108.417969 135.761719 107.09375 135.285156 106.027344 135.703125 C 105.148438 136.042969 104.402344 136.871094 103.921875 137.683594 C 103.613281 137.421875 103.203125 137.332031 102.800781 137.296875 C 102.398438 137.265625 101.992188 137.277344 101.597656 137.1875 C 101.007812 137.058594 100.492188 136.707031 99.917969 136.523438 C 99.101562 136.261719 98.207031 136.339844 97.398438 136.074219 C 96.476562 135.773438 95.757812 135.058594 95.070312 134.371094 C 94.21875 135.011719 93.824219 135.152344 92.832031 135.546875 C 92.433594 135.703125 92.003906 135.84375 91.585938 135.742188 C 91.242188 135.65625 90.957031 135.414062 90.703125 135.164062 C 89.964844 134.429688 89.367188 133.480469 88.953125 132.519531 C 87.871094 133.078125 86.527344 132.664062 85.367188 133.03125 C 84.554688 133.292969 83.832031 133.980469 83.550781 134.785156 C 82.964844 134.226562 82.027344 134.222656 81.253906 134.464844 C 80.480469 134.703125 79.78125 135.144531 79.007812 135.382812 C 77.960938 135.707031 76.796875 135.640625 75.792969 135.191406 L 75.796875 134.976562 C 75.417969 136.417969 74.386719 137.675781 73.042969 138.324219 C 72.664062 138.511719 72.246094 138.648438 71.832031 138.585938 C 71.484375 138.527344 71.171875 138.335938 70.886719 138.128906 C 69.835938 137.382812 68.941406 136.417969 68.273438 135.3125 C 67.085938 135.515625 65.871094 135.71875 64.761719 135.238281 C 64.195312 134.996094 63.703125 134.585938 63.125 134.371094 C 62.21875 134.035156 61.128906 134.253906 60.414062 134.90625 C 60.269531 134.210938 59.671875 133.632812 59.027344 133.34375 C 58.378906 133.054688 57.660156 132.976562 56.953125 132.902344 C 56.25 132.828125 55.53125 132.746094 54.886719 132.449219 C 54.773438 133.480469 54.359375 134.273438 53.660156 135.042969 C 53.378906 135.355469 53.039062 135.640625 52.625 135.703125 C 52.359375 135.746094 52.085938 135.6875 51.824219 135.617188 C 50.878906 135.363281 49.980469 134.933594 49.1875 134.359375 C 47.898438 134.800781 47.128906 136.152344 45.796875 136.453125 C 45.171875 136.589844 44.5 136.464844 43.875 136.605469 C 43.382812 136.714844 42.941406 136.972656 42.457031 137.117188 C 41.605469 137.367188 40.636719 137.25 39.875 137.707031 C 39.472656 136.792969 38.492188 136.050781 37.535156 135.777344 C 36.972656 135.613281 36.375 135.601562 35.800781 135.480469 C 34.703125 135.246094 33.503906 134.402344 32.839844 133.5 C 32.347656 133.957031 32.257812 134.042969 31.675781 134.378906 C 31.09375 134.71875 30.410156 134.917969 29.75 134.820312 C 29.148438 134.730469 28.59375 134.382812 28.207031 133.914062 C 27.816406 133.445312 27.5 132.664062 27.421875 132.058594 C 26.914062 132.867188 25.984375 133.367188 25.035156 133.464844 C 24.382812 133.535156 23.722656 133.429688 23.082031 133.546875 C 22.183594 133.71875 21.234375 134.484375 20.859375 135.3125 C 20.066406 134.726562 19 134.652344 18.019531 134.789062 C 16.445312 135.003906 14.980469 135.691406 13.449219 136.101562 C 11.679688 136.574219 9.207031 136.585938 7.8125 136.050781 C 7.320312 134.410156 7.292969 132.632812 7.730469 130.976562 C 8.078125 129.679688 8.695312 128.46875 9.042969 127.171875 C 9.394531 125.875 9.472656 124.28125 8.722656 123.164062 C 9.136719 122.832031 9.550781 122.496094 9.890625 122.089844 C 10.234375 121.683594 10.5 121.203125 10.566406 120.675781 C 10.648438 120.070312 10.457031 119.449219 10.546875 118.839844 C 10.671875 117.964844 11.34375 117.285156 11.980469 116.671875 C 11.117188 116.449219 9.980469 116.085938 9.507812 115.328125 C 9.121094 114.714844 9.152344 113.90625 9.410156 113.226562 C 9.667969 112.546875 10.132812 111.964844 10.585938 111.398438 C 9.75 110.421875 8.789062 109.40625 8.523438 108.148438 C 8.390625 107.53125 8.414062 106.894531 8.292969 106.273438 C 8.175781 105.65625 7.878906 105.019531 7.320312 104.734375 C 7.160156 104.652344 6.980469 104.597656 6.824219 104.503906 C 6.667969 104.410156 6.53125 104.257812 6.527344 104.074219 L 6.527344 104.070312 C 6.464844 102.273438 7.410156 100.597656 7.664062 98.816406 C 7.734375 98.3125 7.75 97.792969 7.910156 97.3125 C 8.167969 96.558594 9.085938 95.933594 9.652344 95.367188 C 9.21875 94.792969 8.78125 94.210938 8.503906 93.546875 C 8.226562 92.882812 8.121094 92.117188 8.375 91.445312 C 8.480469 91.148438 8.660156 90.878906 8.867188 90.640625 C 9.570312 89.824219 10.621094 89.398438 11.621094 89.003906 L 11.636719 89 C 11.273438 88.398438 11.183594 87.679688 11.121094 86.984375 C 11.058594 86.285156 11.015625 85.566406 10.734375 84.929688 C 10.449219 84.289062 9.863281 83.726562 9.164062 83.695312 C 9.667969 82.945312 9.730469 81.792969 9.496094 80.917969 C 9.265625 80.042969 8.847656 79.226562 8.617188 78.347656 C 8.390625 77.472656 8.371094 76.476562 8.882812 75.730469 C 7.667969 75.050781 6.433594 74.351562 5.710938 73.160156 C 5.4375 72.714844 5.25 72.179688 5.34375 71.664062 C 5.414062 71.273438 5.640625 70.929688 5.882812 70.613281 C 6.28125 70.097656 6.738281 69.632812 7.25 69.226562 C 7.59375 68.957031 7.960938 68.703125 8.230469 68.363281 C 8.5 68.023438 8.664062 67.554688 8.515625 67.144531 C 8.4375 66.457031 8.460938 65.628906 8.679688 64.96875 C 8.921875 64.226562 9.464844 63.613281 9.6875 62.867188 C 9.945312 62.011719 9.746094 61.007812 9.164062 60.339844 C 9.570312 60.164062 9.996094 59.980469 10.289062 59.648438 C 10.550781 59.347656 10.683594 58.957031 10.785156 58.570312 C 11.070312 57.488281 11.167969 56.363281 11.265625 55.253906 C 11.277344 55.144531 11.285156 55.023438 11.226562 54.929688 C 11.167969 54.835938 10.808594 54.742188 10.738281 54.828125 C 9.507812 54.53125 8.496094 53.460938 8.273438 52.210938 C 8.046875 50.960938 8.625 49.609375 9.679688 48.902344 C 8.761719 48.324219 8.113281 47.308594 7.785156 46.273438 C 7.453125 45.238281 7.347656 44.144531 7.183594 43.070312 C 7.019531 41.996094 6.777344 40.90625 6.21875 39.972656 C 7.09375 39.316406 8.035156 38.683594 8.324219 37.671875 C 8.539062 36.9375 8.492188 36.144531 8.667969 35.394531 C 8.90625 34.363281 9.585938 33.445312 10.5 32.910156 C 10.050781 32.339844 9.605469 31.597656 9.382812 30.910156 C 9.15625 30.21875 9.152344 29.425781 9.527344 28.800781 C 10 28.007812 11.054688 27.605469 11.957031 27.394531 L 11.996094 27.394531 C 11.546875 27.0625 11.566406 27.085938 11.242188 26.636719 C 10.851562 26.085938 10.683594 25.410156 10.582031 24.738281 C 10.480469 24.070312 10.433594 23.390625 10.246094 22.742188 C 10.261719 22.28125 10.015625 21.730469 9.628906 21.480469 C 9.371094 21.316406 9.039062 21.210938 8.914062 20.933594 C 8.835938 20.75 8.871094 20.539062 8.972656 20.371094 C 9.074219 20.207031 9.257812 20.054688 9.433594 19.957031 C 9.375 18.105469 8.621094 16.355469 8.144531 14.566406 C 7.554688 12.367188 7.375 10.066406 7.613281 7.804688 C 9.015625 7.269531 11.691406 7.398438 13.457031 7.875 C 14.992188 8.285156 16.457031 8.96875 18.03125 9.1875 C 19.007812 9.324219 20.074219 9.25 20.871094 8.664062 C 21.246094 9.496094 22.195312 10.261719 23.09375 10.429688 C 23.734375 10.546875 24.394531 10.445312 25.046875 10.511719 C 26 10.609375 26.925781 11.109375 27.433594 11.917969 C 27.515625 11.3125 27.832031 10.535156 28.21875 10.0625 C 28.609375 9.59375 29.160156 9.253906 29.761719 9.15625 C 30.425781 9.054688 31.105469 9.257812 31.6875 9.597656 C 32.269531 9.933594 32.359375 10.019531 32.851562 10.476562 C 33.519531 9.574219 34.714844 8.730469 35.8125 8.496094 C 36.386719 8.375 36.984375 8.363281 37.546875 8.199219 C 38.507812 7.925781 39.484375 7.1875 39.886719 6.269531 C 40.652344 6.722656 41.617188 6.605469 42.46875 6.859375 C 42.949219 7.003906 43.394531 7.261719 43.886719 7.371094 C 44.515625 7.507812 45.179688 7.386719 45.808594 7.523438 C 47.140625 7.820312 47.90625 9.175781 49.199219 9.617188 C 49.992188 9.042969 50.890625 8.609375 51.835938 8.359375 C 52.097656 8.285156 52.371094 8.230469 52.636719 8.273438 C 53.050781 8.335938 53.394531 8.621094 53.671875 8.933594 C 54.367188 9.703125 54.785156 10.496094 54.894531 11.527344 C 55.542969 11.230469 56.261719 11.148438 56.964844 11.074219 C 57.671875 11 58.390625 10.917969 59.039062 10.628906 C 59.6875 10.339844 60.28125 9.761719 60.425781 9.066406 C 61.140625 9.726562 62.226562 9.941406 63.136719 9.605469 C 63.71875 9.390625 64.207031 8.980469 64.773438 8.738281 C 65.882812 8.261719 67.09375 8.464844 68.285156 8.664062 C 68.953125 7.558594 69.847656 6.597656 70.894531 5.84375 C 71.183594 5.640625 71.492188 5.449219 71.84375 5.390625 C 72.257812 5.328125 72.679688 5.464844 73.054688 5.648438 C 74.398438 6.300781 75.429688 7.558594 75.808594 9 L 75.804688 8.78125 C 76.808594 8.335938 77.972656 8.269531 79.019531 8.589844 C 79.792969 8.832031 80.492188 9.269531 81.265625 9.511719 C 82.039062 9.753906 82.96875 9.746094 83.558594 9.191406 C 83.839844 9.992188 84.5625 10.683594 85.378906 10.945312 C 86.539062 11.3125 87.882812 10.898438 88.964844 11.453125 C 89.378906 10.492188 89.972656 9.550781 90.714844 8.8125 C 90.964844 8.558594 91.253906 8.320312 91.597656 8.234375 C 92.015625 8.132812 92.445312 8.269531 92.84375 8.429688 C 93.832031 8.824219 94.230469 8.964844 95.082031 9.605469 C 95.765625 8.917969 96.484375 8.207031 97.40625 7.902344 C 98.21875 7.636719 99.117188 7.714844 99.925781 7.453125 C 100.5 7.269531 101.019531 6.917969 101.609375 6.785156 C 102.003906 6.699219 102.410156 6.714844 102.8125 6.679688 C 103.214844 6.644531 103.625 6.550781 103.933594 6.292969 C 104.414062 7.101562 105.152344 7.9375 106.035156 8.273438 C 107.109375 8.6875 108.433594 8.210938 109.402344 8.828125 C 109.785156 9.066406 110.050781 9.445312 110.363281 9.769531 C 110.675781 10.089844 111.082031 10.382812 111.53125 10.363281 C 112.289062 9.832031 113.144531 9.3125 114.003906 8.972656 C 114.234375 8.882812 114.476562 8.800781 114.71875 8.832031 C 115.042969 8.878906 115.296875 9.121094 115.507812 9.375 C 116.097656 10.074219 116.515625 10.914062 116.71875 11.804688 C 117.195312 11.09375 118.132812 10.730469 118.976562 10.59375 C 119.824219 10.460938 120.699219 10.449219 121.492188 10.128906 C 122.175781 9.855469 122.765625 9.351562 123.148438 8.722656 C 123.988281 9.359375 125.226562 9.394531 126.257812 9.167969 C 127.285156 8.945312 128.238281 8.472656 129.234375 8.136719 C 131.402344 7.394531 134.183594 7.273438 136.414062 7.804688 C 136.65625 10.066406 136.476562 12.367188 135.886719 14.5625 C 135.40625 16.355469 134.648438 18.101562 134.597656 19.957031 C 134.769531 20.046875 134.949219 20.199219 135.054688 20.371094 C 135.160156 20.539062 135.195312 20.753906 135.117188 20.929688 C 134.992188 21.210938 134.65625 21.3125 134.402344 21.476562 C 134.015625 21.730469 133.765625 22.277344 133.78125 22.738281 C 133.597656 23.390625 133.554688 24.070312 133.449219 24.738281 C 133.34375 25.40625 133.179688 26.082031 132.785156 26.632812 C 132.464844 27.085938 132.480469 27.0625 132.035156 27.390625 L 132.074219 27.390625 C 132.972656 27.601562 134.023438 28.007812 134.503906 28.800781 C 134.875 29.421875 134.875 30.214844 134.648438 30.90625 C 134.421875 31.597656 133.980469 32.335938 133.53125 32.910156 C 134.441406 33.441406 135.125 34.363281 135.363281 35.394531 C 135.535156 36.140625 135.492188 36.929688 135.703125 37.671875 C 135.996094 38.675781 136.9375 39.316406 137.8125 39.972656 C 137.246094 40.902344 137.011719 41.992188 136.847656 43.066406 C 136.679688 44.140625 136.578125 45.234375 136.246094 46.269531 C 135.914062 47.308594 135.273438 48.320312 134.347656 48.902344 C 135.40625 49.605469 135.980469 50.960938 135.757812 52.210938 C 135.535156 53.457031 134.523438 54.53125 133.289062 54.828125 C 133.222656 54.742188 132.863281 54.832031 132.804688 54.929688 C 132.75 55.023438 132.757812 55.136719 132.765625 55.25 C 132.863281 56.367188 132.964844 57.484375 133.246094 58.566406 C 133.347656 58.953125 133.476562 59.34375 133.742188 59.644531 C 134.035156 59.980469 134.457031 60.164062 134.867188 60.335938 C 134.28125 61.003906 134.085938 62.011719 134.34375 62.863281 C 134.5625 63.613281 135.109375 64.226562 135.351562 64.964844 C 135.570312 65.625 135.59375 66.449219 135.511719 67.140625 C 135.367188 67.550781 135.527344 68.019531 135.800781 68.363281 C 136.070312 68.703125 136.4375 68.953125 136.78125 69.226562 C 137.285156 69.632812 137.746094 70.097656 138.148438 70.609375 C 138.390625 70.925781 138.617188 71.273438 138.6875 71.664062 C 138.761719 72.175781 138.574219 72.707031 138.296875 73.15625 Z M 138.296875 73.15625 " fill-opacity="1" fill-rule="nonzero"/></g></g><g clip-path="url(#2e9d139e12)"><g clip-path="url(#66473ef821)"><path fill="#ffffff" d="M 4.042969 4.042969 L 139.945312 4.042969 L 139.945312 139.945312 L 4.042969 139.945312 Z M 4.042969 4.042969 " fill-opacity="1" fill-rule="nonzero"/></g></g><g clip-path="url(#6db7a522dd)"><path fill="#000000" d="M 57.511719 107.953125 C 52.972656 107.753906 45.191406 107.855469 41.355469 107.960938 C 38.757812 108.03125 36.726562 110.105469 36.726562 112.6875 C 36.726562 115.167969 38.652344 117.132812 41.308594 117.367188 C 42.734375 117.488281 45.535156 117.546875 48.488281 117.546875 C 51.992188 117.546875 55.710938 117.472656 57.574219 117.367188 C 60.472656 117.203125 62.199219 115.457031 62.199219 112.695312 C 62.199219 110.488281 60.554688 108.082031 57.511719 107.953125 Z M 57.398438 114.238281 C 54.050781 114.429688 44.492188 114.5 41.574219 114.242188 C 40.742188 114.171875 39.847656 113.65625 39.847656 112.683594 C 39.847656 111.792969 40.53125 111.105469 41.441406 111.085938 C 43.644531 111.019531 47.160156 110.964844 50.59375 110.964844 C 53.070312 110.964844 55.515625 110.992188 57.386719 111.078125 C 59.042969 111.148438 59.085938 112.667969 59.085938 112.683594 C 59.078125 113.605469 58.804688 114.152344 57.398438 114.238281 Z M 51.347656 42.4375 C 53.464844 42.734375 55.113281 42.839844 56.507812 42.839844 C 58.417969 42.839844 59.878906 42.636719 61.460938 42.414062 C 62.792969 42.230469 64.355469 40.972656 64.628906 39.015625 C 65.109375 35.597656 65.089844 34.285156 64.785156 30.578125 C 64.644531 28.859375 63.726562 27.691406 62.269531 27.347656 C 58.648438 26.519531 54.921875 26.453125 50.875 27.15625 C 50.042969 27.300781 48.609375 27.851562 48.375 29.925781 C 48.03125 33.042969 48.03125 34.875 48.367188 39.25 C 48.507812 41 49.625 42.195312 51.347656 42.4375 Z M 51.480469 30.273438 C 51.480469 30.261719 51.488281 30.246094 51.488281 30.230469 C 55.082031 29.613281 58.386719 29.671875 61.566406 30.386719 C 61.566406 30.386719 61.648438 30.5 61.679688 30.84375 C 61.96875 34.378906 61.988281 35.4375 61.542969 38.582031 C 61.464844 39.15625 61.015625 39.320312 61.027344 39.320312 C 58.308594 39.703125 56.347656 39.980469 51.777344 39.339844 C 51.609375 39.320312 51.546875 39.277344 51.546875 39.277344 C 51.546875 39.269531 51.503906 39.207031 51.488281 39.007812 C 51.136719 34.570312 51.179688 33.007812 51.480469 30.273438 Z M 118.808594 94.996094 C 117.359375 95.003906 116.160156 95.621094 115.519531 96.800781 C 114.796875 98.105469 114.882812 99.875 115.730469 101.1875 C 116.414062 102.253906 117.488281 102.839844 118.714844 102.839844 C 118.816406 102.839844 118.914062 102.835938 119.019531 102.828125 C 121.429688 102.644531 122.65625 100.519531 122.585938 98.617188 C 122.523438 96.828125 121.335938 95.015625 118.808594 94.996094 Z M 118.898438 101.265625 C 117.910156 101.335938 117.347656 100.804688 117.042969 100.335938 C 116.511719 99.519531 116.449219 98.347656 116.886719 97.550781 C 117.242188 96.90625 117.898438 96.566406 118.773438 96.566406 C 118.78125 96.566406 118.785156 96.566406 118.800781 96.566406 C 120.390625 96.578125 120.996094 97.660156 121.03125 98.675781 C 121.066406 99.875 120.355469 101.152344 118.898438 101.265625 Z M 131.914062 92.050781 C 127.125 84.984375 119.648438 78.246094 115.898438 77.628906 C 115.03125 77.488281 114.375 77.644531 113.894531 77.878906 C 111.929688 75.675781 109.515625 72.113281 106.980469 68.363281 C 101.023438 59.5625 94.34375 49.691406 87.226562 47.191406 C 87.167969 44.855469 87.011719 40.40625 86.835938 35.40625 C 86.632812 29.484375 86.414062 23.367188 86.335938 19.980469 C 86.207031 14.632812 82.65625 11.089844 77.277344 10.949219 C 53.207031 10.296875 41.398438 10.488281 19.050781 10.949219 C 14.460938 11.035156 11.171875 14.578125 11.058594 19.554688 C 10.386719 48.160156 10.027344 91.054688 10.71875 122.421875 C 10.796875 126.03125 14.40625 133.164062 19.8125 133.542969 C 25.449219 133.929688 34.375 134.058594 43.398438 134.058594 C 57.464844 134.058594 71.761719 133.761719 74.234375 133.703125 C 79.019531 133.597656 84.328125 127.066406 84.65625 122.449219 C 84.753906 121.011719 84.703125 116.578125 84.65625 111.878906 C 84.625 109.429688 84.597656 106.929688 84.605469 105.164062 C 84.929688 105.320312 85.242188 105.496094 85.550781 105.695312 C 85.488281 105.800781 85.410156 105.910156 85.355469 106.007812 C 84.964844 106.652344 84.589844 107.753906 84.992188 109.332031 C 86.160156 113.875 93.4375 120.425781 99.800781 124.140625 C 101.296875 125.015625 102.933594 125.445312 104.636719 125.445312 C 107.03125 125.445312 109.542969 124.59375 111.964844 122.914062 C 116.605469 119.6875 120.25 116.65625 123.433594 113.371094 C 127.667969 109.011719 130.898438 104.246094 132.519531 99.957031 C 133.613281 97.054688 133.394531 94.242188 131.914062 92.050781 Z M 74.132812 129.011719 C 55.972656 129.410156 30.941406 129.613281 20.144531 128.863281 C 18.640625 128.753906 16.960938 126.683594 16.066406 124.695312 C 17.066406 125.019531 18.167969 125.164062 19.296875 125.21875 C 25.539062 125.546875 34.796875 125.675781 44.457031 125.675781 C 56.53125 125.675781 69.242188 125.46875 77.480469 125.191406 C 77.980469 125.175781 78.433594 125.113281 78.863281 125.035156 C 77.578125 127.074219 75.511719 128.984375 74.132812 129.011719 Z M 80.023438 120.902344 C 79.507812 121.671875 78.6875 122.023438 77.359375 122.066406 C 62.589844 122.570312 33.414062 122.828125 19.453125 122.097656 C 17.257812 121.984375 16 121.621094 15.359375 120.292969 C 14.722656 89.203125 15.082031 47.605469 15.738281 19.660156 C 15.761719 18.730469 16.070312 15.691406 19.148438 15.628906 C 41.421875 15.164062 53.191406 14.980469 77.148438 15.628906 C 80.785156 15.726562 81.605469 18.105469 81.652344 20.078125 C 81.730469 23.5 81.949219 29.636719 82.15625 35.5625 C 82.308594 40.027344 82.457031 44.304688 82.527344 46.761719 C 80.722656 47.136719 79.140625 48.171875 78.039062 49.683594 C 78.015625 41.976562 77.910156 28.988281 77.777344 24.863281 C 77.683594 22.222656 75.730469 20.128906 73.214844 19.992188 C 52.753906 18.90625 39.21875 19.183594 24 19.992188 C 21.5 20.128906 19.539062 22.214844 19.441406 24.855469 C 18.699219 44.878906 18.332031 75.171875 19.179688 97.722656 C 19.382812 103.089844 22.460938 103.964844 25.449219 104.097656 C 30.136719 104.316406 36.738281 104.394531 43.496094 104.394531 C 55.289062 104.394531 67.554688 104.167969 70.949219 104.105469 C 72.121094 104.082031 73.097656 103.871094 73.9375 103.464844 C 74.125 103.375 74.289062 103.246094 74.417969 103.097656 C 75.304688 103.226562 76.175781 103.332031 77.007812 103.429688 C 78.050781 103.558594 79.019531 103.671875 79.929688 103.8125 C 79.910156 105.574219 79.9375 108.671875 79.972656 111.914062 C 80.007812 115.238281 80.050781 118.894531 80.023438 120.902344 Z M 39.035156 62.003906 C 43.609375 66.15625 49.511719 71.609375 55.222656 76.878906 C 55.421875 77.0625 55.621094 77.238281 55.816406 77.425781 C 52.613281 82.246094 53.691406 88.613281 55.371094 90.855469 C 58.855469 95.507812 62.957031 98.992188 67.296875 101.050781 C 57.976562 101.214844 36.527344 101.5 25.605469 100.988281 C 23.351562 100.882812 22.417969 100.546875 22.304688 97.617188 C 21.460938 75.144531 21.828125 44.941406 22.566406 24.984375 C 22.601562 23.957031 23.28125 23.175781 24.171875 23.125 C 39.28125 22.324219 52.726562 22.039062 73.054688 23.125 C 73.949219 23.175781 74.628906 23.957031 74.65625 24.976562 C 74.804688 29.351562 74.910156 43.757812 74.917969 51.148438 C 74.15625 51.382812 73.40625 51.730469 72.714844 52.191406 C 71.253906 53.164062 70.1875 54.527344 69.628906 56.039062 C 67.589844 56.289062 65.757812 57.269531 64.425781 58.863281 C 63.921875 59.46875 63.507812 60.128906 63.195312 60.824219 C 58.988281 56.90625 53.792969 52.15625 50.515625 49.210938 C 45.242188 44.464844 39.921875 45.546875 37.21875 48.550781 C 33.425781 52.773438 35.328125 58.628906 39.035156 62.003906 Z M 77.566406 98.789062 C 76.429688 98.652344 75.257812 98.511719 74.042969 98.320312 C 68.746094 97.472656 63.445312 93.824219 59.113281 88.046875 C 58.605469 87.328125 57.773438 83.65625 59.328125 80.667969 C 61.128906 82.328125 62.835938 83.90625 64.375 85.320312 C 64.828125 85.730469 65.390625 85.9375 65.957031 85.9375 C 66.59375 85.9375 67.222656 85.679688 67.6875 85.175781 C 68.5625 84.21875 68.5 82.742188 67.539062 81.863281 C 64.863281 79.40625 61.691406 76.480469 58.394531 73.433594 C 52.675781 68.160156 46.765625 62.699219 42.175781 58.53125 C 39.421875 56.03125 39.34375 53.199219 40.691406 51.703125 C 41.84375 50.421875 44.289062 49.917969 47.386719 52.710938 C 51.625 56.515625 59.074219 63.351562 63.414062 67.464844 C 64.183594 68.195312 65.355469 68.308594 66.261719 67.746094 C 67.164062 67.1875 67.574219 66.085938 67.261719 65.0625 C 66.960938 64.070312 67.257812 62.792969 68.011719 61.890625 C 68.5625 61.238281 69.574219 60.492188 71.261719 60.710938 C 71.921875 60.796875 72.59375 60.589844 73.097656 60.148438 C 73.597656 59.710938 73.894531 59.070312 73.894531 58.398438 C 73.902344 57.542969 74.429688 56.691406 75.3125 56.101562 C 76.210938 55.507812 77.261719 55.316406 78.003906 55.621094 C 78.644531 55.882812 79.371094 55.847656 79.988281 55.519531 C 80.601562 55.195312 81.039062 54.613281 81.179688 53.929688 C 81.492188 52.46875 82.621094 51.089844 84.464844 51.324219 C 90.296875 52.070312 97.695312 63.011719 103.105469 71 C 105.738281 74.898438 108.074219 78.332031 110.179688 80.746094 C 103.664062 86.171875 93.804688 95.394531 88.363281 101.925781 C 84.992188 99.683594 81.371094 99.25 77.566406 98.789062 Z M 91.792969 111.671875 C 90.457031 110.148438 89.652344 108.882812 89.519531 108.179688 C 93.277344 102.1875 107.90625 88.378906 115.582031 82.40625 C 116.246094 82.699219 117.289062 83.367188 118.554688 84.367188 C 109.804688 93.023438 102.230469 100.867188 93.542969 109.855469 Z M 128.136719 98.289062 C 126.75 101.941406 123.816406 106.242188 120.070312 110.097656 C 117.097656 113.15625 113.675781 116.003906 109.289062 119.058594 C 106.636719 120.902344 104.171875 121.257812 102.160156 120.085938 C 98.9375 118.207031 96.128906 115.976562 93.96875 113.925781 L 95.796875 112.027344 C 104.53125 102.984375 112.136719 95.117188 120.941406 86.40625 C 123.191406 88.5 125.757812 91.304688 128.042969 94.683594 C 128.652344 95.59375 128.6875 96.84375 128.136719 98.289062 Z M 43.808594 39.015625 C 44.289062 35.597656 44.265625 34.285156 43.960938 30.578125 C 43.820312 28.859375 42.902344 27.691406 41.449219 27.347656 C 37.828125 26.519531 34.097656 26.453125 30.050781 27.15625 C 29.21875 27.300781 27.785156 27.851562 27.554688 29.925781 C 27.207031 33.042969 27.207031 34.875 27.546875 39.25 C 27.6875 41 28.796875 42.1875 30.519531 42.429688 C 32.636719 42.726562 34.28125 42.832031 35.679688 42.832031 C 37.585938 42.832031 39.046875 42.628906 40.628906 42.40625 C 41.964844 42.222656 43.523438 40.964844 43.808594 39.015625 Z M 40.199219 39.3125 C 37.480469 39.695312 35.515625 39.972656 30.949219 39.332031 C 30.78125 39.3125 30.714844 39.269531 30.714844 39.269531 C 30.714844 39.261719 30.671875 39.199219 30.660156 39 C 30.3125 34.5625 30.347656 33 30.652344 30.265625 C 30.652344 30.253906 30.660156 30.238281 30.660156 30.222656 C 34.253906 29.605469 37.558594 29.664062 40.734375 30.378906 C 40.734375 30.378906 40.820312 30.496094 40.847656 30.835938 C 41.136719 34.371094 41.160156 35.429688 40.714844 38.574219 C 40.628906 39.148438 40.183594 39.3125 40.199219 39.3125 C 40.191406 39.3125 40.191406 39.3125 40.199219 39.3125 Z M 27.382812 91.695312 L 28.074219 91.695312 C 28.9375 91.695312 29.636719 90.992188 29.636719 90.132812 C 29.636719 89.273438 28.9375 88.570312 28.074219 88.570312 L 27.382812 88.570312 C 26.523438 88.570312 25.824219 89.273438 25.824219 90.132812 C 25.824219 90.992188 26.523438 91.695312 27.382812 91.695312 Z M 28.265625 93.980469 L 27.207031 93.980469 C 26.34375 93.980469 25.644531 94.683594 25.644531 95.542969 C 25.644531 96.410156 26.34375 97.105469 27.207031 97.105469 L 28.265625 97.105469 C 29.128906 97.105469 29.828125 96.402344 29.828125 95.542969 C 29.828125 94.675781 29.128906 93.980469 28.265625 93.980469 Z M 27.476562 86.496094 L 27.941406 86.496094 C 28.800781 86.496094 29.5 85.792969 29.5 84.9375 C 29.5 84.070312 28.800781 83.375 27.941406 83.375 L 27.476562 83.375 C 26.613281 83.375 25.914062 84.078125 25.914062 84.9375 C 25.90625 85.792969 26.605469 86.496094 27.476562 86.496094 Z M 27.476562 86.496094 " fill-opacity="1" fill-rule="nonzero"/></g></svg>