<svg xmlns="http://www.w3.org/2000/svg" width="192" height="192" viewBox="0 0 144 144"><defs><clipPath id="a"><path d="M5 5h134v134H5Zm0 0"/></clipPath><clipPath id="b"><path d="M4.043 15.293v113.414c0 6.211 5.039 11.25 11.25 11.25h113.414c6.211 0 11.25-5.039 11.25-11.25V15.293c0-6.211-5.039-11.25-11.25-11.25H15.293c-6.211 0-11.25 5.039-11.25 11.25m0 0"/></clipPath><clipPath id="c"><path d="M4.043 4.043h135.75v135.75H4.043Zm0 0"/></clipPath><clipPath id="d"><path d="M4.043 15.293v113.414c0 6.211 5.039 11.25 11.25 11.25h113.414c6.211 0 11.25-5.039 11.25-11.25V15.293c0-6.211-5.039-11.25-11.25-11.25H15.293c-6.211 0-11.25 5.039-11.25 11.25m0 0"/></clipPath><clipPath id="e"><path d="M10 10.309h123.723v123.75H10Zm0 0"/></clipPath></defs><path fill="#fff" d="M-14.4-14.4h172.8v172.8H-14.4z"/><path fill="#fff" d="M-14.4-14.4h172.8v172.8H-14.4z"/><g clip-path="url(#a)"><g clip-path="url(#b)"><path fill="#001b3d" d="M138.297 73.156c-.723 1.192-1.957 1.895-3.172 2.574.516.743.496 1.743.266 2.618s-.645 1.691-.88 2.566-.171 2.035.337 2.781c-.7.028-1.286.59-1.57 1.23-.286.645-.329 1.356-.387 2.055-.063.7-.157 1.418-.52 2.016l.016.004c1.004.398 2.047.824 2.758 1.637.207.242.382.511.492.804.246.676.144 1.442-.133 2.102-.277.668-.719 1.246-1.149 1.824.563.559 1.485 1.188 1.743 1.945.16.481.175.997.246 1.5.25 1.782 1.195 3.458 1.136 5.254v.004c-.003.184-.14.34-.296.434-.157.094-.336.144-.496.226-.56.286-.856.922-.973 1.543-.117.618-.098 1.258-.23 1.872-.266 1.253-1.227 2.273-2.063 3.25.457.57.918 1.148 1.176 1.828.261.68.289 1.488-.098 2.105-.473.754-1.61 1.113-2.473 1.34.637.617 1.309 1.297 1.438 2.172.086.61-.102 1.226-.024 1.836.067.523.332 1.008.676 1.41.34.402.758.742 1.168 1.074-.746 1.117-.668 2.715-.32 4.008.351 1.297.969 2.508 1.312 3.805a9.45 9.45 0 0 1-.078 5.074c-2.226.531-4.808.535-6.976-.207-.996-.34-1.95-.809-2.977-1.031-1.031-.223-2.27-.188-3.105.445a3.47 3.47 0 0 0-1.657-1.406c-.793-.32-1.671-.332-2.515-.465-.848-.137-1.785-.5-2.262-1.211a5.8 5.8 0 0 1-1.21 2.43c-.212.246-.466.492-.79.539-.242.035-.484-.047-.71-.137-.864-.34-1.72-.856-2.477-1.39-.45-.024-.856.269-1.168.593-.313.324-.582.703-.961.941-.973.614-2.297.137-3.364.555-.879.34-1.625 1.168-2.105 1.98-.309-.261-.719-.351-1.121-.386-.403-.031-.809-.02-1.203-.11-.59-.128-1.106-.48-1.68-.664-.816-.261-1.711-.183-2.52-.449-.921-.3-1.64-1.015-2.328-1.703-.851.64-1.246.781-2.238 1.176-.398.156-.828.297-1.246.195-.344-.086-.629-.328-.883-.578-.738-.734-1.336-1.684-1.75-2.644-1.082.558-2.426.144-3.586.511-.812.262-1.535.95-1.816 1.754-.586-.558-1.524-.562-2.297-.32-.774.238-1.473.68-2.246.918a4.6 4.6 0 0 1-3.215-.192l.004-.214a5.25 5.25 0 0 1-2.754 3.347c-.379.188-.797.324-1.211.262-.348-.059-.66-.25-.945-.457a9.5 9.5 0 0 1-2.614-2.816c-1.187.203-2.402.406-3.511-.075-.567-.242-1.059-.652-1.637-.867-.906-.336-1.996-.117-2.71.535-.145-.695-.743-1.273-1.388-1.562-.648-.29-1.367-.367-2.074-.442-.703-.074-1.422-.156-2.066-.453-.114 1.031-.528 1.824-1.227 2.594-.281.312-.62.598-1.035.66-.266.043-.54-.016-.8-.086a8.1 8.1 0 0 1-2.638-1.258c-1.289.442-2.058 1.793-3.39 2.094-.625.137-1.297.012-1.922.152-.492.11-.934.368-1.418.512-.852.25-1.82.133-2.582.59-.402-.914-1.383-1.656-2.34-1.93-.562-.164-1.16-.175-1.734-.297-1.098-.234-2.297-1.078-2.961-1.98-.492.457-.582.543-1.164.879-.582.34-1.266.539-1.926.441-.602-.09-1.156-.437-1.543-.906-.39-.469-.707-1.25-.785-1.855-.508.808-1.438 1.308-2.387 1.406-.652.07-1.312-.035-1.953.082-.898.172-1.848.937-2.223 1.766-.793-.586-1.859-.66-2.84-.524-1.574.215-3.039.902-4.57 1.313-1.77.472-4.242.484-5.636-.051a9.4 9.4 0 0 1-.083-5.074c.348-1.297.965-2.508 1.313-3.805.352-1.297.43-2.89-.32-4.008.414-.332.828-.668 1.168-1.074.343-.406.609-.887.675-1.414.082-.606-.109-1.227-.02-1.836.126-.875.798-1.555 1.434-2.168-.863-.223-2-.586-2.472-1.344-.387-.613-.356-1.422-.098-2.101.258-.68.723-1.262 1.176-1.829-.836-.976-1.797-1.992-2.063-3.25-.132-.617-.109-1.253-.23-1.875-.117-.617-.414-1.253-.973-1.539-.16-.082-.34-.136-.496-.23s-.293-.246-.297-.43v-.004c-.062-1.797.883-3.472 1.137-5.254.07-.504.086-1.023.246-1.504.258-.753 1.176-1.378 1.742-1.945-.433-.574-.87-1.156-1.148-1.82s-.383-1.43-.129-2.102c.105-.297.285-.566.492-.804.703-.817 1.754-1.243 2.754-1.637l.016-.004c-.364-.602-.453-1.32-.516-2.016-.062-.699-.105-1.418-.387-2.054-.285-.64-.87-1.203-1.57-1.235.504-.75.566-1.902.332-2.777-.23-.875-.648-1.691-.879-2.57-.226-.875-.246-1.871.266-2.618-1.215-.68-2.45-1.378-3.172-2.57-.274-.445-.461-.98-.367-1.496.07-.39.297-.734.539-1.05q.598-.776 1.367-1.387c.344-.27.71-.524.98-.864s.434-.808.286-1.218c-.079-.688-.055-1.516.164-2.176.242-.742.785-1.356 1.008-2.102.257-.855.058-1.86-.524-2.527.406-.176.832-.36 1.125-.692.262-.3.395-.691.496-1.078.285-1.082.383-2.207.48-3.316.012-.11.02-.23-.038-.324-.059-.094-.418-.188-.489-.102-1.23-.297-2.242-1.367-2.465-2.617-.226-1.25.352-2.602 1.407-3.309-.918-.578-1.567-1.593-1.895-2.629-.332-1.035-.437-2.128-.601-3.203s-.407-2.164-.965-3.097c.875-.657 1.816-1.29 2.105-2.301.215-.734.168-1.527.344-2.277A3.95 3.95 0 0 1 10.5 32.91c-.45-.57-.895-1.312-1.117-2-.227-.691-.23-1.484.144-2.11.473-.792 1.528-1.195 2.43-1.405h.04c-.45-.332-.43-.31-.755-.758-.39-.551-.558-1.227-.66-1.899-.102-.668-.148-1.347-.336-1.996.016-.46-.23-1.012-.617-1.262-.258-.164-.59-.27-.715-.546a.63.63 0 0 1 .059-.563c.101-.164.285-.316.46-.414-.058-1.852-.812-3.602-1.288-5.39-.59-2.2-.77-4.5-.532-6.762 1.403-.535 4.078-.407 5.844.07 1.535.41 3 1.094 4.574 1.313.977.136 2.043.062 2.84-.524.375.832 1.324 1.598 2.223 1.766.64.117 1.3.015 1.953.082.953.097 1.879.597 2.387 1.406.082-.605.398-1.383.785-1.855.39-.47.941-.81 1.543-.907.664-.101 1.343.102 1.925.442.583.336.672.422 1.165.879.668-.903 1.863-1.747 2.96-1.98.575-.122 1.172-.134 1.735-.298.96-.273 1.937-1.011 2.34-1.93.765.454 1.73.336 2.582.59.48.145.926.403 1.418.512.629.137 1.293.016 1.922.152 1.332.297 2.097 1.653 3.39 2.094a8 8 0 0 1 2.637-1.258c.262-.074.535-.129.8-.086.415.063.759.348 1.036.66.695.77 1.113 1.563 1.223 2.594.648-.297 1.367-.379 2.07-.453.707-.074 1.426-.156 2.074-.445s1.242-.867 1.387-1.563a2.7 2.7 0 0 0 2.71.54c.583-.215 1.071-.626 1.637-.868 1.11-.476 2.32-.273 3.512-.074a9.6 9.6 0 0 1 2.61-2.82c.289-.203.597-.395.949-.453.414-.063.836.074 1.21.257A5.27 5.27 0 0 1 75.81 9l-.004-.219a4.65 4.65 0 0 1 3.215-.191c.773.242 1.472.68 2.246.922.773.242 1.703.234 2.293-.32.28.8 1.004 1.492 1.82 1.753 1.16.367 2.504-.047 3.586.508.414-.96 1.008-1.902 1.75-2.64.25-.254.539-.493.883-.579.418-.101.847.036 1.246.196.988.394 1.386.535 2.238 1.175.684-.687 1.402-1.398 2.324-1.703.813-.265 1.711-.187 2.52-.449.574-.183 1.094-.535 1.683-.668.395-.086.801-.07 1.204-.105s.812-.13 1.12-.387c.481.809 1.22 1.644 2.102 1.98 1.074.415 2.399-.062 3.367.555.383.238.649.617.961.942.313.32.719.613 1.168.593.758-.531 1.614-1.05 2.473-1.39.23-.09.473-.172.715-.141.324.047.578.29.789.543.59.7 1.008 1.54 1.21 2.43.477-.711 1.415-1.075 2.259-1.211.847-.133 1.722-.145 2.515-.465a3.47 3.47 0 0 0 1.656-1.406c.84.636 2.079.672 3.11.445 1.027-.223 1.98-.695 2.976-1.031 2.168-.742 4.95-.864 7.18-.332a18.5 18.5 0 0 1-.527 6.758c-.48 1.792-1.239 3.539-1.29 5.394.173.09.352.242.458.414.105.168.14.383.062.559-.125.28-.46.383-.715.547-.386.253-.636.8-.62 1.261-.184.653-.227 1.332-.333 2-.105.668-.27 1.344-.664 1.895-.32.453-.305.43-.75.758h.04c.898.21 1.948.617 2.429 1.41.371.62.371 1.414.144 2.105-.226.692-.668 1.43-1.117 2.004a3.95 3.95 0 0 1 1.832 2.485c.172.746.13 1.535.34 2.277.293 1.004 1.234 1.644 2.11 2.3-.567.93-.801 2.02-.965 3.094-.168 1.075-.27 2.168-.602 3.204-.332 1.039-.973 2.05-1.898 2.632 1.058.703 1.632 2.059 1.41 3.309-.223 1.246-1.235 2.32-2.469 2.617-.066-.086-.426.004-.484.102-.055.093-.047.207-.04.32.098 1.117.2 2.234.481 3.316.102.387.23.778.496 1.079.293.335.715.52 1.125.69-.586.669-.781 1.677-.523 2.528.219.75.765 1.364 1.008 2.102.218.66.242 1.484.16 2.176-.145.41.015.879.289 1.222.27.34.637.59.98.864.504.406.965.87 1.367 1.382.243.317.47.664.54 1.055.074.512-.114 1.043-.391 1.492m0 0"/></g></g><g clip-path="url(#c)"><g clip-path="url(#d)"><path fill="#fff" d="M4.043 4.043h135.902v135.902H4.043Zm0 0"/></g></g><g clip-path="url(#e)"><path d="M57.512 107.953c-4.54-.2-12.32-.098-16.157.008-2.597.07-4.628 2.144-4.628 4.727 0 2.48 1.925 4.445 4.582 4.68 1.425.12 4.226.179 7.18.179 3.503 0 7.222-.074 9.085-.18 2.899-.164 4.625-1.91 4.625-4.672 0-2.207-1.644-4.613-4.687-4.742m-.114 6.285c-3.347.192-12.906.262-15.824.004-.832-.07-1.726-.586-1.726-1.558 0-.891.683-1.579 1.593-1.598 2.204-.066 5.72-.121 9.153-.121 2.476 0 4.922.027 6.793.113 1.656.07 1.699 1.59 1.699 1.606-.008.921-.281 1.468-1.688 1.554m-6.05-71.8c2.117.296 3.765.402 5.16.402 1.91 0 3.37-.203 4.953-.426 1.332-.184 2.894-1.441 3.168-3.398.48-3.418.46-4.73.156-8.438-.14-1.719-1.058-2.887-2.515-3.23-3.622-.828-7.348-.895-11.395-.192-.832.145-2.266.696-2.5 2.77-.344 3.117-.344 4.949-.008 9.324.14 1.75 1.258 2.945 2.98 3.188m.132-12.165c0-.011.008-.027.008-.043 3.594-.617 6.899-.558 10.078.157 0 0 .082.113.114.457.289 3.535.308 4.593-.137 7.738-.078.574-.527.738-.516.738-2.718.383-4.68.66-9.25.02a.6.6 0 0 1-.23-.063c0-.007-.043-.07-.059-.27-.351-4.437-.308-6-.008-8.734m67.329 64.723c-1.45.008-2.649.625-3.29 1.805-.722 1.304-.636 3.074.211 4.386.684 1.067 1.758 1.653 2.985 1.653.101 0 .2-.004.305-.012 2.41-.183 3.636-2.308 3.566-4.21-.063-1.79-1.25-3.602-3.777-3.622m.09 6.27c-.989.07-1.551-.461-1.856-.93-.531-.816-.594-1.988-.156-2.785.355-.645 1.011-.985 1.886-.985h.028c1.59.012 2.195 1.094 2.23 2.11.035 1.199-.676 2.476-2.133 2.59m13.015-9.215c-4.789-7.067-12.266-13.805-16.016-14.422-.867-.14-1.523.016-2.003.25-1.965-2.203-4.38-5.766-6.915-9.516-5.957-8.8-12.636-18.672-19.753-21.172-.059-2.336-.215-6.785-.391-11.785-.203-5.922-.422-12.039-.5-15.426-.129-5.347-3.68-8.89-9.059-9.03-24.07-.653-35.879-.462-58.226 0-4.59.085-7.88 3.628-7.992 8.605-.672 28.605-1.032 71.5-.34 102.867.078 3.61 3.687 10.742 9.094 11.121 5.636.387 14.562.516 23.585.516 14.067 0 28.364-.297 30.836-.356 4.786-.105 10.094-6.637 10.422-11.254.098-1.437.047-5.87 0-10.57-.031-2.45-.058-4.95-.05-6.715.324.156.636.332.945.531-.063.106-.14.215-.196.313-.39.644-.765 1.746-.363 3.324 1.168 4.543 8.445 11.094 14.809 14.809a9.5 9.5 0 0 0 4.836 1.304c2.394 0 4.906-.851 7.328-2.53 4.64-3.228 8.285-6.259 11.469-9.544 4.234-4.36 7.464-9.125 9.086-13.414 1.093-2.902.875-5.715-.606-7.906m-57.781 36.96c-18.16.4-43.192.602-53.988-.148-1.504-.11-3.184-2.18-4.079-4.168 1 .325 2.102.47 3.23.524 6.243.328 15.5.457 25.161.457 12.074 0 24.785-.207 33.023-.485.5-.015.954-.078 1.383-.156-1.285 2.04-3.351 3.95-4.73 3.977m5.89-8.109c-.515.77-1.335 1.121-2.664 1.164-14.77.504-43.945.762-57.906.032-2.195-.114-3.453-.477-4.094-1.805-.636-31.09-.277-72.688.38-100.633.023-.93.331-3.969 3.41-4.031 22.273-.465 34.042-.649 58 0 3.636.098 4.456 2.476 4.503 4.45.078 3.421.297 9.558.504 15.484.153 4.464.301 8.742.371 11.199-1.804.375-3.386 1.41-4.488 2.922-.023-7.707-.129-20.696-.262-24.82-.093-2.641-2.047-4.735-4.562-4.872-20.461-1.086-33.996-.808-49.215 0-2.5.137-4.46 2.223-4.559 4.863-.742 20.024-1.109 50.317-.261 72.868.203 5.367 3.28 6.242 6.27 6.375 4.687.218 11.288.297 18.046.297 11.793 0 24.059-.227 27.453-.29 1.172-.023 2.149-.234 2.989-.64a1.5 1.5 0 0 0 .48-.367c.887.129 1.758.234 2.59.332 1.043.129 2.012.242 2.922.382-.02 1.762.007 4.86.043 8.102.035 3.324.078 6.98.05 8.988M39.035 62.004c4.574 4.152 10.477 9.605 16.188 14.875.199.183.398.36.593.547-3.203 4.82-2.125 11.187-.445 13.43 3.484 4.652 7.586 8.136 11.926 10.195-9.32.164-30.77.449-41.692-.063-2.253-.105-3.187-.441-3.3-3.37-.844-22.473-.477-52.677.261-72.634.036-1.027.715-1.808 1.606-1.859 15.11-.8 28.555-1.086 48.883 0 .894.05 1.574.832 1.601 1.852.149 4.375.254 18.78.262 26.171a8.5 8.5 0 0 0-2.203 1.043c-1.461.973-2.528 2.336-3.086 3.848a7.98 7.98 0 0 0-5.203 2.824 8.6 8.6 0 0 0-1.23 1.961 1099 1099 0 0 0-12.68-11.613c-5.274-4.746-10.594-3.664-13.297-.66-3.793 4.222-1.89 10.078 1.816 13.453m38.531 36.785c-1.136-.137-2.308-.277-3.523-.469-5.297-.847-10.598-4.496-14.93-10.273-.508-.719-1.34-4.39.215-7.379 1.8 1.66 3.508 3.238 5.047 4.652a2.35 2.35 0 0 0 1.582.618 2.345 2.345 0 0 0 1.582-4.075 4042 4042 0 0 1-9.144-8.43c-5.72-5.273-11.63-10.734-16.22-14.902-2.753-2.5-2.831-5.332-1.484-6.828 1.153-1.281 3.598-1.785 6.696 1.008 4.238 3.805 11.687 10.64 16.027 14.754a2.346 2.346 0 0 0 3.848-2.402c-.301-.993-.004-2.27.75-3.172.55-.653 1.562-1.399 3.25-1.18a2.338 2.338 0 0 0 2.633-2.313c.007-.855.535-1.707 1.418-2.296.898-.594 1.949-.786 2.69-.48a2.34 2.34 0 0 0 3.177-1.692c.312-1.461 1.441-2.84 3.285-2.606 5.832.746 13.23 11.688 18.64 19.676 2.633 3.898 4.97 7.332 7.075 9.746-6.516 5.426-16.375 14.649-21.817 21.18-3.37-2.242-6.992-2.676-10.797-3.137m14.227 12.883c-1.336-1.524-2.14-2.79-2.273-3.492 3.757-5.993 18.386-19.801 26.062-25.774.664.293 1.707.961 2.973 1.961-8.75 8.656-16.325 16.5-25.012 25.488Zm36.344-13.383c-1.387 3.652-4.32 7.953-8.067 11.809-2.972 3.058-6.394 5.906-10.78 8.96-2.653 1.844-5.118 2.2-7.13 1.028a45 45 0 0 1-8.191-6.16l1.828-1.899c8.734-9.043 16.34-16.91 25.144-25.62a49 49 0 0 1 7.102 8.277c.61.91.644 2.16.094 3.605M43.809 39.016c.48-3.418.457-4.73.152-8.438-.14-1.719-1.059-2.887-2.512-3.23-3.62-.828-7.351-.895-11.398-.192-.832.145-2.266.696-2.496 2.77-.348 3.117-.348 4.949-.008 9.324.14 1.75 1.25 2.938 2.973 3.18 2.117.297 3.761.402 5.16.402 1.906 0 3.367-.203 4.949-.426 1.336-.183 2.894-1.441 3.18-3.39m-3.61.297c-2.719.382-4.683.66-9.25.019-.168-.02-.234-.062-.234-.062 0-.008-.043-.07-.055-.27-.348-4.437-.312-6-.008-8.734 0-.012.008-.028.008-.043 3.594-.618 6.899-.559 10.074.156 0 0 .086.117.114.457.289 3.535.312 4.594-.133 7.738-.086.574-.531.739-.516.739q-.012 0 0 0M27.383 91.695h.691c.863 0 1.563-.703 1.563-1.562s-.7-1.563-1.563-1.563h-.691a1.564 1.564 0 0 0 0 3.125m.883 2.285h-1.059c-.863 0-1.562.704-1.562 1.563 0 .867.699 1.562 1.562 1.562h1.059c.863 0 1.562-.703 1.562-1.562 0-.867-.7-1.563-1.562-1.563m-.79-7.484h.465c.86 0 1.559-.703 1.559-1.558 0-.868-.7-1.563-1.559-1.563h-.464c-.864 0-1.563.703-1.563 1.563a1.554 1.554 0 0 0 1.563 1.558m0 0"/></g></svg>