<svg xmlns="http://www.w3.org/2000/svg" xmlns:xlink="http://www.w3.org/1999/xlink" width="192" zoomAndPan="magnify" viewBox="0 0 144 143.999998" height="192" preserveAspectRatio="xMidYMid meet" version="1.0"><defs><clipPath id="6b2e130809"><path d="M 5 5 L 139 5 L 139 139 L 5 139 Z M 5 5 " clip-rule="nonzero"/></clipPath><clipPath id="e98e04488b"><path d="M 4.042969 15.292969 L 4.042969 128.707031 C 4.042969 134.917969 9.082031 139.957031 15.292969 139.957031 L 128.707031 139.957031 C 134.917969 139.957031 139.957031 134.917969 139.957031 128.707031 L 139.957031 15.292969 C 139.957031 9.082031 134.917969 4.042969 128.707031 4.042969 L 15.292969 4.042969 C 9.082031 4.042969 4.042969 9.082031 4.042969 15.292969 Z M 4.042969 15.292969 " clip-rule="nonzero"/></clipPath><clipPath id="43ede7b6b8"><path d="M 4.042969 4.042969 L 139.792969 4.042969 L 139.792969 139.792969 L 4.042969 139.792969 Z M 4.042969 4.042969 " clip-rule="nonzero"/></clipPath><clipPath id="9a25bde6e8"><path d="M 4.042969 15.292969 L 4.042969 128.707031 C 4.042969 134.917969 9.082031 139.957031 15.292969 139.957031 L 128.707031 139.957031 C 134.917969 139.957031 139.957031 134.917969 139.957031 128.707031 L 139.957031 15.292969 C 139.957031 9.082031 134.917969 4.042969 128.707031 4.042969 L 15.292969 4.042969 C 9.082031 4.042969 4.042969 9.082031 4.042969 15.292969 Z M 4.042969 15.292969 " clip-rule="nonzero"/></clipPath><clipPath id="1391f56d27"><path d="M 17.214844 10.355469 L 126.714844 10.355469 L 126.714844 133.355469 L 17.214844 133.355469 Z M 17.214844 10.355469 " clip-rule="nonzero"/></clipPath></defs><rect x="-14.4" width="172.8" fill="#ffffff" y="-14.4" height="172.799997" fill-opacity="1"/><rect x="-14.4" width="172.8" fill="#ffffff" y="-14.4" height="172.799997" fill-opacity="1"/><g clip-path="url(#6b2e130809)"><g clip-path="url(#e98e04488b)"><path fill="#001b3d" d="M 138.296875 73.15625 C 137.574219 74.347656 136.339844 75.050781 135.125 75.730469 C 135.640625 76.472656 135.621094 77.472656 135.390625 78.347656 C 135.160156 79.222656 134.746094 80.039062 134.511719 80.914062 C 134.277344 81.789062 134.339844 82.949219 134.847656 83.695312 C 134.148438 83.722656 133.5625 84.285156 133.277344 84.925781 C 132.992188 85.570312 132.949219 86.28125 132.890625 86.980469 C 132.828125 87.679688 132.734375 88.398438 132.371094 88.996094 L 132.386719 89 C 133.390625 89.398438 134.433594 89.824219 135.144531 90.636719 C 135.351562 90.878906 135.527344 91.148438 135.636719 91.441406 C 135.882812 92.117188 135.78125 92.882812 135.503906 93.542969 C 135.226562 94.210938 134.785156 94.789062 134.355469 95.367188 C 134.917969 95.925781 135.839844 96.554688 136.097656 97.3125 C 136.257812 97.792969 136.273438 98.308594 136.34375 98.8125 C 136.59375 100.59375 137.539062 102.269531 137.480469 104.066406 L 137.480469 104.070312 C 137.476562 104.253906 137.339844 104.410156 137.183594 104.503906 C 137.027344 104.597656 136.847656 104.648438 136.6875 104.730469 C 136.128906 105.015625 135.832031 105.652344 135.714844 106.273438 C 135.597656 106.890625 135.617188 107.53125 135.484375 108.144531 C 135.21875 109.398438 134.257812 110.417969 133.421875 111.394531 C 133.878906 111.964844 134.339844 112.542969 134.597656 113.222656 C 134.859375 113.902344 134.886719 114.710938 134.5 115.328125 C 134.027344 116.082031 132.890625 116.441406 132.027344 116.667969 C 132.664062 117.285156 133.335938 117.964844 133.464844 118.839844 C 133.550781 119.449219 133.363281 120.066406 133.441406 120.675781 C 133.507812 121.199219 133.773438 121.683594 134.117188 122.085938 C 134.457031 122.488281 134.875 122.828125 135.285156 123.160156 C 134.539062 124.277344 134.617188 125.875 134.964844 127.167969 C 135.316406 128.464844 135.933594 129.675781 136.277344 130.972656 C 136.714844 132.628906 136.6875 134.40625 136.199219 136.046875 C 133.972656 136.578125 131.390625 136.582031 129.222656 135.839844 C 128.226562 135.5 127.273438 135.03125 126.246094 134.808594 C 125.214844 134.585938 123.976562 134.621094 123.140625 135.253906 C 122.757812 134.625 122.167969 134.121094 121.484375 133.847656 C 120.691406 133.527344 119.8125 133.515625 118.96875 133.382812 C 118.121094 133.246094 117.183594 132.882812 116.707031 132.171875 C 116.503906 133.0625 116.085938 133.902344 115.496094 134.601562 C 115.285156 134.847656 115.03125 135.09375 114.707031 135.140625 C 114.464844 135.175781 114.222656 135.09375 113.996094 135.003906 C 113.132812 134.664062 112.277344 134.148438 111.519531 133.613281 C 111.070312 133.589844 110.664062 133.882812 110.351562 134.207031 C 110.039062 134.53125 109.769531 134.910156 109.390625 135.148438 C 108.417969 135.761719 107.09375 135.285156 106.027344 135.703125 C 105.148438 136.042969 104.402344 136.871094 103.921875 137.683594 C 103.613281 137.421875 103.203125 137.332031 102.800781 137.296875 C 102.398438 137.265625 101.992188 137.277344 101.597656 137.1875 C 101.007812 137.058594 100.492188 136.707031 99.917969 136.523438 C 99.101562 136.261719 98.207031 136.339844 97.398438 136.074219 C 96.476562 135.773438 95.757812 135.058594 95.070312 134.371094 C 94.21875 135.011719 93.824219 135.152344 92.832031 135.546875 C 92.433594 135.703125 92.003906 135.84375 91.585938 135.742188 C 91.242188 135.65625 90.957031 135.414062 90.703125 135.164062 C 89.964844 134.429688 89.367188 133.480469 88.953125 132.519531 C 87.871094 133.078125 86.527344 132.664062 85.367188 133.03125 C 84.554688 133.292969 83.832031 133.980469 83.550781 134.785156 C 82.964844 134.226562 82.027344 134.222656 81.253906 134.464844 C 80.480469 134.703125 79.78125 135.144531 79.007812 135.382812 C 77.960938 135.707031 76.796875 135.640625 75.792969 135.191406 L 75.796875 134.976562 C 75.417969 136.417969 74.386719 137.675781 73.042969 138.324219 C 72.664062 138.511719 72.246094 138.648438 71.832031 138.585938 C 71.484375 138.527344 71.171875 138.335938 70.886719 138.128906 C 69.835938 137.382812 68.941406 136.417969 68.273438 135.3125 C 67.085938 135.515625 65.871094 135.71875 64.761719 135.238281 C 64.195312 134.996094 63.703125 134.585938 63.125 134.371094 C 62.21875 134.035156 61.128906 134.253906 60.414062 134.90625 C 60.269531 134.210938 59.671875 133.632812 59.027344 133.34375 C 58.378906 133.054688 57.660156 132.976562 56.953125 132.902344 C 56.25 132.828125 55.53125 132.746094 54.886719 132.449219 C 54.773438 133.480469 54.359375 134.273438 53.660156 135.042969 C 53.378906 135.355469 53.039062 135.640625 52.625 135.703125 C 52.359375 135.746094 52.085938 135.6875 51.824219 135.617188 C 50.878906 135.363281 49.980469 134.933594 49.1875 134.359375 C 47.898438 134.800781 47.128906 136.152344 45.796875 136.453125 C 45.171875 136.589844 44.5 136.464844 43.875 136.605469 C 43.382812 136.714844 42.941406 136.972656 42.457031 137.117188 C 41.605469 137.367188 40.636719 137.25 39.875 137.707031 C 39.472656 136.792969 38.492188 136.050781 37.535156 135.777344 C 36.972656 135.613281 36.375 135.601562 35.800781 135.480469 C 34.703125 135.246094 33.503906 134.402344 32.839844 133.5 C 32.347656 133.957031 32.257812 134.042969 31.675781 134.378906 C 31.09375 134.71875 30.410156 134.917969 29.75 134.820312 C 29.148438 134.730469 28.59375 134.382812 28.207031 133.914062 C 27.816406 133.445312 27.5 132.664062 27.421875 132.058594 C 26.914062 132.867188 25.984375 133.367188 25.035156 133.464844 C 24.382812 133.535156 23.722656 133.429688 23.082031 133.546875 C 22.183594 133.71875 21.234375 134.484375 20.859375 135.3125 C 20.066406 134.726562 19 134.652344 18.019531 134.789062 C 16.445312 135.003906 14.980469 135.691406 13.449219 136.101562 C 11.679688 136.574219 9.207031 136.585938 7.8125 136.050781 C 7.320312 134.410156 7.292969 132.632812 7.730469 130.976562 C 8.078125 129.679688 8.695312 128.46875 9.042969 127.171875 C 9.394531 125.875 9.472656 124.28125 8.722656 123.164062 C 9.136719 122.832031 9.550781 122.496094 9.890625 122.089844 C 10.234375 121.683594 10.5 121.203125 10.566406 120.675781 C 10.648438 120.070312 10.457031 119.449219 10.546875 118.839844 C 10.671875 117.964844 11.34375 117.285156 11.980469 116.671875 C 11.117188 116.449219 9.980469 116.085938 9.507812 115.328125 C 9.121094 114.714844 9.152344 113.90625 9.410156 113.226562 C 9.667969 112.546875 10.132812 111.964844 10.585938 111.398438 C 9.75 110.421875 8.789062 109.40625 8.523438 108.148438 C 8.390625 107.53125 8.414062 106.894531 8.292969 106.273438 C 8.175781 105.65625 7.878906 105.019531 7.320312 104.734375 C 7.160156 104.652344 6.980469 104.597656 6.824219 104.503906 C 6.667969 104.410156 6.53125 104.257812 6.527344 104.074219 L 6.527344 104.070312 C 6.464844 102.273438 7.410156 100.597656 7.664062 98.816406 C 7.734375 98.3125 7.75 97.792969 7.910156 97.3125 C 8.167969 96.558594 9.085938 95.933594 9.652344 95.367188 C 9.21875 94.792969 8.78125 94.210938 8.503906 93.546875 C 8.226562 92.882812 8.121094 92.117188 8.375 91.445312 C 8.480469 91.148438 8.660156 90.878906 8.867188 90.640625 C 9.570312 89.824219 10.621094 89.398438 11.621094 89.003906 L 11.636719 89 C 11.273438 88.398438 11.183594 87.679688 11.121094 86.984375 C 11.058594 86.285156 11.015625 85.566406 10.734375 84.929688 C 10.449219 84.289062 9.863281 83.726562 9.164062 83.695312 C 9.667969 82.945312 9.730469 81.792969 9.496094 80.917969 C 9.265625 80.042969 8.847656 79.226562 8.617188 78.347656 C 8.390625 77.472656 8.371094 76.476562 8.882812 75.730469 C 7.667969 75.050781 6.433594 74.351562 5.710938 73.160156 C 5.4375 72.714844 5.25 72.179688 5.34375 71.664062 C 5.414062 71.273438 5.640625 70.929688 5.882812 70.613281 C 6.28125 70.097656 6.738281 69.632812 7.25 69.226562 C 7.59375 68.957031 7.960938 68.703125 8.230469 68.363281 C 8.5 68.023438 8.664062 67.554688 8.515625 67.144531 C 8.4375 66.457031 8.460938 65.628906 8.679688 64.96875 C 8.921875 64.226562 9.464844 63.613281 9.6875 62.867188 C 9.945312 62.011719 9.746094 61.007812 9.164062 60.339844 C 9.570312 60.164062 9.996094 59.980469 10.289062 59.648438 C 10.550781 59.347656 10.683594 58.957031 10.785156 58.570312 C 11.070312 57.488281 11.167969 56.363281 11.265625 55.253906 C 11.277344 55.144531 11.285156 55.023438 11.226562 54.929688 C 11.167969 54.835938 10.808594 54.742188 10.738281 54.828125 C 9.507812 54.53125 8.496094 53.460938 8.273438 52.210938 C 8.046875 50.960938 8.625 49.609375 9.679688 48.902344 C 8.761719 48.324219 8.113281 47.308594 7.785156 46.273438 C 7.453125 45.238281 7.347656 44.144531 7.183594 43.070312 C 7.019531 41.996094 6.777344 40.90625 6.21875 39.972656 C 7.09375 39.316406 8.035156 38.683594 8.324219 37.671875 C 8.539062 36.9375 8.492188 36.144531 8.667969 35.394531 C 8.90625 34.363281 9.585938 33.445312 10.5 32.910156 C 10.050781 32.339844 9.605469 31.597656 9.382812 30.910156 C 9.15625 30.21875 9.152344 29.425781 9.527344 28.800781 C 10 28.007812 11.054688 27.605469 11.957031 27.394531 L 11.996094 27.394531 C 11.546875 27.0625 11.566406 27.085938 11.242188 26.636719 C 10.851562 26.085938 10.683594 25.410156 10.582031 24.738281 C 10.480469 24.070312 10.433594 23.390625 10.246094 22.742188 C 10.261719 22.28125 10.015625 21.730469 9.628906 21.480469 C 9.371094 21.316406 9.039062 21.210938 8.914062 20.933594 C 8.835938 20.75 8.871094 20.539062 8.972656 20.371094 C 9.074219 20.207031 9.257812 20.054688 9.433594 19.957031 C 9.375 18.105469 8.621094 16.355469 8.144531 14.566406 C 7.554688 12.367188 7.375 10.066406 7.613281 7.804688 C 9.015625 7.269531 11.691406 7.398438 13.457031 7.875 C 14.992188 8.285156 16.457031 8.96875 18.03125 9.1875 C 19.007812 9.324219 20.074219 9.25 20.871094 8.664062 C 21.246094 9.496094 22.195312 10.261719 23.09375 10.429688 C 23.734375 10.546875 24.394531 10.445312 25.046875 10.511719 C 26 10.609375 26.925781 11.109375 27.433594 11.917969 C 27.515625 11.3125 27.832031 10.535156 28.21875 10.0625 C 28.609375 9.59375 29.160156 9.253906 29.761719 9.15625 C 30.425781 9.054688 31.105469 9.257812 31.6875 9.597656 C 32.269531 9.933594 32.359375 10.019531 32.851562 10.476562 C 33.519531 9.574219 34.714844 8.730469 35.8125 8.496094 C 36.386719 8.375 36.984375 8.363281 37.546875 8.199219 C 38.507812 7.925781 39.484375 7.1875 39.886719 6.269531 C 40.652344 6.722656 41.617188 6.605469 42.46875 6.859375 C 42.949219 7.003906 43.394531 7.261719 43.886719 7.371094 C 44.515625 7.507812 45.179688 7.386719 45.808594 7.523438 C 47.140625 7.820312 47.90625 9.175781 49.199219 9.617188 C 49.992188 9.042969 50.890625 8.609375 51.835938 8.359375 C 52.097656 8.285156 52.371094 8.230469 52.636719 8.273438 C 53.050781 8.335938 53.394531 8.621094 53.671875 8.933594 C 54.367188 9.703125 54.785156 10.496094 54.894531 11.527344 C 55.542969 11.230469 56.261719 11.148438 56.964844 11.074219 C 57.671875 11 58.390625 10.917969 59.039062 10.628906 C 59.6875 10.339844 60.28125 9.761719 60.425781 9.066406 C 61.140625 9.726562 62.226562 9.941406 63.136719 9.605469 C 63.71875 9.390625 64.207031 8.980469 64.773438 8.738281 C 65.882812 8.261719 67.09375 8.464844 68.285156 8.664062 C 68.953125 7.558594 69.847656 6.597656 70.894531 5.84375 C 71.183594 5.640625 71.492188 5.449219 71.84375 5.390625 C 72.257812 5.328125 72.679688 5.464844 73.054688 5.648438 C 74.398438 6.300781 75.429688 7.558594 75.808594 9 L 75.804688 8.78125 C 76.808594 8.335938 77.972656 8.269531 79.019531 8.589844 C 79.792969 8.832031 80.492188 9.269531 81.265625 9.511719 C 82.039062 9.753906 82.96875 9.746094 83.558594 9.191406 C 83.839844 9.992188 84.5625 10.683594 85.378906 10.945312 C 86.539062 11.3125 87.882812 10.898438 88.964844 11.453125 C 89.378906 10.492188 89.972656 9.550781 90.714844 8.8125 C 90.964844 8.558594 91.253906 8.320312 91.597656 8.234375 C 92.015625 8.132812 92.445312 8.269531 92.84375 8.429688 C 93.832031 8.824219 94.230469 8.964844 95.082031 9.605469 C 95.765625 8.917969 96.484375 8.207031 97.40625 7.902344 C 98.21875 7.636719 99.117188 7.714844 99.925781 7.453125 C 100.5 7.269531 101.019531 6.917969 101.609375 6.785156 C 102.003906 6.699219 102.410156 6.714844 102.8125 6.679688 C 103.214844 6.644531 103.625 6.550781 103.933594 6.292969 C 104.414062 7.101562 105.152344 7.9375 106.035156 8.273438 C 107.109375 8.6875 108.433594 8.210938 109.402344 8.828125 C 109.785156 9.066406 110.050781 9.445312 110.363281 9.769531 C 110.675781 10.089844 111.082031 10.382812 111.53125 10.363281 C 112.289062 9.832031 113.144531 9.3125 114.003906 8.972656 C 114.234375 8.882812 114.476562 8.800781 114.71875 8.832031 C 115.042969 8.878906 115.296875 9.121094 115.507812 9.375 C 116.097656 10.074219 116.515625 10.914062 116.71875 11.804688 C 117.195312 11.09375 118.132812 10.730469 118.976562 10.59375 C 119.824219 10.460938 120.699219 10.449219 121.492188 10.128906 C 122.175781 9.855469 122.765625 9.351562 123.148438 8.722656 C 123.988281 9.359375 125.226562 9.394531 126.257812 9.167969 C 127.285156 8.945312 128.238281 8.472656 129.234375 8.136719 C 131.402344 7.394531 134.183594 7.273438 136.414062 7.804688 C 136.65625 10.066406 136.476562 12.367188 135.886719 14.5625 C 135.40625 16.355469 134.648438 18.101562 134.597656 19.957031 C 134.769531 20.046875 134.949219 20.199219 135.054688 20.371094 C 135.160156 20.539062 135.195312 20.753906 135.117188 20.929688 C 134.992188 21.210938 134.65625 21.3125 134.402344 21.476562 C 134.015625 21.730469 133.765625 22.277344 133.78125 22.738281 C 133.597656 23.390625 133.554688 24.070312 133.449219 24.738281 C 133.34375 25.40625 133.179688 26.082031 132.785156 26.632812 C 132.464844 27.085938 132.480469 27.0625 132.035156 27.390625 L 132.074219 27.390625 C 132.972656 27.601562 134.023438 28.007812 134.503906 28.800781 C 134.875 29.421875 134.875 30.214844 134.648438 30.90625 C 134.421875 31.597656 133.980469 32.335938 133.53125 32.910156 C 134.441406 33.441406 135.125 34.363281 135.363281 35.394531 C 135.535156 36.140625 135.492188 36.929688 135.703125 37.671875 C 135.996094 38.675781 136.9375 39.316406 137.8125 39.972656 C 137.246094 40.902344 137.011719 41.992188 136.847656 43.066406 C 136.679688 44.140625 136.578125 45.234375 136.246094 46.269531 C 135.914062 47.308594 135.273438 48.320312 134.347656 48.898438 C 135.40625 49.605469 135.980469 50.960938 135.757812 52.210938 C 135.535156 53.457031 134.523438 54.53125 133.289062 54.828125 C 133.222656 54.742188 132.863281 54.832031 132.804688 54.929688 C 132.75 55.023438 132.757812 55.136719 132.765625 55.25 C 132.863281 56.367188 132.964844 57.484375 133.246094 58.566406 C 133.347656 58.953125 133.476562 59.34375 133.742188 59.644531 C 134.035156 59.980469 134.457031 60.164062 134.867188 60.335938 C 134.28125 61.003906 134.085938 62.011719 134.34375 62.863281 C 134.5625 63.613281 135.109375 64.226562 135.351562 64.964844 C 135.570312 65.625 135.59375 66.449219 135.511719 67.140625 C 135.367188 67.550781 135.527344 68.019531 135.800781 68.363281 C 136.070312 68.703125 136.4375 68.953125 136.78125 69.226562 C 137.285156 69.632812 137.746094 70.097656 138.148438 70.609375 C 138.390625 70.925781 138.617188 71.273438 138.6875 71.664062 C 138.761719 72.175781 138.574219 72.707031 138.296875 73.15625 Z M 138.296875 73.15625 " fill-opacity="1" fill-rule="nonzero"/></g></g><g clip-path="url(#43ede7b6b8)"><g clip-path="url(#9a25bde6e8)"><path fill="#ffffff" d="M 4.042969 4.042969 L 139.945312 4.042969 L 139.945312 139.945312 L 4.042969 139.945312 Z M 4.042969 4.042969 " fill-opacity="1" fill-rule="nonzero"/></g></g><g clip-path="url(#1391f56d27)"><path fill="#000000" d="M 122.261719 133.355469 L 109.613281 133.355469 L 108.96875 128.734375 C 108.960938 128.699219 108.945312 128.675781 108.914062 128.664062 C 108.878906 128.648438 108.851562 128.652344 108.820312 128.671875 C 108.132812 129.175781 107.585938 129.574219 107.183594 129.863281 C 106.996094 130.003906 106.785156 130.125 106.554688 130.234375 C 105.707031 130.644531 104.914062 130.175781 104.320312 129.5625 C 104.007812 129.242188 103.675781 128.914062 103.324219 128.578125 C 101.144531 126.488281 97.796875 123.277344 93.285156 118.941406 C 93.257812 118.910156 93.222656 118.898438 93.183594 118.898438 L 92.355469 118.898438 C 92.316406 118.898438 92.300781 118.914062 92.300781 118.953125 L 92.300781 121.589844 C 92.300781 121.636719 92.324219 121.660156 92.367188 121.660156 C 92.734375 121.671875 93.082031 121.714844 93.417969 121.78125 C 93.628906 121.824219 93.738281 121.960938 93.75 122.191406 C 93.777344 122.871094 93.773438 123.480469 93.734375 124.027344 C 93.722656 124.160156 93.648438 124.257812 93.515625 124.324219 C 93.324219 124.417969 93.089844 124.265625 93.089844 124.605469 C 93.089844 127.519531 93.089844 130.4375 93.089844 133.355469 L 83.882812 133.355469 L 83.878906 126.425781 C 83.878906 126.398438 83.863281 126.382812 83.835938 126.382812 C 81.28125 126.386719 78.820312 126.390625 76.441406 126.390625 C 76.230469 126.390625 76.035156 126.351562 75.992188 126.117188 C 75.90625 125.613281 75.867188 124.957031 76.027344 124.445312 C 76.089844 124.253906 76.226562 124.15625 76.4375 124.15625 C 80.511719 124.15625 82.96875 124.15625 83.8125 124.15625 C 83.851562 124.160156 83.871094 124.136719 83.871094 124.097656 C 83.878906 123.171875 83.875 122.519531 83.867188 122.152344 C 83.863281 121.933594 83.960938 121.792969 84.15625 121.730469 C 84.429688 121.644531 84.738281 121.628906 85.078125 121.683594 C 85.140625 121.695312 85.171875 121.667969 85.171875 121.605469 L 85.171875 118.980469 C 85.171875 118.9375 85.148438 118.914062 85.105469 118.914062 C 83.964844 118.890625 82.785156 118.847656 81.566406 118.773438 C 78.261719 118.578125 75.054688 118.019531 71.9375 117.09375 C 71.550781 116.976562 71.238281 116.851562 70.996094 116.714844 C 70.363281 116.351562 70.144531 115.699219 69.96875 114.964844 C 69.570312 113.277344 69.558594 111.546875 70.261719 109.972656 C 70.285156 109.914062 70.269531 109.878906 70.207031 109.863281 C 69.753906 109.738281 69.1875 109.605469 68.796875 109.375 C 68.289062 109.074219 67.910156 108.628906 67.664062 108.039062 C 67.449219 107.515625 67.25 107.09375 67.070312 106.765625 C 67.050781 106.730469 67.027344 106.707031 67 106.703125 C 66.96875 106.699219 66.953125 106.710938 66.953125 106.742188 C 66.949219 107.511719 66.972656 108.277344 67.027344 109.042969 C 67.121094 110.3125 67.167969 110.964844 67.167969 110.996094 C 67.1875 111.835938 67.117188 112.527344 66.53125 113.148438 C 65.875 113.84375 65.136719 114.589844 64.3125 115.390625 C 63.707031 115.976562 63.179688 116.558594 62.667969 117.183594 C 62.566406 117.308594 62.429688 117.359375 62.261719 117.339844 C 62.105469 117.320312 61.972656 117.1875 61.867188 117.066406 C 61.417969 116.5625 61.011719 116.074219 60.648438 115.597656 C 60.019531 114.773438 59.859375 113.980469 59.929688 112.902344 C 59.972656 112.242188 60.011719 111.785156 60.042969 111.527344 C 60.121094 110.871094 60.167969 110.4375 60.179688 110.230469 C 60.222656 109.503906 60.300781 109.082031 60.421875 108.175781 C 60.429688 108.128906 60.414062 108.089844 60.378906 108.058594 C 59.417969 107.191406 58.246094 106.011719 57.308594 104.894531 C 56.558594 104 56.296875 102.976562 56.527344 101.820312 C 57.386719 97.457031 57.808594 94.921875 58.878906 88.976562 C 59.496094 85.535156 60.070312 82.644531 60.722656 79.441406 C 60.878906 78.667969 61.054688 77.9375 61.242188 77.257812 C 61.441406 76.539062 61.785156 75.820312 62.320312 75.21875 C 63.167969 74.277344 64.214844 73.609375 65.460938 73.214844 C 66.078125 73.015625 66.761719 72.835938 67.503906 72.671875 C 67.59375 72.652344 67.667969 72.605469 67.730469 72.535156 C 68.378906 71.746094 69.023438 70.902344 69.667969 69.992188 C 70.375 68.992188 71.230469 67.589844 71.9375 66.660156 C 72.386719 66.0625 72.703125 65.675781 72.886719 65.488281 C 74.484375 63.855469 76.222656 62.308594 78.101562 60.84375 C 78.160156 60.796875 78.199219 60.707031 78.21875 60.574219 C 78.226562 60.515625 78.25 60.464844 78.292969 60.425781 L 78.695312 60.046875 C 78.703125 60.035156 78.710938 60.03125 78.722656 60.027344 C 78.886719 59.976562 79.050781 59.894531 79.214844 59.785156 C 79.761719 59.429688 79.789062 58.699219 80.183594 58.261719 C 80.476562 57.9375 80.859375 57.792969 81.335938 57.828125 C 81.394531 57.832031 81.425781 57.808594 81.429688 57.75 L 81.695312 55.660156 C 81.699219 55.636719 81.699219 55.609375 81.695312 55.582031 C 81.675781 55.472656 81.628906 55.335938 81.546875 55.175781 C 81.527344 55.144531 81.515625 55.113281 81.507812 55.078125 C 81.261719 54.191406 81.019531 53.375 80.777344 52.628906 C 80.5 51.78125 79.882812 50.699219 79.617188 49.691406 C 79.34375 48.675781 79.238281 47.640625 79.292969 46.59375 C 79.328125 45.976562 79.457031 45.3125 79.679688 44.601562 C 79.769531 44.320312 79.90625 43.910156 80.09375 43.367188 C 80.097656 43.363281 80.09375 43.355469 80.089844 43.355469 C 80.085938 43.351562 80.082031 43.351562 80.074219 43.355469 C 80.015625 43.402344 79.960938 43.460938 79.914062 43.53125 C 79.171875 44.652344 78.667969 45.414062 78.402344 45.8125 C 77.621094 46.972656 77.105469 48.070312 76.882812 49.4375 C 76.8125 49.867188 76.75 50.320312 77.101562 50.628906 C 77.125 50.648438 77.152344 50.664062 77.179688 50.671875 C 77.964844 50.851562 78.085938 52.019531 77.5 52.476562 C 77.457031 52.507812 77.375 52.5625 77.257812 52.640625 C 77.15625 52.707031 77.109375 52.800781 77.121094 52.917969 C 77.125 52.960938 77.132812 53.035156 77.152344 53.148438 C 77.261719 53.890625 76.839844 54.429688 76.121094 54.597656 C 76.097656 54.601562 76.089844 54.617188 76.101562 54.640625 C 76.210938 54.816406 76.230469 55 76.171875 55.183594 C 75.992188 55.738281 75.636719 56.132812 75.101562 56.367188 C 75.066406 56.382812 75.003906 56.429688 74.914062 56.515625 C 74.882812 56.542969 74.859375 56.574219 74.84375 56.609375 C 74.570312 57.136719 74.195312 57.527344 73.71875 57.785156 C 73.691406 57.800781 73.660156 57.8125 73.625 57.820312 C 72.484375 58.097656 71.417969 58.257812 70.417969 58.296875 C 69.925781 58.316406 69.320312 58.296875 68.601562 58.230469 C 68.582031 58.230469 68.363281 58.230469 67.941406 58.234375 C 67.882812 58.234375 67.828125 58.25 67.78125 58.277344 C 67.65625 58.34375 67.285156 58.523438 66.667969 58.816406 C 64.652344 59.769531 61.75 61.511719 59.386719 62.589844 C 58.054688 63.199219 56.777344 63.707031 55.558594 64.109375 C 55.414062 64.15625 55.316406 64.230469 55.269531 64.324219 C 55.050781 64.773438 54.820312 65.121094 54.585938 65.363281 C 54.464844 65.488281 54.269531 65.597656 53.996094 65.691406 C 53.964844 65.703125 53.933594 65.707031 53.898438 65.707031 C 53.367188 65.722656 52.886719 65.769531 52.453125 65.851562 C 52.382812 65.863281 52.316406 65.882812 52.253906 65.90625 C 51.820312 66.078125 51.410156 66.265625 51.003906 66.171875 C 50.980469 66.167969 50.957031 66.15625 50.941406 66.136719 L 50.578125 65.773438 C 50.53125 65.726562 50.476562 65.710938 50.410156 65.722656 C 49.539062 65.875 48.972656 65.976562 48.714844 66.027344 C 48.207031 66.128906 47.847656 66.132812 47.488281 65.835938 C 46.648438 65.144531 45.929688 64.351562 45.339844 63.453125 C 45.316406 63.421875 45.296875 63.425781 45.277344 63.457031 C 45.265625 63.480469 45.261719 63.496094 45.257812 63.507812 C 45.238281 63.875 45.230469 64.15625 45.148438 64.558594 C 44.753906 66.566406 44.410156 68.324219 44.117188 69.835938 C 43.84375 71.222656 43.640625 72.640625 43.664062 74.035156 C 43.703125 76.726562 43.941406 79.371094 44.226562 82.164062 C 44.242188 82.347656 44.261719 82.625 44.277344 82.992188 C 44.289062 83.21875 44.246094 83.390625 44.15625 83.507812 C 44.027344 83.679688 43.867188 83.738281 43.671875 83.695312 C 43.582031 83.671875 43.519531 83.675781 43.480469 83.707031 C 43.417969 83.75 43.394531 83.808594 43.410156 83.871094 C 44.523438 88.242188 45.183594 92.554688 45.820312 97.710938 C 46.09375 99.910156 46.417969 102.417969 46.796875 105.226562 C 46.863281 105.703125 46.890625 106.207031 46.882812 106.691406 C 46.875 107.414062 46.863281 108.132812 46.851562 108.839844 C 46.847656 109.148438 46.820312 109.433594 46.769531 109.699219 C 46.519531 111.023438 46.09375 112.21875 45.601562 113.492188 C 45.527344 113.679688 45.507812 113.824219 45.542969 113.925781 C 45.800781 114.679688 45.917969 115.390625 45.894531 116.050781 C 45.851562 117.195312 45.863281 118.335938 45.917969 119.464844 C 45.957031 120.183594 45.976562 120.683594 45.980469 120.960938 C 45.984375 121.75 46 122.246094 46.023438 122.453125 C 46.105469 123.125 46.089844 124.113281 46.203125 124.917969 C 46.273438 125.394531 46.242188 125.929688 46.328125 126.441406 C 46.382812 126.789062 46.339844 127.15625 46.402344 127.480469 C 46.4375 127.671875 46.460938 127.890625 46.480469 128.136719 C 46.527344 128.851562 46.621094 129.789062 46.761719 130.949219 C 46.765625 130.980469 46.777344 131.007812 46.789062 131.035156 C 47.085938 131.683594 47.433594 132.585938 47.507812 133.355469 L 37.441406 133.355469 C 37.03125 131.230469 36.675781 128.910156 36.382812 126.398438 C 36.207031 124.929688 36.117188 124.085938 36.105469 123.859375 C 36.089844 123.546875 36.011719 123.28125 36.007812 123.003906 C 36.003906 122.375 35.910156 121.726562 35.890625 121.152344 C 35.835938 119.824219 35.742188 118.792969 35.75 117.691406 C 35.757812 116.710938 35.757812 116.148438 35.757812 115.996094 C 35.753906 115.449219 35.898438 114.859375 35.867188 114.359375 C 35.867188 114.332031 35.859375 114.300781 35.851562 114.273438 C 35.75 114.007812 35.695312 113.84375 35.679688 113.785156 C 35.53125 113.140625 35.640625 112.488281 36.019531 111.945312 C 36.199219 111.691406 36.304688 111.546875 36.335938 111.503906 C 36.363281 111.464844 36.371094 111.425781 36.363281 111.378906 L 35.878906 109.050781 C 35.878906 109.035156 35.867188 109.027344 35.847656 109.027344 C 35.832031 109.027344 35.820312 109.035156 35.816406 109.050781 C 35.769531 109.285156 35.738281 109.429688 35.722656 109.484375 C 35.664062 109.699219 35.523438 110.171875 35.304688 110.90625 C 35.199219 111.257812 35.113281 111.523438 35.042969 111.699219 C 34.90625 112.050781 34.808594 112.308594 34.753906 112.480469 C 34.46875 113.34375 34.054688 114.105469 33.5 114.695312 C 33.328125 114.878906 32.941406 115.277344 32.34375 115.886719 C 32.253906 115.976562 32.207031 116.085938 32.203125 116.207031 C 32.183594 116.628906 32.09375 117.023438 31.9375 117.453125 C 31.011719 120.050781 30.339844 122.296875 29.480469 125.136719 C 28.667969 127.835938 28.007812 130.59375 27.417969 133.355469 L 17.59375 133.355469 C 17.789062 131.578125 18.042969 129.808594 18.363281 128.050781 C 18.554688 127.003906 18.792969 125.703125 19.074219 124.140625 C 19.382812 122.425781 19.707031 120.847656 20.046875 119.410156 C 20.300781 118.324219 20.878906 116.722656 21.171875 115.816406 C 21.636719 114.378906 22.195312 112.894531 22.839844 111.367188 C 22.855469 111.335938 22.875 111.308594 22.898438 111.28125 L 23.390625 110.792969 C 23.410156 110.773438 23.417969 110.746094 23.417969 110.71875 L 23.417969 109.558594 C 23.417969 109.535156 23.425781 109.511719 23.433594 109.484375 L 23.65625 108.933594 C 23.664062 108.910156 23.675781 108.894531 23.691406 108.878906 L 24.433594 108.136719 C 24.464844 108.105469 24.484375 108.070312 24.496094 108.03125 C 24.550781 107.847656 24.527344 107.609375 24.4375 107.316406 C 24.25 106.734375 24.207031 106.042969 24.355469 105.394531 C 24.414062 105.132812 24.4375 104.96875 24.425781 104.894531 C 24.179688 103.355469 23.941406 101.734375 23.703125 100.035156 C 23.65625 99.6875 23.667969 99.359375 23.574219 99.046875 C 23.558594 98.996094 23.550781 98.945312 23.550781 98.894531 C 23.535156 98.640625 23.515625 98.394531 23.484375 98.15625 C 23.183594 95.75 22.953125 93.339844 22.789062 90.921875 C 22.785156 90.871094 22.765625 90.820312 22.730469 90.777344 L 22.28125 90.214844 C 22.277344 90.207031 22.273438 90.203125 22.269531 90.195312 C 22.035156 89.609375 21.875 88.988281 21.792969 88.328125 C 21.773438 88.175781 21.59375 87.878906 21.464844 87.710938 C 20.921875 87.027344 20.585938 86.628906 20.316406 85.953125 C 19.417969 83.671875 18.890625 81.289062 18.859375 78.8125 C 18.859375 78.746094 18.832031 78.699219 18.773438 78.667969 C 18.511719 78.527344 18.273438 78.410156 18.058594 78.3125 C 17.574219 78.101562 17.300781 77.9375 17.261719 77.472656 C 17.253906 77.378906 17.277344 77.214844 17.335938 76.984375 C 17.75 75.308594 18.144531 73.792969 18.503906 72.144531 C 18.675781 71.351562 18.855469 70.523438 19.042969 69.660156 C 19.492188 67.585938 19.835938 66.15625 20.363281 63.957031 C 20.988281 61.34375 21.464844 58.699219 21.898438 56.050781 C 22.253906 53.871094 22.664062 51.386719 23.128906 48.597656 C 23.578125 45.902344 24.15625 43.191406 24.867188 40.457031 C 25.03125 39.808594 25.210938 39.222656 25.394531 38.695312 C 26.308594 36.085938 27.542969 33.609375 29.089844 31.265625 C 29.226562 31.058594 29.414062 30.84375 29.65625 30.621094 C 30.597656 29.746094 31.667969 29.058594 32.828125 28.410156 C 34.453125 27.503906 36.179688 26.832031 38.011719 26.402344 C 38.117188 26.375 38.195312 26.316406 38.246094 26.222656 C 38.484375 25.785156 38.78125 25.378906 39.136719 25 C 39.589844 24.519531 39.886719 24.195312 40.027344 24.023438 C 40.480469 23.464844 41.886719 24.101562 42.359375 24.40625 C 42.40625 24.4375 42.453125 24.4375 42.496094 24.398438 L 43.589844 23.402344 C 43.617188 23.375 43.636719 23.339844 43.648438 23.300781 C 43.777344 22.683594 43.875 22.261719 44.105469 21.640625 C 44.214844 21.34375 44.3125 21.007812 44.390625 20.625 C 44.492188 20.144531 44.605469 19.386719 44.726562 18.355469 C 44.824219 17.484375 44.921875 16.878906 45.015625 16.535156 C 45.308594 15.453125 45.777344 14.496094 46.421875 13.667969 C 47.363281 12.449219 48.613281 11.636719 50.164062 11.234375 C 50.253906 11.210938 50.417969 11.183594 50.65625 11.152344 C 50.695312 11.148438 50.730469 11.136719 50.757812 11.117188 C 50.828125 11.066406 50.894531 11.019531 50.953125 10.976562 C 51.175781 10.816406 51.441406 10.722656 51.75 10.691406 C 52.375 10.632812 52.976562 10.714844 53.558594 10.929688 C 53.597656 10.945312 53.632812 10.941406 53.667969 10.917969 C 53.703125 10.894531 53.71875 10.863281 53.71875 10.820312 C 53.722656 10.71875 53.746094 10.617188 53.792969 10.511719 C 53.804688 10.480469 53.824219 10.460938 53.851562 10.453125 C 54.011719 10.386719 54.160156 10.386719 54.292969 10.457031 C 54.390625 10.507812 54.414062 10.679688 54.5625 10.695312 C 54.582031 10.695312 54.597656 10.707031 54.609375 10.726562 L 54.667969 10.859375 C 54.679688 10.882812 54.699219 10.890625 54.722656 10.890625 C 54.746094 10.890625 54.765625 10.875 54.773438 10.851562 L 54.816406 10.722656 C 54.824219 10.699219 54.835938 10.695312 54.859375 10.707031 C 54.921875 10.746094 54.964844 10.785156 54.984375 10.824219 C 54.996094 10.851562 55.015625 10.859375 55.042969 10.847656 C 55.074219 10.832031 55.101562 10.804688 55.148438 10.800781 C 55.53125 10.765625 55.898438 10.832031 56.25 10.996094 C 56.273438 11.007812 56.300781 11.015625 56.328125 11.019531 C 57.074219 11.148438 57.613281 11.25 57.941406 11.324219 C 58.285156 11.402344 58.617188 11.574219 58.929688 11.808594 C 59.871094 12.5 60.722656 13.296875 61.515625 14.167969 C 61.742188 14.417969 61.921875 14.546875 62.207031 14.714844 C 62.371094 14.8125 62.527344 14.933594 62.675781 15.078125 C 62.707031 15.109375 62.730469 15.140625 62.75 15.175781 C 62.957031 15.566406 63.167969 15.9375 63.378906 16.289062 C 63.757812 16.921875 64.355469 17.273438 65.023438 17.609375 C 65.164062 17.679688 65.3125 17.722656 65.46875 17.730469 C 65.484375 17.730469 65.492188 17.742188 65.492188 17.757812 C 65.496094 17.773438 65.488281 17.78125 65.472656 17.785156 C 65.066406 17.871094 64.652344 17.871094 64.226562 17.78125 C 64.207031 17.777344 64.191406 17.785156 64.179688 17.800781 C 64.171875 17.816406 64.171875 17.835938 64.1875 17.847656 C 64.417969 18.117188 64.652344 18.402344 64.890625 18.699219 C 65.253906 19.160156 66.019531 19.394531 66.550781 19.421875 C 66.570312 19.421875 66.582031 19.429688 66.585938 19.449219 C 66.589844 19.464844 66.589844 19.476562 66.574219 19.488281 C 66.265625 19.757812 65.699219 20.113281 65.292969 19.949219 C 65.257812 19.9375 65.242188 19.949219 65.242188 19.984375 L 65.242188 20.015625 C 65.242188 20.058594 65.261719 20.089844 65.296875 20.109375 C 65.546875 20.246094 65.75 20.453125 65.910156 20.730469 C 65.917969 20.746094 65.925781 20.753906 65.9375 20.761719 L 66.3125 20.992188 C 66.332031 21.003906 66.34375 21.019531 66.351562 21.039062 L 66.492188 21.335938 C 66.496094 21.347656 66.496094 21.355469 66.488281 21.367188 C 66.476562 21.375 66.46875 21.378906 66.453125 21.375 C 66.375 21.351562 66.300781 21.363281 66.238281 21.410156 C 66.207031 21.429688 66.171875 21.4375 66.136719 21.425781 L 65.964844 21.367188 C 65.929688 21.355469 65.898438 21.367188 65.875 21.394531 C 65.851562 21.425781 65.851562 21.457031 65.871094 21.492188 C 66.019531 21.707031 66.078125 21.933594 66.050781 22.171875 C 66.050781 22.191406 66.046875 22.207031 66.039062 22.226562 C 65.953125 22.472656 65.929688 22.710938 65.96875 22.933594 C 65.976562 22.980469 65.957031 23.011719 65.914062 23.027344 C 65.871094 23.042969 65.835938 23.03125 65.8125 22.988281 L 65.75 22.882812 C 65.734375 22.855469 65.714844 22.832031 65.6875 22.8125 L 65.078125 22.417969 C 65.070312 22.414062 65.058594 22.414062 65.050781 22.417969 C 65.039062 22.425781 65.035156 22.433594 65.039062 22.445312 C 65.136719 22.976562 64.917969 23.648438 64.714844 24.132812 C 64.703125 24.15625 64.683594 24.167969 64.65625 24.164062 C 64.628906 24.15625 64.617188 24.140625 64.617188 24.113281 L 64.609375 23.871094 C 64.609375 23.867188 64.609375 23.859375 64.605469 23.855469 C 64.4375 23.386719 64.074219 22.691406 63.640625 22.4375 C 63.585938 22.40625 63.558594 22.421875 63.554688 22.484375 C 63.5 23.308594 63.054688 24.125 62.789062 25.070312 C 62.664062 25.511719 62.601562 25.746094 62.59375 25.765625 C 62.53125 25.980469 62.527344 26.195312 62.511719 26.421875 C 62.507812 26.457031 62.5 26.488281 62.484375 26.515625 C 62.1875 27.066406 61.628906 27.320312 61.007812 27.324219 C 60.832031 27.324219 60.714844 27.421875 60.714844 27.59375 C 60.710938 27.734375 60.699219 28.261719 60.679688 29.179688 C 60.671875 29.355469 60.722656 29.824219 60.832031 30.578125 C 60.902344 31.101562 60.886719 31.441406 60.5 31.769531 C 60.480469 31.785156 60.457031 31.800781 60.433594 31.808594 C 59.699219 32.09375 59.25 32.265625 58.558594 32.023438 C 58.425781 31.976562 58.328125 32.015625 58.261719 32.144531 C 58.125 32.421875 57.953125 32.6875 57.753906 32.9375 C 57.566406 33.167969 57.335938 33.269531 57.058594 33.277344 C 56.957031 33.277344 56.886719 33.328125 56.855469 33.425781 C 56.738281 33.765625 56.53125 34.035156 56.238281 34.234375 C 56.203125 34.257812 56.109375 34.285156 55.960938 34.3125 C 55.9375 34.316406 55.917969 34.320312 55.898438 34.332031 C 55.679688 34.4375 55.53125 34.5625 55.449219 34.714844 C 55.171875 35.238281 54.878906 35.691406 54.570312 36.066406 C 54.269531 36.429688 53.882812 36.585938 53.394531 36.507812 C 52.703125 36.402344 52.210938 36.082031 51.6875 35.640625 C 51.179688 35.214844 50.75 34.816406 50.398438 34.453125 C 50.148438 34.195312 49.914062 33.976562 49.699219 33.800781 C 49.636719 33.75 49.570312 33.742188 49.5 33.773438 L 48.191406 34.375 C 48.148438 34.398438 48.144531 34.425781 48.179688 34.460938 C 48.636719 34.890625 48.984375 35.40625 49.21875 36.003906 C 49.414062 36.503906 49.316406 36.921875 48.929688 37.253906 C 48.710938 37.441406 48.507812 37.597656 48.328125 37.726562 C 48.285156 37.757812 48.265625 37.796875 48.269531 37.851562 C 48.332031 38.703125 48.40625 39.464844 48.488281 40.132812 C 48.539062 40.535156 48.660156 40.949219 48.851562 41.378906 C 48.898438 41.480469 49.097656 41.78125 49.460938 42.289062 C 49.6875 42.609375 49.882812 42.929688 50.046875 43.25 C 50.1875 43.519531 50.421875 43.800781 50.585938 43.976562 C 50.601562 43.992188 50.621094 44.007812 50.640625 44.019531 L 51.511719 44.597656 C 51.527344 44.613281 51.542969 44.628906 51.558594 44.644531 C 51.6875 44.835938 51.816406 45.105469 51.9375 45.457031 C 52.011719 45.667969 52.164062 45.738281 52.402344 45.769531 C 52.539062 45.789062 52.675781 45.824219 52.816406 45.878906 C 53.171875 46.015625 53.503906 46.160156 53.8125 46.308594 C 53.859375 46.332031 53.910156 46.335938 53.960938 46.324219 C 54.503906 46.195312 55.058594 46.121094 55.628906 46.105469 C 55.679688 46.105469 55.730469 46.097656 55.777344 46.085938 C 55.910156 46.054688 56.03125 46.027344 56.164062 46.023438 C 56.910156 46.015625 57.644531 46.019531 58.351562 45.804688 C 60.542969 45.136719 62.410156 44.34375 64.691406 43.390625 C 65.238281 43.160156 65.691406 42.933594 66.042969 42.703125 C 66.433594 42.449219 66.835938 42.136719 67.242188 41.765625 C 68.316406 40.789062 69.019531 40.140625 69.351562 39.816406 C 69.511719 39.660156 69.777344 39.554688 70.148438 39.496094 C 70.183594 39.492188 70.21875 39.492188 70.253906 39.5 C 71.058594 39.648438 71.871094 39.730469 72.695312 39.742188 C 72.714844 39.742188 72.757812 39.757812 72.816406 39.789062 C 73.058594 39.90625 73.332031 39.675781 73.460938 39.492188 C 74.453125 38.113281 75.414062 36.664062 76.339844 35.148438 C 76.515625 34.863281 76.65625 34.679688 76.761719 34.59375 C 77.015625 34.386719 77.46875 34.222656 77.789062 34.355469 C 78.566406 34.675781 79.207031 35.160156 79.707031 35.804688 C 79.722656 35.828125 79.734375 35.847656 79.742188 35.867188 C 79.746094 35.878906 79.742188 35.886719 79.734375 35.894531 C 79.722656 35.902344 79.714844 35.902344 79.707031 35.898438 C 79.492188 35.761719 79.054688 35.453125 78.789062 35.484375 C 78.777344 35.488281 78.773438 35.492188 78.769531 35.503906 C 78.765625 35.511719 78.769531 35.519531 78.777344 35.527344 L 79.566406 36.039062 C 79.601562 36.0625 79.601562 36.085938 79.574219 36.117188 L 79.554688 36.132812 C 79.539062 36.152344 79.519531 36.152344 79.5 36.140625 L 78.5625 35.53125 C 78.554688 35.527344 78.546875 35.527344 78.539062 35.535156 L 78.523438 35.550781 C 78.503906 35.566406 78.507812 35.582031 78.527344 35.597656 L 79.429688 36.1875 C 79.460938 36.207031 79.464844 36.234375 79.445312 36.265625 L 79.441406 36.269531 C 79.421875 36.300781 79.398438 36.308594 79.363281 36.285156 L 78.394531 35.652344 C 78.382812 35.648438 78.371094 35.648438 78.363281 35.65625 L 78.347656 35.675781 C 78.332031 35.691406 78.332031 35.707031 78.351562 35.71875 L 79.300781 36.335938 C 79.335938 36.359375 79.34375 36.390625 79.320312 36.425781 L 79.308594 36.441406 C 79.292969 36.460938 79.277344 36.464844 79.257812 36.453125 L 78.246094 35.792969 C 78.222656 35.78125 78.203125 35.78125 78.183594 35.796875 L 78.164062 35.8125 C 78.144531 35.828125 78.144531 35.84375 78.167969 35.859375 L 79.1875 36.53125 C 79.21875 36.550781 79.222656 36.578125 79.203125 36.605469 L 79.199219 36.609375 C 79.175781 36.640625 79.144531 36.644531 79.113281 36.625 L 78.082031 35.953125 C 78.0625 35.9375 78.046875 35.941406 78.035156 35.960938 L 78.035156 35.964844 C 78.019531 35.984375 78.023438 36 78.042969 36.015625 L 79.066406 36.6875 C 79.097656 36.707031 79.101562 36.730469 79.078125 36.761719 L 79.074219 36.761719 C 79.050781 36.792969 79.023438 36.800781 78.988281 36.777344 L 77.949219 36.097656 C 77.941406 36.09375 77.933594 36.09375 77.925781 36.101562 L 77.90625 36.121094 C 77.890625 36.136719 77.890625 36.152344 77.910156 36.164062 L 78.921875 36.828125 C 78.957031 36.847656 78.964844 36.875 78.953125 36.914062 L 78.953125 36.917969 C 78.941406 36.957031 78.917969 36.964844 78.882812 36.941406 L 77.816406 36.246094 C 77.800781 36.238281 77.789062 36.242188 77.78125 36.257812 L 77.769531 36.273438 C 77.753906 36.296875 77.757812 36.316406 77.78125 36.332031 L 78.785156 36.992188 C 78.816406 37.011719 78.820312 37.039062 78.796875 37.066406 L 78.796875 37.070312 C 78.769531 37.101562 78.742188 37.105469 78.710938 37.085938 L 77.691406 36.417969 C 77.671875 36.40625 77.65625 36.410156 77.640625 36.429688 C 77.625 36.453125 77.628906 36.46875 77.648438 36.480469 L 78.660156 37.144531 C 78.691406 37.167969 78.695312 37.191406 78.671875 37.222656 C 78.644531 37.253906 78.617188 37.257812 78.585938 37.238281 L 77.5625 36.570312 C 77.542969 36.554688 77.527344 36.558594 77.511719 36.578125 L 77.511719 36.582031 C 77.496094 36.601562 77.5 36.621094 77.523438 36.632812 L 78.539062 37.300781 C 78.570312 37.320312 78.578125 37.347656 78.554688 37.378906 L 78.550781 37.382812 C 78.527344 37.410156 78.5 37.417969 78.46875 37.398438 L 77.4375 36.722656 C 77.421875 36.710938 77.402344 36.714844 77.386719 36.726562 L 77.371094 36.742188 C 77.347656 36.765625 77.347656 36.785156 77.375 36.804688 L 78.4375 37.492188 C 78.464844 37.511719 78.464844 37.53125 78.4375 37.550781 L 78.421875 37.5625 C 78.390625 37.589844 78.359375 37.589844 78.328125 37.570312 L 77.285156 36.890625 C 77.277344 36.882812 77.269531 36.886719 77.261719 36.894531 L 77.242188 36.910156 C 77.226562 36.925781 77.226562 36.941406 77.25 36.953125 L 78.289062 37.636719 C 78.320312 37.65625 78.324219 37.683594 78.304688 37.714844 L 78.300781 37.714844 C 78.28125 37.75 78.253906 37.753906 78.21875 37.734375 L 77.183594 37.054688 C 77.164062 37.042969 77.148438 37.046875 77.132812 37.066406 L 77.121094 37.082031 C 77.113281 37.09375 77.117188 37.105469 77.128906 37.113281 L 78.164062 37.789062 C 78.199219 37.8125 78.207031 37.839844 78.183594 37.875 L 78.171875 37.894531 C 78.15625 37.914062 78.140625 37.914062 78.121094 37.902344 L 77.050781 37.207031 C 77.035156 37.195312 77.023438 37.199219 77.007812 37.210938 L 76.992188 37.226562 C 76.972656 37.246094 76.972656 37.265625 77 37.28125 L 78.019531 37.945312 C 78.054688 37.96875 78.058594 37.996094 78.027344 38.023438 L 78.007812 38.042969 C 77.992188 38.058594 77.972656 38.0625 77.953125 38.050781 L 76.902344 37.363281 C 76.890625 37.355469 76.882812 37.359375 76.875 37.367188 L 76.867188 37.382812 C 76.851562 37.402344 76.855469 37.421875 76.878906 37.433594 L 77.886719 38.097656 C 77.917969 38.121094 77.921875 38.144531 77.902344 38.175781 L 77.898438 38.179688 C 77.878906 38.210938 77.851562 38.214844 77.816406 38.195312 L 76.785156 37.519531 C 76.773438 37.515625 76.765625 37.515625 76.757812 37.523438 L 76.742188 37.539062 C 76.722656 37.558594 76.726562 37.574219 76.746094 37.585938 L 77.777344 38.257812 C 77.8125 38.28125 77.8125 38.304688 77.78125 38.332031 L 77.761719 38.351562 C 77.746094 38.367188 77.722656 38.367188 77.703125 38.355469 L 76.664062 37.679688 C 76.648438 37.667969 76.628906 37.667969 76.617188 37.683594 L 76.601562 37.699219 C 76.578125 37.722656 76.582031 37.742188 76.609375 37.757812 L 77.640625 38.433594 C 77.671875 38.457031 77.679688 38.484375 77.65625 38.515625 L 77.65625 38.519531 C 77.636719 38.550781 77.609375 38.558594 77.578125 38.535156 L 76.519531 37.847656 C 76.507812 37.839844 76.5 37.839844 76.492188 37.851562 L 76.472656 37.867188 C 76.457031 37.882812 76.460938 37.898438 76.480469 37.910156 L 77.519531 38.589844 C 77.550781 38.613281 77.554688 38.636719 77.535156 38.667969 L 77.53125 38.671875 C 77.507812 38.703125 77.484375 38.710938 77.453125 38.6875 L 76.382812 37.996094 C 76.375 37.988281 76.363281 37.988281 76.355469 38 L 76.34375 38.023438 C 76.332031 38.039062 76.335938 38.054688 76.351562 38.066406 L 77.398438 38.746094 C 77.433594 38.769531 77.4375 38.796875 77.410156 38.824219 L 77.390625 38.84375 C 77.375 38.859375 77.355469 38.863281 77.335938 38.847656 L 76.265625 38.152344 C 76.253906 38.144531 76.238281 38.144531 76.226562 38.15625 L 76.207031 38.175781 C 76.1875 38.195312 76.191406 38.210938 76.210938 38.222656 L 77.238281 38.898438 C 77.269531 38.917969 77.273438 38.945312 77.253906 38.976562 L 77.25 38.980469 C 77.230469 39.011719 77.203125 39.015625 77.171875 38.996094 L 76.128906 38.316406 C 76.109375 38.304688 76.09375 38.308594 76.082031 38.328125 C 76.066406 38.347656 76.070312 38.363281 76.089844 38.378906 L 77.121094 39.058594 C 77.152344 39.078125 77.15625 39.105469 77.136719 39.132812 L 77.132812 39.136719 C 77.113281 39.167969 77.085938 39.175781 77.054688 39.152344 L 76.003906 38.46875 C 75.984375 38.457031 75.96875 38.460938 75.953125 38.480469 C 75.941406 38.5 75.945312 38.519531 75.964844 38.53125 L 76.996094 39.210938 C 77.027344 39.230469 77.03125 39.257812 77.007812 39.289062 C 76.988281 39.320312 76.957031 39.328125 76.925781 39.304688 L 75.875 38.617188 C 75.855469 38.605469 75.839844 38.609375 75.824219 38.625 L 75.804688 38.640625 C 75.785156 38.660156 75.785156 38.679688 75.8125 38.699219 L 76.859375 39.382812 C 76.894531 39.40625 76.902344 39.433594 76.882812 39.46875 L 76.882812 39.472656 C 76.863281 39.507812 76.839844 39.511719 76.808594 39.492188 L 75.710938 38.777344 C 75.699219 38.773438 75.691406 38.773438 75.683594 38.78125 L 75.667969 38.796875 C 75.652344 38.8125 75.652344 38.828125 75.675781 38.839844 L 76.742188 39.542969 C 76.773438 39.5625 76.777344 39.589844 76.761719 39.621094 L 76.757812 39.625 C 76.738281 39.660156 76.714844 39.664062 76.679688 39.644531 L 75.597656 38.9375 C 75.574219 38.925781 75.5625 38.929688 75.550781 38.949219 L 75.542969 38.96875 C 75.539062 38.980469 75.539062 38.988281 75.550781 38.996094 L 76.625 39.703125 C 76.660156 39.726562 76.664062 39.75 76.640625 39.78125 L 76.636719 39.785156 C 76.613281 39.8125 76.585938 39.820312 76.554688 39.796875 L 75.476562 39.09375 C 75.460938 39.082031 75.449219 39.085938 75.4375 39.101562 L 75.421875 39.125 C 75.410156 39.144531 75.414062 39.164062 75.433594 39.179688 L 76.488281 39.863281 C 76.515625 39.882812 76.519531 39.902344 76.492188 39.925781 L 76.472656 39.945312 C 76.449219 39.964844 76.425781 39.96875 76.402344 39.953125 L 75.375 39.28125 C 75.363281 39.277344 75.355469 39.277344 75.351562 39.289062 L 75.339844 39.300781 C 75.324219 39.320312 75.328125 39.339844 75.351562 39.351562 L 76.355469 40.015625 C 76.386719 40.039062 76.390625 40.0625 76.363281 40.089844 L 76.34375 40.109375 C 76.328125 40.125 76.3125 40.125 76.292969 40.113281 L 75.265625 39.445312 C 75.246094 39.433594 75.230469 39.4375 75.21875 39.457031 L 75.207031 39.472656 C 75.199219 39.484375 75.203125 39.492188 75.210938 39.5 L 76.214844 40.160156 C 76.246094 40.179688 76.253906 40.207031 76.234375 40.238281 L 76.234375 40.242188 C 76.214844 40.277344 76.1875 40.28125 76.15625 40.261719 L 75.148438 39.601562 C 75.125 39.589844 75.109375 39.59375 75.097656 39.613281 L 75.082031 39.636719 C 75.066406 39.65625 75.070312 39.671875 75.089844 39.683594 L 76.097656 40.347656 C 76.132812 40.367188 76.136719 40.394531 76.113281 40.421875 L 76.109375 40.425781 C 76.085938 40.457031 76.058594 40.460938 76.023438 40.441406 L 75.003906 39.773438 C 74.992188 39.769531 74.984375 39.769531 74.976562 39.78125 L 74.964844 39.800781 C 74.953125 39.816406 74.957031 39.832031 74.972656 39.839844 L 75.980469 40.503906 C 76.011719 40.527344 76.015625 40.550781 75.992188 40.582031 C 75.96875 40.613281 75.9375 40.621094 75.90625 40.597656 L 74.902344 39.941406 C 74.882812 39.929688 74.867188 39.933594 74.855469 39.953125 C 74.84375 39.976562 74.847656 39.992188 74.867188 40.007812 L 75.851562 40.65625 C 75.886719 40.675781 75.890625 40.703125 75.867188 40.734375 L 75.867188 40.738281 C 75.84375 40.769531 75.816406 40.773438 75.78125 40.753906 L 74.8125 40.121094 C 74.792969 40.105469 74.773438 40.105469 74.753906 40.128906 C 74.714844 40.171875 74.667969 40.253906 74.613281 40.375 C 74.453125 40.742188 74.550781 40.992188 74.90625 41.128906 C 75.34375 41.292969 75.601562 42.011719 75.769531 42.425781 C 75.972656 42.925781 76.125 43.425781 75.726562 43.863281 C 75.566406 44.035156 75.398438 44.074219 75.21875 43.980469 C 74.984375 43.855469 74.859375 43.878906 74.679688 44.058594 C 74.632812 44.105469 74.625 44.15625 74.65625 44.210938 C 74.839844 44.574219 74.925781 45.136719 74.753906 45.515625 C 74.746094 45.539062 74.730469 45.554688 74.710938 45.570312 C 74.457031 45.808594 74.167969 45.953125 73.839844 46.003906 C 73.710938 46.023438 73.652344 45.996094 73.601562 45.882812 C 73.589844 45.859375 73.570312 45.847656 73.542969 45.84375 C 73.519531 45.84375 73.5 45.855469 73.484375 45.875 C 73.414062 45.996094 73.316406 46.125 73.195312 46.253906 C 72.976562 46.496094 72.757812 46.746094 72.539062 47.003906 C 72.222656 47.382812 71.363281 47.207031 70.972656 47.023438 C 70.925781 47 70.882812 47.003906 70.839844 47.035156 C 70.605469 47.195312 70.332031 47.324219 70.019531 47.414062 C 69.777344 47.484375 69.617188 47.535156 69.539062 47.566406 C 69.484375 47.585938 69.425781 47.601562 69.367188 47.605469 C 69.210938 47.617188 69.082031 47.636719 68.976562 47.664062 C 68.683594 47.734375 68.367188 47.734375 68.011719 47.75 C 67.480469 47.773438 67.046875 47.914062 66.597656 48.167969 C 64.941406 49.09375 63.671875 49.988281 60.839844 51.847656 C 60.570312 52.023438 59.738281 52.542969 58.335938 53.40625 C 58.316406 53.417969 58.300781 53.433594 58.28125 53.449219 C 57.835938 53.84375 57.425781 54.136719 57.050781 54.324219 C 56.417969 54.644531 55.730469 54.878906 54.988281 55.023438 C 54.90625 55.039062 54.679688 55.039062 54.3125 55.015625 C 54.269531 55.011719 54.234375 55.019531 54.199219 55.042969 L 53.59375 55.390625 C 53.566406 55.40625 53.558594 55.429688 53.566406 55.457031 C 53.574219 55.484375 53.59375 55.5 53.625 55.5 C 54.324219 55.46875 54.929688 55.453125 55.4375 55.449219 C 56.253906 55.4375 56.859375 55.40625 57.246094 55.347656 C 58.183594 55.210938 58.984375 55.042969 59.652344 54.839844 C 60.511719 54.578125 62.394531 53.996094 65.296875 53.089844 C 65.578125 53.003906 65.800781 52.910156 65.96875 52.808594 C 66.167969 52.691406 66.367188 52.546875 66.5625 52.382812 C 67.566406 51.527344 68.503906 50.636719 69.375 49.714844 C 69.636719 49.433594 69.929688 49.234375 70.253906 49.117188 C 70.566406 49.003906 71.003906 49.179688 71.355469 49.304688 C 72.234375 49.625 73.3125 49.378906 74.019531 48.886719 C 74.8125 48.335938 75.617188 47.464844 76.300781 46.566406 C 77.144531 45.457031 77.792969 44.550781 78.238281 43.851562 C 79 42.660156 79.472656 41.921875 79.664062 41.628906 C 80.484375 40.363281 81.542969 39.15625 82.582031 38.148438 C 82.621094 38.113281 82.65625 38.113281 82.6875 38.152344 C 82.699219 38.164062 82.695312 38.191406 82.683594 38.238281 C 82.601562 38.515625 82.4375 38.730469 82.363281 38.980469 C 82.335938 39.070312 82.179688 39.539062 81.894531 40.386719 C 81.882812 40.417969 81.878906 40.441406 81.882812 40.460938 C 81.882812 40.476562 81.890625 40.484375 81.902344 40.492188 C 81.917969 40.496094 81.929688 40.496094 81.9375 40.484375 C 82.929688 39.667969 84.027344 39.035156 85.339844 39.136719 C 85.382812 39.140625 85.421875 39.132812 85.460938 39.117188 C 85.5 39.097656 85.585938 39.054688 85.714844 38.992188 C 85.902344 38.890625 86.121094 38.808594 86.363281 38.738281 C 86.816406 38.609375 87.378906 38.601562 87.8125 38.523438 C 87.855469 38.515625 87.898438 38.515625 87.9375 38.527344 C 88.214844 38.601562 88.496094 38.636719 88.78125 38.628906 C 89.089844 38.617188 88.933594 38.328125 88.914062 38.175781 C 88.914062 38.15625 88.917969 38.140625 88.9375 38.128906 C 88.953125 38.117188 88.96875 38.117188 88.988281 38.125 C 89.296875 38.292969 89.527344 38.523438 89.683594 38.808594 C 89.726562 38.886719 89.785156 38.902344 89.859375 38.847656 C 90.375 38.460938 91.152344 38.347656 91.777344 38.296875 C 91.808594 38.292969 91.832031 38.308594 91.84375 38.335938 C 91.851562 38.367188 91.84375 38.394531 91.816406 38.410156 C 91.792969 38.429688 91.5 38.597656 90.9375 38.921875 C 90.914062 38.9375 90.90625 38.957031 90.917969 38.984375 C 90.917969 38.992188 90.925781 38.996094 90.933594 39 C 90.9375 39 90.941406 39.003906 90.945312 39.003906 C 91.289062 39.003906 91.59375 39.003906 91.859375 39 C 92.761719 38.980469 93.511719 39.171875 94.199219 39.761719 C 94.238281 39.796875 94.28125 39.828125 94.328125 39.851562 C 94.835938 40.097656 95.300781 40.371094 95.667969 40.613281 C 96.058594 40.871094 96.367188 41.207031 96.589844 41.625 C 96.640625 41.71875 96.664062 41.8125 96.652344 41.910156 C 96.648438 41.945312 96.632812 41.957031 96.597656 41.945312 L 95.855469 41.699219 C 95.804688 41.679688 95.777344 41.699219 95.777344 41.753906 L 95.777344 41.796875 C 95.777344 41.8125 95.785156 41.824219 95.792969 41.835938 C 96.28125 42.34375 96.625 42.9375 96.828125 43.613281 C 96.855469 43.707031 96.855469 43.789062 96.828125 43.867188 C 96.820312 43.886719 96.808594 43.898438 96.785156 43.902344 C 96.765625 43.90625 96.746094 43.902344 96.730469 43.882812 L 96.347656 43.4375 C 96.34375 43.433594 96.339844 43.429688 96.335938 43.425781 L 95.628906 42.945312 C 95.59375 42.921875 95.570312 42.929688 95.554688 42.96875 L 95.542969 42.988281 C 95.53125 43.011719 95.535156 43.035156 95.554688 43.050781 C 95.734375 43.222656 95.84375 43.386719 95.886719 43.539062 C 95.960938 43.824219 96.023438 44.0625 96.078125 44.253906 C 96.082031 44.265625 96.078125 44.277344 96.066406 44.285156 C 96.054688 44.289062 96.046875 44.289062 96.035156 44.28125 L 95.925781 44.167969 C 95.902344 44.144531 95.882812 44.121094 95.871094 44.089844 C 95.785156 43.910156 95.667969 43.753906 95.523438 43.625 C 95.492188 43.597656 95.464844 43.597656 95.441406 43.628906 C 95.429688 43.644531 95.429688 43.660156 95.441406 43.683594 C 95.734375 44.359375 95.910156 44.914062 96.066406 45.628906 C 96.167969 46.082031 96.277344 46.53125 96.394531 46.980469 C 96.46875 47.257812 96.550781 47.902344 96.394531 48.175781 C 96.347656 48.257812 96.277344 48.382812 96.183594 48.546875 C 95.917969 49.007812 95.910156 49.480469 96.164062 49.96875 C 96.496094 50.613281 96.917969 51.132812 97.414062 51.777344 C 97.761719 52.230469 98.097656 52.9375 97.582031 53.414062 C 97.554688 53.4375 97.523438 53.457031 97.492188 53.46875 L 96.4375 53.925781 C 96.410156 53.9375 96.40625 53.957031 96.417969 53.980469 C 96.636719 54.457031 96.613281 54.921875 96.34375 55.371094 C 96.335938 55.382812 96.328125 55.390625 96.316406 55.402344 L 96.058594 55.605469 C 96.027344 55.628906 96.011719 55.660156 96.011719 55.699219 L 96.011719 55.964844 C 96.011719 55.992188 96.007812 56.011719 96 56.035156 L 95.527344 57.109375 C 95.5 57.167969 95.492188 57.230469 95.5 57.296875 C 95.539062 57.652344 95.550781 57.988281 95.542969 58.300781 C 95.523438 58.769531 95.480469 59.097656 95.414062 59.28125 C 95.117188 60.058594 94.078125 60.335938 93.3125 60.289062 C 92.917969 60.265625 92.449219 60.203125 91.902344 60.109375 C 91.660156 60.0625 91.417969 60.105469 91.171875 60.230469 C 90.988281 60.324219 90.875 60.394531 90.832031 60.433594 C 90.808594 60.449219 90.796875 60.46875 90.789062 60.496094 L 90.488281 61.386719 C 90.480469 61.414062 90.480469 61.441406 90.492188 61.46875 C 90.539062 61.574219 90.574219 61.640625 90.597656 61.667969 C 90.738281 61.839844 90.824219 62.042969 90.851562 62.277344 C 90.890625 62.605469 90.660156 63.101562 90.617188 63.382812 C 90.597656 63.535156 90.667969 63.628906 90.816406 63.703125 C 91.054688 63.828125 91.195312 64.019531 91.378906 64.21875 C 92.59375 65.546875 93.601562 66.984375 94.402344 68.535156 C 94.65625 69.027344 95.042969 69.867188 95.570312 71.054688 C 96.65625 73.511719 97.828125 75.820312 99.085938 77.980469 C 100.800781 80.921875 102.734375 83.632812 104.886719 86.117188 C 105.546875 86.878906 106.351562 87.644531 107.300781 88.414062 C 109.039062 89.828125 110.902344 91.203125 112.882812 92.542969 C 114.5625 93.675781 116.378906 94.753906 118.214844 95.917969 C 119.050781 96.445312 119.84375 97.070312 120.414062 97.863281 C 121.101562 98.816406 121.492188 99.703125 121.929688 100.96875 C 123.953125 106.835938 125.503906 111.390625 126.578125 114.640625 C 126.679688 114.941406 126.386719 115.242188 126.125 115.496094 C 125.835938 115.773438 125.492188 116.039062 125.179688 116.328125 C 124.023438 117.402344 122.933594 118.398438 121.902344 119.324219 C 121.871094 119.351562 121.855469 119.386719 121.855469 119.425781 C 121.941406 121.773438 121.992188 124.035156 122.007812 126.222656 C 122.015625 127.378906 122.09375 128.351562 122.117188 129.460938 C 122.140625 130.757812 122.191406 132.058594 122.261719 133.355469 Z M 76.0625 48.445312 L 74.765625 49.742188 C 74.738281 49.769531 74.742188 49.792969 74.777344 49.8125 C 74.949219 49.902344 75.125 49.933594 75.296875 49.894531 C 75.332031 49.886719 75.371094 49.890625 75.40625 49.898438 C 75.53125 49.925781 75.773438 50.042969 75.828125 49.808594 C 75.933594 49.328125 76.035156 48.882812 76.125 48.476562 C 76.128906 48.460938 76.121094 48.449219 76.105469 48.4375 C 76.089844 48.429688 76.078125 48.433594 76.0625 48.445312 Z M 76.0625 48.445312 " fill-opacity="1" fill-rule="nonzero"/></g></svg>