<svg xmlns="http://www.w3.org/2000/svg" xmlns:xlink="http://www.w3.org/1999/xlink" width="192" zoomAndPan="magnify" viewBox="0 0 144 143.999998" height="192" preserveAspectRatio="xMidYMid meet" version="1.0"><defs><clipPath id="18083a967d"><path d="M 5 5 L 139 5 L 139 139 L 5 139 Z M 5 5 " clip-rule="nonzero"/></clipPath><clipPath id="218dfccfbd"><path d="M 4.042969 15.292969 L 4.042969 128.707031 C 4.042969 134.917969 9.082031 139.957031 15.292969 139.957031 L 128.707031 139.957031 C 134.917969 139.957031 139.957031 134.917969 139.957031 128.707031 L 139.957031 15.292969 C 139.957031 9.082031 134.917969 4.042969 128.707031 4.042969 L 15.292969 4.042969 C 9.082031 4.042969 4.042969 9.082031 4.042969 15.292969 Z M 4.042969 15.292969 " clip-rule="nonzero"/></clipPath><clipPath id="5fe047d9a9"><path d="M 4.042969 4.042969 L 139.792969 4.042969 L 139.792969 139.792969 L 4.042969 139.792969 Z M 4.042969 4.042969 " clip-rule="nonzero"/></clipPath><clipPath id="d19ca2c479"><path d="M 4.042969 15.292969 L 4.042969 128.707031 C 4.042969 134.917969 9.082031 139.957031 15.292969 139.957031 L 128.707031 139.957031 C 134.917969 139.957031 139.957031 134.917969 139.957031 128.707031 L 139.957031 15.292969 C 139.957031 9.082031 134.917969 4.042969 128.707031 4.042969 L 15.292969 4.042969 C 9.082031 4.042969 4.042969 9.082031 4.042969 15.292969 Z M 4.042969 15.292969 " clip-rule="nonzero"/></clipPath><clipPath id="6779da4112"><path d="M 11.835938 9.164062 L 131.835938 9.164062 L 131.835938 135.164062 L 11.835938 135.164062 Z M 11.835938 9.164062 " clip-rule="nonzero"/></clipPath></defs><rect x="-14.4" width="172.8" fill="#ffffff" y="-14.4" height="172.799997" fill-opacity="1"/><rect x="-14.4" width="172.8" fill="#ffffff" y="-14.4" height="172.799997" fill-opacity="1"/><g clip-path="url(#18083a967d)"><g clip-path="url(#218dfccfbd)"><path fill="#001b3d" d="M 138.296875 73.15625 C 137.574219 74.347656 136.339844 75.050781 135.125 75.730469 C 135.640625 76.472656 135.621094 77.472656 135.390625 78.347656 C 135.160156 79.222656 134.746094 80.039062 134.511719 80.914062 C 134.277344 81.789062 134.339844 82.949219 134.847656 83.695312 C 134.148438 83.722656 133.5625 84.285156 133.277344 84.925781 C 132.992188 85.570312 132.949219 86.28125 132.890625 86.980469 C 132.828125 87.679688 132.734375 88.398438 132.371094 88.996094 L 132.386719 89 C 133.390625 89.398438 134.433594 89.824219 135.144531 90.636719 C 135.351562 90.878906 135.527344 91.148438 135.636719 91.441406 C 135.882812 92.117188 135.78125 92.882812 135.503906 93.542969 C 135.226562 94.210938 134.785156 94.789062 134.355469 95.367188 C 134.917969 95.925781 135.839844 96.554688 136.097656 97.3125 C 136.257812 97.792969 136.273438 98.308594 136.34375 98.8125 C 136.59375 100.59375 137.539062 102.269531 137.480469 104.066406 L 137.480469 104.070312 C 137.476562 104.253906 137.339844 104.410156 137.183594 104.503906 C 137.027344 104.597656 136.847656 104.648438 136.6875 104.730469 C 136.128906 105.015625 135.832031 105.652344 135.714844 106.273438 C 135.597656 106.890625 135.617188 107.53125 135.484375 108.144531 C 135.21875 109.398438 134.257812 110.417969 133.421875 111.394531 C 133.878906 111.964844 134.339844 112.542969 134.597656 113.222656 C 134.859375 113.902344 134.886719 114.710938 134.5 115.328125 C 134.027344 116.082031 132.890625 116.441406 132.027344 116.667969 C 132.664062 117.285156 133.335938 117.964844 133.464844 118.839844 C 133.550781 119.449219 133.363281 120.066406 133.441406 120.675781 C 133.507812 121.199219 133.773438 121.683594 134.117188 122.085938 C 134.457031 122.488281 134.875 122.828125 135.285156 123.160156 C 134.539062 124.277344 134.617188 125.875 134.964844 127.167969 C 135.316406 128.464844 135.933594 129.675781 136.277344 130.972656 C 136.714844 132.628906 136.6875 134.40625 136.199219 136.046875 C 133.972656 136.578125 131.390625 136.582031 129.222656 135.839844 C 128.226562 135.5 127.273438 135.03125 126.246094 134.808594 C 125.214844 134.585938 123.976562 134.621094 123.140625 135.253906 C 122.757812 134.625 122.167969 134.121094 121.484375 133.847656 C 120.691406 133.527344 119.8125 133.515625 118.96875 133.382812 C 118.121094 133.246094 117.183594 132.882812 116.707031 132.171875 C 116.503906 133.0625 116.085938 133.902344 115.496094 134.601562 C 115.285156 134.847656 115.03125 135.09375 114.707031 135.140625 C 114.464844 135.175781 114.222656 135.09375 113.996094 135.003906 C 113.132812 134.664062 112.277344 134.148438 111.519531 133.613281 C 111.070312 133.589844 110.664062 133.882812 110.351562 134.207031 C 110.039062 134.53125 109.769531 134.910156 109.390625 135.148438 C 108.417969 135.761719 107.09375 135.285156 106.027344 135.703125 C 105.148438 136.042969 104.402344 136.871094 103.921875 137.683594 C 103.613281 137.421875 103.203125 137.332031 102.800781 137.296875 C 102.398438 137.265625 101.992188 137.277344 101.597656 137.1875 C 101.007812 137.058594 100.492188 136.707031 99.917969 136.523438 C 99.101562 136.261719 98.207031 136.339844 97.398438 136.074219 C 96.476562 135.773438 95.757812 135.058594 95.070312 134.371094 C 94.21875 135.011719 93.824219 135.152344 92.832031 135.546875 C 92.433594 135.703125 92.003906 135.84375 91.585938 135.742188 C 91.242188 135.65625 90.957031 135.414062 90.703125 135.164062 C 89.964844 134.429688 89.367188 133.480469 88.953125 132.519531 C 87.871094 133.078125 86.527344 132.664062 85.367188 133.03125 C 84.554688 133.292969 83.832031 133.980469 83.550781 134.785156 C 82.964844 134.226562 82.027344 134.222656 81.253906 134.464844 C 80.480469 134.703125 79.78125 135.144531 79.007812 135.382812 C 77.960938 135.707031 76.796875 135.640625 75.792969 135.191406 L 75.796875 134.976562 C 75.417969 136.417969 74.386719 137.675781 73.042969 138.324219 C 72.664062 138.511719 72.246094 138.648438 71.832031 138.585938 C 71.484375 138.527344 71.171875 138.335938 70.886719 138.128906 C 69.835938 137.382812 68.941406 136.417969 68.273438 135.3125 C 67.085938 135.515625 65.871094 135.71875 64.761719 135.238281 C 64.195312 134.996094 63.703125 134.585938 63.125 134.371094 C 62.21875 134.035156 61.128906 134.253906 60.414062 134.90625 C 60.269531 134.210938 59.671875 133.632812 59.027344 133.34375 C 58.378906 133.054688 57.660156 132.976562 56.953125 132.902344 C 56.25 132.828125 55.53125 132.746094 54.886719 132.449219 C 54.773438 133.480469 54.359375 134.273438 53.660156 135.042969 C 53.378906 135.355469 53.039062 135.640625 52.625 135.703125 C 52.359375 135.746094 52.085938 135.6875 51.824219 135.617188 C 50.878906 135.363281 49.980469 134.933594 49.1875 134.359375 C 47.898438 134.800781 47.128906 136.152344 45.796875 136.453125 C 45.171875 136.589844 44.5 136.464844 43.875 136.605469 C 43.382812 136.714844 42.941406 136.972656 42.457031 137.117188 C 41.605469 137.367188 40.636719 137.25 39.875 137.707031 C 39.472656 136.792969 38.492188 136.050781 37.535156 135.777344 C 36.972656 135.613281 36.375 135.601562 35.800781 135.480469 C 34.703125 135.246094 33.503906 134.402344 32.839844 133.5 C 32.347656 133.957031 32.257812 134.042969 31.675781 134.378906 C 31.09375 134.71875 30.410156 134.917969 29.75 134.820312 C 29.148438 134.730469 28.59375 134.382812 28.207031 133.914062 C 27.816406 133.445312 27.5 132.664062 27.421875 132.058594 C 26.914062 132.867188 25.984375 133.367188 25.035156 133.464844 C 24.382812 133.535156 23.722656 133.429688 23.082031 133.546875 C 22.183594 133.71875 21.234375 134.484375 20.859375 135.3125 C 20.066406 134.726562 19 134.652344 18.019531 134.789062 C 16.445312 135.003906 14.980469 135.691406 13.449219 136.101562 C 11.679688 136.574219 9.207031 136.585938 7.8125 136.050781 C 7.320312 134.410156 7.292969 132.632812 7.730469 130.976562 C 8.078125 129.679688 8.695312 128.46875 9.042969 127.171875 C 9.394531 125.875 9.472656 124.28125 8.722656 123.164062 C 9.136719 122.832031 9.550781 122.496094 9.890625 122.089844 C 10.234375 121.683594 10.5 121.203125 10.566406 120.675781 C 10.648438 120.070312 10.457031 119.449219 10.546875 118.839844 C 10.671875 117.964844 11.34375 117.285156 11.980469 116.671875 C 11.117188 116.449219 9.980469 116.085938 9.507812 115.328125 C 9.121094 114.714844 9.152344 113.90625 9.410156 113.226562 C 9.667969 112.546875 10.132812 111.964844 10.585938 111.398438 C 9.75 110.421875 8.789062 109.40625 8.523438 108.148438 C 8.390625 107.53125 8.414062 106.894531 8.292969 106.273438 C 8.175781 105.65625 7.878906 105.019531 7.320312 104.734375 C 7.160156 104.652344 6.980469 104.597656 6.824219 104.503906 C 6.667969 104.410156 6.53125 104.257812 6.527344 104.074219 L 6.527344 104.070312 C 6.464844 102.273438 7.410156 100.597656 7.664062 98.816406 C 7.734375 98.3125 7.75 97.792969 7.910156 97.3125 C 8.167969 96.558594 9.085938 95.933594 9.652344 95.367188 C 9.21875 94.792969 8.78125 94.210938 8.503906 93.546875 C 8.226562 92.882812 8.121094 92.117188 8.375 91.445312 C 8.480469 91.148438 8.660156 90.878906 8.867188 90.640625 C 9.570312 89.824219 10.621094 89.398438 11.621094 89.003906 L 11.636719 89 C 11.273438 88.398438 11.183594 87.679688 11.121094 86.984375 C 11.058594 86.285156 11.015625 85.566406 10.734375 84.929688 C 10.449219 84.289062 9.863281 83.726562 9.164062 83.695312 C 9.667969 82.945312 9.730469 81.792969 9.496094 80.917969 C 9.265625 80.042969 8.847656 79.226562 8.617188 78.347656 C 8.390625 77.472656 8.371094 76.476562 8.882812 75.730469 C 7.667969 75.050781 6.433594 74.351562 5.710938 73.160156 C 5.4375 72.714844 5.25 72.179688 5.34375 71.664062 C 5.414062 71.273438 5.640625 70.929688 5.882812 70.613281 C 6.28125 70.097656 6.738281 69.632812 7.25 69.226562 C 7.59375 68.957031 7.960938 68.703125 8.230469 68.363281 C 8.5 68.023438 8.664062 67.554688 8.515625 67.144531 C 8.4375 66.457031 8.460938 65.628906 8.679688 64.96875 C 8.921875 64.226562 9.464844 63.613281 9.6875 62.867188 C 9.945312 62.011719 9.746094 61.007812 9.164062 60.339844 C 9.570312 60.164062 9.996094 59.980469 10.289062 59.648438 C 10.550781 59.347656 10.683594 58.957031 10.785156 58.570312 C 11.070312 57.488281 11.167969 56.363281 11.265625 55.253906 C 11.277344 55.144531 11.285156 55.023438 11.226562 54.929688 C 11.167969 54.835938 10.808594 54.742188 10.738281 54.828125 C 9.507812 54.53125 8.496094 53.460938 8.273438 52.210938 C 8.046875 50.960938 8.625 49.609375 9.679688 48.902344 C 8.761719 48.324219 8.113281 47.308594 7.785156 46.273438 C 7.453125 45.238281 7.347656 44.144531 7.183594 43.070312 C 7.019531 41.996094 6.777344 40.90625 6.21875 39.972656 C 7.09375 39.316406 8.035156 38.683594 8.324219 37.671875 C 8.539062 36.9375 8.492188 36.144531 8.667969 35.394531 C 8.90625 34.363281 9.585938 33.445312 10.5 32.910156 C 10.050781 32.339844 9.605469 31.597656 9.382812 30.910156 C 9.15625 30.21875 9.152344 29.425781 9.527344 28.800781 C 10 28.007812 11.054688 27.605469 11.957031 27.394531 L 11.996094 27.394531 C 11.546875 27.0625 11.566406 27.085938 11.242188 26.636719 C 10.851562 26.085938 10.683594 25.410156 10.582031 24.738281 C 10.480469 24.070312 10.433594 23.390625 10.246094 22.742188 C 10.261719 22.28125 10.015625 21.730469 9.628906 21.480469 C 9.371094 21.316406 9.039062 21.210938 8.914062 20.933594 C 8.835938 20.75 8.871094 20.539062 8.972656 20.371094 C 9.074219 20.207031 9.257812 20.054688 9.433594 19.957031 C 9.375 18.105469 8.621094 16.355469 8.144531 14.566406 C 7.554688 12.367188 7.375 10.066406 7.613281 7.804688 C 9.015625 7.269531 11.691406 7.398438 13.457031 7.875 C 14.992188 8.285156 16.457031 8.96875 18.03125 9.1875 C 19.007812 9.324219 20.074219 9.25 20.871094 8.664062 C 21.246094 9.496094 22.195312 10.261719 23.09375 10.429688 C 23.734375 10.546875 24.394531 10.445312 25.046875 10.511719 C 26 10.609375 26.925781 11.109375 27.433594 11.917969 C 27.515625 11.3125 27.832031 10.535156 28.21875 10.0625 C 28.609375 9.59375 29.160156 9.253906 29.761719 9.15625 C 30.425781 9.054688 31.105469 9.257812 31.6875 9.597656 C 32.269531 9.933594 32.359375 10.019531 32.851562 10.476562 C 33.519531 9.574219 34.714844 8.730469 35.8125 8.496094 C 36.386719 8.375 36.984375 8.363281 37.546875 8.199219 C 38.507812 7.925781 39.484375 7.1875 39.886719 6.269531 C 40.652344 6.722656 41.617188 6.605469 42.46875 6.859375 C 42.949219 7.003906 43.394531 7.261719 43.886719 7.371094 C 44.515625 7.507812 45.179688 7.386719 45.808594 7.523438 C 47.140625 7.820312 47.90625 9.175781 49.199219 9.617188 C 49.992188 9.042969 50.890625 8.609375 51.835938 8.359375 C 52.097656 8.285156 52.371094 8.230469 52.636719 8.273438 C 53.050781 8.335938 53.394531 8.621094 53.671875 8.933594 C 54.367188 9.703125 54.785156 10.496094 54.894531 11.527344 C 55.542969 11.230469 56.261719 11.148438 56.964844 11.074219 C 57.671875 11 58.390625 10.917969 59.039062 10.628906 C 59.6875 10.339844 60.28125 9.761719 60.425781 9.066406 C 61.140625 9.726562 62.226562 9.941406 63.136719 9.605469 C 63.71875 9.390625 64.207031 8.980469 64.773438 8.738281 C 65.882812 8.261719 67.09375 8.464844 68.285156 8.664062 C 68.953125 7.558594 69.847656 6.597656 70.894531 5.84375 C 71.183594 5.640625 71.492188 5.449219 71.84375 5.390625 C 72.257812 5.328125 72.679688 5.464844 73.054688 5.648438 C 74.398438 6.300781 75.429688 7.558594 75.808594 9 L 75.804688 8.78125 C 76.808594 8.335938 77.972656 8.269531 79.019531 8.589844 C 79.792969 8.832031 80.492188 9.269531 81.265625 9.511719 C 82.039062 9.753906 82.96875 9.746094 83.558594 9.191406 C 83.839844 9.992188 84.5625 10.683594 85.378906 10.945312 C 86.539062 11.3125 87.882812 10.898438 88.964844 11.453125 C 89.378906 10.492188 89.972656 9.550781 90.714844 8.8125 C 90.964844 8.558594 91.253906 8.320312 91.597656 8.234375 C 92.015625 8.132812 92.445312 8.269531 92.84375 8.429688 C 93.832031 8.824219 94.230469 8.964844 95.082031 9.605469 C 95.765625 8.917969 96.484375 8.207031 97.40625 7.902344 C 98.21875 7.636719 99.117188 7.714844 99.925781 7.453125 C 100.5 7.269531 101.019531 6.917969 101.609375 6.785156 C 102.003906 6.699219 102.410156 6.714844 102.8125 6.679688 C 103.214844 6.644531 103.625 6.550781 103.933594 6.292969 C 104.414062 7.101562 105.152344 7.9375 106.035156 8.273438 C 107.109375 8.6875 108.433594 8.210938 109.402344 8.828125 C 109.785156 9.066406 110.050781 9.445312 110.363281 9.769531 C 110.675781 10.089844 111.082031 10.382812 111.53125 10.363281 C 112.289062 9.832031 113.144531 9.3125 114.003906 8.972656 C 114.234375 8.882812 114.476562 8.800781 114.71875 8.832031 C 115.042969 8.878906 115.296875 9.121094 115.507812 9.375 C 116.097656 10.074219 116.515625 10.914062 116.71875 11.804688 C 117.195312 11.09375 118.132812 10.730469 118.976562 10.59375 C 119.824219 10.460938 120.699219 10.449219 121.492188 10.128906 C 122.175781 9.855469 122.765625 9.351562 123.148438 8.722656 C 123.988281 9.359375 125.226562 9.394531 126.257812 9.167969 C 127.285156 8.945312 128.238281 8.472656 129.234375 8.136719 C 131.402344 7.394531 134.183594 7.273438 136.414062 7.804688 C 136.65625 10.066406 136.476562 12.367188 135.886719 14.5625 C 135.40625 16.355469 134.648438 18.101562 134.597656 19.957031 C 134.769531 20.046875 134.949219 20.199219 135.054688 20.371094 C 135.160156 20.539062 135.195312 20.753906 135.117188 20.929688 C 134.992188 21.210938 134.65625 21.3125 134.402344 21.476562 C 134.015625 21.730469 133.765625 22.277344 133.78125 22.738281 C 133.597656 23.390625 133.554688 24.070312 133.449219 24.738281 C 133.34375 25.40625 133.179688 26.082031 132.785156 26.632812 C 132.464844 27.085938 132.480469 27.0625 132.035156 27.390625 L 132.074219 27.390625 C 132.972656 27.601562 134.023438 28.007812 134.503906 28.800781 C 134.875 29.421875 134.875 30.214844 134.648438 30.90625 C 134.421875 31.597656 133.980469 32.335938 133.53125 32.910156 C 134.441406 33.441406 135.125 34.363281 135.363281 35.394531 C 135.535156 36.140625 135.492188 36.929688 135.703125 37.671875 C 135.996094 38.675781 136.9375 39.316406 137.8125 39.972656 C 137.246094 40.902344 137.011719 41.992188 136.847656 43.066406 C 136.679688 44.140625 136.578125 45.234375 136.246094 46.269531 C 135.914062 47.308594 135.273438 48.320312 134.347656 48.898438 C 135.40625 49.605469 135.980469 50.960938 135.757812 52.210938 C 135.535156 53.457031 134.523438 54.53125 133.289062 54.828125 C 133.222656 54.742188 132.863281 54.832031 132.804688 54.929688 C 132.75 55.023438 132.757812 55.136719 132.765625 55.25 C 132.863281 56.367188 132.964844 57.484375 133.246094 58.566406 C 133.347656 58.953125 133.476562 59.34375 133.742188 59.644531 C 134.035156 59.980469 134.457031 60.164062 134.867188 60.335938 C 134.28125 61.003906 134.085938 62.011719 134.34375 62.863281 C 134.5625 63.613281 135.109375 64.226562 135.351562 64.964844 C 135.570312 65.625 135.59375 66.449219 135.511719 67.140625 C 135.367188 67.550781 135.527344 68.019531 135.800781 68.363281 C 136.070312 68.703125 136.4375 68.953125 136.78125 69.226562 C 137.285156 69.632812 137.746094 70.097656 138.148438 70.609375 C 138.390625 70.925781 138.617188 71.273438 138.6875 71.664062 C 138.761719 72.175781 138.574219 72.707031 138.296875 73.15625 Z M 138.296875 73.15625 " fill-opacity="1" fill-rule="nonzero"/></g></g><g clip-path="url(#5fe047d9a9)"><g clip-path="url(#d19ca2c479)"><path fill="#ffffff" d="M 4.042969 4.042969 L 139.945312 4.042969 L 139.945312 139.945312 L 4.042969 139.945312 Z M 4.042969 4.042969 " fill-opacity="1" fill-rule="nonzero"/></g></g><g clip-path="url(#6779da4112)"><path fill="#191919" d="M 51.289062 51.679688 C 51.289062 51.554688 51.183594 51.449219 51.058594 51.449219 C 51.019531 51.449219 50.980469 51.460938 50.945312 51.480469 L 46.976562 53.78125 C 46.726562 53.925781 46.410156 53.839844 46.265625 53.585938 C 46.21875 53.507812 46.195312 53.417969 46.195312 53.324219 L 46.195312 47.910156 C 46.195312 47.402344 46.441406 46.917969 46.859375 46.617188 L 70.421875 29.523438 C 70.671875 29.347656 70.816406 29.058594 70.816406 28.753906 L 70.816406 18.621094 C 70.816406 18.394531 70.632812 18.207031 70.402344 18.207031 L 65.234375 18.207031 C 64.925781 18.207031 64.675781 17.953125 64.675781 17.644531 L 64.675781 16.425781 C 64.675781 16.109375 64.929688 15.851562 65.242188 15.851562 L 70.332031 15.851562 C 70.597656 15.851562 70.8125 15.636719 70.8125 15.371094 L 70.8125 9.726562 C 70.8125 9.429688 71.046875 9.1875 71.339844 9.1875 L 72.605469 9.1875 C 72.949219 9.1875 73.230469 9.46875 73.230469 9.816406 L 73.230469 15.480469 C 73.230469 15.6875 73.394531 15.851562 73.597656 15.851562 L 78.894531 15.851562 C 79.328125 15.851562 79.675781 16.203125 79.675781 16.636719 L 79.675781 17.523438 C 79.675781 17.921875 79.359375 18.246094 78.964844 18.246094 L 73.5625 18.246094 C 73.328125 18.246094 73.140625 18.429688 73.140625 18.660156 L 73.140625 28.675781 C 73.140625 29.007812 73.300781 29.316406 73.566406 29.503906 L 96.972656 46.515625 C 97.535156 46.925781 97.871094 47.582031 97.871094 48.28125 L 97.871094 53.144531 C 97.871094 53.574219 97.527344 53.921875 97.097656 53.921875 C 96.933594 53.921875 96.773438 53.867188 96.644531 53.773438 L 93.429688 51.4375 C 93.238281 51.296875 92.96875 51.34375 92.832031 51.535156 C 92.78125 51.605469 92.753906 51.695312 92.753906 51.78125 L 92.753906 132.558594 C 92.753906 132.8125 92.960938 133.019531 93.210938 133.019531 L 94.332031 133.019531 C 94.609375 133.019531 94.835938 132.796875 94.835938 132.519531 L 94.835938 87.285156 C 94.832031 87.027344 95.039062 86.816406 95.296875 86.8125 C 95.382812 86.8125 95.46875 86.835938 95.542969 86.878906 L 118.8125 100.777344 C 119.011719 100.890625 119.132812 101.101562 119.132812 101.332031 L 119.132812 132.585938 C 119.132812 132.757812 119.269531 132.898438 119.4375 132.898438 L 130.972656 132.898438 C 131.449219 132.898438 131.832031 133.28125 131.832031 133.757812 L 131.832031 134.152344 C 131.832031 134.695312 131.394531 135.136719 130.851562 135.136719 L 12.800781 135.136719 C 12.269531 135.140625 11.835938 134.703125 11.835938 134.164062 L 11.835938 133.789062 C 11.835938 133.332031 12.207031 132.960938 12.660156 132.960938 L 24.6875 132.960938 C 24.878906 132.960938 25.035156 132.808594 25.035156 132.617188 L 25.035156 100.9375 C 25.039062 100.820312 25.09375 100.714844 25.1875 100.660156 L 48.613281 87.066406 C 48.800781 86.957031 49.039062 87.019531 49.144531 87.203125 C 49.183594 87.265625 49.199219 87.335938 49.199219 87.40625 L 49.199219 132.507812 C 49.199219 132.789062 49.425781 133.019531 49.703125 133.019531 L 50.757812 133.019531 C 51.050781 133.019531 51.289062 132.777344 51.289062 132.480469 Z M 66.671875 63.066406 L 77.417969 63.027344 C 77.613281 63.027344 77.773438 62.867188 77.773438 62.667969 L 77.730469 51.390625 C 77.71875 48.050781 75.203125 45.347656 72.109375 45.355469 L 71.855469 45.355469 C 68.761719 45.367188 66.261719 48.085938 66.273438 51.429688 L 66.316406 62.707031 C 66.316406 62.90625 66.476562 63.066406 66.671875 63.066406 Z M 70.609375 81.574219 C 70.648438 81.527344 70.671875 81.5 70.671875 81.492188 C 70.710938 79.308594 70.730469 77.074219 70.734375 74.796875 C 70.730469 74.667969 70.625 74.566406 70.496094 74.570312 C 70.484375 74.570312 70.472656 74.570312 70.460938 74.574219 C 68.652344 74.902344 67.148438 75.667969 65.941406 76.871094 C 64.738281 78.078125 63.964844 79.589844 63.632812 81.402344 C 63.601562 81.527344 63.683594 81.652344 63.8125 81.679688 C 63.828125 81.683594 63.84375 81.683594 63.859375 81.683594 C 66.121094 81.691406 68.34375 81.679688 70.519531 81.652344 C 70.527344 81.648438 70.558594 81.621094 70.609375 81.574219 Z M 73.238281 81.453125 C 73.289062 81.503906 73.316406 81.53125 73.324219 81.53125 C 75.476562 81.566406 77.671875 81.582031 79.914062 81.582031 C 80.039062 81.582031 80.140625 81.476562 80.140625 81.351562 C 80.140625 81.335938 80.140625 81.320312 80.136719 81.308594 C 79.808594 79.511719 79.054688 78.015625 77.863281 76.820312 C 76.675781 75.621094 75.1875 74.859375 73.402344 74.53125 C 73.277344 74.503906 73.15625 74.585938 73.132812 74.710938 C 73.132812 74.726562 73.128906 74.738281 73.128906 74.753906 C 73.128906 77.007812 73.144531 79.214844 73.171875 81.378906 C 73.171875 81.386719 73.195312 81.410156 73.238281 81.453125 Z M 70.765625 84.175781 C 70.71875 84.128906 70.691406 84.101562 70.683594 84.101562 C 68.421875 84.050781 66.113281 84.015625 63.757812 83.996094 C 63.625 83.996094 63.515625 84.105469 63.519531 84.238281 C 63.519531 84.253906 63.519531 84.269531 63.523438 84.28125 C 63.851562 86.171875 64.632812 87.75 65.871094 89.019531 C 67.109375 90.285156 68.667969 91.101562 70.542969 91.464844 C 70.675781 91.488281 70.800781 91.402344 70.828125 91.269531 C 70.828125 91.257812 70.832031 91.246094 70.832031 91.234375 C 70.851562 88.867188 70.855469 86.542969 70.84375 84.269531 C 70.84375 84.261719 70.816406 84.230469 70.765625 84.175781 Z M 73.1875 84.179688 C 73.136719 84.234375 73.109375 84.265625 73.109375 84.269531 C 73.097656 86.535156 73.101562 88.847656 73.128906 91.203125 C 73.132812 91.335938 73.246094 91.441406 73.378906 91.4375 C 73.390625 91.433594 73.402344 91.433594 73.414062 91.433594 C 75.277344 91.070312 76.824219 90.257812 78.054688 88.992188 C 79.292969 87.730469 80.070312 86.160156 80.390625 84.277344 C 80.414062 84.144531 80.324219 84.019531 80.191406 84 C 80.179688 83.996094 80.167969 83.996094 80.15625 83.996094 C 77.8125 84.015625 75.515625 84.054688 73.261719 84.109375 C 73.253906 84.109375 73.226562 84.132812 73.1875 84.179688 Z M 33.953125 122.210938 L 40.917969 122.210938 C 41.105469 122.210938 41.257812 122.058594 41.257812 121.871094 L 41.257812 110.039062 C 41.257812 107.640625 39.570312 105.699219 37.488281 105.699219 L 37.386719 105.699219 C 35.304688 105.699219 33.617188 107.640625 33.617188 110.039062 L 33.617188 121.871094 C 33.617188 122.058594 33.769531 122.210938 33.953125 122.210938 Z M 103.148438 122.191406 L 110.203125 122.230469 C 110.34375 122.230469 110.457031 122.113281 110.457031 121.972656 L 110.519531 110.089844 C 110.53125 107.746094 108.898438 105.839844 106.867188 105.824219 L 106.664062 105.824219 C 104.628906 105.8125 102.972656 107.703125 102.957031 110.046875 C 102.957031 110.046875 102.957031 110.046875 102.957031 110.050781 L 102.898438 121.9375 C 102.898438 122.074219 103.011719 122.1875 103.148438 122.191406 Z M 64.707031 132.996094 L 79.246094 132.96875 C 79.414062 132.964844 79.550781 132.824219 79.550781 132.65625 L 79.527344 115.816406 C 79.519531 110.988281 76.121094 107.078125 71.9375 107.085938 C 71.933594 107.085938 71.933594 107.085938 71.933594 107.085938 L 71.917969 107.085938 C 67.738281 107.097656 64.355469 111.015625 64.363281 115.839844 L 64.390625 132.679688 C 64.390625 132.855469 64.527344 132.992188 64.699219 132.992188 C 64.703125 132.996094 64.703125 132.996094 64.707031 132.996094 Z M 64.707031 132.996094 " fill-opacity="1" fill-rule="nonzero"/></g><path fill="#191919" d="M 124.308594 92.5 L 124.308594 100.9375 C 124.308594 101.140625 124.144531 101.308594 123.941406 101.308594 C 123.871094 101.308594 123.804688 101.292969 123.746094 101.257812 L 95.019531 84.101562 C 94.90625 84.035156 94.839844 83.914062 94.839844 83.785156 L 94.839844 75.347656 C 94.839844 75.144531 95.003906 74.976562 95.207031 74.976562 C 95.277344 74.972656 95.34375 74.992188 95.402344 75.027344 L 124.128906 92.179688 C 124.242188 92.25 124.308594 92.371094 124.308594 92.5 Z M 124.308594 92.5 " fill-opacity="1" fill-rule="nonzero"/><path fill="#191919" d="M 19.621094 100.867188 L 19.621094 92.417969 C 19.621094 92.296875 19.683594 92.183594 19.785156 92.125 L 48.722656 75.316406 C 48.882812 75.222656 49.089844 75.273438 49.1875 75.4375 C 49.21875 75.488281 49.234375 75.550781 49.234375 75.609375 L 49.234375 84.066406 C 49.234375 84.1875 49.171875 84.296875 49.066406 84.359375 L 20.128906 101.160156 C 19.96875 101.257812 19.761719 101.203125 19.667969 101.042969 C 19.636719 100.988281 19.621094 100.925781 19.621094 100.867188 Z M 19.621094 100.867188 " fill-opacity="1" fill-rule="nonzero"/></svg>