<svg xmlns="http://www.w3.org/2000/svg" width="192" height="192" viewBox="0 0 144 144"><defs><clipPath id="a"><path d="M5 5h134v134H5Zm0 0"/></clipPath><clipPath id="b"><path d="M4.043 15.293v113.414c0 6.211 5.039 11.25 11.25 11.25h113.414c6.211 0 11.25-5.039 11.25-11.25V15.293c0-6.211-5.039-11.25-11.25-11.25H15.293c-6.211 0-11.25 5.039-11.25 11.25m0 0"/></clipPath><clipPath id="c"><path d="M4.043 4.043h135.75v135.75H4.043Zm0 0"/></clipPath><clipPath id="d"><path d="M4.043 15.293v113.414c0 6.211 5.039 11.25 11.25 11.25h113.414c6.211 0 11.25-5.039 11.25-11.25V15.293c0-6.211-5.039-11.25-11.25-11.25H15.293c-6.211 0-11.25 5.039-11.25 11.25m0 0"/></clipPath><clipPath id="e"><path d="M7 116h83v13.898H7Zm0 0"/></clipPath><clipPath id="f"><path d="M114 14.398h20V38h-20Zm0 0"/></clipPath><clipPath id="g"><path d="M27 14.398h89v115.5H27Zm0 0"/></clipPath></defs><path fill="#fff" d="M-14.4-14.4h172.8v172.8H-14.4z"/><path fill="#fff" d="M-14.4-14.4h172.8v172.8H-14.4z"/><g clip-path="url(#a)"><g clip-path="url(#b)"><path fill="#001b3d" d="M138.297 73.156c-.723 1.192-1.957 1.895-3.172 2.574.516.743.496 1.743.266 2.618s-.645 1.691-.88 2.566-.171 2.035.337 2.781c-.7.028-1.286.59-1.57 1.23-.286.645-.329 1.356-.387 2.055-.063.7-.157 1.418-.52 2.016l.016.004c1.004.398 2.047.824 2.758 1.637.207.242.382.511.492.804.246.676.144 1.442-.133 2.102-.277.668-.719 1.246-1.149 1.824.563.559 1.485 1.188 1.743 1.945.16.481.175.997.246 1.5.25 1.782 1.195 3.458 1.136 5.254v.004c-.003.184-.14.34-.296.434-.157.094-.336.144-.496.226-.56.286-.856.922-.973 1.543-.117.618-.098 1.258-.23 1.872-.266 1.253-1.227 2.273-2.063 3.25.457.57.918 1.148 1.176 1.828.261.68.289 1.488-.098 2.105-.473.754-1.61 1.113-2.473 1.34.637.617 1.309 1.297 1.438 2.172.086.61-.102 1.226-.024 1.836.067.523.332 1.008.676 1.41.34.402.758.742 1.168 1.074-.746 1.117-.668 2.715-.32 4.008.351 1.297.969 2.508 1.312 3.805a9.45 9.45 0 0 1-.078 5.074c-2.226.531-4.808.535-6.976-.207-.996-.34-1.95-.809-2.977-1.031-1.031-.223-2.27-.188-3.105.445a3.47 3.47 0 0 0-1.657-1.406c-.793-.32-1.671-.332-2.515-.465-.848-.137-1.785-.5-2.262-1.211a5.8 5.8 0 0 1-1.21 2.43c-.212.246-.466.492-.79.539-.242.035-.484-.047-.71-.137-.864-.34-1.72-.856-2.477-1.39-.45-.024-.856.269-1.168.593-.313.324-.582.703-.961.941-.973.614-2.297.137-3.364.555-.879.34-1.625 1.168-2.105 1.98-.309-.261-.719-.351-1.121-.386-.403-.031-.809-.02-1.203-.11-.59-.128-1.106-.48-1.68-.664-.816-.261-1.711-.183-2.52-.449-.921-.3-1.64-1.015-2.328-1.703-.851.64-1.246.781-2.238 1.176-.398.156-.828.297-1.246.195-.344-.086-.629-.328-.883-.578-.738-.734-1.336-1.684-1.75-2.644-1.082.558-2.426.144-3.586.511-.812.262-1.535.95-1.816 1.754-.586-.558-1.524-.562-2.297-.32-.774.238-1.473.68-2.246.918a4.6 4.6 0 0 1-3.215-.192l.004-.214a5.25 5.25 0 0 1-2.754 3.347c-.379.188-.797.324-1.211.262-.348-.059-.66-.25-.945-.457a9.5 9.5 0 0 1-2.614-2.816c-1.187.203-2.402.406-3.511-.075-.567-.242-1.059-.652-1.637-.867-.906-.336-1.996-.117-2.71.535-.145-.695-.743-1.273-1.388-1.562-.648-.29-1.367-.367-2.074-.442-.703-.074-1.422-.156-2.066-.453-.114 1.031-.528 1.824-1.227 2.594-.281.312-.62.598-1.035.66-.266.043-.54-.016-.8-.086a8.1 8.1 0 0 1-2.638-1.258c-1.289.442-2.058 1.793-3.39 2.094-.625.137-1.297.012-1.922.152-.492.11-.934.368-1.418.512-.852.25-1.82.133-2.582.59-.402-.914-1.383-1.656-2.34-1.93-.562-.164-1.16-.175-1.734-.297-1.098-.234-2.297-1.078-2.961-1.98-.492.457-.582.543-1.164.879-.582.34-1.266.539-1.926.441-.602-.09-1.156-.437-1.543-.906-.39-.469-.707-1.25-.785-1.855-.508.808-1.438 1.308-2.387 1.406-.652.07-1.312-.035-1.953.082-.898.172-1.848.937-2.223 1.766-.793-.586-1.859-.66-2.84-.524-1.574.215-3.039.902-4.57 1.313-1.77.472-4.242.484-5.636-.051a9.4 9.4 0 0 1-.083-5.074c.348-1.297.965-2.508 1.313-3.805.352-1.297.43-2.89-.32-4.008.414-.332.828-.668 1.168-1.074.343-.406.609-.887.675-1.414.082-.606-.109-1.227-.02-1.836.126-.875.798-1.555 1.434-2.168-.863-.223-2-.586-2.472-1.344-.387-.613-.356-1.422-.098-2.101.258-.68.723-1.262 1.176-1.829-.836-.976-1.797-1.992-2.063-3.25-.132-.617-.109-1.253-.23-1.875-.117-.617-.414-1.253-.973-1.539-.16-.082-.34-.136-.496-.23s-.293-.246-.297-.43v-.004c-.062-1.797.883-3.472 1.137-5.254.07-.504.086-1.023.246-1.504.258-.753 1.176-1.378 1.742-1.945-.433-.574-.87-1.156-1.148-1.82s-.383-1.43-.129-2.102c.105-.297.285-.566.492-.804.703-.817 1.754-1.243 2.754-1.637l.016-.004c-.364-.602-.453-1.32-.516-2.016-.062-.699-.105-1.418-.387-2.054-.285-.64-.87-1.203-1.57-1.235.504-.75.566-1.902.332-2.777-.23-.875-.648-1.691-.879-2.57-.226-.875-.246-1.871.266-2.618-1.215-.68-2.45-1.378-3.172-2.57-.274-.445-.461-.98-.367-1.496.07-.39.297-.734.539-1.05q.598-.776 1.367-1.387c.344-.27.71-.524.98-.864s.434-.808.286-1.218c-.079-.688-.055-1.516.164-2.176.242-.742.785-1.356 1.008-2.102.257-.855.058-1.86-.524-2.527.406-.176.832-.36 1.125-.692.262-.3.395-.691.496-1.078.285-1.082.383-2.207.48-3.316.012-.11.02-.23-.038-.324-.059-.094-.418-.188-.489-.102-1.23-.297-2.242-1.367-2.465-2.617-.226-1.25.352-2.602 1.407-3.309-.918-.578-1.567-1.593-1.895-2.629-.332-1.035-.437-2.128-.601-3.203s-.407-2.164-.965-3.097c.875-.657 1.816-1.29 2.105-2.301.215-.734.168-1.527.344-2.277A3.95 3.95 0 0 1 10.5 32.91c-.45-.57-.895-1.312-1.117-2-.227-.691-.23-1.484.144-2.11.473-.792 1.528-1.195 2.43-1.405h.04c-.45-.332-.43-.31-.755-.758-.39-.551-.558-1.227-.66-1.899-.102-.668-.148-1.347-.336-1.996.016-.46-.23-1.012-.617-1.262-.258-.164-.59-.27-.715-.546a.63.63 0 0 1 .059-.563c.101-.164.285-.316.46-.414-.058-1.852-.812-3.602-1.288-5.39-.59-2.2-.77-4.5-.532-6.762 1.403-.535 4.078-.407 5.844.07 1.535.41 3 1.094 4.574 1.313.977.136 2.043.062 2.84-.524.375.832 1.324 1.598 2.223 1.766.64.117 1.3.015 1.953.082.953.097 1.879.597 2.387 1.406.082-.605.398-1.383.785-1.855.39-.47.941-.81 1.543-.907.664-.101 1.343.102 1.925.442.583.336.672.422 1.165.879.668-.903 1.863-1.747 2.96-1.98.575-.122 1.172-.134 1.735-.298.96-.273 1.937-1.011 2.34-1.93.765.454 1.73.336 2.582.59.48.145.926.403 1.418.512.629.137 1.293.016 1.922.152 1.332.297 2.097 1.653 3.39 2.094a8 8 0 0 1 2.637-1.258c.262-.074.535-.129.8-.086.415.063.759.348 1.036.66.695.77 1.113 1.563 1.223 2.594.648-.297 1.367-.379 2.07-.453.707-.074 1.426-.156 2.074-.445s1.242-.867 1.387-1.563a2.7 2.7 0 0 0 2.71.54c.583-.215 1.071-.626 1.637-.868 1.11-.476 2.32-.273 3.512-.074a9.6 9.6 0 0 1 2.61-2.82c.289-.203.597-.395.949-.453.414-.063.836.074 1.21.257A5.27 5.27 0 0 1 75.81 9l-.004-.219a4.65 4.65 0 0 1 3.215-.191c.773.242 1.472.68 2.246.922.773.242 1.703.234 2.293-.32.28.8 1.004 1.492 1.82 1.753 1.16.367 2.504-.047 3.586.508.414-.96 1.008-1.902 1.75-2.64.25-.254.539-.493.883-.579.418-.101.847.036 1.246.196.988.394 1.386.535 2.238 1.175.684-.687 1.402-1.398 2.324-1.703.813-.265 1.711-.187 2.52-.449.574-.183 1.094-.535 1.683-.668.395-.086.801-.07 1.204-.105s.812-.13 1.12-.387c.481.809 1.22 1.644 2.102 1.98 1.074.415 2.399-.062 3.367.555.383.238.649.617.961.942.313.32.719.613 1.168.593.758-.531 1.614-1.05 2.473-1.39.23-.09.473-.172.715-.141.324.047.578.29.789.543.59.7 1.008 1.54 1.21 2.43.477-.711 1.415-1.075 2.259-1.211.847-.133 1.722-.145 2.515-.465a3.47 3.47 0 0 0 1.656-1.406c.84.636 2.079.672 3.11.445 1.027-.223 1.98-.695 2.976-1.031 2.168-.742 4.95-.864 7.18-.332a18.5 18.5 0 0 1-.527 6.758c-.48 1.792-1.239 3.539-1.29 5.394.173.09.352.242.458.414.105.168.14.383.062.559-.125.28-.46.383-.715.547-.386.253-.636.8-.62 1.261-.184.653-.227 1.332-.333 2-.105.668-.27 1.344-.664 1.895-.32.453-.305.43-.75.758h.04c.898.21 1.948.617 2.429 1.41.371.62.371 1.414.144 2.105-.226.692-.668 1.43-1.117 2.004a3.95 3.95 0 0 1 1.832 2.485c.172.746.13 1.535.34 2.277.293 1.004 1.234 1.644 2.11 2.3-.567.93-.801 2.02-.965 3.094-.168 1.075-.27 2.168-.602 3.204-.332 1.039-.973 2.05-1.898 2.632 1.058.703 1.632 2.059 1.41 3.309-.223 1.246-1.235 2.32-2.469 2.617-.066-.086-.426.004-.484.102-.055.093-.047.207-.04.32.098 1.117.2 2.234.481 3.316.102.387.23.778.496 1.079.293.335.715.52 1.125.69-.586.669-.781 1.677-.523 2.528.219.75.765 1.364 1.008 2.102.218.66.242 1.484.16 2.176-.145.41.015.879.289 1.222.27.34.637.59.98.864.504.406.965.87 1.367 1.382.243.317.47.664.54 1.055.074.512-.114 1.043-.391 1.492m0 0"/></g></g><g clip-path="url(#c)"><g clip-path="url(#d)"><path fill="#fff" d="M4.043 4.043h135.902v135.902H4.043Zm0 0"/></g></g><g clip-path="url(#e)"><path d="M89.746 129.91H22.06c-7.672 0-14.004-5.808-14.899-13.285h75c.524 5.465 3.399 10.219 7.586 13.285m0 0"/></g><path d="M129.71 80.262a1.79 1.79 0 0 1 1.72-1.305h5.175v-6.95h-5.175c-.79 0-1.493-.538-1.72-1.308a17 17 0 0 0-1.573-3.773 1.816 1.816 0 0 1 .297-2.168l3.664-3.68-4.907-4.922-3.648 3.676a1.77 1.77 0 0 1-2.137.3 18 18 0 0 0-3.793-1.57 1.82 1.82 0 0 1-1.3-1.738v-5.199h-6.918v5.2c0 .804-.54 1.51-1.301 1.737-1.301.372-2.578.899-3.793 1.57a1.75 1.75 0 0 1-2.125-.3l-3.66-3.676-4.903 4.922 3.672 3.68c.563.574.68 1.46.285 2.168a17.6 17.6 0 0 0-1.574 3.773 1.8 1.8 0 0 1-1.715 1.309h-5.18v6.949h5.18c.797 0 1.5.527 1.715 1.305a18.6 18.6 0 0 0 1.574 3.797 1.796 1.796 0 0 1-.285 2.144l-3.672 3.692 4.903 4.91 3.671-3.688a1.784 1.784 0 0 1 2.149-.289c1.144.66 2.41 1.188 3.758 1.582a1.78 1.78 0 0 1 1.3 1.727v5.199h6.918v-5.2c0-.804.54-1.511 1.301-1.726a17.2 17.2 0 0 0 3.758-1.582 1.786 1.786 0 0 1 2.16.29l3.66 3.687 4.907-4.91-3.664-3.692a1.78 1.78 0 0 1-.297-2.144 18 18 0 0 0 1.574-3.797m-6.394-3.2c-.226 1.676-.918 3.344-1.98 4.77a10.3 10.3 0 0 1-2.172 2.18 10.2 10.2 0 0 1-4.809 1.976 8.5 8.5 0 0 1-1.5.121h-.039c-.523 0-1.035-.05-1.527-.132-1.68-.215-3.352-.91-4.758-1.989a9.7 9.7 0 0 1-2.172-2.18 10.3 10.3 0 0 1-1.968-4.816 8.6 8.6 0 0 1-.118-1.512c0-.539.036-1.066.118-1.57.226-1.676.918-3.355 2.004-4.793a10.3 10.3 0 0 1 2.148-2.156 10.2 10.2 0 0 1 4.82-1.988c.883-.157 2.04-.157 3.055.011 1.68.227 3.352.91 4.77 1.989.789.59 1.515 1.32 2.136 2.144a10.5 10.5 0 0 1 2.004 4.856 9.8 9.8 0 0 1-.012 3.09m0 0"/><g clip-path="url(#f)"><path d="M133.863 24.047v13.191h-19.218V24.047c0-5.32 4.304-9.66 9.613-9.66 5.297 0 9.605 4.34 9.605 9.66m0 0"/></g><g clip-path="url(#g)"><path d="M39.738 14.387c-6.777 0-12.297 5.535-12.297 12.328v86.316h56.41c.993 0 1.794.801 1.794 1.797 0 8.004 6.238 14.559 14.085 15.035 6.336-.441 11.332-5.82 11.332-12.281V102.93h-3.457c-.992 0-1.789-.801-1.789-1.797V95.44a19 19 0 0 1-2.027-.851l-4.012 4.027a1.77 1.77 0 0 1-2.527 0l-7.434-7.453a1.804 1.804 0 0 1 0-2.539l4.012-4.027a19 19 0 0 1-.848-2.047h-5.668c-.988 0-1.789-.805-1.789-1.797V70.207c0-.992.801-1.797 1.79-1.797h5.667c.25-.707.524-1.387.848-2.047l-4.012-4.015a1.85 1.85 0 0 1-.523-1.282c0-.464.191-.933.523-1.27l7.434-7.452a1.79 1.79 0 0 1 2.527 0l4 4.027a21 21 0 0 1 2.04-.851v-5.692c0-.98.796-1.797 1.788-1.797h3.457V24.047c0-3.813 1.626-7.238 4.188-9.66Zm35.848 12.761c0-.515.383-.933.848-.933h5.808c.465 0 .848.418.848.933s-.383.934-.848.934h-3.758c-.476 0-.859.406-.859.922v.59c0 .511.383.933.86.933h3.374c.47 0 .848.407.848.922s-.379.934-.848.934h-3.375c-.476 0-.859.406-.859.922v1.14c0 .516.383.934.86.934h3.949c.464 0 .847.406.847.922 0 .515-.383.933-.847.933h-6c-.465 0-.848-.418-.848-.933Zm-7.836 6.579.262-.036c.441-.05.836.274.93.743.046.203.109.37.167.492.227.394.559.597 1.012.597q.68 0 .969-.433.286-.411.285-1.758v-6.184c0-.515.383-.933.848-.933h.332c.468 0 .86.418.86.933v6.04c0 .91-.083 1.617-.228 2.109a3.07 3.07 0 0 1-1.074 1.543c-.523.383-1.203.574-2.062.574-1 0-1.766-.297-2.301-.91-.395-.43-.633-1.016-.754-1.746-.07-.504.29-.973.754-1.031m-10.988-4.758c.226-.563.55-1.067.941-1.508.406-.457.836-.781 1.313-.996.632-.29 1.359-.442 2.183-.442 1.492 0 2.684.512 3.578 1.52.895 1.008 1.348 2.398 1.348 4.195 0 1.785-.453 3.172-1.336 4.18-.894.996-2.074 1.496-3.566 1.496-1.504 0-2.696-.488-3.59-1.496-.883-.996-1.336-2.371-1.336-4.121 0-1.125.156-2.074.465-2.828m-10.258-1.82c0-.516.379-.934.86-.934h3.445c1.086 0 1.875.094 2.363.297.488.191.883.55 1.18 1.054.285.504.441 1.09.441 1.739 0 .828-.227 1.508-.68 2.05-.441.54-1.11.872-2.004 1.016.453.277.813.59 1.098.922.285.336.68.937 1.168 1.785l.418.734c.36.622-.047 1.426-.727 1.426h-.441a.85.85 0 0 1-.715-.422l-1.219-1.976c-.523-.863-.882-1.403-1.086-1.63a1.7 1.7 0 0 0-.609-.456c-.215-.082-.559-.117-1.035-.117h-.406V36.3c0 .515-.383.937-.86.937h-.332c-.48 0-.86-.422-.86-.937Zm-9.438 0c0-.516.383-.934.848-.934h2.434q1.858.002 2.433.168c.57.168 1.063.527 1.453 1.078.395.55.586 1.27.586 2.144 0 .668-.105 1.247-.332 1.7-.226.468-.515.828-.86 1.09a2.8 2.8 0 0 1-1.062.527c-.488.098-1.195.156-2.125.156h-.476c-.477 0-.86.406-.86.922v2.3c0 .516-.378.934-.847.934h-.344c-.465 0-.848-.418-.848-.933ZM35.277 46.64c0-.993.801-1.797 1.79-1.797h31.48c.992 0 1.789.804 1.789 1.797v12.617c0 .996-.797 1.797-1.79 1.797h-31.48c-.988 0-1.789-.801-1.789-1.797Zm1.79 23.71h40.406c.988 0 1.789.805 1.789 1.797 0 .997-.801 1.797-1.79 1.797H37.067c-.988 0-1.789-.8-1.789-1.797 0-.992.801-1.796 1.79-1.796m0 13.934H79.44c.989 0 1.79.805 1.79 1.8 0 .993-.801 1.798-1.79 1.798H37.066c-.988 0-1.789-.805-1.789-1.797 0-.996.801-1.8 1.79-1.8m51.882 13.926c.989 0 1.79.8 1.79 1.797 0 .992-.802 1.797-1.79 1.797H37.066c-.988 0-1.789-.805-1.789-1.797 0-.996.801-1.797 1.79-1.797Zm4.235-63.406c-.313.742-.707 1.316-1.22 1.738-.702.586-1.597.875-2.694.875-1.336 0-2.446-.492-3.305-1.5-.871-.992-1.3-2.36-1.3-4.098 0-1.832.429-3.258 1.3-4.277.87-1.008 2.015-1.52 3.437-1.52 1.239 0 2.243.407 3.016 1.196.238.254.453.55.633.926.261.539 0 1.207-.547 1.351l-.324.086c-.371.094-.785-.062-.953-.434a2.1 2.1 0 0 0-.551-.718c-.38-.336-.832-.504-1.383-.504-.75 0-1.36.3-1.824.887-.465.578-.703 1.535-.703 2.84 0 1.402.238 2.386.691 2.984.465.586 1.063.886 1.8.886.536 0 1-.191 1.395-.562a2.75 2.75 0 0 0 .621-.996.83.83 0 0 1 1.04-.504l.332.121c.464.156.73.73.539 1.223m8.515-6.723h-1.289c-.465 0-.847.406-.847.922V36.3c0 .515-.38.933-.856.933h-.336c-.476 0-.86-.418-.86-.933v-7.297c0-.516-.382-.922-.847-.922h-1.297c-.48 0-.86-.418-.86-.934 0-.515.38-.933.86-.933h6.332c.477 0 .86.418.86.933s-.383.934-.86.934m0 0"/></g><path d="M111.063 68.7v13.573a6.8 6.8 0 0 1-2.407-1.171 6.5 6.5 0 0 1-1.422-1.426 6.9 6.9 0 0 1-1.312-3.223c-.047-.3-.07-.637-.07-.973s.023-.66.082-1.03a6.84 6.84 0 0 1 1.324-3.173 6.7 6.7 0 0 1 1.422-1.43c.703-.538 1.5-.921 2.382-1.148M119.867 75.48c0 .336-.035.672-.094 1.032a6.7 6.7 0 0 1-1.312 3.175 6.6 6.6 0 0 1-1.434 1.438 6.65 6.65 0 0 1-2.382 1.148V68.688c.859.226 1.668.609 2.394 1.16q.809.614 1.434 1.43a6.9 6.9 0 0 1 1.312 3.234c.047.308.082.633.082.968M42.723 29.64c0 .325-.086.61-.243.852-.152.25-.367.43-.628.54-.278.116-.813.179-1.625.179h-.262c-.477 0-.86-.422-.86-.938v-1.27c0-.515.383-.921.86-.921h.133q1.107-.001 1.465.074c.335.059.609.227.824.489.215.265.336.59.336.996M52.684 29.45c0 .323-.075.597-.204.823a1.2 1.2 0 0 1-.574.47c-.25.085-.86.132-1.836.132h-.668c-.465 0-.847-.422-.847-.922v-.95c0-.51.383-.921.847-.921h.739q1.253 0 1.504.035c.32.063.585.207.761.434.18.226.278.527.278.898M64.016 31.688q.001 1.908-.79 2.878c-.523.633-1.19.957-2.003.957-.825 0-1.493-.324-2.016-.972q-.801-.967-.8-2.836c0-1.262.265-2.219.777-2.84.511-.637 1.191-.95 2.039-.95.836 0 1.515.313 2.027.938.504.621.766 1.555.766 2.825M66.758 48.438H38.855v9.023h27.903Zm0 0"/></svg>