<svg xmlns="http://www.w3.org/2000/svg" xmlns:xlink="http://www.w3.org/1999/xlink" width="192" zoomAndPan="magnify" viewBox="0 0 144 143.999998" height="192" preserveAspectRatio="xMidYMid meet" version="1.0"><defs><clipPath id="241cf42488"><path d="M 5 5 L 139 5 L 139 139 L 5 139 Z M 5 5 " clip-rule="nonzero"/></clipPath><clipPath id="e28e5041df"><path d="M 4.042969 15.292969 L 4.042969 128.707031 C 4.042969 134.917969 9.082031 139.957031 15.292969 139.957031 L 128.707031 139.957031 C 134.917969 139.957031 139.957031 134.917969 139.957031 128.707031 L 139.957031 15.292969 C 139.957031 9.082031 134.917969 4.042969 128.707031 4.042969 L 15.292969 4.042969 C 9.082031 4.042969 4.042969 9.082031 4.042969 15.292969 Z M 4.042969 15.292969 " clip-rule="nonzero"/></clipPath><clipPath id="69ed4bd1e4"><path d="M 4.042969 4.042969 L 139.792969 4.042969 L 139.792969 139.792969 L 4.042969 139.792969 Z M 4.042969 4.042969 " clip-rule="nonzero"/></clipPath><clipPath id="42dff6f77d"><path d="M 4.042969 15.292969 L 4.042969 128.707031 C 4.042969 134.917969 9.082031 139.957031 15.292969 139.957031 L 128.707031 139.957031 C 134.917969 139.957031 139.957031 134.917969 139.957031 128.707031 L 139.957031 15.292969 C 139.957031 9.082031 134.917969 4.042969 128.707031 4.042969 L 15.292969 4.042969 C 9.082031 4.042969 4.042969 9.082031 4.042969 15.292969 Z M 4.042969 15.292969 " clip-rule="nonzero"/></clipPath><clipPath id="e6132fabdd"><path d="M 7 116 L 90 116 L 90 129.898438 L 7 129.898438 Z M 7 116 " clip-rule="nonzero"/></clipPath><clipPath id="84b45e4537"><path d="M 114 14.398438 L 134 14.398438 L 134 38 L 114 38 Z M 114 14.398438 " clip-rule="nonzero"/></clipPath><clipPath id="fe0d2f2677"><path d="M 27 14.398438 L 116 14.398438 L 116 129.898438 L 27 129.898438 Z M 27 14.398438 " clip-rule="nonzero"/></clipPath></defs><rect x="-14.4" width="172.8" fill="#ffffff" y="-14.4" height="172.799997" fill-opacity="1"/><rect x="-14.4" width="172.8" fill="#ffffff" y="-14.4" height="172.799997" fill-opacity="1"/><g clip-path="url(#241cf42488)"><g clip-path="url(#e28e5041df)"><path fill="#001b3d" d="M 138.296875 73.15625 C 137.574219 74.347656 136.339844 75.050781 135.125 75.730469 C 135.640625 76.472656 135.621094 77.472656 135.390625 78.347656 C 135.160156 79.222656 134.746094 80.039062 134.511719 80.914062 C 134.277344 81.789062 134.339844 82.949219 134.847656 83.695312 C 134.148438 83.722656 133.5625 84.285156 133.277344 84.925781 C 132.992188 85.570312 132.949219 86.28125 132.890625 86.980469 C 132.828125 87.679688 132.734375 88.398438 132.371094 88.996094 L 132.386719 89 C 133.390625 89.398438 134.433594 89.824219 135.144531 90.636719 C 135.351562 90.878906 135.527344 91.148438 135.636719 91.441406 C 135.882812 92.117188 135.78125 92.882812 135.503906 93.542969 C 135.226562 94.210938 134.785156 94.789062 134.355469 95.367188 C 134.917969 95.925781 135.839844 96.554688 136.097656 97.3125 C 136.257812 97.792969 136.273438 98.308594 136.34375 98.8125 C 136.59375 100.59375 137.539062 102.269531 137.480469 104.066406 L 137.480469 104.070312 C 137.476562 104.253906 137.339844 104.410156 137.183594 104.503906 C 137.027344 104.597656 136.847656 104.648438 136.6875 104.730469 C 136.128906 105.015625 135.832031 105.652344 135.714844 106.273438 C 135.597656 106.890625 135.617188 107.53125 135.484375 108.144531 C 135.21875 109.398438 134.257812 110.417969 133.421875 111.394531 C 133.878906 111.964844 134.339844 112.542969 134.597656 113.222656 C 134.859375 113.902344 134.886719 114.710938 134.5 115.328125 C 134.027344 116.082031 132.890625 116.441406 132.027344 116.667969 C 132.664062 117.285156 133.335938 117.964844 133.464844 118.839844 C 133.550781 119.449219 133.363281 120.066406 133.441406 120.675781 C 133.507812 121.199219 133.773438 121.683594 134.117188 122.085938 C 134.457031 122.488281 134.875 122.828125 135.285156 123.160156 C 134.539062 124.277344 134.617188 125.875 134.964844 127.167969 C 135.316406 128.464844 135.933594 129.675781 136.277344 130.972656 C 136.714844 132.628906 136.6875 134.40625 136.199219 136.046875 C 133.972656 136.578125 131.390625 136.582031 129.222656 135.839844 C 128.226562 135.5 127.273438 135.03125 126.246094 134.808594 C 125.214844 134.585938 123.976562 134.621094 123.140625 135.253906 C 122.757812 134.625 122.167969 134.121094 121.484375 133.847656 C 120.691406 133.527344 119.8125 133.515625 118.96875 133.382812 C 118.121094 133.246094 117.183594 132.882812 116.707031 132.171875 C 116.503906 133.0625 116.085938 133.902344 115.496094 134.601562 C 115.285156 134.847656 115.03125 135.09375 114.707031 135.140625 C 114.464844 135.175781 114.222656 135.09375 113.996094 135.003906 C 113.132812 134.664062 112.277344 134.148438 111.519531 133.613281 C 111.070312 133.589844 110.664062 133.882812 110.351562 134.207031 C 110.039062 134.53125 109.769531 134.910156 109.390625 135.148438 C 108.417969 135.761719 107.09375 135.285156 106.027344 135.703125 C 105.148438 136.042969 104.402344 136.871094 103.921875 137.683594 C 103.613281 137.421875 103.203125 137.332031 102.800781 137.296875 C 102.398438 137.265625 101.992188 137.277344 101.597656 137.1875 C 101.007812 137.058594 100.492188 136.707031 99.917969 136.523438 C 99.101562 136.261719 98.207031 136.339844 97.398438 136.074219 C 96.476562 135.773438 95.757812 135.058594 95.070312 134.371094 C 94.21875 135.011719 93.824219 135.152344 92.832031 135.546875 C 92.433594 135.703125 92.003906 135.84375 91.585938 135.742188 C 91.242188 135.65625 90.957031 135.414062 90.703125 135.164062 C 89.964844 134.429688 89.367188 133.480469 88.953125 132.519531 C 87.871094 133.078125 86.527344 132.664062 85.367188 133.03125 C 84.554688 133.292969 83.832031 133.980469 83.550781 134.785156 C 82.964844 134.226562 82.027344 134.222656 81.253906 134.464844 C 80.480469 134.703125 79.78125 135.144531 79.007812 135.382812 C 77.960938 135.707031 76.796875 135.640625 75.792969 135.191406 L 75.796875 134.976562 C 75.417969 136.417969 74.386719 137.675781 73.042969 138.324219 C 72.664062 138.511719 72.246094 138.648438 71.832031 138.585938 C 71.484375 138.527344 71.171875 138.335938 70.886719 138.128906 C 69.835938 137.382812 68.941406 136.417969 68.273438 135.3125 C 67.085938 135.515625 65.871094 135.71875 64.761719 135.238281 C 64.195312 134.996094 63.703125 134.585938 63.125 134.371094 C 62.21875 134.035156 61.128906 134.253906 60.414062 134.90625 C 60.269531 134.210938 59.671875 133.632812 59.027344 133.34375 C 58.378906 133.054688 57.660156 132.976562 56.953125 132.902344 C 56.25 132.828125 55.53125 132.746094 54.886719 132.449219 C 54.773438 133.480469 54.359375 134.273438 53.660156 135.042969 C 53.378906 135.355469 53.039062 135.640625 52.625 135.703125 C 52.359375 135.746094 52.085938 135.6875 51.824219 135.617188 C 50.878906 135.363281 49.980469 134.933594 49.1875 134.359375 C 47.898438 134.800781 47.128906 136.152344 45.796875 136.453125 C 45.171875 136.589844 44.5 136.464844 43.875 136.605469 C 43.382812 136.714844 42.941406 136.972656 42.457031 137.117188 C 41.605469 137.367188 40.636719 137.25 39.875 137.707031 C 39.472656 136.792969 38.492188 136.050781 37.535156 135.777344 C 36.972656 135.613281 36.375 135.601562 35.800781 135.480469 C 34.703125 135.246094 33.503906 134.402344 32.839844 133.5 C 32.347656 133.957031 32.257812 134.042969 31.675781 134.378906 C 31.09375 134.71875 30.410156 134.917969 29.75 134.820312 C 29.148438 134.730469 28.59375 134.382812 28.207031 133.914062 C 27.816406 133.445312 27.5 132.664062 27.421875 132.058594 C 26.914062 132.867188 25.984375 133.367188 25.035156 133.464844 C 24.382812 133.535156 23.722656 133.429688 23.082031 133.546875 C 22.183594 133.71875 21.234375 134.484375 20.859375 135.3125 C 20.066406 134.726562 19 134.652344 18.019531 134.789062 C 16.445312 135.003906 14.980469 135.691406 13.449219 136.101562 C 11.679688 136.574219 9.207031 136.585938 7.8125 136.050781 C 7.320312 134.410156 7.292969 132.632812 7.730469 130.976562 C 8.078125 129.679688 8.695312 128.46875 9.042969 127.171875 C 9.394531 125.875 9.472656 124.28125 8.722656 123.164062 C 9.136719 122.832031 9.550781 122.496094 9.890625 122.089844 C 10.234375 121.683594 10.5 121.203125 10.566406 120.675781 C 10.648438 120.070312 10.457031 119.449219 10.546875 118.839844 C 10.671875 117.964844 11.34375 117.285156 11.980469 116.671875 C 11.117188 116.449219 9.980469 116.085938 9.507812 115.328125 C 9.121094 114.714844 9.152344 113.90625 9.410156 113.226562 C 9.667969 112.546875 10.132812 111.964844 10.585938 111.398438 C 9.75 110.421875 8.789062 109.40625 8.523438 108.148438 C 8.390625 107.53125 8.414062 106.894531 8.292969 106.273438 C 8.175781 105.65625 7.878906 105.019531 7.320312 104.734375 C 7.160156 104.652344 6.980469 104.597656 6.824219 104.503906 C 6.667969 104.410156 6.53125 104.257812 6.527344 104.074219 L 6.527344 104.070312 C 6.464844 102.273438 7.410156 100.597656 7.664062 98.816406 C 7.734375 98.3125 7.75 97.792969 7.910156 97.3125 C 8.167969 96.558594 9.085938 95.933594 9.652344 95.367188 C 9.21875 94.792969 8.78125 94.210938 8.503906 93.546875 C 8.226562 92.882812 8.121094 92.117188 8.375 91.445312 C 8.480469 91.148438 8.660156 90.878906 8.867188 90.640625 C 9.570312 89.824219 10.621094 89.398438 11.621094 89.003906 L 11.636719 89 C 11.273438 88.398438 11.183594 87.679688 11.121094 86.984375 C 11.058594 86.285156 11.015625 85.566406 10.734375 84.929688 C 10.449219 84.289062 9.863281 83.726562 9.164062 83.695312 C 9.667969 82.945312 9.730469 81.792969 9.496094 80.917969 C 9.265625 80.042969 8.847656 79.226562 8.617188 78.347656 C 8.390625 77.472656 8.371094 76.476562 8.882812 75.730469 C 7.667969 75.050781 6.433594 74.351562 5.710938 73.160156 C 5.4375 72.714844 5.25 72.179688 5.34375 71.664062 C 5.414062 71.273438 5.640625 70.929688 5.882812 70.613281 C 6.28125 70.097656 6.738281 69.632812 7.25 69.226562 C 7.59375 68.957031 7.960938 68.703125 8.230469 68.363281 C 8.5 68.023438 8.664062 67.554688 8.515625 67.144531 C 8.4375 66.457031 8.460938 65.628906 8.679688 64.96875 C 8.921875 64.226562 9.464844 63.613281 9.6875 62.867188 C 9.945312 62.011719 9.746094 61.007812 9.164062 60.339844 C 9.570312 60.164062 9.996094 59.980469 10.289062 59.648438 C 10.550781 59.347656 10.683594 58.957031 10.785156 58.570312 C 11.070312 57.488281 11.167969 56.363281 11.265625 55.253906 C 11.277344 55.144531 11.285156 55.023438 11.226562 54.929688 C 11.167969 54.835938 10.808594 54.742188 10.738281 54.828125 C 9.507812 54.53125 8.496094 53.460938 8.273438 52.210938 C 8.046875 50.960938 8.625 49.609375 9.679688 48.902344 C 8.761719 48.324219 8.113281 47.308594 7.785156 46.273438 C 7.453125 45.238281 7.347656 44.144531 7.183594 43.070312 C 7.019531 41.996094 6.777344 40.90625 6.21875 39.972656 C 7.09375 39.316406 8.035156 38.683594 8.324219 37.671875 C 8.539062 36.9375 8.492188 36.144531 8.667969 35.394531 C 8.90625 34.363281 9.585938 33.445312 10.5 32.910156 C 10.050781 32.339844 9.605469 31.597656 9.382812 30.910156 C 9.15625 30.21875 9.152344 29.425781 9.527344 28.800781 C 10 28.007812 11.054688 27.605469 11.957031 27.394531 L 11.996094 27.394531 C 11.546875 27.0625 11.566406 27.085938 11.242188 26.636719 C 10.851562 26.085938 10.683594 25.410156 10.582031 24.738281 C 10.480469 24.070312 10.433594 23.390625 10.246094 22.742188 C 10.261719 22.28125 10.015625 21.730469 9.628906 21.480469 C 9.371094 21.316406 9.039062 21.210938 8.914062 20.933594 C 8.835938 20.75 8.871094 20.539062 8.972656 20.371094 C 9.074219 20.207031 9.257812 20.054688 9.433594 19.957031 C 9.375 18.105469 8.621094 16.355469 8.144531 14.566406 C 7.554688 12.367188 7.375 10.066406 7.613281 7.804688 C 9.015625 7.269531 11.691406 7.398438 13.457031 7.875 C 14.992188 8.285156 16.457031 8.96875 18.03125 9.1875 C 19.007812 9.324219 20.074219 9.25 20.871094 8.664062 C 21.246094 9.496094 22.195312 10.261719 23.09375 10.429688 C 23.734375 10.546875 24.394531 10.445312 25.046875 10.511719 C 26 10.609375 26.925781 11.109375 27.433594 11.917969 C 27.515625 11.3125 27.832031 10.535156 28.21875 10.0625 C 28.609375 9.59375 29.160156 9.253906 29.761719 9.15625 C 30.425781 9.054688 31.105469 9.257812 31.6875 9.597656 C 32.269531 9.933594 32.359375 10.019531 32.851562 10.476562 C 33.519531 9.574219 34.714844 8.730469 35.8125 8.496094 C 36.386719 8.375 36.984375 8.363281 37.546875 8.199219 C 38.507812 7.925781 39.484375 7.1875 39.886719 6.269531 C 40.652344 6.722656 41.617188 6.605469 42.46875 6.859375 C 42.949219 7.003906 43.394531 7.261719 43.886719 7.371094 C 44.515625 7.507812 45.179688 7.386719 45.808594 7.523438 C 47.140625 7.820312 47.90625 9.175781 49.199219 9.617188 C 49.992188 9.042969 50.890625 8.609375 51.835938 8.359375 C 52.097656 8.285156 52.371094 8.230469 52.636719 8.273438 C 53.050781 8.335938 53.394531 8.621094 53.671875 8.933594 C 54.367188 9.703125 54.785156 10.496094 54.894531 11.527344 C 55.542969 11.230469 56.261719 11.148438 56.964844 11.074219 C 57.671875 11 58.390625 10.917969 59.039062 10.628906 C 59.6875 10.339844 60.28125 9.761719 60.425781 9.066406 C 61.140625 9.726562 62.226562 9.941406 63.136719 9.605469 C 63.71875 9.390625 64.207031 8.980469 64.773438 8.738281 C 65.882812 8.261719 67.09375 8.464844 68.285156 8.664062 C 68.953125 7.558594 69.847656 6.597656 70.894531 5.84375 C 71.183594 5.640625 71.492188 5.449219 71.84375 5.390625 C 72.257812 5.328125 72.679688 5.464844 73.054688 5.648438 C 74.398438 6.300781 75.429688 7.558594 75.808594 9 L 75.804688 8.78125 C 76.808594 8.335938 77.972656 8.269531 79.019531 8.589844 C 79.792969 8.832031 80.492188 9.269531 81.265625 9.511719 C 82.039062 9.753906 82.96875 9.746094 83.558594 9.191406 C 83.839844 9.992188 84.5625 10.683594 85.378906 10.945312 C 86.539062 11.3125 87.882812 10.898438 88.964844 11.453125 C 89.378906 10.492188 89.972656 9.550781 90.714844 8.8125 C 90.964844 8.558594 91.253906 8.320312 91.597656 8.234375 C 92.015625 8.132812 92.445312 8.269531 92.84375 8.429688 C 93.832031 8.824219 94.230469 8.964844 95.082031 9.605469 C 95.765625 8.917969 96.484375 8.207031 97.40625 7.902344 C 98.21875 7.636719 99.117188 7.714844 99.925781 7.453125 C 100.5 7.269531 101.019531 6.917969 101.609375 6.785156 C 102.003906 6.699219 102.410156 6.714844 102.8125 6.679688 C 103.214844 6.644531 103.625 6.550781 103.933594 6.292969 C 104.414062 7.101562 105.152344 7.9375 106.035156 8.273438 C 107.109375 8.6875 108.433594 8.210938 109.402344 8.828125 C 109.785156 9.066406 110.050781 9.445312 110.363281 9.769531 C 110.675781 10.089844 111.082031 10.382812 111.53125 10.363281 C 112.289062 9.832031 113.144531 9.3125 114.003906 8.972656 C 114.234375 8.882812 114.476562 8.800781 114.71875 8.832031 C 115.042969 8.878906 115.296875 9.121094 115.507812 9.375 C 116.097656 10.074219 116.515625 10.914062 116.71875 11.804688 C 117.195312 11.09375 118.132812 10.730469 118.976562 10.59375 C 119.824219 10.460938 120.699219 10.449219 121.492188 10.128906 C 122.175781 9.855469 122.765625 9.351562 123.148438 8.722656 C 123.988281 9.359375 125.226562 9.394531 126.257812 9.167969 C 127.285156 8.945312 128.238281 8.472656 129.234375 8.136719 C 131.402344 7.394531 134.183594 7.273438 136.414062 7.804688 C 136.65625 10.066406 136.476562 12.367188 135.886719 14.5625 C 135.40625 16.355469 134.648438 18.101562 134.597656 19.957031 C 134.769531 20.046875 134.949219 20.199219 135.054688 20.371094 C 135.160156 20.539062 135.195312 20.753906 135.117188 20.929688 C 134.992188 21.210938 134.65625 21.3125 134.402344 21.476562 C 134.015625 21.730469 133.765625 22.277344 133.78125 22.738281 C 133.597656 23.390625 133.554688 24.070312 133.449219 24.738281 C 133.34375 25.40625 133.179688 26.082031 132.785156 26.632812 C 132.464844 27.085938 132.480469 27.0625 132.035156 27.390625 L 132.074219 27.390625 C 132.972656 27.601562 134.023438 28.007812 134.503906 28.800781 C 134.875 29.421875 134.875 30.214844 134.648438 30.90625 C 134.421875 31.597656 133.980469 32.335938 133.53125 32.910156 C 134.441406 33.441406 135.125 34.363281 135.363281 35.394531 C 135.535156 36.140625 135.492188 36.929688 135.703125 37.671875 C 135.996094 38.675781 136.9375 39.316406 137.8125 39.972656 C 137.246094 40.902344 137.011719 41.992188 136.847656 43.066406 C 136.679688 44.140625 136.578125 45.234375 136.246094 46.269531 C 135.914062 47.308594 135.273438 48.320312 134.347656 48.902344 C 135.40625 49.605469 135.980469 50.960938 135.757812 52.210938 C 135.535156 53.457031 134.523438 54.53125 133.289062 54.828125 C 133.222656 54.742188 132.863281 54.832031 132.804688 54.929688 C 132.75 55.023438 132.757812 55.136719 132.765625 55.25 C 132.863281 56.367188 132.964844 57.484375 133.246094 58.566406 C 133.347656 58.953125 133.476562 59.34375 133.742188 59.644531 C 134.035156 59.980469 134.457031 60.164062 134.867188 60.335938 C 134.28125 61.003906 134.085938 62.011719 134.34375 62.863281 C 134.5625 63.613281 135.109375 64.226562 135.351562 64.964844 C 135.570312 65.625 135.59375 66.449219 135.511719 67.140625 C 135.367188 67.550781 135.527344 68.019531 135.800781 68.363281 C 136.070312 68.703125 136.4375 68.953125 136.78125 69.226562 C 137.285156 69.632812 137.746094 70.097656 138.148438 70.609375 C 138.390625 70.925781 138.617188 71.273438 138.6875 71.664062 C 138.761719 72.175781 138.574219 72.707031 138.296875 73.15625 Z M 138.296875 73.15625 " fill-opacity="1" fill-rule="nonzero"/></g></g><g clip-path="url(#69ed4bd1e4)"><g clip-path="url(#42dff6f77d)"><path fill="#ffffff" d="M 4.042969 4.042969 L 139.945312 4.042969 L 139.945312 139.945312 L 4.042969 139.945312 Z M 4.042969 4.042969 " fill-opacity="1" fill-rule="nonzero"/></g></g><g clip-path="url(#e6132fabdd)"><path fill="#000000" d="M 89.746094 129.910156 L 22.058594 129.910156 C 14.386719 129.910156 8.054688 124.101562 7.160156 116.625 L 82.160156 116.625 C 82.683594 122.089844 85.558594 126.84375 89.746094 129.910156 Z M 89.746094 129.910156 " fill-opacity="1" fill-rule="nonzero"/></g><path fill="#000000" d="M 129.710938 80.261719 C 129.9375 79.484375 130.628906 78.957031 131.429688 78.957031 L 136.605469 78.957031 L 136.605469 72.007812 L 131.429688 72.007812 C 130.640625 72.007812 129.9375 71.46875 129.710938 70.699219 C 129.328125 69.347656 128.792969 68.078125 128.136719 66.925781 C 127.742188 66.21875 127.859375 65.332031 128.433594 64.757812 L 132.097656 61.078125 L 127.191406 56.15625 L 123.542969 59.832031 C 122.96875 60.410156 122.097656 60.527344 121.40625 60.132812 C 120.191406 59.460938 118.914062 58.933594 117.613281 58.5625 C 116.851562 58.335938 116.3125 57.628906 116.3125 56.824219 L 116.3125 51.625 L 109.394531 51.625 L 109.394531 56.824219 C 109.394531 57.628906 108.855469 58.335938 108.09375 58.5625 C 106.792969 58.933594 105.515625 59.460938 104.300781 60.132812 C 103.609375 60.527344 102.738281 60.410156 102.175781 59.832031 L 98.515625 56.15625 L 93.613281 61.078125 L 97.285156 64.757812 C 97.847656 65.332031 97.964844 66.21875 97.570312 66.925781 C 96.914062 68.078125 96.390625 69.347656 95.996094 70.699219 C 95.769531 71.46875 95.078125 72.007812 94.28125 72.007812 L 89.101562 72.007812 L 89.101562 78.957031 L 94.28125 78.957031 C 95.078125 78.957031 95.78125 79.484375 95.996094 80.261719 C 96.378906 81.578125 96.902344 82.847656 97.570312 84.058594 C 97.964844 84.753906 97.847656 85.640625 97.285156 86.203125 L 93.613281 89.894531 L 98.515625 94.804688 L 102.1875 91.117188 C 102.75 90.542969 103.632812 90.433594 104.335938 90.828125 C 105.480469 91.488281 106.746094 92.015625 108.09375 92.410156 C 108.871094 92.625 109.394531 93.332031 109.394531 94.136719 L 109.394531 99.335938 L 116.3125 99.335938 L 116.3125 94.136719 C 116.3125 93.332031 116.851562 92.625 117.613281 92.410156 C 118.960938 92.015625 120.226562 91.488281 121.371094 90.828125 C 122.074219 90.421875 122.957031 90.542969 123.53125 91.117188 L 127.191406 94.804688 L 132.097656 89.894531 L 128.433594 86.203125 C 127.859375 85.640625 127.742188 84.753906 128.136719 84.058594 C 128.804688 82.847656 129.339844 81.578125 129.710938 80.261719 Z M 123.316406 77.0625 C 123.089844 78.738281 122.398438 80.40625 121.335938 81.832031 C 120.738281 82.65625 120 83.386719 119.164062 84.011719 C 117.769531 85.066406 116.097656 85.761719 114.355469 85.988281 C 113.914062 86.070312 113.390625 86.109375 112.855469 86.109375 L 112.816406 86.109375 C 112.292969 86.109375 111.78125 86.058594 111.289062 85.976562 C 109.609375 85.761719 107.9375 85.066406 106.53125 83.988281 C 105.707031 83.386719 104.96875 82.65625 104.359375 81.808594 C 103.308594 80.40625 102.617188 78.738281 102.390625 76.992188 C 102.308594 76.546875 102.273438 76.019531 102.273438 75.480469 C 102.273438 74.941406 102.308594 74.414062 102.390625 73.910156 C 102.617188 72.234375 103.308594 70.554688 104.394531 69.117188 C 104.992188 68.304688 105.71875 67.574219 106.542969 66.960938 C 107.9375 65.894531 109.609375 65.210938 111.363281 64.972656 C 112.246094 64.816406 113.402344 64.816406 114.417969 64.984375 C 116.097656 65.210938 117.769531 65.894531 119.1875 66.972656 C 119.976562 67.5625 120.703125 68.292969 121.324219 69.117188 C 122.410156 70.570312 123.089844 72.246094 123.328125 73.972656 C 123.398438 74.414062 123.445312 74.941406 123.445312 75.480469 C 123.445312 76.019531 123.398438 76.546875 123.316406 77.0625 Z M 123.316406 77.0625 " fill-opacity="1" fill-rule="nonzero"/><g clip-path="url(#84b45e4537)"><path fill="#000000" d="M 133.863281 24.046875 L 133.863281 37.238281 L 114.644531 37.238281 L 114.644531 24.046875 C 114.644531 18.726562 118.949219 14.386719 124.257812 14.386719 C 129.554688 14.386719 133.863281 18.726562 133.863281 24.046875 Z M 133.863281 24.046875 " fill-opacity="1" fill-rule="nonzero"/></g><g clip-path="url(#fe0d2f2677)"><path fill="#000000" d="M 39.738281 14.386719 C 32.960938 14.386719 27.441406 19.921875 27.441406 26.714844 L 27.441406 113.03125 L 83.851562 113.03125 C 84.84375 113.03125 85.644531 113.832031 85.644531 114.828125 C 85.644531 122.832031 91.882812 129.386719 99.730469 129.863281 C 106.066406 129.421875 111.0625 124.042969 111.0625 117.582031 L 111.0625 102.929688 L 107.605469 102.929688 C 106.613281 102.929688 105.816406 102.128906 105.816406 101.132812 L 105.816406 95.441406 C 105.113281 95.191406 104.445312 94.914062 103.789062 94.589844 L 99.777344 98.617188 C 99.074219 99.324219 97.953125 99.324219 97.25 98.617188 L 89.816406 91.164062 C 89.484375 90.828125 89.292969 90.375 89.292969 89.894531 C 89.292969 89.414062 89.484375 88.960938 89.816406 88.625 L 93.828125 84.597656 C 93.503906 83.925781 93.21875 83.246094 92.980469 82.550781 L 87.3125 82.550781 C 86.324219 82.550781 85.523438 81.746094 85.523438 80.753906 L 85.523438 70.207031 C 85.523438 69.214844 86.324219 68.410156 87.3125 68.410156 L 92.980469 68.410156 C 93.230469 67.703125 93.503906 67.023438 93.828125 66.363281 L 89.816406 62.347656 C 89.484375 62 89.292969 61.546875 89.292969 61.066406 C 89.292969 60.601562 89.484375 60.132812 89.816406 59.796875 L 97.25 52.34375 C 97.953125 51.648438 99.074219 51.648438 99.777344 52.34375 L 103.777344 56.371094 C 104.445312 56.046875 105.125 55.769531 105.816406 55.519531 L 105.816406 49.828125 C 105.816406 48.847656 106.613281 48.03125 107.605469 48.03125 L 111.0625 48.03125 L 111.0625 24.046875 C 111.0625 20.234375 112.6875 16.808594 115.25 14.386719 Z M 75.585938 27.148438 C 75.585938 26.632812 75.96875 26.214844 76.433594 26.214844 L 82.242188 26.214844 C 82.707031 26.214844 83.089844 26.632812 83.089844 27.148438 C 83.089844 27.664062 82.707031 28.082031 82.242188 28.082031 L 78.484375 28.082031 C 78.007812 28.082031 77.625 28.488281 77.625 29.003906 L 77.625 29.59375 C 77.625 30.105469 78.007812 30.527344 78.484375 30.527344 L 81.859375 30.527344 C 82.328125 30.527344 82.707031 30.933594 82.707031 31.449219 C 82.707031 31.964844 82.328125 32.382812 81.859375 32.382812 L 78.484375 32.382812 C 78.007812 32.382812 77.625 32.789062 77.625 33.304688 L 77.625 34.445312 C 77.625 34.960938 78.007812 35.378906 78.484375 35.378906 L 82.433594 35.378906 C 82.898438 35.378906 83.28125 35.785156 83.28125 36.300781 C 83.28125 36.816406 82.898438 37.234375 82.433594 37.234375 L 76.433594 37.234375 C 75.96875 37.234375 75.585938 36.816406 75.585938 36.300781 Z M 67.75 33.726562 L 68.011719 33.691406 C 68.453125 33.640625 68.847656 33.964844 68.941406 34.433594 C 68.988281 34.636719 69.050781 34.804688 69.109375 34.925781 C 69.335938 35.320312 69.667969 35.523438 70.121094 35.523438 C 70.574219 35.523438 70.898438 35.378906 71.089844 35.089844 C 71.28125 34.816406 71.375 34.230469 71.375 33.332031 L 71.375 27.148438 C 71.375 26.632812 71.757812 26.214844 72.222656 26.214844 L 72.554688 26.214844 C 73.023438 26.214844 73.414062 26.632812 73.414062 27.148438 L 73.414062 33.1875 C 73.414062 34.097656 73.332031 34.804688 73.1875 35.296875 C 72.984375 35.929688 72.628906 36.445312 72.113281 36.839844 C 71.589844 37.222656 70.910156 37.414062 70.050781 37.414062 C 69.050781 37.414062 68.285156 37.117188 67.75 36.503906 C 67.355469 36.074219 67.117188 35.488281 66.996094 34.757812 C 66.925781 34.253906 67.285156 33.785156 67.75 33.726562 Z M 56.761719 28.96875 C 56.988281 28.40625 57.3125 27.902344 57.703125 27.460938 C 58.109375 27.003906 58.539062 26.679688 59.015625 26.464844 C 59.648438 26.175781 60.375 26.023438 61.199219 26.023438 C 62.691406 26.023438 63.882812 26.535156 64.777344 27.542969 C 65.671875 28.550781 66.125 29.941406 66.125 31.738281 C 66.125 33.523438 65.671875 34.910156 64.789062 35.917969 C 63.894531 36.914062 62.714844 37.414062 61.222656 37.414062 C 59.71875 37.414062 58.527344 36.925781 57.632812 35.917969 C 56.75 34.921875 56.296875 33.546875 56.296875 31.796875 C 56.296875 30.671875 56.453125 29.722656 56.761719 28.96875 Z M 46.503906 27.148438 C 46.503906 26.632812 46.882812 26.214844 47.363281 26.214844 L 50.808594 26.214844 C 51.894531 26.214844 52.683594 26.308594 53.171875 26.511719 C 53.660156 26.703125 54.054688 27.0625 54.351562 27.566406 C 54.636719 28.070312 54.792969 28.65625 54.792969 29.304688 C 54.792969 30.132812 54.566406 30.8125 54.113281 31.355469 C 53.671875 31.894531 53.003906 32.226562 52.109375 32.371094 C 52.5625 32.648438 52.921875 32.960938 53.207031 33.292969 C 53.492188 33.628906 53.886719 34.230469 54.375 35.078125 L 54.792969 35.8125 C 55.152344 36.433594 54.746094 37.238281 54.066406 37.238281 L 53.625 37.238281 C 53.339844 37.238281 53.074219 37.082031 52.910156 36.816406 L 51.691406 34.839844 C 51.167969 33.976562 50.808594 33.4375 50.605469 33.210938 C 50.414062 32.996094 50.210938 32.839844 49.996094 32.753906 C 49.78125 32.671875 49.4375 32.636719 48.960938 32.636719 L 48.554688 32.636719 L 48.554688 36.300781 C 48.554688 36.816406 48.171875 37.238281 47.695312 37.238281 L 47.363281 37.238281 C 46.882812 37.238281 46.503906 36.816406 46.503906 36.300781 Z M 37.066406 27.148438 C 37.066406 26.632812 37.449219 26.214844 37.914062 26.214844 L 40.347656 26.214844 C 41.585938 26.214844 42.398438 26.273438 42.78125 26.382812 C 43.351562 26.550781 43.84375 26.910156 44.234375 27.460938 C 44.628906 28.011719 44.820312 28.730469 44.820312 29.605469 C 44.820312 30.273438 44.714844 30.851562 44.488281 31.304688 C 44.261719 31.773438 43.972656 32.132812 43.628906 32.394531 C 43.28125 32.660156 42.921875 32.839844 42.566406 32.921875 C 42.078125 33.019531 41.371094 33.078125 40.441406 33.078125 L 39.964844 33.078125 C 39.488281 33.078125 39.105469 33.484375 39.105469 34 L 39.105469 36.300781 C 39.105469 36.816406 38.726562 37.234375 38.257812 37.234375 L 37.914062 37.234375 C 37.449219 37.234375 37.066406 36.816406 37.066406 36.300781 Z M 35.277344 46.640625 C 35.277344 45.648438 36.078125 44.84375 37.066406 44.84375 L 68.546875 44.84375 C 69.539062 44.84375 70.335938 45.648438 70.335938 46.640625 L 70.335938 59.257812 C 70.335938 60.253906 69.539062 61.054688 68.546875 61.054688 L 37.066406 61.054688 C 36.078125 61.054688 35.277344 60.253906 35.277344 59.257812 Z M 37.066406 70.351562 L 77.472656 70.351562 C 78.460938 70.351562 79.261719 71.15625 79.261719 72.148438 C 79.261719 73.144531 78.460938 73.945312 77.472656 73.945312 L 37.066406 73.945312 C 36.078125 73.945312 35.277344 73.144531 35.277344 72.148438 C 35.277344 71.15625 36.078125 70.351562 37.066406 70.351562 Z M 37.066406 84.285156 L 79.441406 84.285156 C 80.429688 84.285156 81.230469 85.089844 81.230469 86.085938 C 81.230469 87.078125 80.429688 87.882812 79.441406 87.882812 L 37.066406 87.882812 C 36.078125 87.882812 35.277344 87.078125 35.277344 86.085938 C 35.277344 85.089844 36.078125 84.285156 37.066406 84.285156 Z M 88.949219 98.210938 C 89.9375 98.210938 90.738281 99.011719 90.738281 100.007812 C 90.738281 101 89.9375 101.804688 88.949219 101.804688 L 37.066406 101.804688 C 36.078125 101.804688 35.277344 101 35.277344 100.007812 C 35.277344 99.011719 36.078125 98.210938 37.066406 98.210938 Z M 93.183594 34.804688 C 92.871094 35.546875 92.476562 36.121094 91.964844 36.542969 C 91.261719 37.128906 90.367188 37.417969 89.269531 37.417969 C 87.933594 37.417969 86.824219 36.925781 85.964844 35.917969 C 85.09375 34.925781 84.664062 33.558594 84.664062 31.820312 C 84.664062 29.988281 85.09375 28.5625 85.964844 27.542969 C 86.835938 26.535156 87.980469 26.023438 89.402344 26.023438 C 90.640625 26.023438 91.644531 26.429688 92.417969 27.21875 C 92.65625 27.472656 92.871094 27.769531 93.050781 28.144531 C 93.3125 28.683594 93.050781 29.351562 92.503906 29.496094 L 92.179688 29.582031 C 91.808594 29.675781 91.394531 29.519531 91.226562 29.148438 C 91.09375 28.863281 90.902344 28.621094 90.675781 28.429688 C 90.296875 28.09375 89.84375 27.925781 89.292969 27.925781 C 88.542969 27.925781 87.933594 28.226562 87.46875 28.8125 C 87.003906 29.390625 86.765625 30.347656 86.765625 31.652344 C 86.765625 33.054688 87.003906 34.039062 87.457031 34.636719 C 87.921875 35.222656 88.519531 35.523438 89.257812 35.523438 C 89.792969 35.523438 90.257812 35.332031 90.652344 34.960938 C 90.902344 34.707031 91.117188 34.386719 91.273438 33.964844 C 91.441406 33.535156 91.894531 33.320312 92.3125 33.460938 L 92.644531 33.582031 C 93.109375 33.738281 93.375 34.3125 93.183594 34.804688 Z M 101.699219 28.082031 L 100.410156 28.082031 C 99.945312 28.082031 99.5625 28.488281 99.5625 29.003906 L 99.5625 36.300781 C 99.5625 36.816406 99.183594 37.234375 98.707031 37.234375 L 98.371094 37.234375 C 97.894531 37.234375 97.511719 36.816406 97.511719 36.300781 L 97.511719 29.003906 C 97.511719 28.488281 97.128906 28.082031 96.664062 28.082031 L 95.367188 28.082031 C 94.886719 28.082031 94.507812 27.664062 94.507812 27.148438 C 94.507812 26.632812 94.886719 26.214844 95.367188 26.214844 L 101.699219 26.214844 C 102.175781 26.214844 102.558594 26.632812 102.558594 27.148438 C 102.558594 27.664062 102.175781 28.082031 101.699219 28.082031 Z M 101.699219 28.082031 " fill-opacity="1" fill-rule="nonzero"/></g><path fill="#000000" d="M 111.0625 68.699219 L 111.0625 82.273438 C 110.207031 82.046875 109.394531 81.664062 108.65625 81.101562 C 108.117188 80.703125 107.640625 80.238281 107.234375 79.675781 C 106.53125 78.726562 106.089844 77.660156 105.921875 76.453125 C 105.875 76.152344 105.851562 75.816406 105.851562 75.480469 C 105.851562 75.144531 105.875 74.820312 105.933594 74.449219 C 106.089844 73.324219 106.542969 72.222656 107.257812 71.277344 C 107.652344 70.734375 108.128906 70.257812 108.679688 69.847656 C 109.382812 69.308594 110.179688 68.925781 111.0625 68.699219 Z M 111.0625 68.699219 " fill-opacity="1" fill-rule="nonzero"/><path fill="#000000" d="M 119.867188 75.480469 C 119.867188 75.816406 119.832031 76.152344 119.773438 76.511719 C 119.617188 77.660156 119.1875 78.726562 118.460938 79.6875 C 118.066406 80.238281 117.589844 80.703125 117.027344 81.125 C 116.324219 81.664062 115.515625 82.046875 114.644531 82.273438 L 114.644531 68.6875 C 115.503906 68.914062 116.3125 69.296875 117.039062 69.847656 C 117.578125 70.257812 118.054688 70.734375 118.472656 71.277344 C 119.175781 72.222656 119.628906 73.324219 119.785156 74.511719 C 119.832031 74.820312 119.867188 75.144531 119.867188 75.480469 Z M 119.867188 75.480469 " fill-opacity="1" fill-rule="nonzero"/><path fill="#000000" d="M 42.722656 29.640625 C 42.722656 29.964844 42.636719 30.25 42.480469 30.492188 C 42.328125 30.742188 42.113281 30.921875 41.851562 31.03125 C 41.574219 31.148438 41.039062 31.210938 40.226562 31.210938 L 39.964844 31.210938 C 39.488281 31.210938 39.105469 30.789062 39.105469 30.273438 L 39.105469 29.003906 C 39.105469 28.488281 39.488281 28.082031 39.964844 28.082031 L 40.097656 28.082031 C 40.835938 28.082031 41.324219 28.105469 41.5625 28.15625 C 41.898438 28.214844 42.171875 28.382812 42.386719 28.644531 C 42.601562 28.910156 42.722656 29.234375 42.722656 29.640625 Z M 42.722656 29.640625 " fill-opacity="1" fill-rule="nonzero"/><path fill="#000000" d="M 52.683594 29.449219 C 52.683594 29.773438 52.609375 30.046875 52.480469 30.273438 C 52.335938 30.492188 52.144531 30.648438 51.90625 30.742188 C 51.65625 30.828125 51.046875 30.875 50.070312 30.875 L 49.402344 30.875 C 48.9375 30.875 48.554688 30.453125 48.554688 29.953125 L 48.554688 29.003906 C 48.554688 28.492188 48.9375 28.082031 49.402344 28.082031 L 50.140625 28.082031 C 50.976562 28.082031 51.476562 28.09375 51.644531 28.117188 C 51.964844 28.179688 52.230469 28.324219 52.40625 28.550781 C 52.585938 28.777344 52.683594 29.078125 52.683594 29.449219 Z M 52.683594 29.449219 " fill-opacity="1" fill-rule="nonzero"/><path fill="#000000" d="M 64.015625 31.6875 C 64.015625 32.960938 63.753906 33.917969 63.226562 34.566406 C 62.703125 35.199219 62.035156 35.523438 61.222656 35.523438 C 60.398438 35.523438 59.730469 35.199219 59.207031 34.550781 C 58.671875 33.90625 58.40625 32.960938 58.40625 31.714844 C 58.40625 30.453125 58.671875 29.496094 59.183594 28.875 C 59.695312 28.238281 60.375 27.925781 61.222656 27.925781 C 62.058594 27.925781 62.738281 28.238281 63.25 28.863281 C 63.753906 29.484375 64.015625 30.417969 64.015625 31.6875 Z M 64.015625 31.6875 " fill-opacity="1" fill-rule="nonzero"/><path fill="#000000" d="M 66.757812 48.4375 L 38.855469 48.4375 L 38.855469 57.460938 L 66.757812 57.460938 Z M 66.757812 48.4375 " fill-opacity="1" fill-rule="nonzero"/></svg>