<svg xmlns="http://www.w3.org/2000/svg" xmlns:xlink="http://www.w3.org/1999/xlink" width="192" zoomAndPan="magnify" viewBox="0 0 144 143.999998" height="192" preserveAspectRatio="xMidYMid meet" version="1.0"><defs><clipPath id="c15cabc028"><path d="M 5 5 L 139 5 L 139 139 L 5 139 Z M 5 5 " clip-rule="nonzero"/></clipPath><clipPath id="5b62d9c2af"><path d="M 4.042969 15.292969 L 4.042969 128.707031 C 4.042969 134.917969 9.082031 139.957031 15.292969 139.957031 L 128.707031 139.957031 C 134.917969 139.957031 139.957031 134.917969 139.957031 128.707031 L 139.957031 15.292969 C 139.957031 9.082031 134.917969 4.042969 128.707031 4.042969 L 15.292969 4.042969 C 9.082031 4.042969 4.042969 9.082031 4.042969 15.292969 Z M 4.042969 15.292969 " clip-rule="nonzero"/></clipPath><clipPath id="848a088590"><path d="M 4.042969 4.042969 L 139.792969 4.042969 L 139.792969 139.792969 L 4.042969 139.792969 Z M 4.042969 4.042969 " clip-rule="nonzero"/></clipPath><clipPath id="5b36d73d02"><path d="M 4.042969 15.292969 L 4.042969 128.707031 C 4.042969 134.917969 9.082031 139.957031 15.292969 139.957031 L 128.707031 139.957031 C 134.917969 139.957031 139.957031 134.917969 139.957031 128.707031 L 139.957031 15.292969 C 139.957031 9.082031 134.917969 4.042969 128.707031 4.042969 L 15.292969 4.042969 C 9.082031 4.042969 4.042969 9.082031 4.042969 15.292969 Z M 4.042969 15.292969 " clip-rule="nonzero"/></clipPath><clipPath id="77f425e146"><path d="M 97 53 L 135.535156 53 L 135.535156 59 L 97 59 Z M 97 53 " clip-rule="nonzero"/></clipPath><clipPath id="f3aef6c83c"><path d="M 8.785156 53 L 47 53 L 47 59 L 8.785156 59 Z M 8.785156 53 " clip-rule="nonzero"/></clipPath></defs><rect x="-14.4" width="172.8" fill="#ffffff" y="-14.4" height="172.799997" fill-opacity="1"/><rect x="-14.4" width="172.8" fill="#ffffff" y="-14.4" height="172.799997" fill-opacity="1"/><g clip-path="url(#c15cabc028)"><g clip-path="url(#5b62d9c2af)"><path fill="#001b3d" d="M 138.296875 73.15625 C 137.574219 74.347656 136.339844 75.050781 135.125 75.730469 C 135.640625 76.472656 135.621094 77.472656 135.390625 78.347656 C 135.160156 79.222656 134.746094 80.039062 134.511719 80.914062 C 134.277344 81.789062 134.339844 82.949219 134.847656 83.695312 C 134.148438 83.722656 133.5625 84.285156 133.277344 84.925781 C 132.992188 85.570312 132.949219 86.28125 132.890625 86.980469 C 132.828125 87.679688 132.734375 88.398438 132.371094 88.996094 L 132.386719 89 C 133.390625 89.398438 134.433594 89.824219 135.144531 90.636719 C 135.351562 90.878906 135.527344 91.148438 135.636719 91.441406 C 135.882812 92.117188 135.78125 92.882812 135.503906 93.542969 C 135.226562 94.210938 134.785156 94.789062 134.355469 95.367188 C 134.917969 95.925781 135.839844 96.554688 136.097656 97.3125 C 136.257812 97.792969 136.273438 98.308594 136.34375 98.8125 C 136.59375 100.59375 137.539062 102.269531 137.480469 104.066406 L 137.480469 104.070312 C 137.476562 104.253906 137.339844 104.410156 137.183594 104.503906 C 137.027344 104.597656 136.847656 104.648438 136.6875 104.730469 C 136.128906 105.015625 135.832031 105.652344 135.714844 106.273438 C 135.597656 106.890625 135.617188 107.53125 135.484375 108.144531 C 135.21875 109.398438 134.257812 110.417969 133.421875 111.394531 C 133.878906 111.964844 134.339844 112.542969 134.597656 113.222656 C 134.859375 113.902344 134.886719 114.710938 134.5 115.328125 C 134.027344 116.082031 132.890625 116.441406 132.027344 116.667969 C 132.664062 117.285156 133.335938 117.964844 133.464844 118.839844 C 133.550781 119.449219 133.363281 120.066406 133.441406 120.675781 C 133.507812 121.199219 133.773438 121.683594 134.117188 122.085938 C 134.457031 122.488281 134.875 122.828125 135.285156 123.160156 C 134.539062 124.277344 134.617188 125.875 134.964844 127.167969 C 135.316406 128.464844 135.933594 129.675781 136.277344 130.972656 C 136.714844 132.628906 136.6875 134.40625 136.199219 136.046875 C 133.972656 136.578125 131.390625 136.582031 129.222656 135.839844 C 128.226562 135.5 127.273438 135.03125 126.246094 134.808594 C 125.214844 134.585938 123.976562 134.621094 123.140625 135.253906 C 122.757812 134.625 122.167969 134.121094 121.484375 133.847656 C 120.691406 133.527344 119.8125 133.515625 118.96875 133.382812 C 118.121094 133.246094 117.183594 132.882812 116.707031 132.171875 C 116.503906 133.0625 116.085938 133.902344 115.496094 134.601562 C 115.285156 134.847656 115.03125 135.09375 114.707031 135.140625 C 114.464844 135.175781 114.222656 135.09375 113.996094 135.003906 C 113.132812 134.664062 112.277344 134.148438 111.519531 133.613281 C 111.070312 133.589844 110.664062 133.882812 110.351562 134.207031 C 110.039062 134.53125 109.769531 134.910156 109.390625 135.148438 C 108.417969 135.761719 107.09375 135.285156 106.027344 135.703125 C 105.148438 136.042969 104.402344 136.871094 103.921875 137.683594 C 103.613281 137.421875 103.203125 137.332031 102.800781 137.296875 C 102.398438 137.265625 101.992188 137.277344 101.597656 137.1875 C 101.007812 137.058594 100.492188 136.707031 99.917969 136.523438 C 99.101562 136.261719 98.207031 136.339844 97.398438 136.074219 C 96.476562 135.773438 95.757812 135.058594 95.070312 134.371094 C 94.21875 135.011719 93.824219 135.152344 92.832031 135.546875 C 92.433594 135.703125 92.003906 135.84375 91.585938 135.742188 C 91.242188 135.65625 90.957031 135.414062 90.703125 135.164062 C 89.964844 134.429688 89.367188 133.480469 88.953125 132.519531 C 87.871094 133.078125 86.527344 132.664062 85.367188 133.03125 C 84.554688 133.292969 83.832031 133.980469 83.550781 134.785156 C 82.964844 134.226562 82.027344 134.222656 81.253906 134.464844 C 80.480469 134.703125 79.78125 135.144531 79.007812 135.382812 C 77.960938 135.707031 76.796875 135.640625 75.792969 135.191406 L 75.796875 134.976562 C 75.417969 136.417969 74.386719 137.675781 73.042969 138.324219 C 72.664062 138.511719 72.246094 138.648438 71.832031 138.585938 C 71.484375 138.527344 71.171875 138.335938 70.886719 138.128906 C 69.835938 137.382812 68.941406 136.417969 68.273438 135.3125 C 67.085938 135.515625 65.871094 135.71875 64.761719 135.238281 C 64.195312 134.996094 63.703125 134.585938 63.125 134.371094 C 62.21875 134.035156 61.128906 134.253906 60.414062 134.90625 C 60.269531 134.210938 59.671875 133.632812 59.027344 133.34375 C 58.378906 133.054688 57.660156 132.976562 56.953125 132.902344 C 56.25 132.828125 55.53125 132.746094 54.886719 132.449219 C 54.773438 133.480469 54.359375 134.273438 53.660156 135.042969 C 53.378906 135.355469 53.039062 135.640625 52.625 135.703125 C 52.359375 135.746094 52.085938 135.6875 51.824219 135.617188 C 50.878906 135.363281 49.980469 134.933594 49.1875 134.359375 C 47.898438 134.800781 47.128906 136.152344 45.796875 136.453125 C 45.171875 136.589844 44.5 136.464844 43.875 136.605469 C 43.382812 136.714844 42.941406 136.972656 42.457031 137.117188 C 41.605469 137.367188 40.636719 137.25 39.875 137.707031 C 39.472656 136.792969 38.492188 136.050781 37.535156 135.777344 C 36.972656 135.613281 36.375 135.601562 35.800781 135.480469 C 34.703125 135.246094 33.503906 134.402344 32.839844 133.5 C 32.347656 133.957031 32.257812 134.042969 31.675781 134.378906 C 31.09375 134.71875 30.410156 134.917969 29.75 134.820312 C 29.148438 134.730469 28.59375 134.382812 28.207031 133.914062 C 27.816406 133.445312 27.5 132.664062 27.421875 132.058594 C 26.914062 132.867188 25.984375 133.367188 25.035156 133.464844 C 24.382812 133.535156 23.722656 133.429688 23.082031 133.546875 C 22.183594 133.71875 21.234375 134.484375 20.859375 135.3125 C 20.066406 134.726562 19 134.652344 18.019531 134.789062 C 16.445312 135.003906 14.980469 135.691406 13.449219 136.101562 C 11.679688 136.574219 9.207031 136.585938 7.8125 136.050781 C 7.320312 134.410156 7.292969 132.632812 7.730469 130.976562 C 8.078125 129.679688 8.695312 128.46875 9.042969 127.171875 C 9.394531 125.875 9.472656 124.28125 8.722656 123.164062 C 9.136719 122.832031 9.550781 122.496094 9.890625 122.089844 C 10.234375 121.683594 10.5 121.203125 10.566406 120.675781 C 10.648438 120.070312 10.457031 119.449219 10.546875 118.839844 C 10.671875 117.964844 11.34375 117.285156 11.980469 116.671875 C 11.117188 116.449219 9.980469 116.085938 9.507812 115.328125 C 9.121094 114.714844 9.152344 113.90625 9.410156 113.226562 C 9.667969 112.546875 10.132812 111.964844 10.585938 111.398438 C 9.75 110.421875 8.789062 109.40625 8.523438 108.148438 C 8.390625 107.53125 8.414062 106.894531 8.292969 106.273438 C 8.175781 105.65625 7.878906 105.019531 7.320312 104.734375 C 7.160156 104.652344 6.980469 104.597656 6.824219 104.503906 C 6.667969 104.410156 6.53125 104.257812 6.527344 104.074219 L 6.527344 104.070312 C 6.464844 102.273438 7.410156 100.597656 7.664062 98.816406 C 7.734375 98.3125 7.75 97.792969 7.910156 97.3125 C 8.167969 96.558594 9.085938 95.933594 9.652344 95.367188 C 9.21875 94.792969 8.78125 94.210938 8.503906 93.546875 C 8.226562 92.882812 8.121094 92.117188 8.375 91.445312 C 8.480469 91.148438 8.660156 90.878906 8.867188 90.640625 C 9.570312 89.824219 10.621094 89.398438 11.621094 89.003906 L 11.636719 89 C 11.273438 88.398438 11.183594 87.679688 11.121094 86.984375 C 11.058594 86.285156 11.015625 85.566406 10.734375 84.929688 C 10.449219 84.289062 9.863281 83.726562 9.164062 83.695312 C 9.667969 82.945312 9.730469 81.792969 9.496094 80.917969 C 9.265625 80.042969 8.847656 79.226562 8.617188 78.347656 C 8.390625 77.472656 8.371094 76.476562 8.882812 75.730469 C 7.667969 75.050781 6.433594 74.351562 5.710938 73.160156 C 5.4375 72.714844 5.25 72.179688 5.34375 71.664062 C 5.414062 71.273438 5.640625 70.929688 5.882812 70.613281 C 6.28125 70.097656 6.738281 69.632812 7.25 69.226562 C 7.59375 68.957031 7.960938 68.703125 8.230469 68.363281 C 8.5 68.023438 8.664062 67.554688 8.515625 67.144531 C 8.4375 66.457031 8.460938 65.628906 8.679688 64.96875 C 8.921875 64.226562 9.464844 63.613281 9.6875 62.867188 C 9.945312 62.011719 9.746094 61.007812 9.164062 60.339844 C 9.570312 60.164062 9.996094 59.980469 10.289062 59.648438 C 10.550781 59.347656 10.683594 58.957031 10.785156 58.570312 C 11.070312 57.488281 11.167969 56.363281 11.265625 55.253906 C 11.277344 55.144531 11.285156 55.023438 11.226562 54.929688 C 11.167969 54.835938 10.808594 54.742188 10.738281 54.828125 C 9.507812 54.53125 8.496094 53.460938 8.273438 52.210938 C 8.046875 50.960938 8.625 49.609375 9.679688 48.902344 C 8.761719 48.324219 8.113281 47.308594 7.785156 46.273438 C 7.453125 45.238281 7.347656 44.144531 7.183594 43.070312 C 7.019531 41.996094 6.777344 40.90625 6.21875 39.972656 C 7.09375 39.316406 8.035156 38.683594 8.324219 37.671875 C 8.539062 36.9375 8.492188 36.144531 8.667969 35.394531 C 8.90625 34.363281 9.585938 33.445312 10.5 32.910156 C 10.050781 32.339844 9.605469 31.597656 9.382812 30.910156 C 9.15625 30.21875 9.152344 29.425781 9.527344 28.800781 C 10 28.007812 11.054688 27.605469 11.957031 27.394531 L 11.996094 27.394531 C 11.546875 27.0625 11.566406 27.085938 11.242188 26.636719 C 10.851562 26.085938 10.683594 25.410156 10.582031 24.738281 C 10.480469 24.070312 10.433594 23.390625 10.246094 22.742188 C 10.261719 22.28125 10.015625 21.730469 9.628906 21.480469 C 9.371094 21.316406 9.039062 21.210938 8.914062 20.933594 C 8.835938 20.75 8.871094 20.539062 8.972656 20.371094 C 9.074219 20.207031 9.257812 20.054688 9.433594 19.957031 C 9.375 18.105469 8.621094 16.355469 8.144531 14.566406 C 7.554688 12.367188 7.375 10.066406 7.613281 7.804688 C 9.015625 7.269531 11.691406 7.398438 13.457031 7.875 C 14.992188 8.285156 16.457031 8.96875 18.03125 9.1875 C 19.007812 9.324219 20.074219 9.25 20.871094 8.664062 C 21.246094 9.496094 22.195312 10.261719 23.09375 10.429688 C 23.734375 10.546875 24.394531 10.445312 25.046875 10.511719 C 26 10.609375 26.925781 11.109375 27.433594 11.917969 C 27.515625 11.3125 27.832031 10.535156 28.21875 10.0625 C 28.609375 9.59375 29.160156 9.253906 29.761719 9.15625 C 30.425781 9.054688 31.105469 9.257812 31.6875 9.597656 C 32.269531 9.933594 32.359375 10.019531 32.851562 10.476562 C 33.519531 9.574219 34.714844 8.730469 35.8125 8.496094 C 36.386719 8.375 36.984375 8.363281 37.546875 8.199219 C 38.507812 7.925781 39.484375 7.1875 39.886719 6.269531 C 40.652344 6.722656 41.617188 6.605469 42.46875 6.859375 C 42.949219 7.003906 43.394531 7.261719 43.886719 7.371094 C 44.515625 7.507812 45.179688 7.386719 45.808594 7.523438 C 47.140625 7.820312 47.90625 9.175781 49.199219 9.617188 C 49.992188 9.042969 50.890625 8.609375 51.835938 8.359375 C 52.097656 8.285156 52.371094 8.230469 52.636719 8.273438 C 53.050781 8.335938 53.394531 8.621094 53.671875 8.933594 C 54.367188 9.703125 54.785156 10.496094 54.894531 11.527344 C 55.542969 11.230469 56.261719 11.148438 56.964844 11.074219 C 57.671875 11 58.390625 10.917969 59.039062 10.628906 C 59.6875 10.339844 60.28125 9.761719 60.425781 9.066406 C 61.140625 9.726562 62.226562 9.941406 63.136719 9.605469 C 63.71875 9.390625 64.207031 8.980469 64.773438 8.738281 C 65.882812 8.261719 67.09375 8.464844 68.285156 8.664062 C 68.953125 7.558594 69.847656 6.597656 70.894531 5.84375 C 71.183594 5.640625 71.492188 5.449219 71.84375 5.390625 C 72.257812 5.328125 72.679688 5.464844 73.054688 5.648438 C 74.398438 6.300781 75.429688 7.558594 75.808594 9 L 75.804688 8.78125 C 76.808594 8.335938 77.972656 8.269531 79.019531 8.589844 C 79.792969 8.832031 80.492188 9.269531 81.265625 9.511719 C 82.039062 9.753906 82.96875 9.746094 83.558594 9.191406 C 83.839844 9.992188 84.5625 10.683594 85.378906 10.945312 C 86.539062 11.3125 87.882812 10.898438 88.964844 11.453125 C 89.378906 10.492188 89.972656 9.550781 90.714844 8.8125 C 90.964844 8.558594 91.253906 8.320312 91.597656 8.234375 C 92.015625 8.132812 92.445312 8.269531 92.84375 8.429688 C 93.832031 8.824219 94.230469 8.964844 95.082031 9.605469 C 95.765625 8.917969 96.484375 8.207031 97.40625 7.902344 C 98.21875 7.636719 99.117188 7.714844 99.925781 7.453125 C 100.5 7.269531 101.019531 6.917969 101.609375 6.785156 C 102.003906 6.699219 102.410156 6.714844 102.8125 6.679688 C 103.214844 6.644531 103.625 6.550781 103.933594 6.292969 C 104.414062 7.101562 105.152344 7.9375 106.035156 8.273438 C 107.109375 8.6875 108.433594 8.210938 109.402344 8.828125 C 109.785156 9.066406 110.050781 9.445312 110.363281 9.769531 C 110.675781 10.089844 111.082031 10.382812 111.53125 10.363281 C 112.289062 9.832031 113.144531 9.3125 114.003906 8.972656 C 114.234375 8.882812 114.476562 8.800781 114.71875 8.832031 C 115.042969 8.878906 115.296875 9.121094 115.507812 9.375 C 116.097656 10.074219 116.515625 10.914062 116.71875 11.804688 C 117.195312 11.09375 118.132812 10.730469 118.976562 10.59375 C 119.824219 10.460938 120.699219 10.449219 121.492188 10.128906 C 122.175781 9.855469 122.765625 9.351562 123.148438 8.722656 C 123.988281 9.359375 125.226562 9.394531 126.257812 9.167969 C 127.285156 8.945312 128.238281 8.472656 129.234375 8.136719 C 131.402344 7.394531 134.183594 7.273438 136.414062 7.804688 C 136.65625 10.066406 136.476562 12.367188 135.886719 14.5625 C 135.40625 16.355469 134.648438 18.101562 134.597656 19.957031 C 134.769531 20.046875 134.949219 20.199219 135.054688 20.371094 C 135.160156 20.539062 135.195312 20.753906 135.117188 20.929688 C 134.992188 21.210938 134.65625 21.3125 134.402344 21.476562 C 134.015625 21.730469 133.765625 22.277344 133.78125 22.738281 C 133.597656 23.390625 133.554688 24.070312 133.449219 24.738281 C 133.34375 25.40625 133.179688 26.082031 132.785156 26.632812 C 132.464844 27.085938 132.480469 27.0625 132.035156 27.390625 L 132.074219 27.390625 C 132.972656 27.601562 134.023438 28.007812 134.503906 28.800781 C 134.875 29.421875 134.875 30.214844 134.648438 30.90625 C 134.421875 31.597656 133.980469 32.335938 133.53125 32.910156 C 134.441406 33.441406 135.125 34.363281 135.363281 35.394531 C 135.535156 36.140625 135.492188 36.929688 135.703125 37.671875 C 135.996094 38.675781 136.9375 39.316406 137.8125 39.972656 C 137.246094 40.902344 137.011719 41.992188 136.847656 43.066406 C 136.679688 44.140625 136.578125 45.234375 136.246094 46.269531 C 135.914062 47.308594 135.273438 48.320312 134.347656 48.902344 C 135.40625 49.605469 135.980469 50.960938 135.757812 52.210938 C 135.535156 53.457031 134.523438 54.53125 133.289062 54.828125 C 133.222656 54.742188 132.863281 54.832031 132.804688 54.929688 C 132.75 55.023438 132.757812 55.136719 132.765625 55.25 C 132.863281 56.367188 132.964844 57.484375 133.246094 58.566406 C 133.347656 58.953125 133.476562 59.34375 133.742188 59.644531 C 134.035156 59.980469 134.457031 60.164062 134.867188 60.335938 C 134.28125 61.003906 134.085938 62.011719 134.34375 62.863281 C 134.5625 63.613281 135.109375 64.226562 135.351562 64.964844 C 135.570312 65.625 135.59375 66.449219 135.511719 67.140625 C 135.367188 67.550781 135.527344 68.019531 135.800781 68.363281 C 136.070312 68.703125 136.4375 68.953125 136.78125 69.226562 C 137.285156 69.632812 137.746094 70.097656 138.148438 70.609375 C 138.390625 70.925781 138.617188 71.273438 138.6875 71.664062 C 138.761719 72.175781 138.574219 72.707031 138.296875 73.15625 Z M 138.296875 73.15625 " fill-opacity="1" fill-rule="nonzero"/></g></g><g clip-path="url(#848a088590)"><g clip-path="url(#5b36d73d02)"><path fill="#ffffff" d="M 4.042969 4.042969 L 139.945312 4.042969 L 139.945312 139.945312 L 4.042969 139.945312 Z M 4.042969 4.042969 " fill-opacity="1" fill-rule="nonzero"/></g></g><path fill="#000000" d="M 52.742188 88.679688 L 91.425781 88.679688 L 72.121094 69.96875 Z M 52.742188 88.679688 " fill-opacity="1" fill-rule="evenodd"/><path fill="#000000" d="M 72.640625 68.335938 L 93.804688 88.828125 C 94.472656 89.347656 94.027344 90.164062 93.359375 90.164062 L 87.714844 90.164062 L 87.714844 122.910156 L 96.328125 122.910156 L 96.328125 44.203125 L 47.914062 44.203125 L 47.914062 122.910156 L 56.527344 122.910156 L 56.527344 90.164062 L 50.886719 90.164062 C 50.21875 90.164062 49.84375 89.347656 50.367188 88.902344 L 71.601562 68.335938 C 71.898438 68.039062 72.34375 68.039062 72.640625 68.335938 Z M 72.121094 47.394531 C 76.949219 47.394531 80.882812 51.257812 80.882812 56.15625 C 80.882812 60.984375 76.949219 64.84375 72.121094 64.84375 C 67.296875 64.84375 63.433594 60.984375 63.433594 56.15625 C 63.433594 51.40625 67.296875 47.394531 72.121094 47.394531 Z M 72.121094 47.394531 " fill-opacity="1" fill-rule="evenodd"/><path fill="#000000" d="M 64.917969 56.15625 C 64.917969 60.09375 68.1875 63.359375 72.121094 63.359375 C 75.835938 63.359375 78.953125 60.613281 79.324219 56.972656 L 72.121094 56.972656 C 71.675781 56.972656 71.304688 56.601562 71.304688 56.15625 L 71.304688 48.953125 C 67.667969 49.398438 64.917969 52.445312 64.917969 56.15625 Z M 64.917969 56.15625 " fill-opacity="1" fill-rule="evenodd"/><path fill="#000000" d="M 72.863281 48.953125 L 72.863281 55.414062 L 79.324219 55.414062 C 78.953125 52 76.28125 49.324219 72.863281 48.953125 Z M 72.863281 48.953125 " fill-opacity="1" fill-rule="evenodd"/><path fill="#000000" d="M 34.402344 42.644531 L 109.84375 42.644531 L 109.84375 27.347656 L 34.402344 27.347656 Z M 76.800781 40.5625 C 74.496094 40.5625 72.640625 38.707031 72.640625 36.40625 L 72.640625 33.734375 C 72.640625 31.429688 74.496094 29.574219 76.800781 29.574219 C 79.101562 29.574219 80.957031 31.429688 80.957031 33.734375 L 80.957031 36.40625 C 80.957031 38.707031 79.101562 40.5625 76.800781 40.5625 Z M 87.566406 40.488281 C 85.265625 40.488281 83.40625 38.632812 83.40625 36.332031 L 83.40625 33.660156 C 83.40625 31.355469 85.265625 29.5 87.566406 29.5 C 89.867188 29.5 91.722656 31.355469 91.722656 33.660156 L 91.722656 36.332031 C 91.722656 38.632812 89.867188 40.488281 87.566406 40.488281 Z M 94.992188 40.488281 C 94.546875 40.488281 94.175781 40.117188 94.175781 39.746094 L 94.175781 30.242188 C 94.175781 29.203125 95.734375 29.203125 95.734375 30.242188 L 95.734375 38.929688 L 101.082031 38.929688 C 102.121094 38.929688 102.121094 40.488281 101.082031 40.488281 Z M 70.191406 30.316406 L 70.191406 39.820312 C 70.191406 40.785156 68.632812 40.785156 68.632812 39.820312 L 68.632812 35.8125 L 63.730469 35.8125 L 63.730469 39.820312 C 63.730469 40.785156 62.171875 40.785156 62.171875 39.820312 L 62.171875 30.316406 C 62.171875 29.277344 63.730469 29.277344 63.730469 30.316406 L 63.730469 34.253906 L 68.632812 34.253906 L 68.632812 30.316406 C 68.632812 29.277344 70.191406 29.277344 70.191406 30.316406 Z M 59.203125 36.332031 C 60.761719 36.851562 58.457031 40.488281 55.414062 40.488281 C 52.964844 40.488281 51.035156 38.484375 51.035156 36.035156 L 51.035156 33.882812 C 51.035156 31.429688 52.964844 29.5 55.414062 29.5 C 57.417969 29.5 59.128906 30.761719 59.722656 32.617188 C 59.945312 33.585938 58.53125 34.03125 58.234375 33.0625 C 57.269531 29.945312 52.59375 30.613281 52.59375 33.882812 L 52.59375 36.035156 C 52.59375 39.375 57.195312 40.042969 58.234375 36.851562 C 58.308594 36.480469 58.757812 36.257812 59.203125 36.332031 Z M 48.582031 37.296875 C 48.582031 39.003906 47.171875 40.488281 45.464844 40.488281 C 44.054688 40.488281 42.867188 39.523438 42.421875 38.1875 C 42.125 37.222656 43.609375 36.777344 43.90625 37.742188 C 44.5 39.597656 47.023438 39.152344 47.023438 37.296875 C 47.023438 36.554688 46.28125 35.8125 45.464844 35.8125 C 43.832031 35.8125 42.347656 34.402344 42.347656 32.691406 C 42.347656 28.980469 47.617188 28.386719 48.433594 31.949219 C 48.65625 32.914062 47.171875 33.285156 46.949219 32.246094 C 46.800781 31.578125 46.207031 31.132812 45.464844 31.132812 C 43.386719 31.132812 43.386719 34.253906 45.464844 34.253906 C 47.171875 34.253906 48.582031 35.664062 48.582031 37.296875 Z M 48.582031 37.296875 " fill-opacity="1" fill-rule="evenodd"/><path fill="#000000" d="M 47.914062 21.40625 L 96.328125 21.40625 L 96.328125 25.789062 L 47.914062 25.789062 Z M 47.914062 21.40625 " fill-opacity="1" fill-rule="evenodd"/><path fill="#000000" d="M 76.800781 31.132812 C 75.3125 31.132812 74.199219 32.246094 74.199219 33.734375 L 74.199219 36.40625 C 74.199219 37.890625 75.3125 39.003906 76.800781 39.003906 C 78.210938 39.003906 79.398438 37.816406 79.398438 36.40625 L 79.398438 33.734375 C 79.398438 32.320312 78.210938 31.132812 76.800781 31.132812 Z M 76.800781 31.132812 " fill-opacity="1" fill-rule="evenodd"/><path fill="#000000" d="M 84.96875 33.660156 L 84.96875 36.332031 C 84.96875 37.816406 86.082031 38.929688 87.566406 38.929688 C 88.976562 38.929688 90.164062 37.742188 90.164062 36.332031 L 90.164062 33.660156 C 90.164062 32.246094 88.976562 30.984375 87.566406 30.984375 C 86.082031 30.984375 84.96875 32.171875 84.96875 33.660156 Z M 84.96875 33.660156 " fill-opacity="1" fill-rule="evenodd"/><g clip-path="url(#77f425e146)"><path fill="#000000" d="M 97.886719 53.335938 L 135.535156 53.335938 L 135.535156 58.234375 L 97.886719 58.234375 Z M 97.886719 53.335938 " fill-opacity="1" fill-rule="evenodd"/></g><path fill="#000000" d="M 128.332031 59.796875 L 97.886719 59.796875 L 97.886719 122.910156 L 128.332031 122.910156 Z M 104.199219 66.03125 L 122.019531 66.03125 C 122.464844 66.03125 122.835938 66.402344 122.835938 66.773438 L 122.835938 87.714844 C 122.835938 88.160156 122.464844 88.53125 122.019531 88.53125 L 104.199219 88.53125 C 103.753906 88.53125 103.457031 88.160156 103.457031 87.714844 L 103.457031 66.773438 C 103.457031 66.402344 103.753906 66.03125 104.199219 66.03125 Z M 104.199219 94.25 L 122.019531 94.25 C 122.464844 94.25 122.835938 94.621094 122.835938 95.066406 L 122.835938 115.929688 C 122.835938 116.375 122.464844 116.746094 122.019531 116.746094 L 104.199219 116.746094 C 103.753906 116.746094 103.457031 116.375 103.457031 115.929688 L 103.457031 95.066406 C 103.457031 94.621094 103.753906 94.25 104.199219 94.25 Z M 104.199219 94.25 " fill-opacity="1" fill-rule="evenodd"/><path fill="#000000" d="M 113.851562 67.59375 L 121.277344 67.59375 L 121.277344 76.503906 L 113.851562 76.503906 Z M 113.851562 67.59375 " fill-opacity="1" fill-rule="evenodd"/><path fill="#000000" d="M 104.941406 67.59375 L 112.367188 67.59375 L 112.367188 76.503906 L 104.941406 76.503906 Z M 104.941406 67.59375 " fill-opacity="1" fill-rule="evenodd"/><path fill="#000000" d="M 104.941406 78.0625 L 112.367188 78.0625 L 112.367188 86.972656 L 104.941406 86.972656 Z M 104.941406 78.0625 " fill-opacity="1" fill-rule="evenodd"/><path fill="#000000" d="M 113.851562 78.0625 L 121.277344 78.0625 L 121.277344 86.972656 L 113.851562 86.972656 Z M 113.851562 78.0625 " fill-opacity="1" fill-rule="evenodd"/><path fill="#000000" d="M 113.851562 95.808594 L 121.277344 95.808594 L 121.277344 104.71875 L 113.851562 104.71875 Z M 113.851562 95.808594 " fill-opacity="1" fill-rule="evenodd"/><path fill="#000000" d="M 104.941406 95.808594 L 112.367188 95.808594 L 112.367188 104.71875 L 104.941406 104.71875 Z M 104.941406 95.808594 " fill-opacity="1" fill-rule="evenodd"/><path fill="#000000" d="M 104.941406 106.277344 L 112.367188 106.277344 L 112.367188 115.1875 L 104.941406 115.1875 Z M 104.941406 106.277344 " fill-opacity="1" fill-rule="evenodd"/><path fill="#000000" d="M 113.851562 106.277344 L 121.277344 106.277344 L 121.277344 115.1875 L 113.851562 115.1875 Z M 113.851562 106.277344 " fill-opacity="1" fill-rule="evenodd"/><path fill="#000000" d="M 72.863281 90.164062 L 86.15625 90.164062 L 86.15625 122.910156 L 72.863281 122.910156 Z M 72.863281 90.164062 " fill-opacity="1" fill-rule="evenodd"/><path fill="#000000" d="M 58.085938 90.164062 L 71.304688 90.164062 L 71.304688 122.910156 L 58.085938 122.910156 Z M 58.085938 90.164062 " fill-opacity="1" fill-rule="evenodd"/><path fill="#000000" d="M 46.429688 122.910156 L 46.429688 59.796875 L 15.910156 59.796875 L 15.910156 122.910156 Z M 40.859375 95.066406 L 40.859375 115.929688 C 40.859375 116.375 40.488281 116.746094 40.117188 116.746094 L 22.222656 116.746094 C 21.851562 116.746094 21.480469 116.375 21.480469 115.929688 L 21.480469 95.066406 C 21.480469 94.621094 21.851562 94.25 22.222656 94.25 L 40.117188 94.25 C 40.488281 94.25 40.859375 94.621094 40.859375 95.066406 Z M 40.859375 66.773438 L 40.859375 87.714844 C 40.859375 88.160156 40.488281 88.53125 40.117188 88.53125 L 22.222656 88.53125 C 21.851562 88.53125 21.480469 88.160156 21.480469 87.714844 L 21.480469 66.773438 C 21.480469 66.402344 21.851562 66.03125 22.222656 66.03125 L 40.117188 66.03125 C 40.488281 66.03125 40.859375 66.402344 40.859375 66.773438 Z M 40.859375 66.773438 " fill-opacity="1" fill-rule="evenodd"/><path fill="#000000" d="M 31.949219 95.808594 L 39.300781 95.808594 L 39.300781 104.71875 L 31.949219 104.71875 Z M 31.949219 95.808594 " fill-opacity="1" fill-rule="evenodd"/><path fill="#000000" d="M 23.039062 95.808594 L 30.390625 95.808594 L 30.390625 104.71875 L 23.039062 104.71875 Z M 23.039062 95.808594 " fill-opacity="1" fill-rule="evenodd"/><path fill="#000000" d="M 23.039062 106.277344 L 30.390625 106.277344 L 30.390625 115.1875 L 23.039062 115.1875 Z M 23.039062 106.277344 " fill-opacity="1" fill-rule="evenodd"/><path fill="#000000" d="M 31.949219 106.277344 L 39.300781 106.277344 L 39.300781 115.1875 L 31.949219 115.1875 Z M 31.949219 106.277344 " fill-opacity="1" fill-rule="evenodd"/><path fill="#000000" d="M 31.949219 78.0625 L 39.300781 78.0625 L 39.300781 86.972656 L 31.949219 86.972656 Z M 31.949219 78.0625 " fill-opacity="1" fill-rule="evenodd"/><path fill="#000000" d="M 23.039062 78.0625 L 30.390625 78.0625 L 30.390625 86.972656 L 23.039062 86.972656 Z M 23.039062 78.0625 " fill-opacity="1" fill-rule="evenodd"/><path fill="#000000" d="M 23.039062 67.59375 L 30.390625 67.59375 L 30.390625 76.503906 L 23.039062 76.503906 Z M 23.039062 67.59375 " fill-opacity="1" fill-rule="evenodd"/><path fill="#000000" d="M 31.949219 67.59375 L 39.300781 67.59375 L 39.300781 76.503906 L 31.949219 76.503906 Z M 31.949219 67.59375 " fill-opacity="1" fill-rule="evenodd"/><g clip-path="url(#f3aef6c83c)"><path fill="#000000" d="M 8.785156 53.335938 L 46.429688 53.335938 L 46.429688 58.234375 L 8.785156 58.234375 Z M 8.785156 53.335938 " fill-opacity="1" fill-rule="evenodd"/></g></svg>