<svg xmlns="http://www.w3.org/2000/svg" width="192" height="192" viewBox="0 0 144 144"><defs><clipPath id="a"><path d="M5 5h134v134H5Zm0 0"/></clipPath><clipPath id="b"><path d="M4.043 15.293v113.414c0 6.211 5.039 11.25 11.25 11.25h113.414c6.211 0 11.25-5.039 11.25-11.25V15.293c0-6.211-5.039-11.25-11.25-11.25H15.293c-6.211 0-11.25 5.039-11.25 11.25m0 0"/></clipPath><clipPath id="c"><path d="M4.043 4.043h135.75v135.75H4.043Zm0 0"/></clipPath><clipPath id="d"><path d="M4.043 15.293v113.414c0 6.211 5.039 11.25 11.25 11.25h113.414c6.211 0 11.25-5.039 11.25-11.25V15.293c0-6.211-5.039-11.25-11.25-11.25H15.293c-6.211 0-11.25 5.039-11.25 11.25m0 0"/></clipPath><clipPath id="e"><path d="M97 53h38.535v6H97Zm0 0"/></clipPath><clipPath id="f"><path d="M8.785 53H47v6H8.785Zm0 0"/></clipPath></defs><path fill="#fff" d="M-14.4-14.4h172.8v172.8H-14.4z"/><path fill="#fff" d="M-14.4-14.4h172.8v172.8H-14.4z"/><g clip-path="url(#a)"><g clip-path="url(#b)"><path fill="#001b3d" d="M138.297 73.156c-.723 1.192-1.957 1.895-3.172 2.574.516.743.496 1.743.266 2.618s-.645 1.691-.88 2.566-.171 2.035.337 2.781c-.7.028-1.286.59-1.57 1.23-.286.645-.329 1.356-.387 2.055-.063.7-.157 1.418-.52 2.016l.016.004c1.004.398 2.047.824 2.758 1.637.207.242.382.511.492.804.246.676.144 1.442-.133 2.102-.277.668-.719 1.246-1.149 1.824.563.559 1.485 1.188 1.743 1.945.16.481.175.997.246 1.5.25 1.782 1.195 3.458 1.136 5.254v.004c-.003.184-.14.34-.296.434-.157.094-.336.144-.496.226-.56.286-.856.922-.973 1.543-.117.618-.098 1.258-.23 1.872-.266 1.253-1.227 2.273-2.063 3.25.457.57.918 1.148 1.176 1.828.261.68.289 1.488-.098 2.105-.473.754-1.61 1.113-2.473 1.34.637.617 1.309 1.297 1.438 2.172.086.61-.102 1.226-.024 1.836.067.523.332 1.008.676 1.41.34.402.758.742 1.168 1.074-.746 1.117-.668 2.715-.32 4.008.351 1.297.969 2.508 1.312 3.805a9.45 9.45 0 0 1-.078 5.074c-2.226.531-4.808.535-6.976-.207-.996-.34-1.95-.809-2.977-1.031-1.031-.223-2.27-.188-3.105.445a3.47 3.47 0 0 0-1.657-1.406c-.793-.32-1.671-.332-2.515-.465-.848-.137-1.785-.5-2.262-1.211a5.8 5.8 0 0 1-1.21 2.43c-.212.246-.466.492-.79.539-.242.035-.484-.047-.71-.137-.864-.34-1.72-.856-2.477-1.39-.45-.024-.856.269-1.168.593-.313.324-.582.703-.961.941-.973.614-2.297.137-3.364.555-.879.34-1.625 1.168-2.105 1.98-.309-.261-.719-.351-1.121-.386-.403-.031-.809-.02-1.203-.11-.59-.128-1.106-.48-1.68-.664-.816-.261-1.711-.183-2.52-.449-.921-.3-1.64-1.015-2.328-1.703-.851.64-1.246.781-2.238 1.176-.398.156-.828.297-1.246.195-.344-.086-.629-.328-.883-.578-.738-.734-1.336-1.684-1.75-2.644-1.082.558-2.426.144-3.586.511-.812.262-1.535.95-1.816 1.754-.586-.558-1.524-.562-2.297-.32-.774.238-1.473.68-2.246.918a4.6 4.6 0 0 1-3.215-.192l.004-.214a5.25 5.25 0 0 1-2.754 3.347c-.379.188-.797.324-1.211.262-.348-.059-.66-.25-.945-.457a9.5 9.5 0 0 1-2.614-2.816c-1.187.203-2.402.406-3.511-.075-.567-.242-1.059-.652-1.637-.867-.906-.336-1.996-.117-2.71.535-.145-.695-.743-1.273-1.388-1.562-.648-.29-1.367-.367-2.074-.442-.703-.074-1.422-.156-2.066-.453-.114 1.031-.528 1.824-1.227 2.594-.281.312-.62.598-1.035.66-.266.043-.54-.016-.8-.086a8.1 8.1 0 0 1-2.638-1.258c-1.289.442-2.058 1.793-3.39 2.094-.625.137-1.297.012-1.922.152-.492.11-.934.368-1.418.512-.852.25-1.82.133-2.582.59-.402-.914-1.383-1.656-2.34-1.93-.562-.164-1.16-.175-1.734-.297-1.098-.234-2.297-1.078-2.961-1.98-.492.457-.582.543-1.164.879-.582.34-1.266.539-1.926.441-.602-.09-1.156-.437-1.543-.906-.39-.469-.707-1.25-.785-1.855-.508.808-1.438 1.308-2.387 1.406-.652.07-1.312-.035-1.953.082-.898.172-1.848.937-2.223 1.766-.793-.586-1.859-.66-2.84-.524-1.574.215-3.039.902-4.57 1.313-1.77.472-4.242.484-5.636-.051a9.4 9.4 0 0 1-.083-5.074c.348-1.297.965-2.508 1.313-3.805.352-1.297.43-2.89-.32-4.008.414-.332.828-.668 1.168-1.074.343-.406.609-.887.675-1.414.082-.606-.109-1.227-.02-1.836.126-.875.798-1.555 1.434-2.168-.863-.223-2-.586-2.472-1.344-.387-.613-.356-1.422-.098-2.101.258-.68.723-1.262 1.176-1.829-.836-.976-1.797-1.992-2.063-3.25-.132-.617-.109-1.253-.23-1.875-.117-.617-.414-1.253-.973-1.539-.16-.082-.34-.136-.496-.23s-.293-.246-.297-.43v-.004c-.062-1.797.883-3.472 1.137-5.254.07-.504.086-1.023.246-1.504.258-.753 1.176-1.378 1.742-1.945-.433-.574-.87-1.156-1.148-1.82s-.383-1.43-.129-2.102c.105-.297.285-.566.492-.804.703-.817 1.754-1.243 2.754-1.637l.016-.004c-.364-.602-.453-1.32-.516-2.016-.062-.699-.105-1.418-.387-2.054-.285-.64-.87-1.203-1.57-1.235.504-.75.566-1.902.332-2.777-.23-.875-.648-1.691-.879-2.57-.226-.875-.246-1.871.266-2.618-1.215-.68-2.45-1.378-3.172-2.57-.274-.445-.461-.98-.367-1.496.07-.39.297-.734.539-1.05q.598-.776 1.367-1.387c.344-.27.71-.524.98-.864s.434-.808.286-1.218c-.079-.688-.055-1.516.164-2.176.242-.742.785-1.356 1.008-2.102.257-.855.058-1.86-.524-2.527.406-.176.832-.36 1.125-.692.262-.3.395-.691.496-1.078.285-1.082.383-2.207.48-3.316.012-.11.02-.23-.038-.324-.059-.094-.418-.188-.489-.102-1.23-.297-2.242-1.367-2.465-2.617-.226-1.25.352-2.602 1.407-3.309-.918-.578-1.567-1.593-1.895-2.629-.332-1.035-.437-2.128-.601-3.203s-.407-2.164-.965-3.097c.875-.657 1.816-1.29 2.105-2.301.215-.734.168-1.527.344-2.277A3.95 3.95 0 0 1 10.5 32.91c-.45-.57-.895-1.312-1.117-2-.227-.691-.23-1.484.144-2.11.473-.792 1.528-1.195 2.43-1.405h.04c-.45-.332-.43-.31-.755-.758-.39-.551-.558-1.227-.66-1.899-.102-.668-.148-1.347-.336-1.996.016-.46-.23-1.012-.617-1.262-.258-.164-.59-.27-.715-.546a.63.63 0 0 1 .059-.563c.101-.164.285-.316.46-.414-.058-1.852-.812-3.602-1.288-5.39-.59-2.2-.77-4.5-.532-6.762 1.403-.535 4.078-.407 5.844.07 1.535.41 3 1.094 4.574 1.313.977.136 2.043.062 2.84-.524.375.832 1.324 1.598 2.223 1.766.64.117 1.3.015 1.953.082.953.097 1.879.597 2.387 1.406.082-.605.398-1.383.785-1.855.39-.47.941-.81 1.543-.907.664-.101 1.343.102 1.925.442.583.336.672.422 1.165.879.668-.903 1.863-1.747 2.96-1.98.575-.122 1.172-.134 1.735-.298.96-.273 1.937-1.011 2.34-1.93.765.454 1.73.336 2.582.59.48.145.926.403 1.418.512.629.137 1.293.016 1.922.152 1.332.297 2.097 1.653 3.39 2.094a8 8 0 0 1 2.637-1.258c.262-.074.535-.129.8-.086.415.063.759.348 1.036.66.695.77 1.113 1.563 1.223 2.594.648-.297 1.367-.379 2.07-.453.707-.074 1.426-.156 2.074-.445s1.242-.867 1.387-1.563a2.7 2.7 0 0 0 2.71.54c.583-.215 1.071-.626 1.637-.868 1.11-.476 2.32-.273 3.512-.074a9.6 9.6 0 0 1 2.61-2.82c.289-.203.597-.395.949-.453.414-.063.836.074 1.21.257A5.27 5.27 0 0 1 75.81 9l-.004-.219a4.65 4.65 0 0 1 3.215-.191c.773.242 1.472.68 2.246.922.773.242 1.703.234 2.293-.32.28.8 1.004 1.492 1.82 1.753 1.16.367 2.504-.047 3.586.508.414-.96 1.008-1.902 1.75-2.64.25-.254.539-.493.883-.579.418-.101.847.036 1.246.196.988.394 1.386.535 2.238 1.175.684-.687 1.402-1.398 2.324-1.703.813-.265 1.711-.187 2.52-.449.574-.183 1.094-.535 1.683-.668.395-.086.801-.07 1.204-.105s.812-.13 1.12-.387c.481.809 1.22 1.644 2.102 1.98 1.074.415 2.399-.062 3.367.555.383.238.649.617.961.942.313.32.719.613 1.168.593.758-.531 1.614-1.05 2.473-1.39.23-.09.473-.172.715-.141.324.047.578.29.789.543.59.7 1.008 1.54 1.21 2.43.477-.711 1.415-1.075 2.259-1.211.847-.133 1.722-.145 2.515-.465a3.47 3.47 0 0 0 1.656-1.406c.84.636 2.079.672 3.11.445 1.027-.223 1.98-.695 2.976-1.031 2.168-.742 4.95-.864 7.18-.332a18.5 18.5 0 0 1-.527 6.758c-.48 1.792-1.239 3.539-1.29 5.394.173.09.352.242.458.414.105.168.14.383.062.559-.125.28-.46.383-.715.547-.386.253-.636.8-.62 1.261-.184.653-.227 1.332-.333 2-.105.668-.27 1.344-.664 1.895-.32.453-.305.43-.75.758h.04c.898.21 1.948.617 2.429 1.41.371.62.371 1.414.144 2.105-.226.692-.668 1.43-1.117 2.004a3.95 3.95 0 0 1 1.832 2.485c.172.746.13 1.535.34 2.277.293 1.004 1.234 1.644 2.11 2.3-.567.93-.801 2.02-.965 3.094-.168 1.075-.27 2.168-.602 3.204-.332 1.039-.973 2.05-1.898 2.632 1.058.703 1.632 2.059 1.41 3.309-.223 1.246-1.235 2.32-2.469 2.617-.066-.086-.426.004-.484.102-.055.093-.047.207-.04.32.098 1.117.2 2.234.481 3.316.102.387.23.778.496 1.079.293.335.715.52 1.125.69-.586.669-.781 1.677-.523 2.528.219.75.765 1.364 1.008 2.102.218.66.242 1.484.16 2.176-.145.41.015.879.289 1.222.27.34.637.59.98.864.504.406.965.87 1.367 1.382.243.317.47.664.54 1.055.074.512-.114 1.043-.391 1.492m0 0"/></g></g><g clip-path="url(#c)"><g clip-path="url(#d)"><path fill="#fff" d="M4.043 4.043h135.902v135.902H4.043Zm0 0"/></g></g><path fill-rule="evenodd" d="M52.742 88.68h38.684L72.12 69.969Zm0 0"/><path fill-rule="evenodd" d="m72.64 68.336 21.165 20.492c.668.52.222 1.336-.446 1.336h-5.644v32.746h8.613V44.203H47.914v78.707h8.613V90.164h-5.64c-.668 0-1.043-.816-.52-1.262l21.235-20.566a.717.717 0 0 1 1.039 0m-.519-20.941a8.73 8.73 0 0 1 8.762 8.761c0 4.828-3.934 8.688-8.762 8.688a8.65 8.65 0 0 1-8.687-8.688c0-4.75 3.863-8.761 8.687-8.761m0 0"/><path fill-rule="evenodd" d="M64.918 56.156c0 3.938 3.27 7.203 7.203 7.203 3.715 0 6.832-2.746 7.203-6.386h-7.203a.824.824 0 0 1-.816-.817v-7.203a7.237 7.237 0 0 0-6.387 7.203m0 0"/><path fill-rule="evenodd" d="M72.863 48.953v6.461h6.461a7.27 7.27 0 0 0-6.46-6.46M34.402 42.645h75.442V27.348H34.402Zm42.399-2.083a4.15 4.15 0 0 1-4.16-4.156v-2.672a4.15 4.15 0 0 1 4.16-4.16 4.15 4.15 0 0 1 4.156 4.16v2.672a4.15 4.15 0 0 1-4.156 4.157m10.765-.074c-2.3 0-4.16-1.855-4.16-4.156V33.66c0-2.305 1.86-4.16 4.16-4.16a4.15 4.15 0 0 1 4.157 4.16v2.672a4.15 4.15 0 0 1-4.157 4.156m7.426 0c-.445 0-.816-.37-.816-.742v-9.504c0-1.039 1.558-1.039 1.558 0v8.688h5.348c1.04 0 1.04 1.558 0 1.558Zm-24.8-10.172v9.504c0 .965-1.56.965-1.56 0v-4.008H63.73v4.008c0 .965-1.558.965-1.558 0v-9.504c0-1.039 1.558-1.039 1.558 0v3.938h4.903v-3.938c0-1.039 1.558-1.039 1.558 0m-10.989 6.016c1.559.52-.746 4.156-3.789 4.156-2.45 0-4.379-2.004-4.379-4.453v-2.152a4.34 4.34 0 0 1 4.38-4.383c2.003 0 3.714 1.262 4.308 3.117.222.969-1.192 1.414-1.489.446-.964-3.118-5.64-2.45-5.64.82v2.152c0 3.34 4.601 4.008 5.64.817.075-.372.524-.594.97-.52m-10.621.965c0 1.707-1.41 3.191-3.117 3.191-1.41 0-2.598-.965-3.043-2.3-.297-.965 1.187-1.41 1.484-.446.594 1.856 3.117 1.41 3.117-.445 0-.742-.742-1.484-1.558-1.484-1.633 0-3.117-1.41-3.117-3.122 0-3.71 5.27-4.304 6.086-.742.222.965-1.262 1.336-1.485.297-.148-.668-.742-1.113-1.484-1.113-2.078 0-2.078 3.12 0 3.12 1.707 0 3.117 1.411 3.117 3.044M47.914 21.406h48.414v4.383H47.914Zm0 0"/><path fill-rule="evenodd" d="M76.8 31.133c-1.487 0-2.6 1.113-2.6 2.601v2.672c0 1.485 1.112 2.598 2.6 2.598 1.41 0 2.598-1.188 2.598-2.598v-2.672c0-1.414-1.187-2.601-2.597-2.601M84.969 33.66v2.672c0 1.484 1.113 2.598 2.597 2.598 1.41 0 2.598-1.188 2.598-2.598V33.66c0-1.414-1.187-2.676-2.598-2.676-1.484 0-2.597 1.188-2.597 2.676m0 0"/><g clip-path="url(#e)"><path fill-rule="evenodd" d="M97.887 53.336h37.648v4.898H97.887Zm0 0"/></g><path fill-rule="evenodd" d="M128.332 59.797H97.887v63.113h30.445Zm-24.133 6.234h17.82c.446 0 .817.371.817.742v20.942a.824.824 0 0 1-.816.816H104.2c-.446 0-.743-.37-.743-.816V66.773c0-.37.297-.742.742-.742m0 28.219h17.82c.446 0 .817.371.817.816v20.864a.824.824 0 0 1-.816.816H104.2c-.446 0-.743-.371-.743-.816V95.066c0-.445.297-.816.742-.816m0 0"/><path fill-rule="evenodd" d="M113.852 67.594h7.425v8.91h-7.425ZM104.941 67.594h7.426v8.91h-7.426ZM104.941 78.063h7.426v8.91h-7.426ZM113.852 78.063h7.425v8.91h-7.425ZM113.852 95.809h7.425v8.91h-7.425ZM104.941 95.809h7.426v8.91h-7.426ZM104.941 106.277h7.426v8.91h-7.426ZM113.852 106.277h7.425v8.91h-7.425ZM72.863 90.164h13.293v32.746H72.863ZM58.086 90.164h13.219v32.746h-13.22ZM46.43 122.91V59.797H15.91v63.113Zm-5.57-27.844v20.864c0 .445-.372.816-.743.816H22.223c-.371 0-.743-.371-.743-.816V95.066c0-.445.372-.816.743-.816h17.894c.371 0 .742.371.742.816m0-28.293v20.942c0 .445-.372.816-.743.816H22.223c-.371 0-.743-.37-.743-.816V66.773c0-.37.372-.742.743-.742h17.894c.371 0 .742.371.742.742m0 0"/><path fill-rule="evenodd" d="M31.95 95.809h7.35v8.91h-7.35ZM23.04 95.809h7.35v8.91h-7.35ZM23.04 106.277h7.35v8.91h-7.35ZM31.95 106.277h7.35v8.91h-7.35ZM31.95 78.063h7.35v8.91h-7.35ZM23.04 78.063h7.35v8.91h-7.35ZM23.04 67.594h7.35v8.91h-7.35ZM31.95 67.594h7.35v8.91h-7.35Zm0 0"/><g clip-path="url(#f)"><path fill-rule="evenodd" d="M8.785 53.336H46.43v4.898H8.785Zm0 0"/></g></svg>